#VRML V2.0 utf8

NavigationInfo
{
  type "EXAMINE"
}

Background
{
  skyColor [ 0.1 0.1 0.1 ]
}

DirectionalLight
{
  direction 0 0 -1
}

Shape
{
  appearance Appearance
  {
    material Material
    {
      ambientIntensity 0.5
      diffuseColor 1 1 1
      specularColor 0.5 0.5 0.5
    }
  }
  geometry IndexedFaceSet
  {
    color Color
    {
      color
      [
        0 0 1,
        1 0 0,
        1 0 0.5,
        1 0.5 0.75,
        1 1 1
      ]
    }
    coord Coordinate
    {
      point
      [
        0.471831909061454 0.00438770601009 2.02671160855698,
        -0.428047180223415 0.438855619409484 1.98856377907467,
        -0.353164402899413 -0.558219731924609 1.97328917851564,
        1.07469191671596 0.559873426553959 1.45400275980164,
        0.634530932662923 1.4082416026595 1.15984337122324,
        -0.323027460169406 1.23065399293728 1.38687765319298,
        0.396951704599121 1.00146401244767 2.04193639494243,
        -1.15282846117904 0.674473238479017 1.34112541725145,
        -1.63923170619597 -0.135204068682394 1.01274371632272,
        -1.03228487997639 -0.872318136149976 1.30986053120093,
        -1.25304091726921 -0.123750862021413 1.93509153499273,
        -0.13629025092234 -1.31403523043923 1.35546352802084,
        0.834729431901573 -1.33620488370335 1.11749445010799,
        1.14208999982074 -0.437576804181616 1.43053926476475,
        0.546717259060743 -0.99268668773882 2.0113871938624,
        -1.20343005392874 1.445027045809 -0.890986806195117,
        -0.767471860807227 1.92966177816368 -0.132653350487316,
        -0.276850355636846 1.80638129615581 -0.995261292382275,
        -1.69956234425642 0.678096382427623 -0.48396087574398,
        -1.71319427397331 0.728765673958653 0.51466157212505,
        -1.01689968399278 1.42395931183509 0.693210304464338,
        -1.69403286065583 1.56826443080335 -0.028362071463228,
        -0.09354377794078 1.79479260413155 0.593728949007825,
        0.836620560276627 1.7253071095819 0.233220877037499,
        0.667592520514168 1.5948329339098 -0.743716178896376,
        0.159126533621727 2.29097293059755 -0.236911043578006,
        0.235219950073548 1.11803942816885 -1.50904088986148,
        -0.358327933315382 0.392376137438824 -1.85705482436897,
        -1.1998282185205 0.5519655933199 -1.34090709786881,
        -0.712789851536217 1.32170346709446 -1.75357795310613,
        -1.32858689284263 -1.15788684073633 -1.10650778526346,
        -0.566850714226523 -1.77834460063971 -0.919986573700228,
        -1.272617981926 -1.63066578336323 -0.2271059701531,
        -0.940157746455104 -0.378742237445352 -1.59850014841476,
        0.013325887616702 -0.535994232330912 -1.855678626639,
        0.244509447765072 -1.33636736616927 -1.30254481990965,
        -0.622793273141732 -1.30552766988844 -1.79936964159327,
        0.303069236083133 -1.81855357583265 -0.42843543865202,
        0.172361000441646 -1.83972939756406 0.562759265585995,
        -0.789877606076788 -1.58096534720563 0.647246130645373,
        -0.510855451447789 -2.25108555396552 -0.040566013561366,
        -1.55864722957947 -0.967957817964522 0.464996205890217,
        -1.92619767131605 -0.133302377508386 0.054804825561216,
        -1.63803393174086 -0.230141396671817 -0.897867134539165,
        -2.03432780678405 -1.01017003570306 -0.413608436223575,
        2.06018503770992 -0.291527911082766 -0.029217017098401,
        1.76236975525716 -0.590172796933449 -0.93592385488712,
        1.90263274046226 0.382504219132037 -0.750921915980265,
        1.56502817399556 -0.859227571536231 0.628458264357106,
        1.06533745369368 -1.60101304428724 0.181173683290706,
        1.09541769639711 -1.31824593860311 -0.777543137747666,
        1.91987442919844 -1.26420077336257 -0.214204681885937,
        0.943303003036686 -0.65071226677792 -1.50641892760726,
        0.630250145477692 0.249626356664557 -1.80872385894621,
        1.15456996553901 0.858450549445807 -1.21339048294993,
        1.60476983509527 0.083863485389377 -1.65761447785336,
        1.45971753042826 1.1639536202349 -0.311418844049579,
        1.44979617272986 1.07713112377291 0.684755548699766,
        1.69577215044061 0.115752607533533 0.808234967643221,
        2.20040039925952 0.681153256347425 0.155799195467308,
        0.021892364419019 0.221621662709787 2.00763769381582,
        -0.390605791561414 -0.059682056257562 1.98092647879515,
        0.05933375308102 -0.276916012957259 2.00000039353631,
        0.854611424689441 0.98405751460673 1.30692306551244,
        0.155751736246759 1.31944779779839 1.27336051220811,
        -0.737927960674221 0.952563615708148 1.36400153522221,
        -1.3960300836875 0.269634584898312 1.17693456678708,
        -1.33575829308618 -0.503761102416185 1.16130212376183,
        -0.584287565449363 -1.0931766832946 1.33266202961089,
        0.349219590489617 -1.32512005707129 1.23647898906442,
        0.988409715861158 -0.886890843942483 1.27401685743637,
        1.10839095826835 0.061148311186172 1.44227101228319,
        0.806960954441098 -0.216594549085763 1.72862543666087,
        0.773261912888706 0.282130566282025 1.74035718417931,
        -0.375537320196411 0.834754806173382 1.68772071613382,
        -0.790437820701226 0.556664428944251 1.66484459816306,
        -0.692724641437899 -0.715268934037292 1.64157485485829,
        -0.244727326910877 -0.93612748118192 1.66437635326824,
        0.434391806830288 0.502925859228878 2.03432400174971,
        0.73582181065754 0.780668719500813 1.74796957737203,
        0.515741318631022 1.20485280755358 1.60088988308284,
        0.036962122214858 1.11605900269247 1.71440702406771,
        -0.015547737812147 0.720159815928575 2.01525008700855,
        -0.840544048746314 0.157552378694036 1.9618276570337,
        -1.20293468922412 0.275361188228802 1.63810847612209,
        -1.44613631173259 -0.129477465351903 1.47391762565772,
        -1.1426628986228 -0.498034499085694 1.62247603309683,
        -0.803102660084313 -0.340985296973011 1.95419035675418,
        0.096776428080665 -0.775453209831715 1.99233818618902,
        0.205213504069201 -1.15336095908903 1.68342536094162,
        0.690723345481158 -1.16444578572109 1.5644408219852,
        0.844403629440743 -0.715131745960218 1.72096322931358,
        0.509274584061098 -0.494149490864365 2.01904940120969,
        -0.985450957367986 1.68734441198634 -0.511820078341216,
        -0.522161108222037 1.86802153715974 -0.563957321434796,
        -0.740140204782795 1.62570417098241 -0.943124049288696,
        -1.45149619909258 1.06156171411831 -0.687473840969549,
        -1.70637830911486 0.703431028193138 0.015350348190535,
        -1.36504697898304 1.07636249289687 0.603935938294694,
        -0.892185772400002 1.67681054499939 0.280278476988511,
        -1.44873145729229 1.50664573830618 -0.459674438829172,
        -1.69679760245612 1.12318040661549 -0.256161473603604,
        -1.70361356731457 1.148515052381 0.243149750330911,
        -1.3554662723243 1.49611187131922 0.332424116500555,
        -1.23075236073153 1.74896310448352 -0.080507710975272,
        -0.430507819374003 1.86222719114761 0.230537799260255,
        0.371538391167923 1.76004985685672 0.413474913022662,
        0.752106540395397 1.66007002174585 -0.255247650929439,
        0.195371082438661 1.70060711503281 -0.869488735639326,
        -0.30417266359275 2.11031735438062 -0.184782197032661,
        0.032791377840474 2.04288276736455 0.17840895271491,
        0.497873546949177 2.00814002008973 -0.001845083270253,
        0.413359527067947 1.94290293225368 -0.490313611237191,
        -0.05886191100756 2.04867711337668 -0.616086167980141,
        -0.020815202781649 1.46221036216233 -1.25215109112188,
        -0.061553991620918 0.755207782803837 -1.68304785711523,
        -0.779078075917941 0.472170865379362 -1.59898096111889,
        -1.20162913622462 0.998496319564452 -1.11594695203196,
        -0.494820103586532 1.56404238162513 -1.3744196227442,
        -0.238784950731335 1.21987144763165 -1.63130942148381,
        -0.5355588924258 0.857039802266639 -1.80531638873755,
        -0.956309035028359 0.936834530207178 -1.54724252548747,
        -0.958109952732481 1.38336525645173 -1.32228237965062,
        -0.555221730966778 1.60937595798332 0.643469626736082,
        0.451406235293858 1.35643618103933 -1.12637853437893,
        -1.44969528138846 0.615030987873762 -0.912433986806395,
        -0.947718803534575 -1.46811572068802 -1.01324717948184,
        -0.919734348076263 -1.70450519200147 -0.573546271926664,
        -1.30060243738432 -1.39427631204978 -0.66680687770828,
        -1.13437231964887 -0.768314539090841 -1.35250396683911,
        -0.463415929419201 -0.457368234888132 -1.72708938752688,
        0.128917667690887 -0.93618079925009 -1.57911172327432,
        -0.161170633230725 -1.55735598340449 -1.11126569680494,
        -0.97569008299218 -1.23170725531239 -1.45293871342836,
        -0.781475509798418 -0.842134953666898 -1.69893489500402,
        -0.304733692762515 -0.920760951109678 -1.82752413411613,
        -0.18914191268833 -1.32094751802886 -1.55095723075146,
        -0.594821993684127 -1.54193613526408 -1.35967810764675,
        -0.131890739071695 -1.79844908823618 -0.674211006176124,
        0.23771511826239 -1.82914148669836 0.067161913466988,
        -0.308758302817571 -1.71034737238485 0.605002698115684,
        -1.0312477940014 -1.60581556528443 0.210070080246137,
        -0.538853082837156 -2.01471507730261 -0.480276293630797,
        -0.103893107682328 -2.03481956489908 -0.234500726106693,
        -0.169247225503072 -2.04540747576479 0.261096626012315,
        -0.650366528762289 -1.91602545058557 0.303340058542004,
        -0.891736716686896 -1.94087566866438 -0.133835991857233,
        -1.41563260575273 -1.29931180066388 0.118945117868559,
        -1.74242245044776 -0.550630097736454 0.259900515725717,
        -1.78211580152845 -0.181721887090102 -0.421531154488975,
        -1.48331041229174 -0.694014118704074 -1.00218745990131,
        -1.65347289435503 -1.32041790953315 -0.320357203188337,
        -1.79648751818176 -0.989063926833792 0.025693884833321,
        -1.98026273905005 -0.571736206605724 -0.17940180533118,
        -1.83618086926245 -0.620155716187439 -0.65573778538137,
        -1.68145734981334 -1.0840284382197 -0.760058110743517,
        0.273789341924103 -1.57746047100096 -0.865490129280837,
        -1.17426241782813 -1.27446158258508 0.556121168267795,
        -1.28909583909798 -0.304441817058585 -1.24818364147696,
        1.91127739648354 -0.440850354008108 -0.482570435992761,
        1.83250124785971 -0.103834288900706 -0.843422885433693,
        1.98140888908609 0.045488154024636 -0.390069466539333,
        1.81260660585274 -0.575377741309499 0.299620623629352,
        1.31518281384462 -1.23012030791174 0.404815973823906,
        1.0803775750454 -1.45962949144518 -0.29818472722848,
        1.42889372582714 -0.954209367768279 -0.856733496317393,
        1.99002973345418 -0.777864342222671 -0.121710849492169,
        1.742451301597 -1.0617141724494 0.207126791235585,
        1.49260594144606 -1.43260690882491 -0.016515499297616,
        1.50764606279778 -1.29122335598284 -0.495873909816802,
        1.8411220922278 -0.927186785148012 -0.575064268386529,
        1.35283637914692 -0.620442531855684 -1.22117139124719,
        0.786776574257189 -0.200542955056681 -1.65757139327673,
        0.89241005550835 0.554038453055182 -1.51105717094807,
        1.52860135300063 0.620477384288922 -0.982156199465099,
        1.68356979517622 -0.253154655772036 -1.29676916637024,
        1.27403641906598 -0.283424390694271 -1.58201670273031,
        1.11750999028648 0.166744921026967 -1.73316916839978,
        1.37966990031714 0.471157017417592 -1.43550248040164,
        1.75370128777877 0.233183852260707 -1.20426819691681,
        1.68117513544526 0.77322891968347 -0.531170380014922,
        1.45475685157906 1.12054237200391 0.186668352325094,
        1.57278416158524 0.596441865653222 0.746495258171494,
        1.87797859407527 -0.087887651774617 0.38950897527241,
        2.05151656986089 0.531828737739731 -0.297561360256479,
        1.83005896484389 0.922553438291164 -0.077809824291136,
        1.82509828599469 0.879142190060168 0.420277372083537,
        1.94808627485007 0.398452931940479 0.482017081555264,
        2.13029271848472 0.194812672632329 0.063291089184453,
        1.0193603497169 -0.984479102690515 -1.14198103267746,
        1.30714374798363 1.01120208484035 -0.762404663499756,
        1.63040016221808 -0.371737482001349 0.718346616000164,
        0.735575746469775 1.5667743561207 0.696532124130369,
        0.270493577361072 1.60151710339553 0.876786160115533,
        -0.208285619055093 1.51272329853441 0.990303301100402,
        -0.669963572081091 1.32730665238619 1.04004397882866,
        -1.08486407258591 1.04921627515706 1.01716786085789,
        -1.43301136757617 0.701619456218835 0.927893494688248,
        -1.67621299008464 0.29678080263813 0.763702644223885,
        -1.78271468875601 -0.13425322309539 0.533774270941968,
        -1.59893946788772 -0.551580943323458 0.738869961106469,
        -1.29546605477793 -0.920137977057249 0.887428368545575,
        -0.911081243026587 -1.2266417416778 0.978553330923153,
        -0.463083928499564 -1.44750028882243 1.00135482933311,
        0.018035374759653 -1.57688231400165 0.95911139680342,
        0.50354521617161 -1.58796714063371 0.840126857846993,
        0.950033442797628 -1.4686089639953 0.649334066699348,
        1.19987880294857 -1.09771622761979 0.872976357232549,
        1.35355908690815 -0.648402187858924 1.02949876456093,
        1.41893107513068 -0.160912098324042 1.11938711620399,
        1.38523203357828 0.337813017043746 1.13111886372243,
        1.26224404472291 0.818502275163435 1.0693791542507,
        1.04216355269639 1.24268636321621 0.922299459961503,
        1.14320836650324 1.40121911667741 0.458988212868633,
        1.14816904535244 1.4446303649084 -0.03909898350604,
        1.06365502547121 1.37939327707235 -0.527567511472977,
        0.911081243026588 1.22664174167781 -0.978553330923154,
        0.694894957806278 0.988244988807329 -1.36121568640571,
        0.43273504777562 0.683832892416704 -1.65888237440385,
        0.135961106081155 0.32100124705169 -1.83288934165759,
        -1.81969597264468 0.297731648225134 0.284733198843133,
        -1.81288000778624 0.272397002459619 -0.214578025091382,
        -1.66879813799864 0.223977492877903 -0.690914005141573,
        -1.41893107513068 0.160912098324041 -1.11938711620399,
        -1.0699929824878 0.086611677937274 -1.46970362314179,
        -0.649242839885243 0.006816949996736 -1.72777748639187,
        -0.17250102284934 -0.071809047446044 -1.85636672550399,
        0.618849227067664 -1.72037122092565 0.37196647443835,
        0.684203344888408 -1.70978331005995 -0.123630877680657,
        0.699243466240123 -1.56839975721788 -0.602989288199843,
        0.669963572081093 -1.32730665238619 -1.04004397882866,
        0.593906225400879 -0.993539816473594 -1.40448187375845,
        0.478314445326694 -0.593353249554416 -1.68104877712313,
        0.321788016547197 -0.143183937833177 -1.83220124279261,
        -0.124185416222722 -0.046151683820017 2.40381785093,
        0.921000125015293 0.537797608848187 2.14385165009317,
        0.998421817041712 1.20583323457335 1.73134514444422,
        0.205842143406018 1.58620074694909 1.69328171342332,
        -0.297539570588837 1.12696751801924 2.08587656764406,
        0.125863471548896 0.473764075429991 2.4267011885154,
        -1.12228859950698 0.563382247799142 2.03878300420855,
        -1.69864089272483 0.290211140853232 1.57443086060478,
        -1.63028640481512 -0.586900118502588 1.55670204207943,
        -1.02102977173086 -0.787297949991061 2.01174719618602,
        -0.69916644577262 -0.088866279729408 2.37327658236733,
        -0.121023269475859 -1.22096227676975 2.05625190162071,
        0.4442459534257 -1.59117302228524 1.64901481786963,
        1.16915412789352 -1.09417545258245 1.6915866702103,
        0.997236435597438 -0.459088217681979 2.12231574891337,
        0.200749299144399 -0.523351890724186 2.41142596576152,
        -0.809465476772765 1.01895539347792 1.8543835451237,
        -0.652142874430769 -1.1804746194143 1.82028352974422,
        1.1716378836419 0.053755965618871 1.93819961567062,
        -0.90225077684463 2.07968849698774 -0.810389750152162,
        -1.86785645892323 1.33807857789153 -0.673962435314297,
        -2.11043202930312 0.997239609627939 -0.005072890467895,
        -1.7233267509312 1.42018273179031 0.662444470493306,
        -1.27530381169548 1.9890906849406 0.355787960927204,
        -1.37466418805789 2.00031297532403 -0.488076881036065,
        -0.351054674472523 2.35555007971066 0.248418665712405,
        0.412266128922556 2.25830620039978 0.422522978920924,
        0.84387004670324 2.14491865438334 -0.335878056730524,
        0.316378569758145 2.183326431189 -0.917854527500155,
        -0.448046746512495 2.36168194505774 -0.592355614735198,
        -0.122797178466878 1.70401018568353 -1.67774775696931,
        -0.161568965699837 1.03114399694651 -2.08783942160812,
        -0.975316008150015 0.710150654006625 -1.99249880589623,
        -1.37567147267156 1.2088294918892 -1.53483741712266,
        -0.884022697934379 1.87702747161486 -1.35071996036202,
        -0.746627653554692 2.0639178397642 0.561278079084462,
        0.341513870900788 1.79588112805285 -1.33806652835209,
        -1.70162376815698 0.996232152395554 -1.11545543818962,
        -1.27166176359094 -1.83315867282259 -0.904598195470038,
        -1.2525707447386 -0.984210445880677 -1.78772585247643,
        -0.614010317544367 -0.688277643484706 -2.14422506723648,
        0.057757673720268 -1.23130096028286 -1.97640298395104,
        -0.217092983105555 -1.81984729885055 -1.53313178942187,
        -1.05504470384018 -1.72477488685424 -1.42870743455621,
        -0.165338193371878 -2.29698919442117 -0.655798230016763,
        0.186421887595467 -2.3261996637736 0.049778786867296,
        -0.433335887667397 -2.19147476561522 0.659746253319312,
        -1.11787473522088 -2.0924337641358 0.285558500560823,
        -0.999073513088589 -2.19757308763617 -0.549269797934012,
        -1.88257136969601 -1.47659388149962 0.095723263039971,
        -2.19358273477111 -0.764060973227891 0.229872874522455,
        -2.23859912899918 -0.345680640192565 -0.542941611297012,
        -1.95548927164234 -0.831063387095945 -1.0930974308375,
        -1.76084072023007 -1.57709005403582 -0.735798607243427,
        0.088739427518101 -1.98931085090501 -1.08028257270289,
        -1.46398302035485 -1.66858892245645 0.452556635548024,
        -1.59406123686557 -0.622489129307262 -1.48449278928095,
        2.29809795665829 -0.200378140345135 -0.688829905307799,
        2.19942707864654 -0.891665740859042 0.317836637697554,
        1.72602052980578 -1.51479520071658 0.417952813260152,
        1.45972693380492 -1.77508251845654 -0.379323199965585,
        1.78993636538987 -1.29621090410928 -0.908532739149402,
        2.30384542034917 -0.749302163899787 -0.509916872923131,
        1.63868146735138 -0.621943133088626 -1.6314034399042,
        1.09995287620681 -0.222317677479401 -2.046732626393,
        1.21975224577928 0.633456229734466 -1.88057023866822,
        1.82252593719359 0.696405282937868 -1.37945116924669,
        2.14628670537371 -0.075242577692153 -1.23165116969812,
        2.12639181763874 0.99354597258584 -0.474227407691372,
        1.91090574704525 1.32408999856662 0.208951729216031,
        2.04476100925568 0.729705438768395 0.84385374698295,
        2.33392430871647 0.08132211288872 0.505619099046786,
        2.44411411902005 0.223414473145151 -0.324907398156068,
        1.46735370280936 -1.09356238233711 -1.33537905150526,
        1.77461202388483 1.0531824138179 -0.934773636940151,
        2.12404712138065 -0.427498988707162 0.66174861179995,
        1.45816797167121 -1.05629750038222 1.29908807304729,
        0.340954487667428 -1.82488698069599 1.24931293335463,
        -0.80602619038641 -1.54085641120229 1.35302973521371,
        -1.7170226399945 -0.826500316931766 1.13946414788408,
        -1.8256052845127 0.525435424025009 1.18250928992563,
        -1.01695765981081 1.36607341429267 1.39794374308103,
        0.066631237694059 1.81136080592378 1.28225597030456,
        1.2889200946179 1.22671111936499 1.35687511574866,
        1.60291401979864 0.092997280520313 1.50884867195266,
        -1.03984685850072 0.227535431095293 -1.94848510461785,
        0.208999354368513 0.735339095618897 -2.10305514543707,
        0.84589913781328 1.46186162614923 -1.41492805419343,
        1.21299974732495 1.8250515311674 -0.357024629442148,
        0.543438551112135 2.01474512553007 0.807912050126365,
        -0.590020118837481 1.81761057200395 1.09671064178799,
        -1.56972379777795 1.16650968926494 1.05112815964361,
        -2.17449037757021 0.52774744629543 0.017874316900589,
        -1.85476382748728 0.405958094186016 -1.1178798387636,
        -2.14358703429398 0.133477895445808 -0.562908822358705,
        -2.08456878240483 -0.522642497801451 0.62342848133249,
        -1.37929756914148 -1.40137224626877 0.99413289204842,
        -0.327027954833199 -1.92552405071711 1.05596302554718,
        0.621321189373953 -2.14683324254289 0.110960663161101,
        0.674467940359022 -1.82718727125178 -1.03009020823803,
        0.502242258797333 -1.0454532846445 -1.89325862141425,
        -0.541039686056361 -0.219796166449138 -2.16014142216377,
        -1.5486909306358 -0.019993577459866 -1.56708736901658,
        1.72526592112349 0.695284173841114 1.21230585392926,
        1.53461494036889 1.61219038287854 0.230313730749956,
        1.33942462171462 1.48036703132183 -0.9322345730687,
        0.831050847502744 0.926972836481476 -1.83840254398911,
        0.66084554402661 -0.393347307012192 -2.10138200321309,
        0.93250983828927 -1.35649671504485 -1.46456417663099,
        1.00085030128656 -1.93241721054423 -0.440125508533919,
        1.42660996900867 -1.53466239921128 0.785391989514527,
        1.80054073832444 -0.478961797246462 1.17611853582751,
        1.1892924558157 1.7144195432476 0.846004684751277,
        -2.14924332934362 0.187399053306368 0.644212347322196,
        0.843809315399323 -1.94498089879646 0.757898400125489,
        0.116141558128601 0.043162302242495 -2.24811543219896
      ]
    }
    colorIndex
    [
      0, 0, 0, 0, 0, 0,
      0, 1, 1, 1, 1, 0,
      0, 1, 1, 1, 1, 0,
      0, 1, 1, 1, 1, 0,
      0, 1, 1, 1, 1, 0,
      0, 1, 1, 1, 1, 0,
      0, 1, 1, 1, 1, 0,
      0, 1, 1, 1, 1, 0,
      0, 1, 1, 1, 1, 0,
      0, 1, 1, 1, 1, 0,
      0, 1, 1, 1, 1, 0,
      0, 1, 1, 1, 1, 0,
      0, 1, 1, 1, 1, 0,
      0, 1, 1, 1, 1, 0,
      0, 1, 1, 1, 1, 0,
      0, 1, 1, 1, 1, 0,
      0, 0, 0, 0, 0, 0,
      0, 0, 0, 0, 0, 0,
      0, 0, 0, 0, 0, 0,
      0, 0, 0, 0, 0, 0,
      0, 3, 3, 3, 3, 0,
      0, 3, 3, 3, 3, 0,
      0, 3, 3, 3, 3, 0,
      0, 3, 3, 3, 3, 0,
      0, 3, 3, 3, 3, 0,
      0, 3, 3, 3, 3, 0,
      0, 3, 3, 3, 3, 0,
      0, 3, 3, 3, 3, 0,
      0, 3, 3, 3, 3, 0,
      0, 3, 3, 3, 3, 0,
      0, 3, 3, 3, 3, 0,
      0, 3, 3, 3, 3, 0,
      0, 3, 3, 3, 3, 0,
      0, 3, 3, 3, 3, 0,
      0, 3, 3, 3, 3, 0,
      0, 0, 0, 0, 0, 0,
      0, 0, 0, 0, 0, 0,
      0, 0, 0, 0, 0, 0,
      0, 0, 0, 0, 0, 0,
      0, 2, 2, 2, 2, 0,
      0, 2, 2, 2, 2, 0,
      0, 2, 2, 2, 2, 0,
      0, 2, 2, 2, 2, 0,
      0, 2, 2, 2, 2, 0,
      0, 2, 2, 2, 2, 0,
      0, 2, 2, 2, 2, 0,
      0, 2, 2, 2, 2, 0,
      0, 2, 2, 2, 2, 0,
      0, 2, 2, 2, 2, 0,
      0, 2, 2, 2, 2, 0,
      0, 2, 2, 2, 2, 0,
      0, 2, 2, 2, 2, 0,
      0, 2, 2, 2, 2, 0,
      0, 2, 2, 2, 2, 0,
      0, 0, 0, 0, 0, 0,
      0, 0, 0, 0, 0, 0,
      0, 0, 0, 0, 0, 0,
      0, 0, 0, 0, 0, 0,
      0, 4, 4, 4, 4, 0,
      0, 4, 4, 4, 4, 0,
      0, 4, 4, 4, 4, 0,
      0, 4, 4, 4, 4, 0,
      0, 4, 4, 4, 4, 0,
      0, 4, 4, 4, 4, 0,
      0, 4, 4, 4, 4, 0,
      0, 4, 4, 4, 4, 0,
      0, 4, 4, 4, 4, 0,
      0, 4, 4, 4, 4, 0,
      0, 4, 4, 4, 4, 0,
      0, 4, 4, 4, 4, 0,
      0, 4, 4, 4, 4, 0,
      0, 4, 4, 4, 4, 0,
      0, 4, 4, 4, 4, 0,
      0, 0, 0, 0, 0, 0,
      0, 0, 0, 0, 0, 0,
      0, 0, 0, 0, 0, 0,
      0, 0, 0, 0, 0, 0,
      0, 0, 0, 0, 0, 0,
      0, 0, 0, 0, 0, 0,
      0, 0, 0, 0, 0, 0,
      0, 0, 0, 0, 0, 0,
      0, 0, 0, 0, 0, 0,
      0, 0, 0, 0, 0, 0,
      0, 0, 0, 0, 0, 0,
      0, 0, 0, 0, 0, 0,
      0, 0, 0, 0, 0, 0,
      0, 0, 0, 0, 0, 0,
      0, 0, 0, 0, 0, 0,
      0, 0, 0, 0, 0, 0,
      0, 0, 0, 0, 0, 0,
      0, 0, 0, 0, 0, 0,
      0, 0, 0, 0, 0, 0,
      0, 0, 0, 0, 0, 0,
      0, 0, 0, 0, 0, 0,
      0, 0, 0, 0, 0, 0,
      0, 0, 0, 0, 0, 0,
      0, 0, 0, 0, 0, 0,
      0, 0, 0, 0, 0, 0,
      0, 0, 0, 0, 0, 0,
      0, 0, 0, 0, 0, 0,
      0, 0, 0, 0, 0, 0,
      0, 0, 0, 0, 0, 0,
      0, 0, 0, 0, 0, 0,
      0, 0, 0, 0, 0, 0,
      0, 0, 0, 0, 0, 0,
      0, 0, 0, 0, 0, 0,
      0, 0, 0, 0, 0, 0,
      0, 0, 0, 0, 0, 0,
      0, 0, 0, 0, 0, 0,
      0, 0, 0, 0, 0, 0,
      0, 0, 0, 0, 0, 0,
      0, 0, 0, 0, 0, 0,
      0, 0, 0, 0, 0, 0,
      0, 0, 0, 0, 0, 0,
      0, 0, 0, 0, 0, 0,
      0, 0, 0, 0, 0, 0
    ]
    colorPerVertex FALSE
    convex FALSE
    coordIndex
    [
        0, 234, 60, -1, 1, 234, 60, -1, 1, 234, 61, -1, 2, 234, 61, -1, 2, 234, 62, -1, 0, 234, 62, -1,
        0, 235, 73, -1, 3, 235, 73, -1, 3, 235, 79, -1, 6, 235, 79, -1, 6, 235, 78, -1, 0, 235, 78, -1,
        3, 236, 63, -1, 4, 236, 63, -1, 4, 236, 80, -1, 6, 236, 80, -1, 6, 236, 79, -1, 3, 236, 79, -1,
        4, 237, 64, -1, 5, 237, 64, -1, 5, 237, 81, -1, 6, 237, 81, -1, 6, 237, 80, -1, 4, 237, 80, -1,
        5, 238, 74, -1, 1, 238, 74, -1, 1, 238, 82, -1, 6, 238, 82, -1, 6, 238, 81, -1, 5, 238, 81, -1,
        1, 239, 60, -1, 0, 239, 60, -1, 0, 239, 78, -1, 6, 239, 78, -1, 6, 239, 82, -1, 1, 239, 82, -1,
        1, 240, 75, -1, 7, 240, 75, -1, 7, 240, 84, -1, 10, 240, 84, -1, 10, 240, 83, -1, 1, 240, 83, -1,
        7, 241, 66, -1, 8, 241, 66, -1, 8, 241, 85, -1, 10, 241, 85, -1, 10, 241, 84, -1, 7, 241, 84, -1,
        8, 242, 67, -1, 9, 242, 67, -1, 9, 242, 86, -1, 10, 242, 86, -1, 10, 242, 85, -1, 8, 242, 85, -1,
        9, 243, 76, -1, 2, 243, 76, -1, 2, 243, 87, -1, 10, 243, 87, -1, 10, 243, 86, -1, 9, 243, 86, -1,
        2, 244, 61, -1, 1, 244, 61, -1, 1, 244, 83, -1, 10, 244, 83, -1, 10, 244, 87, -1, 2, 244, 87, -1,
        2, 245, 77, -1, 11, 245, 77, -1, 11, 245, 89, -1, 14, 245, 89, -1, 14, 245, 88, -1, 2, 245, 88, -1,
        11, 246, 69, -1, 12, 246, 69, -1, 12, 246, 90, -1, 14, 246, 90, -1, 14, 246, 89, -1, 11, 246, 89, -1,
        12, 247, 70, -1, 13, 247, 70, -1, 13, 247, 91, -1, 14, 247, 91, -1, 14, 247, 90, -1, 12, 247, 90, -1,
        13, 248, 72, -1, 0, 248, 72, -1, 0, 248, 92, -1, 14, 248, 92, -1, 14, 248, 91, -1, 13, 248, 91, -1,
        0, 249, 62, -1, 2, 249, 62, -1, 2, 249, 88, -1, 14, 249, 88, -1, 14, 249, 92, -1, 0, 249, 92, -1,
        5, 250, 65, -1, 7, 250, 65, -1, 7, 250, 75, -1, 1, 250, 75, -1, 1, 250, 74, -1, 5, 250, 74, -1,
        9, 251, 68, -1, 11, 251, 68, -1, 11, 251, 77, -1, 2, 251, 77, -1, 2, 251, 76, -1, 9, 251, 76, -1,
        13, 252, 71, -1, 3, 252, 71, -1, 3, 252, 73, -1, 0, 252, 73, -1, 0, 252, 72, -1, 13, 252, 72, -1,
        15, 253, 93, -1, 16, 253, 93, -1, 16, 253, 94, -1, 17, 253, 94, -1, 17, 253, 95, -1, 15, 253, 95, -1,
        15, 254, 96, -1, 18, 254, 96, -1, 18, 254, 101, -1, 21, 254, 101, -1, 21, 254, 100, -1, 15, 254, 100, -1,
        18, 255, 97, -1, 19, 255, 97, -1, 19, 255, 102, -1, 21, 255, 102, -1, 21, 255, 101, -1, 18, 255, 101, -1,
        19, 256, 98, -1, 20, 256, 98, -1, 20, 256, 103, -1, 21, 256, 103, -1, 21, 256, 102, -1, 19, 256, 102, -1,
        20, 257, 99, -1, 16, 257, 99, -1, 16, 257, 104, -1, 21, 257, 104, -1, 21, 257, 103, -1, 20, 257, 103, -1,
        16, 258, 93, -1, 15, 258, 93, -1, 15, 258, 100, -1, 21, 258, 100, -1, 21, 258, 104, -1, 16, 258, 104, -1,
        16, 259, 105, -1, 22, 259, 105, -1, 22, 259, 110, -1, 25, 259, 110, -1, 25, 259, 109, -1, 16, 259, 109, -1,
        22, 260, 106, -1, 23, 260, 106, -1, 23, 260, 111, -1, 25, 260, 111, -1, 25, 260, 110, -1, 22, 260, 110, -1,
        23, 261, 107, -1, 24, 261, 107, -1, 24, 261, 112, -1, 25, 261, 112, -1, 25, 261, 111, -1, 23, 261, 111, -1,
        24, 262, 108, -1, 17, 262, 108, -1, 17, 262, 113, -1, 25, 262, 113, -1, 25, 262, 112, -1, 24, 262, 112, -1,
        17, 263, 94, -1, 16, 263, 94, -1, 16, 263, 109, -1, 25, 263, 109, -1, 25, 263, 113, -1, 17, 263, 113, -1,
        17, 264, 114, -1, 26, 264, 114, -1, 26, 264, 119, -1, 29, 264, 119, -1, 29, 264, 118, -1, 17, 264, 118, -1,
        26, 265, 115, -1, 27, 265, 115, -1, 27, 265, 120, -1, 29, 265, 120, -1, 29, 265, 119, -1, 26, 265, 119, -1,
        27, 266, 116, -1, 28, 266, 116, -1, 28, 266, 121, -1, 29, 266, 121, -1, 29, 266, 120, -1, 27, 266, 120, -1,
        28, 267, 117, -1, 15, 267, 117, -1, 15, 267, 122, -1, 29, 267, 122, -1, 29, 267, 121, -1, 28, 267, 121, -1,
        15, 268, 95, -1, 17, 268, 95, -1, 17, 268, 118, -1, 29, 268, 118, -1, 29, 268, 122, -1, 15, 268, 122, -1,
        20, 269, 123, -1, 22, 269, 123, -1, 22, 269, 105, -1, 16, 269, 105, -1, 16, 269, 99, -1, 20, 269, 99, -1,
        24, 270, 124, -1, 26, 270, 124, -1, 26, 270, 114, -1, 17, 270, 114, -1, 17, 270, 108, -1, 24, 270, 108, -1,
        28, 271, 125, -1, 18, 271, 125, -1, 18, 271, 96, -1, 15, 271, 96, -1, 15, 271, 117, -1, 28, 271, 117, -1,
        30, 272, 126, -1, 31, 272, 126, -1, 31, 272, 127, -1, 32, 272, 127, -1, 32, 272, 128, -1, 30, 272, 128, -1,
        30, 273, 129, -1, 33, 273, 129, -1, 33, 273, 134, -1, 36, 273, 134, -1, 36, 273, 133, -1, 30, 273, 133, -1,
        33, 274, 130, -1, 34, 274, 130, -1, 34, 274, 135, -1, 36, 274, 135, -1, 36, 274, 134, -1, 33, 274, 134, -1,
        34, 275, 131, -1, 35, 275, 131, -1, 35, 275, 136, -1, 36, 275, 136, -1, 36, 275, 135, -1, 34, 275, 135, -1,
        35, 276, 132, -1, 31, 276, 132, -1, 31, 276, 137, -1, 36, 276, 137, -1, 36, 276, 136, -1, 35, 276, 136, -1,
        31, 277, 126, -1, 30, 277, 126, -1, 30, 277, 133, -1, 36, 277, 133, -1, 36, 277, 137, -1, 31, 277, 137, -1,
        31, 278, 138, -1, 37, 278, 138, -1, 37, 278, 143, -1, 40, 278, 143, -1, 40, 278, 142, -1, 31, 278, 142, -1,
        37, 279, 139, -1, 38, 279, 139, -1, 38, 279, 144, -1, 40, 279, 144, -1, 40, 279, 143, -1, 37, 279, 143, -1,
        38, 280, 140, -1, 39, 280, 140, -1, 39, 280, 145, -1, 40, 280, 145, -1, 40, 280, 144, -1, 38, 280, 144, -1,
        39, 281, 141, -1, 32, 281, 141, -1, 32, 281, 146, -1, 40, 281, 146, -1, 40, 281, 145, -1, 39, 281, 145, -1,
        32, 282, 127, -1, 31, 282, 127, -1, 31, 282, 142, -1, 40, 282, 142, -1, 40, 282, 146, -1, 32, 282, 146, -1,
        32, 283, 147, -1, 41, 283, 147, -1, 41, 283, 152, -1, 44, 283, 152, -1, 44, 283, 151, -1, 32, 283, 151, -1,
        41, 284, 148, -1, 42, 284, 148, -1, 42, 284, 153, -1, 44, 284, 153, -1, 44, 284, 152, -1, 41, 284, 152, -1,
        42, 285, 149, -1, 43, 285, 149, -1, 43, 285, 154, -1, 44, 285, 154, -1, 44, 285, 153, -1, 42, 285, 153, -1,
        43, 286, 150, -1, 30, 286, 150, -1, 30, 286, 155, -1, 44, 286, 155, -1, 44, 286, 154, -1, 43, 286, 154, -1,
        30, 287, 128, -1, 32, 287, 128, -1, 32, 287, 151, -1, 44, 287, 151, -1, 44, 287, 155, -1, 30, 287, 155, -1,
        35, 288, 156, -1, 37, 288, 156, -1, 37, 288, 138, -1, 31, 288, 138, -1, 31, 288, 132, -1, 35, 288, 132, -1,
        39, 289, 157, -1, 41, 289, 157, -1, 41, 289, 147, -1, 32, 289, 147, -1, 32, 289, 141, -1, 39, 289, 141, -1,
        43, 290, 158, -1, 33, 290, 158, -1, 33, 290, 129, -1, 30, 290, 129, -1, 30, 290, 150, -1, 43, 290, 150, -1,
        45, 291, 159, -1, 46, 291, 159, -1, 46, 291, 160, -1, 47, 291, 160, -1, 47, 291, 161, -1, 45, 291, 161, -1,
        45, 292, 162, -1, 48, 292, 162, -1, 48, 292, 167, -1, 51, 292, 167, -1, 51, 292, 166, -1, 45, 292, 166, -1,
        48, 293, 163, -1, 49, 293, 163, -1, 49, 293, 168, -1, 51, 293, 168, -1, 51, 293, 167, -1, 48, 293, 167, -1,
        49, 294, 164, -1, 50, 294, 164, -1, 50, 294, 169, -1, 51, 294, 169, -1, 51, 294, 168, -1, 49, 294, 168, -1,
        50, 295, 165, -1, 46, 295, 165, -1, 46, 295, 170, -1, 51, 295, 170, -1, 51, 295, 169, -1, 50, 295, 169, -1,
        46, 296, 159, -1, 45, 296, 159, -1, 45, 296, 166, -1, 51, 296, 166, -1, 51, 296, 170, -1, 46, 296, 170, -1,
        46, 297, 171, -1, 52, 297, 171, -1, 52, 297, 176, -1, 55, 297, 176, -1, 55, 297, 175, -1, 46, 297, 175, -1,
        52, 298, 172, -1, 53, 298, 172, -1, 53, 298, 177, -1, 55, 298, 177, -1, 55, 298, 176, -1, 52, 298, 176, -1,
        53, 299, 173, -1, 54, 299, 173, -1, 54, 299, 178, -1, 55, 299, 178, -1, 55, 299, 177, -1, 53, 299, 177, -1,
        54, 300, 174, -1, 47, 300, 174, -1, 47, 300, 179, -1, 55, 300, 179, -1, 55, 300, 178, -1, 54, 300, 178, -1,
        47, 301, 160, -1, 46, 301, 160, -1, 46, 301, 175, -1, 55, 301, 175, -1, 55, 301, 179, -1, 47, 301, 179, -1,
        47, 302, 180, -1, 56, 302, 180, -1, 56, 302, 185, -1, 59, 302, 185, -1, 59, 302, 184, -1, 47, 302, 184, -1,
        56, 303, 181, -1, 57, 303, 181, -1, 57, 303, 186, -1, 59, 303, 186, -1, 59, 303, 185, -1, 56, 303, 185, -1,
        57, 304, 182, -1, 58, 304, 182, -1, 58, 304, 187, -1, 59, 304, 187, -1, 59, 304, 186, -1, 57, 304, 186, -1,
        58, 305, 183, -1, 45, 305, 183, -1, 45, 305, 188, -1, 59, 305, 188, -1, 59, 305, 187, -1, 58, 305, 187, -1,
        45, 306, 161, -1, 47, 306, 161, -1, 47, 306, 184, -1, 59, 306, 184, -1, 59, 306, 188, -1, 45, 306, 188, -1,
        50, 307, 189, -1, 52, 307, 189, -1, 52, 307, 171, -1, 46, 307, 171, -1, 46, 307, 165, -1, 50, 307, 165, -1,
        54, 308, 190, -1, 56, 308, 190, -1, 56, 308, 180, -1, 47, 308, 180, -1, 47, 308, 174, -1, 54, 308, 174, -1,
        58, 309, 191, -1, 48, 309, 191, -1, 48, 309, 162, -1, 45, 309, 162, -1, 45, 309, 183, -1, 58, 309, 183, -1,
        13, 310, 70, -1, 12, 310, 70, -1, 12, 310, 207, -1, 48, 310, 207, -1, 48, 310, 208, -1, 13, 310, 208, -1,
        12, 311, 69, -1, 11, 311, 69, -1, 11, 311, 204, -1, 38, 311, 204, -1, 38, 311, 205, -1, 12, 311, 205, -1,
        11, 312, 68, -1, 9, 312, 68, -1, 9, 312, 202, -1, 39, 312, 202, -1, 39, 312, 203, -1, 11, 312, 203, -1,
        9, 313, 67, -1, 8, 313, 67, -1, 8, 313, 200, -1, 41, 313, 200, -1, 41, 313, 201, -1, 9, 313, 201, -1,
        8, 314, 66, -1, 7, 314, 66, -1, 7, 314, 197, -1, 19, 314, 197, -1, 19, 314, 198, -1, 8, 314, 198, -1,
        7, 315, 65, -1, 5, 315, 65, -1, 5, 315, 195, -1, 20, 315, 195, -1, 20, 315, 196, -1, 7, 315, 196, -1,
        5, 316, 64, -1, 4, 316, 64, -1, 4, 316, 193, -1, 22, 316, 193, -1, 22, 316, 194, -1, 5, 316, 194, -1,
        4, 317, 63, -1, 3, 317, 63, -1, 3, 317, 211, -1, 57, 317, 211, -1, 57, 317, 212, -1, 4, 317, 212, -1,
        3, 318, 71, -1, 13, 318, 71, -1, 13, 318, 209, -1, 58, 318, 209, -1, 58, 318, 210, -1, 3, 318, 210, -1,
        28, 319, 116, -1, 27, 319, 116, -1, 27, 319, 225, -1, 33, 319, 225, -1, 33, 319, 224, -1, 28, 319, 224, -1,
        27, 320, 115, -1, 26, 320, 115, -1, 26, 320, 218, -1, 53, 320, 218, -1, 53, 320, 219, -1, 27, 320, 219, -1,
        26, 321, 124, -1, 24, 321, 124, -1, 24, 321, 216, -1, 54, 321, 216, -1, 54, 321, 217, -1, 26, 321, 217, -1,
        24, 322, 107, -1, 23, 322, 107, -1, 23, 322, 214, -1, 56, 322, 214, -1, 56, 322, 215, -1, 24, 322, 215, -1,
        23, 323, 106, -1, 22, 323, 106, -1, 22, 323, 193, -1, 4, 323, 193, -1, 4, 323, 192, -1, 23, 323, 192, -1,
        22, 324, 123, -1, 20, 324, 123, -1, 20, 324, 195, -1, 5, 324, 195, -1, 5, 324, 194, -1, 22, 324, 194, -1,
        20, 325, 98, -1, 19, 325, 98, -1, 19, 325, 197, -1, 7, 325, 197, -1, 7, 325, 196, -1, 20, 325, 196, -1,
        19, 326, 97, -1, 18, 326, 97, -1, 18, 326, 221, -1, 42, 326, 221, -1, 42, 326, 220, -1, 19, 326, 220, -1,
        18, 327, 125, -1, 28, 327, 125, -1, 28, 327, 223, -1, 43, 327, 223, -1, 43, 327, 222, -1, 18, 327, 222, -1,
        43, 328, 149, -1, 42, 328, 149, -1, 42, 328, 221, -1, 18, 328, 221, -1, 18, 328, 222, -1, 43, 328, 222, -1,
        42, 329, 148, -1, 41, 329, 148, -1, 41, 329, 200, -1, 8, 329, 200, -1, 8, 329, 199, -1, 42, 329, 199, -1,
        41, 330, 157, -1, 39, 330, 157, -1, 39, 330, 202, -1, 9, 330, 202, -1, 9, 330, 201, -1, 41, 330, 201, -1,
        39, 331, 140, -1, 38, 331, 140, -1, 38, 331, 204, -1, 11, 331, 204, -1, 11, 331, 203, -1, 39, 331, 203, -1,
        38, 332, 139, -1, 37, 332, 139, -1, 37, 332, 228, -1, 49, 332, 228, -1, 49, 332, 227, -1, 38, 332, 227, -1,
        37, 333, 156, -1, 35, 333, 156, -1, 35, 333, 230, -1, 50, 333, 230, -1, 50, 333, 229, -1, 37, 333, 229, -1,
        35, 334, 131, -1, 34, 334, 131, -1, 34, 334, 232, -1, 52, 334, 232, -1, 52, 334, 231, -1, 35, 334, 231, -1,
        34, 335, 130, -1, 33, 335, 130, -1, 33, 335, 225, -1, 27, 335, 225, -1, 27, 335, 226, -1, 34, 335, 226, -1,
        33, 336, 158, -1, 43, 336, 158, -1, 43, 336, 223, -1, 28, 336, 223, -1, 28, 336, 224, -1, 33, 336, 224, -1,
        58, 337, 182, -1, 57, 337, 182, -1, 57, 337, 211, -1, 3, 337, 211, -1, 3, 337, 210, -1, 58, 337, 210, -1,
        57, 338, 181, -1, 56, 338, 181, -1, 56, 338, 214, -1, 23, 338, 214, -1, 23, 338, 213, -1, 57, 338, 213, -1,
        56, 339, 190, -1, 54, 339, 190, -1, 54, 339, 216, -1, 24, 339, 216, -1, 24, 339, 215, -1, 56, 339, 215, -1,
        54, 340, 173, -1, 53, 340, 173, -1, 53, 340, 218, -1, 26, 340, 218, -1, 26, 340, 217, -1, 54, 340, 217, -1,
        53, 341, 172, -1, 52, 341, 172, -1, 52, 341, 232, -1, 34, 341, 232, -1, 34, 341, 233, -1, 53, 341, 233, -1,
        52, 342, 189, -1, 50, 342, 189, -1, 50, 342, 230, -1, 35, 342, 230, -1, 35, 342, 231, -1, 52, 342, 231, -1,
        50, 343, 164, -1, 49, 343, 164, -1, 49, 343, 228, -1, 37, 343, 228, -1, 37, 343, 229, -1, 50, 343, 229, -1,
        49, 344, 163, -1, 48, 344, 163, -1, 48, 344, 207, -1, 12, 344, 207, -1, 12, 344, 206, -1, 49, 344, 206, -1,
        48, 345, 191, -1, 58, 345, 191, -1, 58, 345, 209, -1, 13, 345, 209, -1, 13, 345, 208, -1, 48, 345, 208, -1,
        4, 346, 212, -1, 57, 346, 212, -1, 57, 346, 213, -1, 23, 346, 213, -1, 23, 346, 192, -1, 4, 346, 192, -1,
        8, 347, 198, -1, 19, 347, 198, -1, 19, 347, 220, -1, 42, 347, 220, -1, 42, 347, 199, -1, 8, 347, 199, -1,
        12, 348, 205, -1, 38, 348, 205, -1, 38, 348, 227, -1, 49, 348, 227, -1, 49, 348, 206, -1, 12, 348, 206, -1,
        53, 349, 233, -1, 34, 349, 233, -1, 34, 349, 226, -1, 27, 349, 226, -1, 27, 349, 219, -1, 53, 349, 219, -1
    ]
    solid FALSE
  }
}
