#VRML V2.0 utf8

NavigationInfo
{
  type "EXAMINE"
}

Background
{
  skyColor [ 0.1 0.1 0.1 ]
}

DirectionalLight
{
  direction 0 0 -1
}

Shape
{
  appearance Appearance
  {
    material Material
    {
      ambientIntensity 0.5
      diffuseColor 1 1 1
      specularColor 0.5 0.5 0.5
    }
  }
  geometry IndexedFaceSet
  {
    color Color
    {
      color
      [
        0 0 1,
        1 0 0,
        0 1 0
      ]
    }
    coord Coordinate
    {
      point
      [
        0 1 4.85410196624968,
        0 1 -4.85410196624968,
        0 -1 4.85410196624968,
        0 -1 -4.85410196624968,
        4.85410196624968 0 1,
        -4.85410196624968 0 1,
        4.85410196624968 0 -1,
        -4.85410196624968 0 -1,
        1 4.85410196624968 0,
        1 -4.85410196624968 0,
        -1 4.85410196624968 0,
        -1 -4.85410196624968 0,
        1 3.61803398874989 3.23606797749979,
        1 3.61803398874989 -3.23606797749979,
        1 -3.61803398874989 3.23606797749979,
        1 -3.61803398874989 -3.23606797749979,
        -1 3.61803398874989 3.23606797749979,
        -1 3.61803398874989 -3.23606797749979,
        -1 -3.61803398874989 3.23606797749979,
        -1 -3.61803398874989 -3.23606797749979,
        3.23606797749979 1 3.61803398874989,
        -3.23606797749979 1 3.61803398874989,
        3.23606797749979 1 -3.61803398874989,
        -3.23606797749979 1 -3.61803398874989,
        3.23606797749979 -1 3.61803398874989,
        -3.23606797749979 -1 3.61803398874989,
        3.23606797749979 -1 -3.61803398874989,
        -3.23606797749979 -1 -3.61803398874989,
        3.61803398874989 3.23606797749979 1,
        3.61803398874989 -3.23606797749979 1,
        -3.61803398874989 3.23606797749979 1,
        -3.61803398874989 -3.23606797749979 1,
        3.61803398874989 3.23606797749979 -1,
        3.61803398874989 -3.23606797749979 -1,
        -3.61803398874989 3.23606797749979 -1,
        -3.61803398874989 -3.23606797749979 -1,
        1.61803398874989 2 4.23606797749979,
        1.61803398874989 2 -4.23606797749979,
        1.61803398874989 -2 4.23606797749979,
        1.61803398874989 -2 -4.23606797749979,
        -1.61803398874989 2 4.23606797749979,
        -1.61803398874989 2 -4.23606797749979,
        -1.61803398874989 -2 4.23606797749979,
        -1.61803398874989 -2 -4.23606797749979,
        4.23606797749979 1.61803398874989 2,
        -4.23606797749979 1.61803398874989 2,
        4.23606797749979 1.61803398874989 -2,
        -4.23606797749979 1.61803398874989 -2,
        4.23606797749979 -1.61803398874989 2,
        -4.23606797749979 -1.61803398874989 2,
        4.23606797749979 -1.61803398874989 -2,
        -4.23606797749979 -1.61803398874989 -2,
        2 4.23606797749979 1.61803398874989,
        2 -4.23606797749979 1.61803398874989,
        -2 4.23606797749979 1.61803398874989,
        -2 -4.23606797749979 1.61803398874989,
        2 4.23606797749979 -1.61803398874989,
        2 -4.23606797749979 -1.61803398874989,
        -2 4.23606797749979 -1.61803398874989,
        -2 -4.23606797749979 -1.61803398874989,
        -1.76842359285043 0 -4.62979307258964,
        1.76842359285043 0 -4.62979307258964,
        -2.86136947973921 -2.86136947973921 -2.86136947973921,
        -2.86136947973921 2.86136947973921 -2.86136947973921,
        2.86136947973921 -2.86136947973921 -2.86136947973921,
        2.86136947973921 2.86136947973921 -2.86136947973921,
        0 -4.62979307258964 -1.76842359285043,
        0 4.62979307258964 -1.76842359285043,
        -4.62979307258964 -1.76842359285043 0,
        -4.62979307258964 1.76842359285043 0,
        4.62979307258964 -1.76842359285043 0,
        4.62979307258964 1.76842359285043 0,
        0 -4.62979307258964 1.76842359285043,
        0 4.62979307258964 1.76842359285043,
        -2.86136947973921 -2.86136947973921 2.86136947973921,
        -2.86136947973921 2.86136947973921 2.86136947973921,
        2.86136947973921 -2.86136947973921 2.86136947973921,
        2.86136947973921 2.86136947973921 2.86136947973921,
        -1.76842359285043 0 4.62979307258964,
        1.76842359285043 0 4.62979307258964,
        0 2.05146222423827 6.55540358295376,
        0 2.05146222423827 -6.55540358295376,
        0 -2.05146222423827 6.55540358295377,
        0 -2.05146222423827 -6.55540358295377,
        6.55540358295376 0 2.05146222423827,
        -6.55540358295376 0 2.05146222423827,
        6.55540358295377 0 -2.05146222423827,
        -6.55540358295377 0 -2.05146222423827,
        2.05146222423827 6.55540358295376 0,
        2.05146222423827 -6.55540358295376 0,
        -2.05146222423827 6.55540358295377 0,
        -2.05146222423827 -6.55540358295377 0,
        1 4.66949621298816 4.93736959420387,
        1 4.66949621298816 -4.93736959420387,
        1 -4.66949621298816 4.93736959420387,
        1 -4.66949621298816 -4.93736959420387,
        -1 4.66949621298816 4.93736959420387,
        -1 4.66949621298816 -4.93736959420387,
        -1 -4.66949621298816 4.93736959420387,
        -1 -4.66949621298816 -4.93736959420387,
        4.93736959420387 1 4.66949621298816,
        -4.93736959420387 1 4.66949621298816,
        4.93736959420387 1 -4.66949621298816,
        -4.93736959420387 1 -4.66949621298816,
        4.93736959420387 -1 4.66949621298816,
        -4.93736959420387 -1 4.66949621298816,
        4.93736959420387 -1 -4.66949621298816,
        -4.93736959420387 -1 -4.66949621298816,
        4.66949621298816 4.93736959420387 1,
        4.66949621298816 -4.93736959420387 1,
        -4.66949621298816 4.93736959420387 1,
        -4.66949621298816 -4.93736959420387 1,
        4.66949621298816 4.93736959420387 -1,
        4.66949621298816 -4.93736959420387 -1,
        -4.66949621298816 4.93736959420387 -1,
        -4.66949621298816 -4.93736959420387 -1,
        1.6180339887499 3.05146222423827 5.93736959420387,
        1.6180339887499 3.05146222423827 -5.93736959420387,
        1.6180339887499 -3.05146222423827 5.93736959420387,
        1.6180339887499 -3.05146222423827 -5.93736959420387,
        -1.61803398874989 3.05146222423827 5.93736959420387,
        -1.61803398874989 3.05146222423827 -5.93736959420387,
        -1.61803398874989 -3.05146222423827 5.93736959420387,
        -1.61803398874989 -3.05146222423827 -5.93736959420387,
        5.93736959420387 1.6180339887499 3.05146222423827,
        -5.93736959420387 1.6180339887499 3.05146222423827,
        5.93736959420387 1.6180339887499 -3.05146222423827,
        -5.93736959420387 1.6180339887499 -3.05146222423827,
        5.93736959420387 -1.61803398874989 3.05146222423827,
        -5.93736959420387 -1.61803398874989 3.05146222423827,
        5.93736959420387 -1.61803398874989 -3.05146222423827,
        -5.93736959420387 -1.61803398874989 -3.05146222423827,
        3.05146222423827 5.93736959420387 1.6180339887499,
        3.05146222423827 -5.93736959420387 1.6180339887499,
        -3.05146222423827 5.93736959420387 1.6180339887499,
        -3.05146222423827 -5.93736959420387 1.6180339887499,
        3.05146222423827 5.93736959420387 -1.61803398874989,
        3.05146222423827 -5.93736959420387 -1.61803398874989,
        -3.05146222423827 5.93736959420387 -1.61803398874989,
        -3.05146222423827 -5.93736959420387 -1.61803398874989,
        -0.244821395741352 1 -6.83906102985459,
        -0.468822783804827 1.41532141405115 -6.7535001131415,
        -0.468822783804827 -1.41532141405115 -6.7535001131415,
        -4.37689492549505 1 -5.26074938550243,
        -4.15289353743157 1.41532141405115 -5.34631030221552,
        -4.15289353743157 -1.41532141405115 -5.34631030221552,
        0.244821395741352 1 -6.83906102985459,
        0.468822783804828 1.41532141405115 -6.7535001131415,
        0.468822783804828 -1.41532141405115 -6.7535001131415,
        4.37689492549505 1 -5.26074938550243,
        4.15289353743157 1.41532141405115 -5.34631030221552,
        4.15289353743157 -1.41532141405115 -5.34631030221552,
        -1.75857119889656 -4.7919266016976 -4.66664334058678,
        -1.81145075353385 -5.10148890647417 -4.30420148117292,
        -4.30420148117292 -1.81145075353385 -5.10148890647417,
        -4.66664334058678 -1.75857119889656 -4.7919266016976,
        -5.10148890647417 -4.30420148117292 -1.81145075353385,
        -4.7919266016976 -4.66664334058678 -1.75857119889656,
        -1.75857119889655 4.7919266016976 -4.66664334058677,
        -1.81145075353385 5.10148890647417 -4.30420148117291,
        -4.30420148117292 1.81145075353385 -5.10148890647417,
        -4.66664334058678 1.75857119889656 -4.7919266016976,
        -5.10148890647417 4.30420148117292 -1.81145075353385,
        -4.7919266016976 4.66664334058678 -1.75857119889656,
        1.75857119889656 -4.7919266016976 -4.66664334058678,
        1.81145075353385 -5.10148890647417 -4.30420148117292,
        4.30420148117292 -1.81145075353385 -5.10148890647417,
        4.66664334058678 -1.75857119889656 -4.7919266016976,
        5.10148890647417 -4.30420148117291 -1.81145075353385,
        4.7919266016976 -4.66664334058677 -1.75857119889655,
        1.75857119889656 4.7919266016976 -4.66664334058677,
        1.81145075353385 5.10148890647417 -4.30420148117291,
        4.30420148117292 1.81145075353385 -5.10148890647417,
        4.66664334058678 1.75857119889656 -4.7919266016976,
        5.10148890647417 4.30420148117291 -1.81145075353385,
        4.7919266016976 4.66664334058677 -1.75857119889655,
        1 -6.83906102985459 -0.244821395741352,
        1.41532141405115 -6.7535001131415 -0.468822783804827,
        -1.41532141405115 -6.7535001131415 -0.468822783804827,
        1 -5.26074938550243 -4.37689492549505,
        1.41532141405115 -5.34631030221552 -4.15289353743157,
        -1.41532141405115 -5.34631030221552 -4.15289353743157,
        1 6.83906102985459 -0.244821395741352,
        1.41532141405115 6.7535001131415 -0.468822783804827,
        -1.41532141405115 6.7535001131415 -0.468822783804827,
        1 5.26074938550243 -4.37689492549505,
        1.41532141405115 5.34631030221552 -4.15289353743157,
        -1.41532141405115 5.34631030221552 -4.15289353743157,
        -6.83906102985459 -0.244821395741352 1,
        -6.7535001131415 -0.468822783804827 1.41532141405115,
        -6.7535001131415 -0.468822783804827 -1.41532141405115,
        -5.26074938550243 -4.37689492549505 1,
        -5.34631030221552 -4.15289353743157 1.41532141405115,
        -5.34631030221552 -4.15289353743157 -1.41532141405115,
        -6.83906102985459 0.244821395741352 1,
        -6.7535001131415 0.468822783804828 1.41532141405115,
        -6.7535001131415 0.468822783804828 -1.41532141405115,
        -5.26074938550243 4.37689492549505 1,
        -5.34631030221552 4.15289353743157 1.41532141405115,
        -5.34631030221552 4.15289353743157 -1.41532141405115,
        6.83906102985459 -0.244821395741352 1,
        6.7535001131415 -0.468822783804827 1.41532141405115,
        6.7535001131415 -0.468822783804827 -1.41532141405115,
        5.26074938550243 -4.37689492549505 1,
        5.34631030221552 -4.15289353743157 1.41532141405115,
        5.34631030221552 -4.15289353743157 -1.41532141405115,
        6.83906102985459 0.244821395741352 1,
        6.7535001131415 0.468822783804828 1.41532141405115,
        6.7535001131415 0.468822783804828 -1.41532141405115,
        5.26074938550243 4.37689492549505 1,
        5.34631030221552 4.15289353743157 1.41532141405115,
        5.34631030221552 4.15289353743157 -1.41532141405115,
        1 -6.83906102985459 0.244821395741352,
        1.41532141405115 -6.7535001131415 0.468822783804828,
        -1.41532141405115 -6.7535001131415 0.468822783804828,
        1 -5.26074938550243 4.37689492549505,
        1.41532141405115 -5.34631030221552 4.15289353743157,
        -1.41532141405115 -5.34631030221552 4.15289353743157,
        1 6.83906102985459 0.244821395741352,
        1.41532141405115 6.7535001131415 0.468822783804828,
        -1.41532141405115 6.7535001131415 0.468822783804828,
        1 5.26074938550243 4.37689492549505,
        1.41532141405115 5.34631030221552 4.15289353743157,
        -1.41532141405115 5.34631030221552 4.15289353743157,
        -1.75857119889656 -4.7919266016976 4.66664334058678,
        -1.81145075353385 -5.10148890647417 4.30420148117292,
        -4.30420148117291 -1.81145075353385 5.10148890647417,
        -4.66664334058677 -1.75857119889655 4.7919266016976,
        -5.10148890647417 -4.30420148117292 1.81145075353385,
        -4.7919266016976 -4.66664334058678 1.75857119889656,
        -1.75857119889655 4.7919266016976 4.66664334058677,
        -1.81145075353385 5.10148890647417 4.30420148117291,
        -4.30420148117291 1.81145075353385 5.10148890647417,
        -4.66664334058677 1.75857119889656 4.7919266016976,
        -5.10148890647417 4.30420148117292 1.81145075353385,
        -4.7919266016976 4.66664334058678 1.75857119889656,
        1.75857119889656 -4.7919266016976 4.66664334058678,
        1.81145075353385 -5.10148890647417 4.30420148117292,
        4.30420148117291 -1.81145075353385 5.10148890647417,
        4.66664334058677 -1.75857119889655 4.7919266016976,
        5.10148890647417 -4.30420148117291 1.81145075353385,
        4.7919266016976 -4.66664334058677 1.75857119889656,
        1.75857119889656 4.7919266016976 4.66664334058677,
        1.81145075353385 5.10148890647417 4.30420148117291,
        4.30420148117291 1.81145075353385 5.10148890647417,
        4.66664334058677 1.75857119889656 4.7919266016976,
        5.10148890647417 4.30420148117291 1.81145075353385,
        4.7919266016976 4.66664334058677 1.75857119889656,
        -0.244821395741352 1 6.83906102985459,
        -0.468822783804827 1.41532141405115 6.7535001131415,
        -0.468822783804827 -1.41532141405115 6.7535001131415,
        -4.37689492549505 1 5.26074938550243,
        -4.15289353743157 1.41532141405115 5.34631030221552,
        -4.15289353743157 -1.41532141405115 5.34631030221552,
        0.244821395741352 1 6.83906102985459,
        0.468822783804828 1.41532141405115 6.7535001131415,
        0.468822783804828 -1.41532141405115 6.7535001131415,
        4.37689492549505 1 5.26074938550243,
        4.15289353743157 1.41532141405115 5.34631030221552,
        4.15289353743157 -1.41532141405115 5.34631030221552,
        -0.244821395741352 -1 -6.83906102985459,
        -2.08685677255472 2.41532141405115 -6.1354661243916,
        -2.08685677255472 -2.41532141405115 -6.1354661243916,
        -4.37689492549505 -1 -5.26074938550243,
        -2.53485954868167 2.41532141405115 -5.96434429096542,
        -2.53485954868167 -2.41532141405115 -5.96434429096542,
        0.244821395741352 -1 -6.83906102985459,
        2.08685677255472 2.41532141405115 -6.1354661243916,
        2.08685677255472 -2.41532141405115 -6.1354661243916,
        4.37689492549505 -1 -5.26074938550243,
        2.53485954868168 2.41532141405115 -5.96434429096541,
        2.53485954868168 -2.41532141405115 -5.96434429096541,
        -2.37660518764645 -3.1738926129477 -5.66664334058678,
        -2.81145075353385 -5.71952289522407 -2.68616749242301,
        -2.68616749242301 -2.81145075353385 -5.71952289522407,
        -5.66664334058678 -2.37660518764645 -3.17389261294771,
        -5.71952289522407 -2.68616749242301 -2.81145075353385,
        -3.17389261294771 -5.66664334058678 -2.37660518764645,
        -2.37660518764645 3.17389261294771 -5.66664334058678,
        -2.81145075353385 5.71952289522407 -2.68616749242301,
        -2.68616749242301 2.81145075353385 -5.71952289522407,
        -5.66664334058677 2.37660518764645 -3.1738926129477,
        -5.71952289522406 2.68616749242302 -2.81145075353385,
        -3.17389261294771 5.66664334058678 -2.37660518764645,
        2.37660518764645 -3.1738926129477 -5.66664334058677,
        2.81145075353385 -5.71952289522407 -2.68616749242301,
        2.68616749242302 -2.81145075353385 -5.71952289522406,
        5.66664334058678 -2.37660518764645 -3.17389261294771,
        5.71952289522407 -2.68616749242301 -2.81145075353385,
        3.17389261294771 -5.66664334058678 -2.37660518764645,
        2.37660518764645 3.1738926129477 -5.66664334058677,
        2.81145075353385 5.71952289522407 -2.68616749242301,
        2.68616749242302 2.81145075353385 -5.71952289522406,
        5.66664334058677 2.37660518764645 -3.1738926129477,
        5.71952289522406 2.68616749242302 -2.81145075353385,
        3.17389261294771 5.66664334058678 -2.37660518764645,
        -1 -6.83906102985459 -0.244821395741352,
        2.41532141405115 -6.1354661243916 -2.08685677255472,
        -2.41532141405115 -6.1354661243916 -2.08685677255472,
        -1 -5.26074938550243 -4.37689492549505,
        2.41532141405115 -5.96434429096542 -2.53485954868167,
        -2.41532141405115 -5.96434429096542 -2.53485954868167,
        -1 6.83906102985459 -0.244821395741352,
        2.41532141405115 6.1354661243916 -2.08685677255472,
        -2.41532141405115 6.1354661243916 -2.08685677255472,
        -1 5.26074938550243 -4.37689492549505,
        2.41532141405115 5.96434429096542 -2.53485954868167,
        -2.41532141405115 5.96434429096542 -2.53485954868167,
        -6.83906102985459 -0.244821395741352 -1,
        -6.1354661243916 -2.08685677255472 2.41532141405115,
        -6.1354661243916 -2.08685677255472 -2.41532141405115,
        -5.26074938550243 -4.37689492549505 -1,
        -5.96434429096542 -2.53485954868167 2.41532141405115,
        -5.96434429096542 -2.53485954868167 -2.41532141405115,
        -6.83906102985459 0.244821395741352 -1,
        -6.1354661243916 2.08685677255472 2.41532141405115,
        -6.1354661243916 2.08685677255472 -2.41532141405115,
        -5.26074938550243 4.37689492549505 -1,
        -5.96434429096541 2.53485954868168 2.41532141405115,
        -5.96434429096541 2.53485954868168 -2.41532141405115,
        6.83906102985459 -0.244821395741352 -1,
        6.1354661243916 -2.08685677255472 2.41532141405115,
        6.1354661243916 -2.08685677255472 -2.41532141405115,
        5.26074938550243 -4.37689492549505 -1,
        5.96434429096542 -2.53485954868167 2.41532141405115,
        5.96434429096542 -2.53485954868167 -2.41532141405115,
        6.83906102985459 0.244821395741352 -1,
        6.1354661243916 2.08685677255472 2.41532141405115,
        6.1354661243916 2.08685677255472 -2.41532141405115,
        5.26074938550243 4.37689492549505 -1,
        5.96434429096541 2.53485954868167 2.41532141405115,
        5.96434429096541 2.53485954868167 -2.41532141405115,
        -1 -6.83906102985459 0.244821395741352,
        2.41532141405115 -6.1354661243916 2.08685677255472,
        -2.41532141405115 -6.1354661243916 2.08685677255472,
        -1 -5.26074938550243 4.37689492549505,
        2.41532141405115 -5.96434429096541 2.53485954868168,
        -2.41532141405115 -5.96434429096541 2.53485954868168,
        -1 6.83906102985459 0.244821395741352,
        2.41532141405115 6.1354661243916 2.08685677255472,
        -2.41532141405115 6.1354661243916 2.08685677255472,
        -1 5.26074938550243 4.37689492549505,
        2.41532141405115 5.96434429096541 2.53485954868167,
        -2.41532141405115 5.96434429096541 2.53485954868167,
        -2.37660518764645 -3.1738926129477 5.66664334058678,
        -2.81145075353385 -5.71952289522406 2.68616749242302,
        -2.68616749242301 -2.81145075353385 5.71952289522407,
        -5.66664334058678 -2.37660518764645 3.17389261294771,
        -5.71952289522407 -2.68616749242301 2.81145075353385,
        -3.1738926129477 -5.66664334058677 2.37660518764645,
        -2.37660518764645 3.17389261294771 5.66664334058678,
        -2.81145075353385 5.71952289522406 2.68616749242302,
        -2.68616749242301 2.81145075353385 5.71952289522407,
        -5.66664334058677 2.37660518764645 3.1738926129477,
        -5.71952289522406 2.68616749242302 2.81145075353385,
        -3.1738926129477 5.66664334058677 2.37660518764645,
        2.37660518764645 -3.1738926129477 5.66664334058677,
        2.81145075353385 -5.71952289522406 2.68616749242302,
        2.68616749242302 -2.81145075353385 5.71952289522406,
        5.66664334058678 -2.37660518764645 3.17389261294771,
        5.71952289522407 -2.68616749242301 2.81145075353385,
        3.1738926129477 -5.66664334058677 2.37660518764645,
        2.37660518764645 3.1738926129477 5.66664334058677,
        2.81145075353385 5.71952289522406 2.68616749242302,
        2.68616749242302 2.81145075353385 5.71952289522406,
        5.66664334058677 2.37660518764645 3.1738926129477,
        5.71952289522406 2.68616749242302 2.81145075353385,
        3.1738926129477 5.66664334058677 2.37660518764645,
        -0.244821395741352 -1 6.83906102985459,
        -2.08685677255472 2.41532141405115 6.1354661243916,
        -2.08685677255472 -2.41532141405115 6.1354661243916,
        -4.37689492549505 -1 5.26074938550243,
        -2.53485954868167 2.41532141405115 5.96434429096542,
        -2.53485954868167 -2.41532141405115 5.96434429096542,
        0.244821395741352 -1 6.83906102985459,
        2.08685677255472 2.41532141405115 6.1354661243916,
        2.08685677255472 -2.41532141405115 6.1354661243916,
        4.37689492549505 -1 5.26074938550243,
        2.53485954868167 2.41532141405115 5.96434429096541,
        2.53485954868167 -2.41532141405115 5.96434429096541,
        -2.01324498859179 0 -6.61475213619454,
        -2.23724637665526 0.41532141405115 -6.52919121948145,
        -2.23724637665526 -0.41532141405115 -6.52919121948145,
        -2.90925054084569 0 -6.27250846934217,
        -2.68524915278221 0.41532141405115 -6.35806938605527,
        -2.68524915278221 -0.41532141405115 -6.35806938605527,
        2.01324498859179 0 -6.61475213619454,
        2.23724637665526 0.415321414051149 -6.52919121948145,
        2.23724637665526 -0.415321414051149 -6.52919121948145,
        2.90925054084569 0 -6.27250846934217,
        2.68524915278221 0.415321414051149 -6.35806938605527,
        2.68524915278221 -0.415321414051149 -6.35806938605527,
        -3.61994067863576 -4.03526209268691 -4.29194484282619,
        -3.67282023327305 -4.34482439746348 -3.92950298341233,
        -3.92950298341233 -3.67282023327305 -4.34482439746348,
        -4.29194484282619 -3.61994067863576 -4.03526209268691,
        -4.34482439746348 -3.92950298341233 -3.67282023327305,
        -4.03526209268691 -4.29194484282619 -3.61994067863576,
        -3.61994067863576 4.03526209268691 -4.29194484282619,
        -3.67282023327305 4.34482439746348 -3.92950298341233,
        -3.92950298341233 3.67282023327305 -4.34482439746348,
        -4.29194484282619 3.61994067863576 -4.03526209268691,
        -4.34482439746348 3.92950298341233 -3.67282023327305,
        -4.03526209268691 4.29194484282619 -3.61994067863576,
        3.61994067863576 -4.03526209268691 -4.29194484282619,
        3.67282023327305 -4.34482439746348 -3.92950298341233,
        3.92950298341233 -3.67282023327305 -4.34482439746348,
        4.29194484282619 -3.61994067863576 -4.03526209268691,
        4.34482439746348 -3.92950298341233 -3.67282023327305,
        4.03526209268691 -4.29194484282619 -3.61994067863576,
        3.61994067863576 4.03526209268691 -4.29194484282619,
        3.67282023327305 4.34482439746348 -3.92950298341233,
        3.92950298341233 3.67282023327305 -4.34482439746348,
        4.29194484282619 3.61994067863576 -4.03526209268691,
        4.34482439746348 3.92950298341233 -3.67282023327305,
        4.03526209268691 4.29194484282619 -3.61994067863576,
        0 -6.61475213619454 -2.01324498859179,
        0.41532141405115 -6.52919121948145 -2.23724637665526,
        -0.41532141405115 -6.52919121948145 -2.23724637665526,
        0 -6.27250846934217 -2.90925054084569,
        0.41532141405115 -6.35806938605527 -2.68524915278221,
        -0.41532141405115 -6.35806938605527 -2.68524915278221,
        0 6.61475213619454 -2.01324498859179,
        0.415321414051149 6.52919121948145 -2.23724637665526,
        -0.415321414051149 6.52919121948145 -2.23724637665526,
        0 6.27250846934217 -2.90925054084569,
        0.415321414051149 6.35806938605527 -2.68524915278221,
        -0.415321414051149 6.35806938605527 -2.68524915278221,
        -6.61475213619454 -2.01324498859179 0,
        -6.52919121948145 -2.23724637665526 0.41532141405115,
        -6.52919121948145 -2.23724637665526 -0.41532141405115,
        -6.27250846934217 -2.90925054084569 0,
        -6.35806938605527 -2.68524915278221 0.41532141405115,
        -6.35806938605527 -2.68524915278221 -0.41532141405115,
        -6.61475213619454 2.01324498859179 0,
        -6.52919121948145 2.23724637665526 0.415321414051149,
        -6.52919121948145 2.23724637665526 -0.415321414051149,
        -6.27250846934217 2.90925054084569 0,
        -6.35806938605527 2.68524915278221 0.415321414051149,
        -6.35806938605527 2.68524915278221 -0.415321414051149,
        6.61475213619454 -2.01324498859179 0,
        6.52919121948145 -2.23724637665526 0.415321414051149,
        6.52919121948145 -2.23724637665526 -0.415321414051149,
        6.27250846934217 -2.90925054084569 0,
        6.35806938605527 -2.68524915278221 0.415321414051149,
        6.35806938605527 -2.68524915278221 -0.415321414051149,
        6.61475213619454 2.01324498859179 0,
        6.52919121948145 2.23724637665526 0.415321414051149,
        6.52919121948145 2.23724637665526 -0.415321414051149,
        6.27250846934217 2.90925054084569 0,
        6.35806938605527 2.68524915278221 0.415321414051149,
        6.35806938605527 2.68524915278221 -0.415321414051149,
        0 -6.61475213619454 2.01324498859179,
        0.415321414051149 -6.52919121948145 2.23724637665526,
        -0.415321414051149 -6.52919121948145 2.23724637665526,
        0 -6.27250846934217 2.90925054084569,
        0.415321414051149 -6.35806938605527 2.68524915278221,
        -0.415321414051149 -6.35806938605527 2.68524915278221,
        0 6.61475213619454 2.01324498859179,
        0.415321414051149 6.52919121948145 2.23724637665526,
        -0.415321414051149 6.52919121948145 2.23724637665526,
        0 6.27250846934217 2.90925054084569,
        0.415321414051149 6.35806938605527 2.68524915278221,
        -0.415321414051149 6.35806938605527 2.68524915278221,
        -3.61994067863576 -4.03526209268691 4.29194484282619,
        -3.67282023327305 -4.34482439746348 3.92950298341233,
        -3.92950298341233 -3.67282023327305 4.34482439746348,
        -4.29194484282619 -3.61994067863576 4.03526209268691,
        -4.34482439746348 -3.92950298341233 3.67282023327305,
        -4.03526209268691 -4.29194484282619 3.61994067863576,
        -3.61994067863576 4.03526209268691 4.29194484282619,
        -3.67282023327305 4.34482439746348 3.92950298341233,
        -3.92950298341233 3.67282023327305 4.34482439746348,
        -4.29194484282619 3.61994067863576 4.03526209268691,
        -4.34482439746348 3.92950298341233 3.67282023327305,
        -4.03526209268691 4.29194484282619 3.61994067863576,
        3.61994067863576 -4.03526209268691 4.29194484282619,
        3.67282023327305 -4.34482439746348 3.92950298341233,
        3.92950298341233 -3.67282023327305 4.34482439746348,
        4.29194484282619 -3.61994067863576 4.03526209268691,
        4.34482439746348 -3.92950298341233 3.67282023327305,
        4.03526209268691 -4.29194484282619 3.61994067863576,
        3.61994067863576 4.03526209268691 4.29194484282619,
        3.67282023327305 4.34482439746348 3.92950298341233,
        3.92950298341233 3.67282023327305 4.34482439746348,
        4.29194484282619 3.61994067863576 4.03526209268691,
        4.34482439746348 3.92950298341233 3.67282023327305,
        4.03526209268691 4.29194484282619 3.61994067863576,
        -2.01324498859179 0 6.61475213619454,
        -2.23724637665526 0.415321414051149 6.52919121948145,
        -2.23724637665526 -0.415321414051149 6.52919121948145,
        -2.90925054084569 0 6.27250846934217,
        -2.68524915278221 0.415321414051149 6.35806938605527,
        -2.68524915278221 -0.415321414051149 6.35806938605527,
        2.01324498859179 0 6.61475213619454,
        2.23724637665526 0.415321414051149 6.52919121948145,
        2.23724637665526 -0.415321414051149 6.52919121948145,
        2.90925054084569 0 6.27250846934217,
        2.68524915278221 0.415321414051149 6.35806938605527,
        2.68524915278221 -0.415321414051149 6.35806938605527
      ]
    }
    colorIndex
    [
      0,
      1,
      1,
      1,
      0,
      1,
      0,
      1,
      1,
      0,
      1,
      0,
      0,
      0,
      0,
      1,
      0,
      1,
      0,
      0,
      1,
      0,
      1,
      0,
      0,
      0,
      0,
      1,
      0,
      1,
      1,
      0,
      0,
      1,
      1,
      0,
      0,
      0,
      1,
      0,
      0,
      0,
      1,
      0,
      0,
      1,
      0,
      0,
      0,
      0,
      1,
      1,
      0,
      0,
      1,
      0,
      1,
      1,
      1,
      1,
      2,
      0,
      1,
      0,
      0,
      0,
      2,
      1,
      1,
      1,
      0,
      1,
      0,
      1,
      0,
      0,
      0,
      0,
      0,
      0,
      0,
      0,
      1,
      0,
      1,
      1,
      1,
      1,
      1,
      1,
      0,
      1,
      0,
      0,
      0,
      0,
      2,
      1,
      1,
      1,
      1,
      1,
      2,
      1,
      1,
      0,
      1,
      0,
      2,
      0,
      0,
      0,
      0,
      0,
      2,
      1,
      1,
      1,
      1,
      1,
      2,
      0,
      1,
      1,
      1,
      1,
      2,
      0,
      0,
      0,
      0,
      0,
      2,
      0,
      0,
      0,
      0,
      0,
      2,
      1,
      1,
      0,
      0,
      0,
      1,
      0,
      1,
      0,
      0,
      0,
      0,
      0,
      0,
      1,
      1,
      1,
      0,
      0,
      0,
      0,
      1,
      0,
      0,
      0,
      0,
      0,
      0,
      1,
      2,
      0,
      1,
      1,
      0,
      1,
      2,
      0,
      1,
      0,
      0,
      0,
      1,
      0,
      0,
      0,
      0,
      0,
      1,
      1,
      1,
      1,
      1,
      1,
      0,
      1,
      0,
      0,
      0,
      1,
      0,
      0,
      0,
      0,
      0,
      0,
      1,
      1,
      1,
      1,
      1,
      1,
      0,
      0,
      0,
      0,
      0,
      0,
      1,
      1,
      1,
      1,
      1,
      1,
      1,
      1,
      1,
      0,
      1,
      1,
      0,
      0,
      0,
      0,
      0,
      0,
      1,
      1,
      1,
      1,
      1,
      1,
      1,
      1,
      1,
      1,
      1,
      1,
      0,
      0,
      0,
      0,
      0,
      0,
      1,
      0,
      0,
      0,
      0,
      0,
      1,
      1,
      1,
      0,
      1,
      1,
      1,
      0,
      1,
      0,
      0,
      0,
      0,
      0,
      0,
      1,
      1,
      0,
      0,
      0,
      0,
      0,
      0,
      0,
      0,
      0,
      0,
      0,
      0,
      0,
      1,
      1,
      1,
      1,
      1,
      1,
      1,
      0,
      0,
      0,
      0,
      0,
      1,
      0,
      0,
      0,
      0,
      0,
      1,
      1,
      1,
      1,
      1,
      1,
      0,
      1,
      0,
      0,
      0,
      1,
      0,
      0,
      0,
      0,
      0,
      0,
      1,
      1,
      1,
      1,
      1,
      1,
      0,
      0,
      0,
      0,
      0,
      0,
      1,
      1,
      1,
      1,
      1,
      1,
      1,
      1,
      1,
      0,
      1,
      1,
      0,
      0,
      0,
      0,
      0,
      0,
      1,
      1,
      1,
      1,
      1,
      1,
      1,
      1,
      1,
      1,
      1,
      1,
      0,
      0,
      0,
      0,
      0,
      0,
      1,
      0,
      0,
      0,
      0,
      0,
      1,
      1,
      1,
      0,
      1,
      1,
      1,
      0,
      1,
      0,
      0,
      0,
      0,
      0,
      0,
      1,
      1,
      0,
      0,
      0,
      0,
      0,
      0,
      0,
      0,
      0,
      0,
      0,
      0,
      0,
      1,
      1,
      1,
      1,
      1,
      1,
      1,
      0,
      0,
      0,
      0,
      0
    ]
    colorPerVertex FALSE
    coordIndex
    [
        0, 36, 116, 80, -1,
        1, 37, 117, 81, -1,
        2, 38, 118, 82, -1,
        3, 39, 119, 83, -1,
        4, 44, 124, 84, -1,
        5, 45, 125, 85, -1,
        6, 46, 126, 86, -1,
        7, 47, 127, 87, -1,
        8, 52, 132, 88, -1,
        9, 53, 133, 89, -1,
        10, 54, 134, 90, -1,
        11, 55, 135, 91, -1,
        36, 12, 92, 116, -1,
        37, 13, 93, 117, -1,
        38, 14, 94, 118, -1,
        39, 15, 95, 119, -1,
        44, 20, 100, 124, -1,
        45, 21, 101, 125, -1,
        46, 22, 102, 126, -1,
        47, 23, 103, 127, -1,
        52, 28, 108, 132, -1,
        53, 29, 109, 133, -1,
        54, 30, 110, 134, -1,
        55, 31, 111, 135, -1,
        12, 16, 96, 92, -1,
        13, 17, 97, 93, -1,
        14, 18, 98, 94, -1,
        15, 19, 99, 95, -1,
        20, 24, 104, 100, -1,
        21, 25, 105, 101, -1,
        22, 26, 106, 102, -1,
        23, 27, 107, 103, -1,
        28, 32, 112, 108, -1,
        29, 33, 113, 109, -1,
        30, 34, 114, 110, -1,
        31, 35, 115, 111, -1,
        16, 40, 120, 96, -1,
        17, 41, 121, 97, -1,
        18, 42, 122, 98, -1,
        19, 43, 123, 99, -1,
        24, 48, 128, 104, -1,
        25, 49, 129, 105, -1,
        26, 50, 130, 106, -1,
        27, 51, 131, 107, -1,
        32, 56, 136, 112, -1,
        33, 57, 137, 113, -1,
        34, 58, 138, 114, -1,
        35, 59, 139, 115, -1,
        40, 0, 80, 120, -1,
        41, 1, 81, 121, -1,
        42, 2, 82, 122, -1,
        43, 3, 83, 123, -1,
        48, 4, 84, 128, -1,
        49, 5, 85, 129, -1,
        50, 6, 86, 130, -1,
        51, 7, 87, 131, -1,
        56, 8, 88, 136, -1,
        57, 9, 89, 137, -1,
        58, 10, 90, 138, -1,
        59, 11, 91, 139, -1,
        1, 3, 260, 140, -1,
        1, 41, 261, 141, -1,
        3, 43, 262, 142, -1,
        23, 27, 263, 143, -1,
        23, 41, 264, 144, -1,
        27, 43, 265, 145, -1,
        1, 3, 266, 146, -1,
        1, 37, 267, 147, -1,
        3, 39, 268, 148, -1,
        22, 26, 269, 149, -1,
        22, 37, 270, 150, -1,
        26, 39, 271, 151, -1,
        19, 43, 272, 152, -1,
        19, 59, 273, 153, -1,
        27, 43, 274, 154, -1,
        27, 51, 275, 155, -1,
        35, 51, 276, 156, -1,
        35, 59, 277, 157, -1,
        17, 41, 278, 158, -1,
        17, 58, 279, 159, -1,
        23, 41, 280, 160, -1,
        23, 47, 281, 161, -1,
        34, 47, 282, 162, -1,
        34, 58, 283, 163, -1,
        15, 39, 284, 164, -1,
        15, 57, 285, 165, -1,
        26, 39, 286, 166, -1,
        26, 50, 287, 167, -1,
        33, 50, 288, 168, -1,
        33, 57, 289, 169, -1,
        13, 37, 290, 170, -1,
        13, 56, 291, 171, -1,
        22, 37, 292, 172, -1,
        22, 46, 293, 173, -1,
        32, 46, 294, 174, -1,
        32, 56, 295, 175, -1,
        9, 11, 296, 176, -1,
        9, 57, 297, 177, -1,
        11, 59, 298, 178, -1,
        15, 19, 299, 179, -1,
        15, 57, 300, 180, -1,
        19, 59, 301, 181, -1,
        8, 10, 302, 182, -1,
        8, 56, 303, 183, -1,
        10, 58, 304, 184, -1,
        13, 17, 305, 185, -1,
        13, 56, 306, 186, -1,
        17, 58, 307, 187, -1,
        5, 7, 308, 188, -1,
        5, 49, 309, 189, -1,
        7, 51, 310, 190, -1,
        31, 35, 311, 191, -1,
        31, 49, 312, 192, -1,
        35, 51, 313, 193, -1,
        5, 7, 314, 194, -1,
        5, 45, 315, 195, -1,
        7, 47, 316, 196, -1,
        30, 34, 317, 197, -1,
        30, 45, 318, 198, -1,
        34, 47, 319, 199, -1,
        4, 6, 320, 200, -1,
        4, 48, 321, 201, -1,
        6, 50, 322, 202, -1,
        29, 33, 323, 203, -1,
        29, 48, 324, 204, -1,
        33, 50, 325, 205, -1,
        4, 6, 326, 206, -1,
        4, 44, 327, 207, -1,
        6, 46, 328, 208, -1,
        28, 32, 329, 209, -1,
        28, 44, 330, 210, -1,
        32, 46, 331, 211, -1,
        9, 11, 332, 212, -1,
        9, 53, 333, 213, -1,
        11, 55, 334, 214, -1,
        14, 18, 335, 215, -1,
        14, 53, 336, 216, -1,
        18, 55, 337, 217, -1,
        8, 10, 338, 218, -1,
        8, 52, 339, 219, -1,
        10, 54, 340, 220, -1,
        12, 16, 341, 221, -1,
        12, 52, 342, 222, -1,
        16, 54, 343, 223, -1,
        18, 42, 344, 224, -1,
        18, 55, 345, 225, -1,
        25, 42, 346, 226, -1,
        25, 49, 347, 227, -1,
        31, 49, 348, 228, -1,
        31, 55, 349, 229, -1,
        16, 40, 350, 230, -1,
        16, 54, 351, 231, -1,
        21, 40, 352, 232, -1,
        21, 45, 353, 233, -1,
        30, 45, 354, 234, -1,
        30, 54, 355, 235, -1,
        14, 38, 356, 236, -1,
        14, 53, 357, 237, -1,
        24, 38, 358, 238, -1,
        24, 48, 359, 239, -1,
        29, 48, 360, 240, -1,
        29, 53, 361, 241, -1,
        12, 36, 362, 242, -1,
        12, 52, 363, 243, -1,
        20, 36, 364, 244, -1,
        20, 44, 365, 245, -1,
        28, 44, 366, 246, -1,
        28, 52, 367, 247, -1,
        0, 2, 368, 248, -1,
        0, 40, 369, 249, -1,
        2, 42, 370, 250, -1,
        21, 25, 371, 251, -1,
        21, 40, 372, 252, -1,
        25, 42, 373, 253, -1,
        0, 2, 374, 254, -1,
        0, 36, 375, 255, -1,
        2, 38, 376, 256, -1,
        20, 24, 377, 257, -1,
        20, 36, 378, 258, -1,
        24, 38, 379, 259, -1,
        3, 60, 380, 260, -1,
        41, 60, 381, 261, -1,
        43, 60, 382, 262, -1,
        27, 60, 383, 263, -1,
        41, 60, 384, 264, -1,
        43, 60, 385, 265, -1,
        3, 61, 386, 266, -1,
        37, 61, 387, 267, -1,
        39, 61, 388, 268, -1,
        26, 61, 389, 269, -1,
        37, 61, 390, 270, -1,
        39, 61, 391, 271, -1,
        43, 62, 392, 272, -1,
        59, 62, 393, 273, -1,
        43, 62, 394, 274, -1,
        51, 62, 395, 275, -1,
        51, 62, 396, 276, -1,
        59, 62, 397, 277, -1,
        41, 63, 398, 278, -1,
        58, 63, 399, 279, -1,
        41, 63, 400, 280, -1,
        47, 63, 401, 281, -1,
        47, 63, 402, 282, -1,
        58, 63, 403, 283, -1,
        39, 64, 404, 284, -1,
        57, 64, 405, 285, -1,
        39, 64, 406, 286, -1,
        50, 64, 407, 287, -1,
        50, 64, 408, 288, -1,
        57, 64, 409, 289, -1,
        37, 65, 410, 290, -1,
        56, 65, 411, 291, -1,
        37, 65, 412, 292, -1,
        46, 65, 413, 293, -1,
        46, 65, 414, 294, -1,
        56, 65, 415, 295, -1,
        11, 66, 416, 296, -1,
        57, 66, 417, 297, -1,
        59, 66, 418, 298, -1,
        19, 66, 419, 299, -1,
        57, 66, 420, 300, -1,
        59, 66, 421, 301, -1,
        10, 67, 422, 302, -1,
        56, 67, 423, 303, -1,
        58, 67, 424, 304, -1,
        17, 67, 425, 305, -1,
        56, 67, 426, 306, -1,
        58, 67, 427, 307, -1,
        7, 68, 428, 308, -1,
        49, 68, 429, 309, -1,
        51, 68, 430, 310, -1,
        35, 68, 431, 311, -1,
        49, 68, 432, 312, -1,
        51, 68, 433, 313, -1,
        7, 69, 434, 314, -1,
        45, 69, 435, 315, -1,
        47, 69, 436, 316, -1,
        34, 69, 437, 317, -1,
        45, 69, 438, 318, -1,
        47, 69, 439, 319, -1,
        6, 70, 440, 320, -1,
        48, 70, 441, 321, -1,
        50, 70, 442, 322, -1,
        33, 70, 443, 323, -1,
        48, 70, 444, 324, -1,
        50, 70, 445, 325, -1,
        6, 71, 446, 326, -1,
        44, 71, 447, 327, -1,
        46, 71, 448, 328, -1,
        32, 71, 449, 329, -1,
        44, 71, 450, 330, -1,
        46, 71, 451, 331, -1,
        11, 72, 452, 332, -1,
        53, 72, 453, 333, -1,
        55, 72, 454, 334, -1,
        18, 72, 455, 335, -1,
        53, 72, 456, 336, -1,
        55, 72, 457, 337, -1,
        10, 73, 458, 338, -1,
        52, 73, 459, 339, -1,
        54, 73, 460, 340, -1,
        16, 73, 461, 341, -1,
        52, 73, 462, 342, -1,
        54, 73, 463, 343, -1,
        42, 74, 464, 344, -1,
        55, 74, 465, 345, -1,
        42, 74, 466, 346, -1,
        49, 74, 467, 347, -1,
        49, 74, 468, 348, -1,
        55, 74, 469, 349, -1,
        40, 75, 470, 350, -1,
        54, 75, 471, 351, -1,
        40, 75, 472, 352, -1,
        45, 75, 473, 353, -1,
        45, 75, 474, 354, -1,
        54, 75, 475, 355, -1,
        38, 76, 476, 356, -1,
        53, 76, 477, 357, -1,
        38, 76, 478, 358, -1,
        48, 76, 479, 359, -1,
        48, 76, 480, 360, -1,
        53, 76, 481, 361, -1,
        36, 77, 482, 362, -1,
        52, 77, 483, 363, -1,
        36, 77, 484, 364, -1,
        44, 77, 485, 365, -1,
        44, 77, 486, 366, -1,
        52, 77, 487, 367, -1,
        2, 78, 488, 368, -1,
        40, 78, 489, 369, -1,
        42, 78, 490, 370, -1,
        25, 78, 491, 371, -1,
        40, 78, 492, 372, -1,
        42, 78, 493, 373, -1,
        2, 79, 494, 374, -1,
        36, 79, 495, 375, -1,
        38, 79, 496, 376, -1,
        24, 79, 497, 377, -1,
        36, 79, 498, 378, -1,
        38, 79, 499, 379, -1,
        60, 1, 140, 380, -1,
        60, 1, 141, 381, -1,
        60, 3, 142, 382, -1,
        60, 23, 143, 383, -1,
        60, 23, 144, 384, -1,
        60, 27, 145, 385, -1,
        61, 1, 146, 386, -1,
        61, 1, 147, 387, -1,
        61, 3, 148, 388, -1,
        61, 22, 149, 389, -1,
        61, 22, 150, 390, -1,
        61, 26, 151, 391, -1,
        62, 19, 152, 392, -1,
        62, 19, 153, 393, -1,
        62, 27, 154, 394, -1,
        62, 27, 155, 395, -1,
        62, 35, 156, 396, -1,
        62, 35, 157, 397, -1,
        63, 17, 158, 398, -1,
        63, 17, 159, 399, -1,
        63, 23, 160, 400, -1,
        63, 23, 161, 401, -1,
        63, 34, 162, 402, -1,
        63, 34, 163, 403, -1,
        64, 15, 164, 404, -1,
        64, 15, 165, 405, -1,
        64, 26, 166, 406, -1,
        64, 26, 167, 407, -1,
        64, 33, 168, 408, -1,
        64, 33, 169, 409, -1,
        65, 13, 170, 410, -1,
        65, 13, 171, 411, -1,
        65, 22, 172, 412, -1,
        65, 22, 173, 413, -1,
        65, 32, 174, 414, -1,
        65, 32, 175, 415, -1,
        66, 9, 176, 416, -1,
        66, 9, 177, 417, -1,
        66, 11, 178, 418, -1,
        66, 15, 179, 419, -1,
        66, 15, 180, 420, -1,
        66, 19, 181, 421, -1,
        67, 8, 182, 422, -1,
        67, 8, 183, 423, -1,
        67, 10, 184, 424, -1,
        67, 13, 185, 425, -1,
        67, 13, 186, 426, -1,
        67, 17, 187, 427, -1,
        68, 5, 188, 428, -1,
        68, 5, 189, 429, -1,
        68, 7, 190, 430, -1,
        68, 31, 191, 431, -1,
        68, 31, 192, 432, -1,
        68, 35, 193, 433, -1,
        69, 5, 194, 434, -1,
        69, 5, 195, 435, -1,
        69, 7, 196, 436, -1,
        69, 30, 197, 437, -1,
        69, 30, 198, 438, -1,
        69, 34, 199, 439, -1,
        70, 4, 200, 440, -1,
        70, 4, 201, 441, -1,
        70, 6, 202, 442, -1,
        70, 29, 203, 443, -1,
        70, 29, 204, 444, -1,
        70, 33, 205, 445, -1,
        71, 4, 206, 446, -1,
        71, 4, 207, 447, -1,
        71, 6, 208, 448, -1,
        71, 28, 209, 449, -1,
        71, 28, 210, 450, -1,
        71, 32, 211, 451, -1,
        72, 9, 212, 452, -1,
        72, 9, 213, 453, -1,
        72, 11, 214, 454, -1,
        72, 14, 215, 455, -1,
        72, 14, 216, 456, -1,
        72, 18, 217, 457, -1,
        73, 8, 218, 458, -1,
        73, 8, 219, 459, -1,
        73, 10, 220, 460, -1,
        73, 12, 221, 461, -1,
        73, 12, 222, 462, -1,
        73, 16, 223, 463, -1,
        74, 18, 224, 464, -1,
        74, 18, 225, 465, -1,
        74, 25, 226, 466, -1,
        74, 25, 227, 467, -1,
        74, 31, 228, 468, -1,
        74, 31, 229, 469, -1,
        75, 16, 230, 470, -1,
        75, 16, 231, 471, -1,
        75, 21, 232, 472, -1,
        75, 21, 233, 473, -1,
        75, 30, 234, 474, -1,
        75, 30, 235, 475, -1,
        76, 14, 236, 476, -1,
        76, 14, 237, 477, -1,
        76, 24, 238, 478, -1,
        76, 24, 239, 479, -1,
        76, 29, 240, 480, -1,
        76, 29, 241, 481, -1,
        77, 12, 242, 482, -1,
        77, 12, 243, 483, -1,
        77, 20, 244, 484, -1,
        77, 20, 245, 485, -1,
        77, 28, 246, 486, -1,
        77, 28, 247, 487, -1,
        78, 0, 248, 488, -1,
        78, 0, 249, 489, -1,
        78, 2, 250, 490, -1,
        78, 21, 251, 491, -1,
        78, 21, 252, 492, -1,
        78, 25, 253, 493, -1,
        79, 0, 254, 494, -1,
        79, 0, 255, 495, -1,
        79, 2, 256, 496, -1,
        79, 20, 257, 497, -1,
        79, 20, 258, 498, -1,
        79, 24, 259, 499, -1
    ]
    solid FALSE
  }
}
