#VRML V2.0 utf8

NavigationInfo
{
  type "EXAMINE"
}

Background
{
  skyColor [ 0.1 0.1 0.1 ]
}

DirectionalLight
{
  direction 0 0 -1
}

Shape
{
  appearance Appearance
  {
    material Material
    {
      ambientIntensity 0.5
      diffuseColor 1 1 1
      specularColor 0.5 0.5 0.5
    }
  }
  geometry IndexedFaceSet
  {
    color Color
    {
      color
      [
        1 0 0,
        0 1 0,
        0 0 1,
        1 1 0,
        1 0 1,
        0 1 1,
        1 1 1
      ]
    }
    coord Coordinate
    {
      point
      [
        0.57735026919 0 0.755761314076,
        -0.288675134595 0.5 0.755761314076,
        -0.288675134595 -0.5 0.755761314076,
        0.467086179481 0.809016994375 0.178411044887,
        -0.934172358963 0 0.178411044887,
        0.467086179481 -0.809016994375 0.178411044887,
        0.934172358963 0 -0.178411044887,
        -0.467086179481 0.809016994375 -0.178411044887,
        -0.467086179481 -0.809016994375 -0.178411044887,
        0.288675134595 0.5 -0.755761314076,
        -0.57735026919 0 -0.755761314076,
        0.288675134595 -0.5 -0.755761314076,
      ]
    }
    colorIndex
    [
      0,


      1,


      2,


      4,


      2,


      3,


      4,


      3,


      1,


      3,


      4,


      0,


      1,


      0,


      2,


      0,


      1,


      4,


      2,


      3


    ]
    colorPerVertex FALSE
    convex FALSE
    coordIndex
    [
      0, 
      1, 
      2,  -1,
      0, 
      3, 
      1,  -1,
      1, 
      4, 
      2,  -1,
      2, 
      5, 
      0,  -1,
      0, 
      6, 
      3,  -1,
      1, 
      3, 
      7,  -1,
      1, 
      7, 
      4,  -1,
      2, 
      4, 
      8,  -1,
      2, 
      8, 
      5,  -1,
      0, 
      5, 
      6,  -1,
      9, 
      3, 
      6,  -1,
      9, 
      7, 
      3,  -1,
      10, 
      4, 
      7,  -1,
      10, 
      8, 
      4,  -1,
      11, 
      5, 
      8,  -1,
      11, 
      6, 
      5,  -1,
      9, 
      6, 
      11,  -1,
      11, 
      8, 
      10,  -1,
      10, 
      7, 
      9,  -1,
      9, 
      11, 
      10,  -1
    ]
    solid FALSE
  }
}
