#VRML V2.0 utf8

NavigationInfo
{
  type "EXAMINE"
}

Background
{
  skyColor [ 0.1 0.1 0.1 ]
}

DirectionalLight
{
  direction 0 0 -1
}

Shape
{
  appearance Appearance
  {
    material Material
    {
      ambientIntensity 0.5
      diffuseColor 1 1 1
      specularColor 0.5 0.5 0.5
    }
  }
  geometry IndexedFaceSet
  {
    color Color
    {
      color
      [
        1 0 0,
        0 1 0,
        0 0 1
      ]
    }
    coord Coordinate
    {
      point
      [
        0.577350269189626 0 0.204124145231931,
        -0.288675134594813 0.5 0.204124145231931,
        -0.288675134594813 -0.5 0.204124145231931,
        0 0 -0.612372435695795,
        0.144337567297406 0.25 0.204124145231931,
        0.144337567297406 -0.25 0.204124145231931,
        0.288675134594813 0 -0.204124145231932,
        -0.288675134594813 0 0.204124145231931,
        -0.144337567297406 0.25 -0.204124145231932,
        -0.144337567297406 -0.25 -0.204124145231932,
        0 0 0.612372435695794,
        0.288675134594813 0.5 -0.204124145231932,
        -0.577350269189626 0 -0.204124145231932,
        0.288675134594813 -0.5 -0.204124145231931
      ]
    }
    colorIndex
    [
      0, 2, 2, 1, 1, 0,
      2, 1, 1, 0, 0, 2,
      1, 0, 0, 2, 2, 1,
      1, 0, 0, 2, 2, 1
    ]
    colorPerVertex FALSE
    convex FALSE
    coordIndex
    [
        0, 10, 4, -1, 1, 10, 4, -1, 1, 10, 7, -1, 2, 10, 7, -1, 2, 10, 5, -1, 0, 10, 5, -1,
        0, 11, 6, -1, 3, 11, 6, -1, 3, 11, 8, -1, 1, 11, 8, -1, 1, 11, 4, -1, 0, 11, 4, -1,
        1, 12, 8, -1, 3, 12, 8, -1, 3, 12, 9, -1, 2, 12, 9, -1, 2, 12, 7, -1, 1, 12, 7, -1,
        0, 13, 5, -1, 2, 13, 5, -1, 2, 13, 9, -1, 3, 13, 9, -1, 3, 13, 6, -1, 0, 13, 6, -1
    ]
    solid FALSE
  }
}