#VRML V2.0 utf8

NavigationInfo
{
  type "EXAMINE"
}

Background
{
  skyColor [ 0.1 0.1 0.1 ]
}

DirectionalLight
{
  direction 0 0 -1
}

Shape
{
  appearance Appearance
  {
    material Material
    {
      ambientIntensity 0.5
      diffuseColor 1 1 1
      specularColor 0.5 0.5 0.5
    }
  }
  geometry IndexedFaceSet  {
    color Color
    {
      color
      [
        1 0 0,
        0 1 0,
        0 0 1,
        1 1 0,
        1 0 1,
        0 1 1,
        1 1 1,
        0 0 0,
        1 0.5 0.5,
        0.5 1 0.5,
        0.5 0.5 1,
        1 1 0.5,
        1 0.5 1,
        0.5 1 1,
        0.5 0 0,
        0 0.5 0,
        0 0 0.5,
        0.5 0.5 0,
        0.5 0 0.5,
        0 0.5 0.5
      ]
    }
    coord Coordinate
    {
      point
      [
        0.57735026919 0 0.755761314076,
        -0.288675134595 0.5 0.755761314076,
        -0.288675134595 -0.5 0.755761314076,
        0.467086179481 0.809016994375 0.178411044887,
        -0.934172358963 0 0.178411044887,
        0.467086179481 -0.809016994375 0.178411044887,
        0.934172358963 0 -0.178411044887,
        -0.467086179481 0.809016994375 -0.178411044887,
        -0.467086179481 -0.809016994375 -0.178411044887,
        0.288675134595 0.5 -0.755761314076,
        -0.57735026919 0 -0.755761314076,
        0.288675134595 -0.5 -0.755761314076,
        0.144337567297 0.25 0.755761314076,
        0.144337567297 -0.25 0.755761314076,
        0.522218224335 0.404508497187 0.467086179481,
        0.522218224335 -0.404508497187 0.467086179481,
        0.755761314076 0 0.288675134595,
        -0.288675134595 0 0.755761314076,
        0.089205522443 0.654508497187 0.467086179481,
        -0.611423746779 0.25 0.467086179481,
        -0.377880657038 0.654508497187 0.288675134595,
        -0.611423746779 -0.25 0.467086179481,
        0.089205522443 -0.654508497187 0.467086179481,
        -0.377880657038 -0.654508497187 0.288675134595,
        0.700629269222 0.404508497187 0,
        0 0.809016994375 0,
        0.377880657038 0.654508497187 -0.288675134595,
        -0.700629269222 0.404508497187 0,
        -0.700629269222 -0.404508497187 0,
        -0.755761314076 0 -0.288675134595,
        0.700629269222 -0.404508497187 0,
        0 -0.809016994375 0,
        0.377880657038 -0.654508497187 -0.288675134595,
        0.611423746779 0.25 -0.467086179481,
        0.611423746779 -0.25 -0.467086179481,
        -0.089205522443 0.654508497187 -0.467086179481,
        -0.522218224335 0.404508497187 -0.467086179481,
        -0.522218224335 -0.404508497187 -0.467086179481,
        -0.089205522443 -0.654508497187 -0.467086179481,
        -0.144337567297 0.25 -0.755761314076,
        0.288675134595 0 -0.755761314076,
        -0.144337567297 -0.25 -0.755761314076,
        0 0 1.16400960454,
        0.388003201513 0.67204125852 0.867601534071,
        -0.776006403027 0 0.867601534071,
        0.388003201513 -0.67204125852 0.867601534071,
        1.015805569306 0.415344339608 0.388003201513,
        -0.148204035234 1.087385598128 0.388003201513,
        -0.867601534071 0.67204125852 0.388003201513,
        -0.867601534071 -0.67204125852 0.388003201513,
        -0.148204035234 -1.087385598128 0.388003201513,
        1.015805569306 -0.415344339608 0.388003201513,
        0.867601534071 0.67204125852 -0.388003201513,
        0.148204035234 1.087385598128 -0.388003201513,
        -1.015805569306 0.415344339608 -0.388003201513,
        -1.015805569306 -0.415344339608 -0.388003201513,
        0.148204035234 -1.087385598128 -0.388003201513,
        0.867601534071 -0.67204125852 -0.388003201513,
        0.776006403027 0 -0.867601534071,
        -0.388003201513 -0.67204125852 -0.867601534071,
        -0.388003201513 0.67204125852 -0.867601534071,
        0 0 -1.16400960454
      ]
    }
    colorIndex
    [
      0, 0, 0, 1, 1, 0,
      1, 0, 0, 0, 0, 1,
      0, 1, 1, 0, 0, 0,
      0, 2, 2, 1, 1, 0,
      0, 2, 2, 1, 1, 0,
      0, 1, 1, 0, 0, 0,
      0, 1, 1, 0, 0, 0,
      1, 0, 0, 2, 2, 1,
      2, 1, 1, 0, 0, 2,
      2, 1, 1, 0, 0, 2,
      0, 2, 2, 1, 1, 0,
      2, 1, 1, 0, 0, 2,
      2, 1, 1, 0, 0, 2,
      1, 0, 0, 2, 2, 1,
      0, 1, 1, 0, 0, 0,
      0, 1, 1, 0, 0, 0,
      1, 0, 0, 0, 0, 1,
      0, 1, 1, 0, 0, 0,
      0, 2, 2, 1, 1, 0,
      0, 0, 0, 1, 1, 0
    ]
    colorPerVertex FALSE
    convex FALSE
    coordIndex
    [
        0, 42, 12, -1, 1, 42, 12, -1, 1, 42, 17, -1, 2, 42, 17, -1, 2, 42, 13, -1, 0, 42, 13, -1,
        0, 43, 14, -1, 3, 43, 14, -1, 3, 43, 18, -1, 1, 43, 18, -1, 1, 43, 12, -1, 0, 43, 12, -1,
        1, 44, 19, -1, 4, 44, 19, -1, 4, 44, 21, -1, 2, 44, 21, -1, 2, 44, 17, -1, 1, 44, 17, -1,
        2, 45, 22, -1, 5, 45, 22, -1, 5, 45, 15, -1, 0, 45, 15, -1, 0, 45, 13, -1, 2, 45, 13, -1,
        0, 46, 16, -1, 6, 46, 16, -1, 6, 46, 24, -1, 3, 46, 24, -1, 3, 46, 14, -1, 0, 46, 14, -1,
        1, 47, 18, -1, 3, 47, 18, -1, 3, 47, 25, -1, 7, 47, 25, -1, 7, 47, 20, -1, 1, 47, 20, -1,
        1, 48, 20, -1, 7, 48, 20, -1, 7, 48, 27, -1, 4, 48, 27, -1, 4, 48, 19, -1, 1, 48, 19, -1,
        2, 49, 21, -1, 4, 49, 21, -1, 4, 49, 28, -1, 8, 49, 28, -1, 8, 49, 23, -1, 2, 49, 23, -1,
        2, 50, 23, -1, 8, 50, 23, -1, 8, 50, 31, -1, 5, 50, 31, -1, 5, 50, 22, -1, 2, 50, 22, -1,
        0, 51, 15, -1, 5, 51, 15, -1, 5, 51, 30, -1, 6, 51, 30, -1, 6, 51, 16, -1, 0, 51, 16, -1,
        9, 52, 26, -1, 3, 52, 26, -1, 3, 52, 24, -1, 6, 52, 24, -1, 6, 52, 33, -1, 9, 52, 33, -1,
        9, 53, 35, -1, 7, 53, 35, -1, 7, 53, 25, -1, 3, 53, 25, -1, 3, 53, 26, -1, 9, 53, 26, -1,
        10, 54, 29, -1, 4, 54, 29, -1, 4, 54, 27, -1, 7, 54, 27, -1, 7, 54, 36, -1, 10, 54, 36, -1,
        10, 55, 37, -1, 8, 55, 37, -1, 8, 55, 28, -1, 4, 55, 28, -1, 4, 55, 29, -1, 10, 55, 29, -1,
        11, 56, 32, -1, 5, 56, 32, -1, 5, 56, 31, -1, 8, 56, 31, -1, 8, 56, 38, -1, 11, 56, 38, -1,
        11, 57, 34, -1, 6, 57, 34, -1, 6, 57, 30, -1, 5, 57, 30, -1, 5, 57, 32, -1, 11, 57, 32, -1,
        9, 58, 33, -1, 6, 58, 33, -1, 6, 58, 34, -1, 11, 58, 34, -1, 11, 58, 40, -1, 9, 58, 40, -1,
        11, 59, 38, -1, 8, 59, 38, -1, 8, 59, 37, -1, 10, 59, 37, -1, 10, 59, 41, -1, 11, 59, 41, -1,
        10, 60, 36, -1, 7, 60, 36, -1, 7, 60, 35, -1, 9, 60, 35, -1, 9, 60, 39, -1, 10, 60, 39, -1,
        9, 61, 40, -1, 11, 61, 40, -1, 11, 61, 41, -1, 10, 61, 41, -1, 10, 61, 39, -1, 9, 61, 39, -1
    ]
    solid FALSE
  }
}
