#VRML V2.0 utf8

NavigationInfo
{
  type "EXAMINE"
}

Background
{
  skyColor [ 0.1 0.1 0.1 ]
}

DirectionalLight
{
  direction 0 0 -1
}

Shape
{
  appearance Appearance
  {
    material Material
    {
      ambientIntensity 0.5
      diffuseColor 1 1 1
      specularColor 0.5 0.5 0.5
    }
  }
  geometry IndexedFaceSet
  {
    color Color
    {
      color
      [
        1 0 0,
        0 1 0,
        0 0 1,
        1 1 0,
        1 0 1,
        0 1 1,
        1 1 1,
        0 0 0,
        1 0.5 0.5,
        0.5 1 0.5,
        0.5 0.5 1,
        1 1 0.5,
        1 0.5 1,
        0.5 1 1,
        0.5 0 0,
        0 0.5 0,
        0 0 0.5,
        0.5 0.5 0,
        0.5 0 0.5,
        0 0.5 0.5,
        1 0.5 0,
        0.5 1 0,
        1 0 0.5,
        0 1 0.5,
        0.5 0 1,
        0 0.5 1,
        0.5 0.5 0.5
      ]
    }
    coord Coordinate
    {
      point
      [
        0.57735026919 0 2.077089659743,
        -0.288675134595 0.5 2.077089659743,
        -0.288675134595 -0.5 2.077089659743,
        -0.276837968724 1.496296000362 1.99191829621,
        -1.157411363533 -0.987896713828 1.99191829621,
        1.434249332257 -0.508399286534 1.99191829621,
        0.5609394513 0.971575629622 1.840929796555,
        -1.121878902601 0 1.840929796555,
        0.5609394513 -0.971575629622 1.840929796555,
        1.362254517859 0.416342778529 1.618195324207,
        -1.041690681818 0.971575629622 1.618195324207,
        -0.320563836042 -1.387918408151 1.618195324207,
        0.333014595498 1.734601026616 1.23608063879,
        -1.66871585223 -0.578901413776 1.23608063879,
        1.335701256731 -1.155699612841 1.23608063879,
        1.236512544593 1.309016994375 1.185388553786,
        -1.751898243411 0.416342778529 1.185388553786,
        0.515385698818 -1.725359772904 1.185388553786,
        -0.657465298163 1.734601026616 1.098423164413,
        -1.173475905399 -1.436682163624 1.098423164413,
        1.830941203562 -0.297918862992 1.098423164413,
        1.890090976133 0.655699612841 0.803273868369,
        -1.512898010038 1.309016994375 0.803273868369,
        -0.377192966095 -1.964716607216 0.803273868369,
        1.872730925162 1.598450460348 0.470228123531,
        -2.320664167933 0.822607325469 0.470228123531,
        0.447933242771 -2.421057785817 0.470228123531,
        0.919362047295 1.899016539533 0.442881921643,
        -2.10427758909 -0.153317381534 0.442881921643,
        1.184915541795 -1.745699157999 0.442881921643,
        -0.055331936895 2.11803398875 0.39812709931,
        -1.806605271889 -1.106935857367 0.39812709931,
        1.861937208784 -1.011098131383 0.39812709931,
        -1.00529020533 1.899016539533 0.175392626962,
        -1.141951462778 -1.820115125758 0.175392626962,
        2.147241668108 -0.078901413776 0.175392626962,
        1.97687416384 0.84192681077 -0.175392626962,
        -1.717567088174 1.291059840586 -0.175392626962,
        -0.259307075666 -2.132986651356 -0.175392626962,
        1.376930691955 1.610338930254 -0.39812709931,
        -2.083059768281 0.387287493357 -0.39812709931,
        0.706129076326 -1.997626423611 -0.39812709931,
        0.481896491149 2.05408523758 -0.442881921643,
        -2.019838242858 -0.60970801546 -0.442881921643,
        1.537941751708 -1.44437722212 -0.442881921643,
        -0.447933242771 2.421057785817 -0.470228123531,
        -1.872730925162 -1.598450460348 -0.470228123531,
        2.320664167933 -0.822607325469 -0.470228123531,
        1.999574064036 0.06394875117 -0.803273868369,
        -1.055168275071 1.699707560619 -0.803273868369,
        -0.944405788965 -1.763656311788 -0.803273868369,
        1.603150485332 0.933279090737 -1.098423164413,
        -1.609818644065 0.921729501018 -1.098423164413,
        0.006668158733 -1.855008591755 -1.098423164413,
        -0.13603634903 1.795545286603 -1.185388553786,
        -1.486969657328 -1.0155835774 -1.185388553786,
        1.623006006359 -0.779961709203 -1.185388553786,
        0.833793151167 1.557089728763 -1.23608063879,
        -1.765375836664 -0.05645881397 -1.23608063879,
        0.931582685497 -1.500630914794 -1.23608063879,
        1.421040031605 0.098609884077 -1.618195324207,
        -0.795918680478 1.181351825126 -1.618195324207,
        -0.625121351127 -1.279961709203 -1.618195324207,
        0.176193715432 1.107956698948 -1.840929796555,
        -1.047615505298 -0.401390115923 -1.840929796555,
        0.871421789866 -0.706566583025 -1.840929796555,
        1.157411363533 0.987896713828 -1.99191829621,
        -1.434249332257 0.508399286534 -1.99191829621,
        0.276837968724 -1.496296000362 -1.99191829621,
        0.53913224733 0.206566583025 -2.077089659743,
        -0.448458032137 0.363618930674 -2.077089659743,
        -0.090674215192 -0.570185513699 -2.077089659743,
        0.144337567297 0.25 2.077089659743,
        0.144337567297 -0.25 2.077089659743,
        1.005799800723 -0.254199643267 2.034503977977,
        0.569144860245 0.485787814811 1.959009728149,
        0.569144860245 -0.485787814811 1.959009728149,
        0.969802393524 0.208171389264 1.847642491975,
        -0.288675134595 0 2.077089659743,
        -0.282756551659 0.998148000181 2.034503977977,
        0.136132158353 0.735787814811 1.959009728149,
        -0.705277018598 0.25 1.959009728149,
        -0.665182908206 0.735787814811 1.847642491975,
        -0.723043249064 -0.743948356914 2.034503977977,
        -0.705277018598 -0.25 1.959009728149,
        0.136132158353 -0.735787814811 1.959009728149,
        -0.304619485318 -0.943959204075 1.847642491975,
        0.142050741288 1.233935814992 1.916424046383,
        -0.659264325271 1.233935814992 1.805056810208,
        0.028088313387 1.615448513489 1.6139994675,
        -0.467151633443 1.615448513489 1.545170730311,
        -1.139645133067 -0.493948356914 1.916424046383,
        -0.738987599787 -1.187907560989 1.805056810208,
        -1.413063607881 -0.783399063802 1.6139994675,
        -1.165443634466 -1.212289438726 1.545170730311,
        0.997594391778 -0.739987458078 1.916424046383,
        1.398251925058 -0.046028254003 1.805056810208,
        1.384975294494 -0.832049449688 1.6139994675,
        1.632595267909 -0.403159074763 1.545170730311,
        0.96159698458 0.693959204075 1.729562560381,
        0.446977023399 1.353088328119 1.538505217673,
        0.898725997947 1.140296311998 1.51315917517,
        -1.081784792209 0.485787814811 1.729562560381,
        -1.395297377415 -0.289450706888 1.538505217673,
        -1.436888573006 0.208171389264 1.51315917517,
        0.120187807629 -1.179747018886 1.729562560381,
        0.948320354016 -1.063637621231 1.538505217673,
        0.538162575059 -1.348467701263 1.51315917517,
        1.299383531226 0.862679886452 1.401791938996,
        1.596597860711 0.059211957768 1.35830924431,
        1.626172746996 0.536021195685 1.210734596288,
        -1.396794462614 0.693959204075 1.401791938996,
        -0.84957798999 1.353088328119 1.35830924431,
        -1.277294345928 1.140296311998 1.210734596288,
        0.097410931388 -1.556639090527 1.401791938996,
        -0.74701987072 -1.412300285887 1.35830924431,
        -0.348878401068 -1.676317507683 1.210734596288,
        0.784763570046 1.521809010496 1.210734596288,
        -0.162225351332 1.734601026616 1.167251901601,
        0.626188321397 1.816808783075 0.839481280217,
        0.138841329301 1.926317507683 0.81710386905,
        -1.71030704782 -0.081279317624 1.210734596288,
        -1.421095878814 -1.0077917887 1.167251901601,
        -1.88649672066 -0.366109397655 0.839481280217,
        -1.737660562059 -0.842918635571 0.81710386905,
        0.925543477774 -1.440529692872 1.210734596288,
        1.583321230147 -0.726809237916 1.167251901601,
        1.260308399263 -1.45069938542 0.839481280217,
        1.598819232758 -1.083398872112 0.81710386905,
        1.563301760363 0.982358303608 0.994331211077,
        1.554621734878 1.453733727361 0.827808338658,
        1.077937295944 1.604016766954 0.814135237714,
        -1.632398126725 0.862679886452 0.994331211077,
        -2.036281205672 0.619475051999 0.827808338658,
        -1.928087916251 0.131512698497 0.814135237714,
        0.069096366361 -1.84503819006 0.994331211077,
        0.481659470794 -2.07320877936 0.827808338658,
        0.850150620306 -1.735529465451 0.814135237714,
        -1.085181654101 1.521809010496 0.950848516391,
        -0.356398617529 1.926317507683 0.748275131861,
        -0.831377751746 1.816808783075 0.636907895687,
        -0.775334435747 -1.70069938542 0.950848516391,
        -1.490040588644 -1.271809010496 0.748275131861,
        -1.157713684088 -1.628398644691 0.636907895687,
        1.860516089848 0.178890374924 0.950848516391,
        1.846439206173 -0.654508497187 0.748275131861,
        1.989091435835 -0.188410138384 0.636907895687,
        1.881410950648 1.127075036594 0.63675099595,
        2.018666322121 0.288399099533 0.489333247665,
        1.933482569987 0.748813211805 0.313940620704,
        -1.916781088986 1.065812159922 0.63675099595,
        -1.259094107684 1.604016766954 0.489333247665,
        -1.615232549106 1.30003841748 0.313940620704,
        0.035370138338 -2.192887196516 0.63675099595,
        -0.759572214436 -1.892415866487 0.489333247665,
        -0.318250020881 -2.048851629286 0.313940620704,
        1.396046486228 1.748733499941 0.456555022587,
        1.924802544501 1.220188635559 0.147417748285,
        1.624830808559 1.604394695301 0.036050512111,
        -2.212470878512 0.334644971967 0.456555022587,
        -2.019115628054 1.056833583027 0.147417748285,
        -2.201861968107 0.604947409413 0.03605051211,
        0.816424392283 -2.083378471908 0.456555022587,
        0.094313083553 -2.277022218586 0.147417748285,
        0.577031159548 -2.209342104714 0.03605051211,
        0.4320150552 2.008525264142 0.420504510477,
        1.148146369625 1.754677734894 0.022377411166,
        0.700629269222 1.976550888557 0,
        -1.955441430489 -0.630126619451 0.420504510477,
        -2.093668678685 0.116985055911 0.022377411166,
        -2.062057915974 -0.381512698497 0,
        1.52342637529 -1.378398644691 0.420504510477,
        0.94552230906 -1.871662790805 0.022377411166,
        1.361428646752 -1.59503819006 0,
        -0.530311071113 2.008525264142 0.286759863136,
        0.213282277127 2.086059613165 -0.022377411166,
        -0.251632589833 2.269545887283 -0.03605051211,
        -1.474278367333 -1.463525491562 0.286759863136,
        -1.913221757373 -0.858321936414 -0.022377411166,
        -1.839668098525 -1.352693158858 -0.036050512111,
        2.004589438446 -0.544999772579 0.286759863136,
        1.699939480246 -1.227737676751 -0.022377411166,
        2.091300688359 -0.916852728426 -0.03605051211,
        -1.361428646752 1.59503819006 0,
        -0.726611724051 2.160037162675 -0.147417748285,
        -1.0302292402 1.799362050076 -0.313940620704,
        -0.700629269222 -1.976550888557 0,
        -1.50734119397 -1.709282793053 -0.147417748285,
        -1.043178625871 -1.791885718773 -0.313940620704,
        2.062057915974 0.381512698497 0,
        2.23395291802 -0.450754369622 -0.147417748285,
        2.073407866072 -0.007476331303 -0.313940620704,
        1.676902427898 1.226132870512 -0.286759863136,
        1.988224113938 0.45293778097 -0.489333247665,
        1.790012324586 0.887602950754 -0.636907895687,
        -1.900313428228 0.839173666971 -0.286759863136,
        -1.386367681623 1.495383700602 -0.489333247665,
        -1.66369286612 1.106394670802 -0.636907895687,
        0.22341100033 -2.065306537483 -0.286759863136,
        -0.601856432315 -1.948321481572 -0.489333247665,
        -0.126319458466 -1.993997621556 -0.636907895687,
        0.929413591552 1.832212083917 -0.420504510477,
        1.490040588644 1.271809010496 -0.748275131861,
        1.105361921561 1.583714329509 -0.81710386905,
        -2.051449005569 -0.111210261052 -0.420504510477,
        -1.846439206173 0.654508497187 -0.748275131861,
        -1.924217802473 0.165414339694 -0.81710386905,
        1.122035414017 -1.721001822865 -0.420504510477,
        0.356398617529 -1.926317507683 -0.748275131861,
        0.818855880911 -1.749128669202 -0.81710386905,
        0.016981624189 2.237571511699 -0.456555022587,
        0.172930071059 1.924815262092 -0.814135237714,
        0.657844821158 1.805587483172 -0.839481280217,
        -1.94628458401 -1.104079237904 -0.456555022587,
        -1.753403950093 -0.81264579643 -0.814135237714,
        -1.892607039761 -0.333083414715 -0.839481280217,
        1.929302959821 -1.133492273794 -0.456555022587,
        1.580473879034 -1.112169465662 -0.814135237714,
        1.234762218603 -1.472504068457 -0.839481280217,
        -0.751550758921 2.060382673218 -0.63675099595,
        -0.291984795901 2.10830153621 -0.827808338658,
        -1.408568357063 -1.681053386068 -0.63675099595,
        -1.679850291245 -1.307017018874 -0.827808338658,
        2.160119115985 -0.37932928715 -0.63675099595,
        1.971835087146 -0.801284517336 -0.827808338658,
        1.801362274684 0.498613920953 -0.950848516391,
        1.811290035197 -0.358006479017 -0.994331211077,
        1.71030704782 0.081279317624 -1.210734596288,
        -1.332493459568 1.310718530818 -0.950848516391,
        -0.595602312051 1.747626423611 -0.994331211077,
        -0.925543477774 1.440529692872 -1.210734596288,
        -0.468868815116 -1.809332451772 -0.950848516391,
        -1.215687723147 -1.389619944594 -0.994331211077,
        -0.784763570046 -1.521809010496 -1.210734596288,
        1.21847181825 1.24518440975 -1.167251901601,
        1.512095258468 0.515944487407 -1.35830924431,
        1.380280924433 0.960587902283 -1.545170730311,
        -1.687597240365 0.432635343524 -1.167251901601,
        -1.202868662271 1.051540663072 -1.35830924431,
        -1.522033988161 0.715064393776 -1.545170730311,
        0.469125422115 -1.677819753275 -1.167251901601,
        -0.309226596197 -1.567485150479 -1.35830924431,
        0.141753063728 -1.675652296059 -1.545170730311,
        0.348878401068 1.676317507683 -1.210734596288,
        -0.465977514754 1.488448555864 -1.401791938996,
        0.020078683201 1.451750992775 -1.51315917517,
        -1.626172746996 -0.536021195685 -1.210734596288,
        -1.056045504228 -1.147772643301 -1.401791938996,
        -1.267292581313 -0.708486846661 -1.51315917517,
        1.277294345928 -1.140296311998 -1.210734596288,
        1.522023018982 -0.340675912563 -1.401791938996,
        1.247213898112 -0.743264146114 -1.51315917517,
        0.504993433299 1.332523213855 -1.538505217673,
        0.99560225735 1.272493221296 -1.6139994675,
        -1.406495670981 -0.228924464946 -1.538505217673,
        -1.599812584461 0.225970236282 -1.6139994675,
        0.901502237682 -1.103598748909 -1.538505217673,
        0.604210327111 -1.498463457578 -1.6139994675,
        1.146230910735 -0.303978349474 -1.729562560381,
        1.289225697569 0.543253298953 -1.805056810208,
        0.980086139467 0.152588233551 -1.847642491975,
        -0.309862482523 1.144654262037 -1.729562560381,
        -1.115084006367 0.84487555583 -1.805056810208,
        -0.622188356307 0.7724853779 -1.847642491975,
        -0.836368428212 -0.840675912563 -1.729562560381,
        -0.174141691202 -1.388128854783 -1.805056810208,
        -0.35789778316 -0.925073611451 -1.847642491975,
        0.666802539482 1.047926706388 -1.916424046383,
        0.357662981381 0.657261640986 -1.959009728149,
        -0.136132158353 0.735787814811 -1.959009728149,
        -1.240932418777 0.053504585306 -1.916424046383,
        -0.748036768717 -0.018885592624 -1.959009728149,
        -0.569144860245 -0.485787814811 -1.959009728149,
        0.574129879295 -1.101431291694 -1.916424046383,
        0.705277018598 -0.25 -1.959009728149,
        0.390373787337 -0.638376048362 -1.959009728149,
        0.848271805431 0.597231648426 -2.034503977977,
        -0.941353682197 0.436009108604 -2.034503977977,
        0.093081876766 -1.033240757031 -2.034503977977,
        0.045337107596 0.28509275685 -2.077089659743,
        0.224229016069 -0.181809465337 -2.077089659743,
        -0.269566123665 -0.103283291512 -2.077089659743,
        0 0 2.485337950207,
        0.338868275533 -0.586937070297 2.391145728325,
        0.338868275533 0.586937070297 2.391145728325,
        -0.677736551066 0 2.391145728325,
        0.839923460722 -0.589379722979 2.366376474566,
        -0.930379542936 -0.43270519273 2.366376474566,
        0.090456082214 1.022084915709 2.366376474566,
        -0.518989325608 -1.145253950879 2.252025968991,
        1.25131367805 0.12316903517 2.252025968991,
        -0.732324352442 1.022084915709 2.252025968991,
        -0.019264234746 -1.140507507244 2.208115993765,
        0.997340591853 0.553570436947 2.208115993765,
        -0.978076357107 0.586937070297 2.208115993765,
        1.229256184634 -1.182708782588 1.934607625653,
        -1.638883943317 -0.473212692358 1.934607625653,
        0.409627758683 1.655921474946 1.934607625653,
        1.89489953891 -0.029780673262 1.749584621002,
        -0.973240589042 -1.626140801684 1.749584621002,
        -0.921658949868 1.655921474946 1.749584621002,
        0.301434953528 -1.629241528581 1.852461534574,
        1.260247075888 1.075671091634 1.852461534574,
        -1.561682029416 0.553570436947 1.852461534574,
        1.881267258273 -0.836857549791 1.553409296167,
        -1.665373526604 -1.210796462076 1.553409296167,
        -0.215893731668 2.047654011867 1.553409296167,
        0.962035307066 -1.536621199294 1.700055318094,
        -1.811770648115 -0.06483641561 1.700055318094,
        0.849735341049 1.601457614904 1.700055318094,
        -0.072738606793 -2.025355220631 1.438593080785,
        1.790378376151 0.949684128997 1.438593080785,
        -1.717639769358 1.075671091634 1.438593080785,
        -0.746340059659 -1.910216326755 1.403906986623,
        2.027465895523 0.308758711851 1.403906986623,
        -1.281125835864 1.601457614904 1.403906986623,
        1.210907802042 -1.845379911145 1.142444749314,
        -2.203599783706 -0.125986962637 1.142444749314,
        0.992691981664 1.971366873782 1.142444749314,
        2.005646029542 -0.983050762347 1.089908220711,
        -1.854169948173 -1.245415031409 1.089908220711,
        -0.151476081369 2.228465793756 1.089908220711,
        0.150753167542 -2.325809391526 1.104745062841,
        1.938833433651 1.293460768556 1.104745062841,
        -2.089586601193 1.032348622971 1.104745062841,
        0.952730049507 -2.213367182722 0.91972205819,
        1.440467183387 1.931772017183 0.91972205819,
        -2.393197232894 0.281595165539 0.91972205819,
        1.747979076093 -1.560497077493 0.828445983402,
        -1.073950029211 -2.08259773218 0.828445983402,
        2.340557556537 0.111230858398 0.828445983402,
        -2.225419649687 -0.733545746434 0.828445983402,
        0.477440573594 2.294042823927 0.828445983402,
        -1.266607527326 1.971366873782 0.828445983402,
        2.329328443067 -0.553570436947 0.666853433971,
        -1.644070282714 -1.74047238698 0.666853433971,
        -0.685258160353 2.294042823927 0.666853433971,
        -0.246969329085 -2.535082519055 0.406128390017,
        2.318930526735 1.053659546584 0.406128390017,
        -2.071961197649 1.481422972471 0.406128390017,
        -0.709334331669 -2.360318365654 0.320385307731,
        2.39876283151 0.565857631825 0.320385307731,
        -1.689428499841 1.794460733829 0.320385307731,
        1.050656524126 -2.353147203441 0.106754879791,
        1.512556994961 2.086468842265 0.106754879791,
        -2.563213519087 0.266678361175 0.106754879791,
        1.828642578008 -1.67563597137 0.1587927583,
        -2.365464607705 -0.745832941311 0.1587927583,
        0.536822029698 2.421468912681 0.1587927583,
        2.471748053052 -0.706158597247 0.210663463546,
        -1.847425310843 -1.787517307075 0.210663463546,
        -0.624322742209 2.493675904322 0.210663463546,
        0.309201531873 -2.551978215997 -0.210663463546,
        2.055477199021 1.54376548949 -0.210663463546,
        -2.364678730894 1.008212726507 -0.210663463546,
        1.367649187362 -2.069112197769 -0.1587927583,
        -2.47572832023 -0.149862840836 -0.1587927583,
        1.108079132867 2.218975038606 -0.1587927583,
        2.158937230586 -1.40718546295 -0.106754879791,
        -2.298126974044 -1.166101755388 -0.106754879791,
        0.139189743458 2.573287218339 -0.106754879791,
        -0.935566830896 -2.280125585633 -0.320385307731,
        2.442430096425 0.329838150323 -0.320385307731,
        -1.506863265529 1.95028743531 -0.320385307731,
        2.542409966396 -0.154236152372 -0.406128390017,
        -1.404777409334 -2.124673541548 -0.406128390017,
        -1.137632557062 2.27890969392 -0.406128390017,
        0.180874282099 -2.38736166477 -0.666853433971,
        1.977078708663 1.350322555574 -0.666853433971,
        -2.157952990762 1.037039109196 -0.666853433971,
        1.266607527326 -1.971366873782 -0.828445983402,
        -0.477440573594 -2.294042823927 -0.828445983402,
        2.225419649687 0.733545746434 -0.828445983402,
        -2.340557556537 -0.111230858398 -0.828445983402,
        1.073950029211 2.08259773218 -0.828445983402,
        -1.747979076093 1.560497077493 -0.828445983402,
        2.036271423596 -1.288521448106 -0.91972205819,
        -2.134028019179 -1.119202057782 -0.91972205819,
        0.097756595583 2.407723505888 -0.91972205819,
        2.273270608086 -0.514156187988 -1.104745062841,
        -1.581907624354 -1.711632002285 -1.104745062841,
        -0.691362983733 2.225788190273 -1.104745062841,
        0.655859959623 -2.135146952912 -1.089908220711,
        1.521161522223 1.635564862814 -1.089908220711,
        -2.177021481846 0.499582090098 -1.089908220711,
        1.632303349073 -1.485702021978 -1.142444749314,
        -2.102807368023 -0.67076515599 -1.142444749314,
        0.470504018951 2.156467177968 -1.142444749314,
        -0.623345381196 -1.953814329816 -1.403906986623,
        2.003725534496 0.43707422946 -1.403906986623,
        -1.3803801533 1.516740100355 -1.403906986623,
        2.011644897325 -0.246250851214 -1.438593080785,
        -1.219081941517 -1.61901015887 -1.438593080785,
        -0.792562955808 1.865261010084 -1.438593080785,
        1.366462256149 -1.191426684559 -1.700055318094,
        -1.71503690365 -0.587677684858 -1.700055318094,
        0.348574647501 1.779104369418 -1.700055318094,
        0.531014942004 -1.989351700192 -1.553409296167,
        1.457321638426 1.454548279661 -1.553409296167,
        -1.988336580431 0.534803420531 -1.553409296167,
        1.561682029416 -0.553570436947 -1.852461534574,
        -1.260247075888 -1.075671091634 -1.852461534574,
        -0.301434953528 1.629241528581 -1.852461534574,
        -0.268187317716 -1.876061489844 -1.749584621002,
        1.758810568125 0.705773714807 -1.749584621002,
        -1.490623250409 1.170287775037 -1.749584621002,
        0.974974127465 -1.399748649811 -1.934607625653,
        -1.699704953381 -0.144478037512 -1.934607625653,
        0.724730825917 1.544226687322 -1.934607625653,
        1.129379621106 -0.160094210548 -2.208115993765,
        -0.703335463886 -0.89802433712 -2.208115993765,
        -0.42604415722 1.058118547668 -2.208115993765,
        -0.318162292649 -1.216441238875 -2.252025968991,
        1.212550161401 0.332683991477 -2.252025968991,
        -0.894387868752 0.883757247397 -2.252025968991,
        0.450153733976 -0.922063714456 -2.366376474566,
        0.573453733638 0.85087642646 -2.366376474566,
        -1.023607467615 0.071187287996 -2.366376474566,
        0.526433287067 -0.426842859749 -2.391145728325,
        -0.6328734035 -0.242483170124 -2.391145728325,
        0.106440116433 0.669326029873 -2.391145728325,
        0 0 -2.485337950207
      ]
    }
    colorIndex
    [
      14, 0, 0, 8, 8, 14,
      8, 14, 14, 0, 0, 8,
      9, 8, 8, 1, 1, 9,
      0, 8, 8, 14, 14, 0,
      14, 1, 1, 15, 15, 14,
      8, 2, 2, 16, 16, 8,
      9, 15, 15, 1, 1, 9,
      14, 16, 16, 10, 10, 14,
      9, 15, 15, 1, 1, 9,
      8, 1, 1, 15, 15, 8,
      14, 0, 0, 8, 8, 14,
      1, 9, 9, 0, 0, 1,
      14, 0, 0, 8, 8, 14,
      9, 15, 15, 1, 1, 9,
      10, 16, 16, 2, 2, 10,
      8, 1, 1, 15, 15, 8,
      0, 1, 1, 9, 9, 0,
      0, 10, 10, 2, 2, 0,
      14, 15, 15, 9, 9, 14,
      8, 14, 14, 0, 0, 8,
      14, 0, 0, 8, 8, 14,
      0, 8, 8, 14, 14, 0,
      8, 9, 9, 15, 15, 8,
      8, 2, 2, 16, 16, 8,
      0, 9, 9, 1, 1, 0,
      1, 9, 9, 14, 14, 1,
      2, 10, 10, 8, 8, 2,
      0, 8, 8, 14, 14, 0,
      14, 0, 0, 8, 8, 14,
      0, 8, 8, 14, 14, 0,
      14, 0, 0, 8, 8, 14,
      8, 14, 14, 0, 0, 8,
      14, 0, 0, 8, 8, 14,
      0, 8, 8, 14, 14, 0,
      9, 0, 0, 1, 1, 9,
      10, 0, 0, 2, 2, 10,
      14, 0, 0, 8, 8, 14,
      14, 0, 0, 8, 8, 14,
      14, 0, 0, 8, 8, 14,
      14, 0, 0, 8, 8, 14,
      0, 1, 1, 15, 15, 0,
      0, 2, 2, 10, 10, 0,
      14, 2, 2, 16, 16, 14,
      9, 15, 15, 1, 1, 9,
      8, 10, 10, 16, 16, 8,
      10, 16, 16, 2, 2, 10,
      8, 14, 14, 0, 0, 8,
      14, 0, 0, 8, 8, 14,
      0, 8, 8, 14, 14, 0,
      8, 14, 14, 0, 0, 8,
      0, 8, 8, 14, 14, 0,
      14, 0, 0, 8, 8, 14,
      8, 14, 14, 0, 0, 8,
      8, 14, 14, 0, 0, 8,
      0, 8, 8, 14, 14, 0,
      9, 15, 15, 1, 1, 9,
      10, 16, 16, 2, 2, 10,
      10, 16, 16, 2, 2, 10,
      1, 9, 9, 0, 0, 1,
      2, 10, 10, 0, 0, 2,
      2, 10, 10, 14, 14, 2,
      0, 1, 1, 9, 9, 0,
      10, 16, 16, 2, 2, 10,
      0, 2, 2, 10, 10, 0,
      14, 0, 0, 8, 8, 14,
      14, 0, 0, 8, 8, 14,
      10, 0, 0, 2, 2, 10,
      8, 10, 10, 16, 16, 8,
      8, 9, 9, 15, 15, 8,
      0, 16, 16, 2, 2, 0,
      8, 9, 9, 15, 15, 8,
      0, 2, 2, 16, 16, 0,
      8, 10, 10, 16, 16, 8,
      8, 14, 14, 0, 0, 8,
      8, 14, 14, 0, 0, 8,
      0, 2, 2, 10, 10, 0,
      0, 2, 2, 10, 10, 0,
      0, 1, 1, 9, 9, 0,
      10, 2, 2, 16, 16, 10,
      9, 0, 0, 1, 1, 9,
      14, 2, 2, 10, 10, 14,
      0, 2, 2, 10, 10, 0,
      10, 16, 16, 2, 2, 10,
      9, 15, 15, 1, 1, 9,
      10, 2, 2, 16, 16, 10,
      14, 0, 0, 8, 8, 14,
      14, 0, 0, 8, 8, 14,
      14, 0, 0, 8, 8, 14,
      14, 0, 0, 8, 8, 14,
      8, 14, 14, 0, 0, 8,
      0, 8, 8, 14, 14, 0,
      14, 0, 0, 8, 8, 14,
      14, 0, 0, 8, 8, 14,
      8, 14, 14, 0, 0, 8,
      10, 16, 16, 2, 2, 10,
      9, 15, 15, 1, 1, 9,
      8, 10, 10, 2, 2, 8,
      14, 2, 2, 16, 16, 14,
      0, 1, 1, 15, 15, 0,
      0, 16, 16, 10, 10, 0,
      8, 14, 14, 0, 0, 8,
      0, 8, 8, 14, 14, 0,
      8, 14, 14, 0, 0, 8,
      2, 10, 10, 0, 0, 2,
      0, 1, 1, 9, 9, 0,
      0, 8, 8, 14, 14, 0,
      14, 0, 0, 8, 8, 14,
      14, 0, 0, 8, 8, 14,
      0, 8, 8, 14, 14, 0,
      0, 8, 8, 14, 14, 0,
      8, 14, 14, 0, 0, 8,
      8, 14, 14, 0, 0, 8,
      10, 8, 8, 2, 2, 10,
      9, 14, 14, 1, 1, 9,
      14, 0, 0, 8, 8, 14,
      8, 2, 2, 16, 16, 8,
      0, 9, 9, 1, 1, 0,
      8, 9, 9, 15, 15, 8,
      14, 0, 0, 8, 8, 14,
      14, 0, 0, 8, 8, 14,
      0, 8, 8, 14, 14, 0,
      0, 10, 10, 2, 2, 0,
      14, 15, 15, 9, 9, 14,
      0, 1, 1, 9, 9, 0,
      10, 16, 16, 2, 2, 10,
      9, 15, 15, 1, 1, 9,
      8, 1, 1, 15, 15, 8,
      0, 8, 8, 14, 14, 0,
      0, 8, 8, 14, 14, 0,
      9, 0, 0, 1, 1, 9,
      14, 16, 16, 10, 10, 14,
      8, 1, 1, 15, 15, 8,
      9, 15, 15, 1, 1, 9,
      8, 2, 2, 16, 16, 8,
      9, 15, 15, 1, 1, 9,
      14, 1, 1, 15, 15, 14,
      14, 0, 0, 8, 8, 14,
      14, 0, 0, 8, 8, 14,
      8, 1, 1, 9, 9, 8,
      0, 8, 8, 14, 14, 0
    ]
    colorPerVertex FALSE
    convex FALSE
    coordIndex
    [
        1, 282, 78, -1, 2, 282, 78, -1, 2, 282, 73, -1, 0, 282, 73, -1, 0, 282, 72, -1, 1, 282, 72, -1,
        2, 283, 85, -1, 8, 283, 85, -1, 8, 283, 76, -1, 0, 283, 76, -1, 0, 283, 73, -1, 2, 283, 73, -1,
        6, 284, 80, -1, 1, 284, 80, -1, 1, 284, 72, -1, 0, 284, 72, -1, 0, 284, 75, -1, 6, 284, 75, -1,
        1, 285, 81, -1, 7, 285, 81, -1, 7, 285, 84, -1, 2, 285, 84, -1, 2, 285, 78, -1, 1, 285, 78, -1,
        0, 286, 76, -1, 8, 286, 76, -1, 8, 286, 95, -1, 5, 286, 95, -1, 5, 286, 74, -1, 0, 286, 74, -1,
        2, 287, 84, -1, 7, 287, 84, -1, 7, 287, 91, -1, 4, 287, 91, -1, 4, 287, 83, -1, 2, 287, 83, -1,
        1, 288, 80, -1, 6, 288, 80, -1, 6, 288, 87, -1, 3, 288, 87, -1, 3, 288, 79, -1, 1, 288, 79, -1,
        11, 289, 86, -1, 2, 289, 86, -1, 2, 289, 83, -1, 4, 289, 83, -1, 4, 289, 92, -1, 11, 289, 92, -1,
        9, 290, 77, -1, 0, 290, 77, -1, 0, 290, 74, -1, 5, 290, 74, -1, 5, 290, 96, -1, 9, 290, 96, -1,
        10, 291, 82, -1, 1, 291, 82, -1, 1, 291, 79, -1, 3, 291, 79, -1, 3, 291, 88, -1, 10, 291, 88, -1,
        2, 292, 86, -1, 11, 292, 86, -1, 11, 292, 105, -1, 8, 292, 105, -1, 8, 292, 85, -1, 2, 292, 85, -1,
        6, 293, 75, -1, 0, 293, 75, -1, 0, 293, 77, -1, 9, 293, 77, -1, 9, 293, 99, -1, 6, 293, 99, -1,
        10, 294, 102, -1, 7, 294, 102, -1, 7, 294, 81, -1, 1, 294, 81, -1, 1, 294, 82, -1, 10, 294, 82, -1,
        8, 295, 106, -1, 14, 295, 106, -1, 14, 295, 97, -1, 5, 295, 97, -1, 5, 295, 95, -1, 8, 295, 95, -1,
        7, 296, 103, -1, 13, 296, 103, -1, 13, 296, 93, -1, 4, 296, 93, -1, 4, 296, 91, -1, 7, 296, 91, -1,
        6, 297, 100, -1, 12, 297, 100, -1, 12, 297, 89, -1, 3, 297, 89, -1, 3, 297, 87, -1, 6, 297, 87, -1,
        20, 298, 109, -1, 9, 298, 109, -1, 9, 298, 96, -1, 5, 298, 96, -1, 5, 298, 98, -1, 20, 298, 98, -1,
        19, 299, 115, -1, 11, 299, 115, -1, 11, 299, 92, -1, 4, 299, 92, -1, 4, 299, 94, -1, 19, 299, 94, -1,
        18, 300, 112, -1, 10, 300, 112, -1, 10, 300, 88, -1, 3, 300, 88, -1, 3, 300, 90, -1, 18, 300, 90, -1,
        11, 301, 114, -1, 17, 301, 114, -1, 17, 301, 107, -1, 8, 301, 107, -1, 8, 301, 105, -1, 11, 301, 105, -1,
        15, 302, 101, -1, 6, 302, 101, -1, 6, 302, 99, -1, 9, 302, 99, -1, 9, 302, 108, -1, 15, 302, 108, -1,
        10, 303, 111, -1, 16, 303, 111, -1, 16, 303, 104, -1, 7, 303, 104, -1, 7, 303, 102, -1, 10, 303, 102, -1,
        14, 304, 126, -1, 20, 304, 126, -1, 20, 304, 98, -1, 5, 304, 98, -1, 5, 304, 97, -1, 14, 304, 97, -1,
        13, 305, 122, -1, 19, 305, 122, -1, 19, 305, 94, -1, 4, 305, 94, -1, 4, 305, 93, -1, 13, 305, 93, -1,
        12, 306, 118, -1, 18, 306, 118, -1, 18, 306, 90, -1, 3, 306, 90, -1, 3, 306, 89, -1, 12, 306, 89, -1,
        17, 307, 125, -1, 14, 307, 125, -1, 14, 307, 106, -1, 8, 307, 106, -1, 8, 307, 107, -1, 17, 307, 107, -1,
        16, 308, 121, -1, 13, 308, 121, -1, 13, 308, 103, -1, 7, 308, 103, -1, 7, 308, 104, -1, 16, 308, 104, -1,
        15, 309, 117, -1, 12, 309, 117, -1, 12, 309, 100, -1, 6, 309, 100, -1, 6, 309, 101, -1, 15, 309, 101, -1,
        11, 310, 116, -1, 23, 310, 116, -1, 23, 310, 135, -1, 17, 310, 135, -1, 17, 310, 114, -1, 11, 310, 114, -1,
        21, 311, 129, -1, 15, 311, 129, -1, 15, 311, 108, -1, 9, 311, 108, -1, 9, 311, 110, -1, 21, 311, 110, -1,
        22, 312, 132, -1, 16, 312, 132, -1, 16, 312, 111, -1, 10, 312, 111, -1, 10, 312, 113, -1, 22, 312, 113, -1,
        19, 313, 141, -1, 23, 313, 141, -1, 23, 313, 116, -1, 11, 313, 116, -1, 11, 313, 115, -1, 19, 313, 115, -1,
        21, 314, 110, -1, 9, 314, 110, -1, 9, 314, 109, -1, 20, 314, 109, -1, 20, 314, 144, -1, 21, 314, 144, -1,
        18, 315, 138, -1, 22, 315, 138, -1, 22, 315, 113, -1, 10, 315, 113, -1, 10, 315, 112, -1, 18, 315, 112, -1,
        17, 316, 137, -1, 29, 316, 137, -1, 29, 316, 127, -1, 14, 316, 127, -1, 14, 316, 125, -1, 17, 316, 125, -1,
        16, 317, 134, -1, 28, 317, 134, -1, 28, 317, 123, -1, 13, 317, 123, -1, 13, 317, 121, -1, 16, 317, 121, -1,
        27, 318, 119, -1, 12, 318, 119, -1, 12, 318, 117, -1, 15, 318, 117, -1, 15, 318, 131, -1, 27, 318, 131, -1,
        14, 319, 128, -1, 32, 319, 128, -1, 32, 319, 145, -1, 20, 319, 145, -1, 20, 319, 126, -1, 14, 319, 126, -1,
        13, 320, 124, -1, 31, 320, 124, -1, 31, 320, 142, -1, 19, 320, 142, -1, 19, 320, 122, -1, 13, 320, 122, -1,
        30, 321, 139, -1, 18, 321, 139, -1, 18, 321, 118, -1, 12, 321, 118, -1, 12, 321, 120, -1, 30, 321, 120, -1,
        17, 322, 135, -1, 23, 322, 135, -1, 23, 322, 153, -1, 26, 322, 153, -1, 26, 322, 136, -1, 17, 322, 136, -1,
        15, 323, 129, -1, 21, 323, 129, -1, 21, 323, 147, -1, 24, 323, 147, -1, 24, 323, 130, -1, 15, 323, 130, -1,
        16, 324, 132, -1, 22, 324, 132, -1, 22, 324, 150, -1, 25, 324, 150, -1, 25, 324, 133, -1, 16, 324, 133, -1,
        29, 325, 137, -1, 17, 325, 137, -1, 17, 325, 136, -1, 26, 325, 136, -1, 26, 325, 162, -1, 29, 325, 162, -1,
        27, 326, 131, -1, 15, 326, 131, -1, 15, 326, 130, -1, 24, 326, 130, -1, 24, 326, 156, -1, 27, 326, 156, -1,
        28, 327, 134, -1, 16, 327, 134, -1, 16, 327, 133, -1, 25, 327, 133, -1, 25, 327, 159, -1, 28, 327, 159, -1,
        29, 328, 171, -1, 32, 328, 171, -1, 32, 328, 128, -1, 14, 328, 128, -1, 14, 328, 127, -1, 29, 328, 127, -1,
        19, 329, 143, -1, 34, 329, 143, -1, 34, 329, 154, -1, 23, 329, 154, -1, 23, 329, 141, -1, 19, 329, 141, -1,
        35, 330, 148, -1, 21, 330, 148, -1, 21, 330, 144, -1, 20, 330, 144, -1, 20, 330, 146, -1, 35, 330, 146, -1,
        28, 331, 168, -1, 31, 331, 168, -1, 31, 331, 124, -1, 13, 331, 124, -1, 13, 331, 123, -1, 28, 331, 123, -1,
        27, 332, 165, -1, 30, 332, 165, -1, 30, 332, 120, -1, 12, 332, 120, -1, 12, 332, 119, -1, 27, 332, 119, -1,
        33, 333, 151, -1, 22, 333, 151, -1, 22, 333, 138, -1, 18, 333, 138, -1, 18, 333, 140, -1, 33, 333, 140, -1,
        32, 334, 180, -1, 35, 334, 180, -1, 35, 334, 146, -1, 20, 334, 146, -1, 20, 334, 145, -1, 32, 334, 145, -1,
        31, 335, 177, -1, 34, 335, 177, -1, 34, 335, 143, -1, 19, 335, 143, -1, 19, 335, 142, -1, 31, 335, 142, -1,
        30, 336, 174, -1, 33, 336, 174, -1, 33, 336, 140, -1, 18, 336, 140, -1, 18, 336, 139, -1, 30, 336, 139, -1,
        23, 337, 155, -1, 38, 337, 155, -1, 38, 337, 163, -1, 26, 337, 163, -1, 26, 337, 153, -1, 23, 337, 153, -1,
        21, 338, 149, -1, 36, 338, 149, -1, 36, 338, 157, -1, 24, 338, 157, -1, 24, 338, 147, -1, 21, 338, 147, -1,
        22, 339, 152, -1, 37, 339, 152, -1, 37, 339, 160, -1, 25, 339, 160, -1, 25, 339, 150, -1, 22, 339, 150, -1,
        34, 340, 186, -1, 38, 340, 186, -1, 38, 340, 155, -1, 23, 340, 155, -1, 23, 340, 154, -1, 34, 340, 154, -1,
        35, 341, 189, -1, 36, 341, 189, -1, 36, 341, 149, -1, 21, 341, 149, -1, 21, 341, 148, -1, 35, 341, 148, -1,
        33, 342, 183, -1, 37, 342, 183, -1, 37, 342, 152, -1, 22, 342, 152, -1, 22, 342, 151, -1, 33, 342, 151, -1,
        41, 343, 172, -1, 29, 343, 172, -1, 29, 343, 162, -1, 26, 343, 162, -1, 26, 343, 164, -1, 41, 343, 164, -1,
        39, 344, 166, -1, 27, 344, 166, -1, 27, 344, 156, -1, 24, 344, 156, -1, 24, 344, 158, -1, 39, 344, 158, -1,
        40, 345, 169, -1, 28, 345, 169, -1, 28, 345, 159, -1, 25, 345, 159, -1, 25, 345, 161, -1, 40, 345, 161, -1,
        29, 346, 173, -1, 44, 346, 173, -1, 44, 346, 181, -1, 32, 346, 181, -1, 32, 346, 171, -1, 29, 346, 171, -1,
        28, 347, 170, -1, 43, 347, 170, -1, 43, 347, 178, -1, 31, 347, 178, -1, 31, 347, 168, -1, 28, 347, 168, -1,
        42, 348, 175, -1, 30, 348, 175, -1, 30, 348, 165, -1, 27, 348, 165, -1, 27, 348, 167, -1, 42, 348, 167, -1,
        35, 349, 180, -1, 32, 349, 180, -1, 32, 349, 182, -1, 47, 349, 182, -1, 47, 349, 190, -1, 35, 349, 190, -1,
        34, 350, 177, -1, 31, 350, 177, -1, 31, 350, 179, -1, 46, 350, 179, -1, 46, 350, 187, -1, 34, 350, 187, -1,
        33, 351, 174, -1, 30, 351, 174, -1, 30, 351, 176, -1, 45, 351, 176, -1, 45, 351, 184, -1, 33, 351, 184, -1,
        38, 352, 198, -1, 41, 352, 198, -1, 41, 352, 164, -1, 26, 352, 164, -1, 26, 352, 163, -1, 38, 352, 163, -1,
        36, 353, 192, -1, 39, 353, 192, -1, 39, 353, 158, -1, 24, 353, 158, -1, 24, 353, 157, -1, 36, 353, 157, -1,
        37, 354, 195, -1, 40, 354, 195, -1, 40, 354, 161, -1, 25, 354, 161, -1, 25, 354, 160, -1, 37, 354, 160, -1,
        41, 355, 207, -1, 44, 355, 207, -1, 44, 355, 173, -1, 29, 355, 173, -1, 29, 355, 172, -1, 41, 355, 172, -1,
        40, 356, 204, -1, 43, 356, 204, -1, 43, 356, 170, -1, 28, 356, 170, -1, 28, 356, 169, -1, 40, 356, 169, -1,
        39, 357, 201, -1, 42, 357, 201, -1, 42, 357, 167, -1, 27, 357, 167, -1, 27, 357, 166, -1, 39, 357, 166, -1,
        32, 358, 181, -1, 44, 358, 181, -1, 44, 358, 216, -1, 47, 358, 216, -1, 47, 358, 182, -1, 32, 358, 182, -1,
        31, 359, 178, -1, 43, 359, 178, -1, 43, 359, 213, -1, 46, 359, 213, -1, 46, 359, 179, -1, 31, 359, 179, -1,
        30, 360, 175, -1, 42, 360, 175, -1, 42, 360, 210, -1, 45, 360, 210, -1, 45, 360, 176, -1, 30, 360, 176, -1,
        34, 361, 188, -1, 50, 361, 188, -1, 50, 361, 199, -1, 38, 361, 199, -1, 38, 361, 186, -1, 34, 361, 186, -1,
        48, 362, 193, -1, 36, 362, 193, -1, 36, 362, 189, -1, 35, 362, 189, -1, 35, 362, 191, -1, 48, 362, 191, -1,
        49, 363, 196, -1, 37, 363, 196, -1, 37, 363, 183, -1, 33, 363, 183, -1, 33, 363, 185, -1, 49, 363, 185, -1,
        48, 364, 191, -1, 35, 364, 191, -1, 35, 364, 190, -1, 47, 364, 190, -1, 47, 364, 223, -1, 48, 364, 223, -1,
        50, 365, 188, -1, 34, 365, 188, -1, 34, 365, 187, -1, 46, 365, 187, -1, 46, 365, 221, -1, 50, 365, 221, -1,
        49, 366, 185, -1, 33, 366, 185, -1, 33, 366, 184, -1, 45, 366, 184, -1, 45, 366, 219, -1, 49, 366, 219, -1,
        38, 367, 200, -1, 53, 367, 200, -1, 53, 367, 208, -1, 41, 367, 208, -1, 41, 367, 198, -1, 38, 367, 198, -1,
        51, 368, 202, -1, 39, 368, 202, -1, 39, 368, 192, -1, 36, 368, 192, -1, 36, 368, 194, -1, 51, 368, 194, -1,
        37, 369, 197, -1, 52, 369, 197, -1, 52, 369, 205, -1, 40, 369, 205, -1, 40, 369, 195, -1, 37, 369, 195, -1,
        41, 370, 209, -1, 59, 370, 209, -1, 59, 370, 218, -1, 44, 370, 218, -1, 44, 370, 207, -1, 41, 370, 207, -1,
        50, 371, 231, -1, 53, 371, 231, -1, 53, 371, 200, -1, 38, 371, 200, -1, 38, 371, 199, -1, 50, 371, 199, -1,
        48, 372, 225, -1, 51, 372, 225, -1, 51, 372, 194, -1, 36, 372, 194, -1, 36, 372, 193, -1, 48, 372, 193, -1,
        40, 373, 206, -1, 58, 373, 206, -1, 58, 373, 215, -1, 43, 373, 215, -1, 43, 373, 204, -1, 40, 373, 204, -1,
        57, 374, 212, -1, 42, 374, 212, -1, 42, 374, 201, -1, 39, 374, 201, -1, 39, 374, 203, -1, 57, 374, 203, -1,
        49, 375, 228, -1, 52, 375, 228, -1, 52, 375, 197, -1, 37, 375, 197, -1, 37, 375, 196, -1, 49, 375, 196, -1,
        44, 376, 217, -1, 56, 376, 217, -1, 56, 376, 224, -1, 47, 376, 224, -1, 47, 376, 216, -1, 44, 376, 216, -1,
        43, 377, 214, -1, 55, 377, 214, -1, 55, 377, 222, -1, 46, 377, 222, -1, 46, 377, 213, -1, 43, 377, 213, -1,
        42, 378, 211, -1, 54, 378, 211, -1, 54, 378, 220, -1, 45, 378, 220, -1, 45, 378, 210, -1, 42, 378, 210, -1,
        56, 379, 226, -1, 48, 379, 226, -1, 48, 379, 223, -1, 47, 379, 223, -1, 47, 379, 224, -1, 56, 379, 224, -1,
        55, 380, 232, -1, 50, 380, 232, -1, 50, 380, 221, -1, 46, 380, 221, -1, 46, 380, 222, -1, 55, 380, 222, -1,
        54, 381, 229, -1, 49, 381, 229, -1, 49, 381, 219, -1, 45, 381, 219, -1, 45, 381, 220, -1, 54, 381, 220, -1,
        53, 382, 240, -1, 59, 382, 240, -1, 59, 382, 209, -1, 41, 382, 209, -1, 41, 382, 208, -1, 53, 382, 208, -1,
        51, 383, 234, -1, 57, 383, 234, -1, 57, 383, 203, -1, 39, 383, 203, -1, 39, 383, 202, -1, 51, 383, 202, -1,
        52, 384, 237, -1, 58, 384, 237, -1, 58, 384, 206, -1, 40, 384, 206, -1, 40, 384, 205, -1, 52, 384, 205, -1,
        59, 385, 249, -1, 56, 385, 249, -1, 56, 385, 217, -1, 44, 385, 217, -1, 44, 385, 218, -1, 59, 385, 218, -1,
        43, 386, 215, -1, 58, 386, 215, -1, 58, 386, 246, -1, 55, 386, 246, -1, 55, 386, 214, -1, 43, 386, 214, -1,
        57, 387, 243, -1, 54, 387, 243, -1, 54, 387, 211, -1, 42, 387, 211, -1, 42, 387, 212, -1, 57, 387, 212, -1,
        50, 388, 233, -1, 62, 388, 233, -1, 62, 388, 241, -1, 53, 388, 241, -1, 53, 388, 231, -1, 50, 388, 231, -1,
        60, 389, 235, -1, 51, 389, 235, -1, 51, 389, 225, -1, 48, 389, 225, -1, 48, 389, 227, -1, 60, 389, 227, -1,
        61, 390, 238, -1, 52, 390, 238, -1, 52, 390, 228, -1, 49, 390, 228, -1, 49, 390, 230, -1, 61, 390, 230, -1,
        56, 391, 250, -1, 60, 391, 250, -1, 60, 391, 227, -1, 48, 391, 227, -1, 48, 391, 226, -1, 56, 391, 226, -1,
        55, 392, 247, -1, 62, 392, 247, -1, 62, 392, 233, -1, 50, 392, 233, -1, 50, 392, 232, -1, 55, 392, 232, -1,
        54, 393, 244, -1, 61, 393, 244, -1, 61, 393, 230, -1, 49, 393, 230, -1, 49, 393, 229, -1, 54, 393, 229, -1,
        59, 394, 256, -1, 65, 394, 256, -1, 65, 394, 251, -1, 56, 394, 251, -1, 56, 394, 249, -1, 59, 394, 249, -1,
        58, 395, 254, -1, 64, 395, 254, -1, 64, 395, 248, -1, 55, 395, 248, -1, 55, 395, 246, -1, 58, 395, 246, -1,
        63, 396, 245, -1, 54, 396, 245, -1, 54, 396, 243, -1, 57, 396, 243, -1, 57, 396, 252, -1, 63, 396, 252, -1,
        59, 397, 240, -1, 53, 397, 240, -1, 53, 397, 242, -1, 68, 397, 242, -1, 68, 397, 257, -1, 59, 397, 257, -1,
        57, 398, 234, -1, 51, 398, 234, -1, 51, 398, 236, -1, 66, 398, 236, -1, 66, 398, 253, -1, 57, 398, 253, -1,
        58, 399, 237, -1, 52, 399, 237, -1, 52, 399, 239, -1, 67, 399, 239, -1, 67, 399, 255, -1, 58, 399, 255, -1,
        65, 400, 258, -1, 60, 400, 258, -1, 60, 400, 250, -1, 56, 400, 250, -1, 56, 400, 251, -1, 65, 400, 251, -1,
        55, 401, 248, -1, 64, 401, 248, -1, 64, 401, 264, -1, 62, 401, 264, -1, 62, 401, 247, -1, 55, 401, 247, -1,
        63, 402, 261, -1, 61, 402, 261, -1, 61, 402, 244, -1, 54, 402, 244, -1, 54, 402, 245, -1, 63, 402, 245, -1,
        53, 403, 241, -1, 62, 403, 241, -1, 62, 403, 265, -1, 68, 403, 265, -1, 68, 403, 242, -1, 53, 403, 242, -1,
        51, 404, 235, -1, 60, 404, 235, -1, 60, 404, 259, -1, 66, 404, 259, -1, 66, 404, 236, -1, 51, 404, 236, -1,
        52, 405, 238, -1, 61, 405, 238, -1, 61, 405, 262, -1, 67, 405, 262, -1, 67, 405, 239, -1, 52, 405, 239, -1,
        65, 406, 256, -1, 59, 406, 256, -1, 59, 406, 257, -1, 68, 406, 257, -1, 68, 406, 273, -1, 65, 406, 273, -1,
        64, 407, 254, -1, 58, 407, 254, -1, 58, 407, 255, -1, 67, 407, 255, -1, 67, 407, 270, -1, 64, 407, 270, -1,
        63, 408, 252, -1, 57, 408, 252, -1, 57, 408, 253, -1, 66, 408, 253, -1, 66, 408, 267, -1, 63, 408, 267, -1,
        65, 409, 274, -1, 69, 409, 274, -1, 69, 409, 260, -1, 60, 409, 260, -1, 60, 409, 258, -1, 65, 409, 258, -1,
        62, 410, 264, -1, 64, 410, 264, -1, 64, 410, 272, -1, 71, 410, 272, -1, 71, 410, 266, -1, 62, 410, 266, -1,
        70, 411, 263, -1, 61, 411, 263, -1, 61, 411, 261, -1, 63, 411, 261, -1, 63, 411, 269, -1, 70, 411, 269, -1,
        62, 412, 266, -1, 71, 412, 266, -1, 71, 412, 278, -1, 68, 412, 278, -1, 68, 412, 265, -1, 62, 412, 265, -1,
        60, 413, 260, -1, 69, 413, 260, -1, 69, 413, 276, -1, 66, 413, 276, -1, 66, 413, 259, -1, 60, 413, 259, -1,
        61, 414, 263, -1, 70, 414, 263, -1, 70, 414, 277, -1, 67, 414, 277, -1, 67, 414, 262, -1, 61, 414, 262, -1,
        71, 415, 275, -1, 65, 415, 275, -1, 65, 415, 273, -1, 68, 415, 273, -1, 68, 415, 278, -1, 71, 415, 278, -1,
        69, 416, 268, -1, 63, 416, 268, -1, 63, 416, 267, -1, 66, 416, 267, -1, 66, 416, 276, -1, 69, 416, 276, -1,
        70, 417, 271, -1, 64, 417, 271, -1, 64, 417, 270, -1, 67, 417, 270, -1, 67, 417, 277, -1, 70, 417, 277, -1,
        71, 418, 280, -1, 69, 418, 280, -1, 69, 418, 274, -1, 65, 418, 274, -1, 65, 418, 275, -1, 71, 418, 275, -1,
        64, 419, 271, -1, 70, 419, 271, -1, 70, 419, 281, -1, 71, 419, 281, -1, 71, 419, 272, -1, 64, 419, 272, -1,
        69, 420, 279, -1, 70, 420, 279, -1, 70, 420, 269, -1, 63, 420, 269, -1, 63, 420, 268, -1, 69, 420, 268, -1,
        71, 421, 281, -1, 70, 421, 281, -1, 70, 421, 279, -1, 69, 421, 279, -1, 69, 421, 280, -1, 71, 421, 280, -1
    ]
    solid FALSE
  }
}