#VRML V2.0 utf8

NavigationInfo
{
  type "EXAMINE"
}

Background
{
  skyColor [ 0.1 0.1 0.1 ]
}

DirectionalLight
{
  direction 0 0 -1
}

Shape
{
  appearance Appearance
  {
    material Material
    {
      ambientIntensity 0.5
      diffuseColor 1 1 1
      specularColor 0.5 0.5 0.5
    }
  }
  geometry IndexedFaceSet
  {
    color Color
    {
      color
      [
        1 0 0,
        0 1 0,
        0 0 1
      ]
    }
    coord Coordinate
    {
      point
      [
        0.57735026919 0 0.408248290464,
        -0.288675134595 0.5 0.408248290464,
        -0.288675134595 -0.5 0.408248290464,
        0.288675134595 0.5 -0.408248290464,
        -0.57735026919 0 -0.408248290464,
        0.288675134595 -0.5 -0.408248290464,
        0.144337567297 0.25 0.408248290464,
        0.144337567297 -0.25 0.408248290464,
        0.433012701892 0.25 0,
        0.433012701892 -0.25 0,
        -0.288675134595 0 0.408248290464,
        0 0.5 0,
        -0.433012701892 0.25 0,
        -0.433012701892 -0.25 0,
        0 -0.5 0,
        -0.144337567297 0.25 -0.408248290464,
        0.288675134595 0 -0.408248290464,
        -0.144337567297 -0.25 -0.408248290464,
        0 0 0.816496580928,
        0.38490017946 -0.666666666667 0.272165526976,
        0.38490017946 0.666666666667 0.272165526976,
        -0.76980035892 0 0.272165526976,
        0.76980035892 0 -0.272165526976,
        -0.38490017946 -0.666666666667 -0.272165526976,
        -0.38490017946 0.666666666667 -0.272165526976,
        0 0 -0.816496580928
      ]
    }
    colorIndex
    [
      0, 0, 0, 0, 0, 0,
      0, 2, 2, 1, 1, 0,
      2, 1, 1, 0, 0, 2,
      2, 1, 1, 0, 0, 2,
      1, 0, 0, 2, 2, 1,
      1, 0, 0, 2, 2, 1,
      1, 0, 0, 2, 2, 1,
      0, 0, 0, 0, 0, 0
    ]
    colorPerVertex FALSE
    convex FALSE
    coordIndex
    [
        0, 18, 6, -1, 1, 18, 6, -1, 1, 18, 10, -1, 2, 18, 10, -1, 2, 18, 7, -1, 0, 18, 7, -1,
        0, 19, 7, -1, 2, 19, 7, -1, 2, 19, 14, -1, 5, 19, 14, -1, 5, 19, 9, -1, 0, 19, 9, -1,
        0, 20, 8, -1, 3, 20, 8, -1, 3, 20, 11, -1, 1, 20, 11, -1, 1, 20, 6, -1, 0, 20, 6, -1,
        1, 21, 12, -1, 4, 21, 12, -1, 4, 21, 13, -1, 2, 21, 13, -1, 2, 21, 10, -1, 1, 21, 10, -1,
        0, 22, 9, -1, 5, 22, 9, -1, 5, 22, 16, -1, 3, 22, 16, -1, 3, 22, 8, -1, 0, 22, 8, -1,
        2, 23, 13, -1, 4, 23, 13, -1, 4, 23, 17, -1, 5, 23, 17, -1, 5, 23, 14, -1, 2, 23, 14, -1,
        1, 24, 11, -1, 3, 24, 11, -1, 3, 24, 15, -1, 4, 24, 15, -1, 4, 24, 12, -1, 1, 24, 12, -1,
        3, 25, 16, -1, 5, 25, 16, -1, 5, 25, 17, -1, 4, 25, 17, -1, 4, 25, 15, -1, 3, 25, 15, -1
    ]
    solid FALSE
  }
}
