#VRML V2.0 utf8

NavigationInfo
{
  type "EXAMINE"
}

Background
{
  skyColor [ 0.1 0.1 0.1 ]
}

DirectionalLight
{
  direction 0 0 -1
}

Shape
{
  appearance Appearance
  {
    material Material
    {
      ambientIntensity 0.5
      diffuseColor 1 1 1
      specularColor 0.5 0.5 0.5
    }
  }
  geometry IndexedFaceSet
  {
    color Color
    {
      color
      [
        1 0 0,
        0 1 0,
        0 0 1,
        1 1 0,
        1 0 1,
        0 1 1,
        1 1 1,
        0 0 0,
        1 0.5 0.5,
        0.5 1 0.5,
        0.5 0.5 1,
        1 1 0.5,
        1 0.5 1,
        0.5 1 1,
        0.5 0 0,
        0 0.5 0,
        0 0 0.5,
        0.5 0.5 0,
        0.5 0 0.5,
        0 0.5 0.5,
        1 0.5 0,
        0.5 1 0,
        1 0 0.5,
        0 1 0.5,
        0.5 0 1,
        0 0.5 1,
        0.5 0.5 0.5
      ]
    }
    coord Coordinate
    {
      point
      [
        0.57735026919 0 0.755761314076,
        -0.288675134595 0.5 0.755761314076,
        -0.288675134595 -0.5 0.755761314076,
        0.467086179481 0.809016994375 0.178411044887,
        -0.934172358963 0 0.178411044887,
        0.467086179481 -0.809016994375 0.178411044887,
        0.934172358963 0 -0.178411044887,
        -0.467086179481 0.809016994375 -0.178411044887,
        -0.467086179481 -0.809016994375 -0.178411044887,
        0.288675134595 0.5 -0.755761314076,
        -0.57735026919 0 -0.755761314076,
        0.288675134595 -0.5 -0.755761314076,
        0.57735026919 0 1.755761314076,
        -0.288675134595 0.5 1.755761314076,
        -0.288675134595 -0.5 1.755761314076,
        0.910683602523 0.57735026919 1.501117306576,
        0.800419512815 1.386367263565 0.923767037386,
        0.044658198739 1.07735026919 1.501117306576,
        -0.955341801261 0.5 1.501117306576,
        -1.600839025629 0 0.923767037386,
        -0.955341801261 -0.5 1.501117306576,
        0.044658198739 -1.07735026919 1.501117306576,
        0.800419512815 -1.386367263565 0.923767037386,
        0.910683602523 -0.57735026919 1.501117306576,
        1.45002826544 0.356822089773 1.08909464741,
        1.806850355213 0.356822089773 0.154922288447,
        1.339764175731 1.165839084148 0.51174437822,
        -0.415997138345 1.434172358963 1.08909464741,
        0.339764175731 1.743189353338 0.51174437822,
        -0.594408183231 1.743189353338 0.154922288447,
        -1.034031127095 1.07735026919 1.08909464741,
        -1.212442171981 1.386367263565 0.154922288447,
        -1.679528351463 0.57735026919 0.51174437822,
        -1.034031127095 -1.07735026919 1.08909464741,
        -1.679528351463 -0.57735026919 0.51174437822,
        -1.212442171981 -1.386367263565 0.154922288447,
        -0.415997138345 -1.434172358963 1.08909464741,
        -0.594408183231 -1.743189353338 0.154922288447,
        0.339764175731 -1.743189353338 0.51174437822,
        1.45002826544 -0.356822089773 1.08909464741,
        1.339764175731 -1.165839084148 0.51174437822,
        1.806850355213 -0.356822089773 0.154922288447,
        1.034031127095 1.07735026919 -1.08909464741,
        1.212442171981 1.386367263565 -0.154922288447,
        1.679528351463 0.57735026919 -0.51174437822,
        0.415997138345 1.434172358963 -1.08909464741,
        -0.339764175731 1.743189353338 -0.51174437822,
        0.594408183231 1.743189353338 -0.154922288447,
        -1.45002826544 0.356822089773 -1.08909464741,
        -1.806850355213 0.356822089773 -0.154922288447,
        -1.339764175731 1.165839084148 -0.51174437822,
        -1.45002826544 -0.356822089773 -1.08909464741,
        -1.339764175731 -1.165839084148 -0.51174437822,
        -1.806850355213 -0.356822089773 -0.154922288447,
        0.415997138345 -1.434172358963 -1.08909464741,
        0.594408183231 -1.743189353338 -0.154922288447,
        -0.339764175731 -1.743189353338 -0.51174437822,
        1.034031127095 -1.07735026919 -1.08909464741,
        1.679528351463 -0.57735026919 -0.51174437822,
        1.212442171981 -1.386367263565 -0.154922288447,
        0.955341801261 0.5 -1.501117306576,
        1.600839025629 0 -0.923767037386,
        0.955341801261 -0.5 -1.501117306576,
        -0.044658198739 -1.07735026919 -1.501117306576,
        -0.800419512815 -1.386367263565 -0.923767037386,
        -0.910683602523 -0.57735026919 -1.501117306576,
        -0.910683602523 0.57735026919 -1.501117306576,
        -0.800419512815 1.386367263565 -0.923767037386,
        -0.044658198739 1.07735026919 -1.501117306576,
        0.288675134595 0.5 -1.755761314076,
        0.288675134595 -0.5 -1.755761314076,
        -0.57735026919 0 -1.755761314076
      ]
    }
    colorIndex
    [
      0,
      3,
      0,
      0,
      3,
      0,
      1,
      1,
      3,
      3,
      0,
      0,
      0,
      3,
      0,
      3,
      1,
      1,
      1,
      2,
      1,
      1,
      2,
      1,
      1,
      1,
      3,
      0,
      3,
      0,
      1,
      3,
      1,
      2,
      1,
      1,
      4,
      2,
      4,
      4,
      2,
      4,
      1,
      1,
      2,
      1,
      3,
      1,
      1,
      1,
      2,
      2,
      4,
      4,
      4,
      2,
      4,
      2,
      4,
      4
    ]
    colorPerVertex FALSE
    convex FALSE
    coordIndex
    [
      0, 1, 13, 12, -1,
      1, 2, 14, 13, -1,
      2, 0, 12, 14, -1,
      0, 3, 16, 15, -1,
      3, 1, 17, 16, -1,
      1, 0, 15, 17, -1,
      1, 4, 19, 18, -1,
      4, 2, 20, 19, -1,
      2, 1, 18, 20, -1,
      2, 5, 22, 21, -1,
      5, 0, 23, 22, -1,
      0, 2, 21, 23, -1,
      0, 6, 25, 24, -1,
      6, 3, 26, 25, -1,
      3, 0, 24, 26, -1,
      1, 3, 28, 27, -1,
      3, 7, 29, 28, -1,
      7, 1, 27, 29, -1,
      1, 7, 31, 30, -1,
      7, 4, 32, 31, -1,
      4, 1, 30, 32, -1,
      2, 4, 34, 33, -1,
      4, 8, 35, 34, -1,
      8, 2, 33, 35, -1,
      2, 8, 37, 36, -1,
      8, 5, 38, 37, -1,
      5, 2, 36, 38, -1,
      0, 5, 40, 39, -1,
      5, 6, 41, 40, -1,
      6, 0, 39, 41, -1,
      9, 3, 43, 42, -1,
      3, 6, 44, 43, -1,
      6, 9, 42, 44, -1,
      9, 7, 46, 45, -1,
      7, 3, 47, 46, -1,
      3, 9, 45, 47, -1,
      10, 4, 49, 48, -1,
      4, 7, 50, 49, -1,
      7, 10, 48, 50, -1,
      10, 8, 52, 51, -1,
      8, 4, 53, 52, -1,
      4, 10, 51, 53, -1,
      11, 5, 55, 54, -1,
      5, 8, 56, 55, -1,
      8, 11, 54, 56, -1,
      11, 6, 58, 57, -1,
      6, 5, 59, 58, -1,
      5, 11, 57, 59, -1,
      9, 6, 61, 60, -1,
      6, 11, 62, 61, -1,
      11, 9, 60, 62, -1,
      11, 8, 64, 63, -1,
      8, 10, 65, 64, -1,
      10, 11, 63, 65, -1,
      10, 7, 67, 66, -1,
      7, 9, 68, 67, -1,
      9, 10, 66, 68, -1,
      9, 11, 70, 69, -1,
      11, 10, 71, 70, -1,
      10, 9, 69, 71, -1
    ]
    solid FALSE
  }
}