#VRML V2.0 utf8

NavigationInfo
{
  type "EXAMINE"
}

Background
{
  skyColor [ 0.1 0.1 0.1 ]
}

DirectionalLight
{
  direction 0 0 -1
}

Shape
{
  appearance Appearance
  {
    material Material
    {
      ambientIntensity 0.5
      diffuseColor 1 1 1
      specularColor 0.5 0.5 0.5
    }
  }
  geometry IndexedFaceSet
  {
    color Color
    {
      color
      [
        1 0 0,
        0 1 0,
        0 0 1,
        1 1 0,
        1 0 1,
        0 1 1,
        1 1 1,
        0 0 0,
        1 0.5 0.5,
        0.5 1 0.5,
        0.5 0.5 1,
        1 1 0.5,
        1 0.5 1,
        0.5 1 1,
        0.5 0 0,
        0 0.5 0,
        0 0 0.5,
        0.5 0.5 0,
        0.5 0 0.5,
        0 0.5 0.5,
        1 0.5 0,
        0.5 1 0,
        1 0 0.5,
        0 1 0.5,
        0.5 0 1,
        0 0.5 1,
        0.5 0.5 0.5
      ]
    }
    coord Coordinate
    {
      point
      [
        0 -0.707106781187 1.720193579518,
        0.707106781187 0 1.720193579518,
        0 0.707106781187 1.720193579518,
        -0.707106781187 0 1.720193579518,
        0.822252457659 0.822252457659 1.162840577317,
        -0.822252457659 0.822252457659 1.162840577317,
        -0.822252457659 -0.822252457659 1.162840577317,
        0.822252457659 -0.822252457659 1.162840577317,
        0 -1.352636600888 0.956458512969,
        1.352636600888 0 0.956458512969,
        0 1.352636600888 0.956458512969,
        -1.352636600888 0 0.956458512969,
        1.569913935624 0.862807154437 0.5,
        0.862807154437 1.569913935624 0.5,
        -0.862807154437 1.569913935624 0.5,
        -1.569913935624 0.862807154437 0.5,
        -1.569913935624 -0.862807154437 0.5,
        -0.862807154437 -1.569913935624 0.5,
        0.862807154437 -1.569913935624 0.5,
        1.569913935624 -0.862807154437 0.5,
        0 -1.644504915319 0,
        1.644504915319 0 0,
        0 1.644504915319 0,
        -1.644504915319 0 0,
        1.569913935624 0.862807154437 -0.5,
        0.862807154437 1.569913935624 -0.5,
        -0.862807154437 1.569913935624 -0.5,
        -1.569913935624 0.862807154437 -0.5,
        -1.569913935624 -0.862807154437 -0.5,
        -0.862807154437 -1.569913935624 -0.5,
        0.862807154437 -1.569913935624 -0.5,
        1.569913935624 -0.862807154437 -0.5,
        0 -1.352636600888 -0.956458512969,
        1.352636600888 0 -0.956458512969,
        0 1.352636600888 -0.956458512969,
        -1.352636600888 0 -0.956458512969,
        0.822252457659 0.822252457659 -1.162840577317,
        -0.822252457659 0.822252457659 -1.162840577317,
        -0.822252457659 -0.822252457659 -1.162840577317,
        0.822252457659 -0.822252457659 -1.162840577317,
        0 -0.707106781187 -1.720193579518,
        0.707106781187 0 -1.720193579518,
        0 0.707106781187 -1.720193579518,
        -0.707106781187 0 -1.720193579518,
        0.707106781187 0 2.720193579518,
        0 0.707106781187 2.720193579518,
        -0.707106781187 0 2.720193579518,
        0 -0.707106781187 2.720193579518,
        -1.101214868558 -0.394108087371 2.383034156834,
        -1.216360545031 -1.216360545031 1.825681154633,
        -0.394108087371 -1.101214868558 2.383034156834,
        -0.394108087371 1.101214868558 2.383034156834,
        -1.216360545031 1.216360545031 1.825681154633,
        -1.101214868558 0.394108087371 2.383034156834,
        1.101214868558 0.394108087371 2.383034156834,
        1.216360545031 1.216360545031 1.825681154633,
        0.394108087371 1.101214868558 2.383034156834,
        1.216360545031 -1.216360545031 1.825681154633,
        1.101214868558 -0.394108087371 2.383034156834,
        0.394108087371 -1.101214868558 2.383034156834,
        -1.980619636359 -0.271847192137 1.487246993712,
        -1.45023549313 -1.094099649797 1.693629058059,
        -1.335089816657 -0.271847192137 2.25098206026,
        -1.45023549313 1.094099649797 1.693629058059,
        -1.980619636359 0.271847192137 1.487246993712,
        -1.335089816657 0.271847192137 2.25098206026,
        -0.271847192137 1.980619636359 1.487246993712,
        -1.094099649797 1.45023549313 1.693629058059,
        -0.271847192137 1.335089816657 2.25098206026,
        1.094099649797 1.45023549313 1.693629058059,
        0.271847192137 1.980619636359 1.487246993712,
        0.271847192137 1.335089816657 2.25098206026,
        1.980619636359 0.271847192137 1.487246993712,
        1.45023549313 1.094099649797 1.693629058059,
        1.335089816657 0.271847192137 2.25098206026,
        1.45023549313 -1.094099649797 1.693629058059,
        1.980619636359 -0.271847192137 1.487246993712,
        1.335089816657 -0.271847192137 2.25098206026,
        0.271847192137 -1.980619636359 1.487246993712,
        1.094099649797 -1.45023549313 1.693629058059,
        0.271847192137 -1.335089816657 2.25098206026,
        -1.094099649797 -1.45023549313 1.693629058059,
        -0.271847192137 -1.980619636359 1.487246993712,
        -0.271847192137 -1.335089816657 2.25098206026,
        -1.019508670102 1.375644513435 1.799116633175,
        -0.197256212442 1.906028656663 1.592734568827,
        -1.060063366879 2.123305991399 1.136276055858,
        -1.906028656663 0.197256212442 1.592734568827,
        -1.375644513435 1.019508670102 1.799116633175,
        -2.123305991399 1.060063366879 1.136276055858,
        1.019508670102 -1.375644513435 1.799116633175,
        0.197256212442 -1.906028656663 1.592734568827,
        1.060063366879 -2.123305991399 1.136276055858,
        1.906028656663 -0.197256212442 1.592734568827,
        1.375644513435 -1.019508670102 1.799116633175,
        2.123305991399 -1.060063366879 1.136276055858,
        -1.375644513435 -1.019508670102 1.799116633175,
        -1.906028656663 -0.197256212442 1.592734568827,
        -2.123305991399 -1.060063366879 1.136276055858,
        -0.197256212442 -1.906028656663 1.592734568827,
        -1.019508670102 -1.375644513435 1.799116633175,
        -1.060063366879 -2.123305991399 1.136276055858,
        0.197256212442 1.906028656663 1.592734568827,
        1.019508670102 1.375644513435 1.799116633175,
        1.060063366879 2.123305991399 1.136276055858,
        1.375644513435 1.019508670102 1.799116633175,
        1.906028656663 0.197256212442 1.592734568827,
        2.123305991399 1.060063366879 1.136276055858,
        -1.290951524726 1.290951524726 1.720193579518,
        -1.331506221503 2.03861300269 1.057353002201,
        -2.03861300269 1.331506221503 1.057353002201,
        2.03861300269 -1.331506221503 1.057353002201,
        1.290951524726 -1.290951524726 1.720193579518,
        1.331506221503 -2.03861300269 1.057353002201,
        -1.331506221503 -2.03861300269 1.057353002201,
        -1.290951524726 -1.290951524726 1.720193579518,
        -2.03861300269 -1.331506221503 1.057353002201,
        1.331506221503 2.03861300269 1.057353002201,
        1.290951524726 1.290951524726 1.720193579518,
        2.03861300269 1.331506221503 1.057353002201,
        0.074590979695 2.177875848801 1.208284582814,
        0.074590979695 2.469744163231 0.251826069844,
        -0.788216174742 2.395153183536 0.751826069844,
        -2.469744163231 -0.074590979695 0.251826069844,
        -2.177875848801 -0.074590979695 1.208284582814,
        -2.395153183536 0.788216174742 0.751826069844,
        -0.074590979695 -2.177875848801 1.208284582814,
        -0.074590979695 -2.469744163231 0.251826069844,
        0.788216174742 -2.395153183536 0.751826069844,
        2.469744163231 0.074590979695 0.251826069844,
        2.177875848801 0.074590979695 1.208284582814,
        2.395153183536 -0.788216174742 0.751826069844,
        -2.177875848801 0.074590979695 1.208284582814,
        -2.469744163231 0.074590979695 0.251826069844,
        -2.395153183536 -0.788216174742 0.751826069844,
        0.074590979695 -2.469744163231 0.251826069844,
        0.074590979695 -2.177875848801 1.208284582814,
        -0.788216174742 -2.395153183536 0.751826069844,
        -0.074590979695 2.469744163231 0.251826069844,
        -0.074590979695 2.177875848801 1.208284582814,
        0.788216174742 2.395153183536 0.751826069844,
        2.177875848801 -0.074590979695 1.208284582814,
        2.469744163231 -0.074590979695 0.251826069844,
        2.395153183536 0.788216174742 0.751826069844,
        -1.569913935624 2.27702071681 0.5,
        -1.569913935624 2.27702071681 -0.5,
        -2.27702071681 1.569913935624 -0.5,
        -2.27702071681 1.569913935624 0.5,
        2.27702071681 -1.569913935624 -0.5,
        2.27702071681 -1.569913935624 0.5,
        1.569913935624 -2.27702071681 0.5,
        1.569913935624 -2.27702071681 -0.5,
        -1.569913935624 -2.27702071681 0.5,
        -2.27702071681 -1.569913935624 0.5,
        -2.27702071681 -1.569913935624 -0.5,
        -1.569913935624 -2.27702071681 -0.5,
        2.27702071681 1.569913935624 -0.5,
        1.569913935624 2.27702071681 -0.5,
        1.569913935624 2.27702071681 0.5,
        2.27702071681 1.569913935624 0.5,
        -2.432721090061 0.937398134132 -0.5,
        -2.507312069756 0.074590979695 0.0,
        -2.432721090061 0.937398134132 0.5,
        -0.937398134132 2.432721090061 0.5,
        -0.074590979695 2.507312069756 0.0,
        -0.937398134132 2.432721090061 -0.5,
        0.937398134132 -2.432721090061 0.5,
        0.074590979695 -2.507312069756 0.0,
        0.937398134132 -2.432721090061 -0.5,
        2.432721090061 -0.937398134132 -0.5,
        2.507312069756 -0.074590979695 0.0,
        2.432721090061 -0.937398134132 0.5,
        -2.432721090061 -0.937398134132 0.5,
        -2.507312069756 -0.074590979695 0.0,
        -2.432721090061 -0.937398134132 -0.5,
        -0.074590979695 -2.507312069756 0.0,
        -0.937398134132 -2.432721090061 0.5,
        -0.937398134132 -2.432721090061 -0.5,
        0.937398134132 2.432721090061 -0.5,
        0.074590979695 2.507312069756 0.0,
        0.937398134132 2.432721090061 0.5,
        2.507312069756 0.074590979695 0.0,
        2.432721090061 0.937398134132 -0.5,
        2.432721090061 0.937398134132 0.5,
        -2.177875848801 -0.074590979695 -1.208284582814,
        -2.469744163231 -0.074590979695 -0.251826069844,
        -2.395153183536 0.788216174742 -0.751826069844,
        0.074590979695 2.469744163231 -0.251826069844,
        0.074590979695 2.177875848801 -1.208284582814,
        -0.788216174742 2.395153183536 -0.751826069844,
        2.177875848801 0.074590979695 -1.208284582814,
        2.469744163231 0.074590979695 -0.251826069844,
        2.395153183536 -0.788216174742 -0.751826069844,
        -0.074590979695 -2.469744163231 -0.251826069844,
        -0.074590979695 -2.177875848801 -1.208284582814,
        0.788216174742 -2.395153183536 -0.751826069844,
        -2.469744163231 0.074590979695 -0.251826069844,
        -2.177875848801 0.074590979695 -1.208284582814,
        -2.395153183536 -0.788216174742 -0.751826069844,
        0.074590979695 -2.177875848801 -1.208284582814,
        0.074590979695 -2.469744163231 -0.251826069844,
        -0.788216174742 -2.395153183536 -0.751826069844,
        -0.074590979695 2.177875848801 -1.208284582814,
        -0.074590979695 2.469744163231 -0.251826069844,
        0.788216174742 2.395153183536 -0.751826069844,
        2.469744163231 -0.074590979695 -0.251826069844,
        2.177875848801 -0.074590979695 -1.208284582814,
        2.395153183536 0.788216174742 -0.751826069844,
        -1.331506221503 2.03861300269 -1.057353002201,
        -1.290951524726 1.290951524726 -1.720193579518,
        -2.03861300269 1.331506221503 -1.057353002201,
        1.290951524726 -1.290951524726 -1.720193579518,
        2.03861300269 -1.331506221503 -1.057353002201,
        1.331506221503 -2.03861300269 -1.057353002201,
        -2.03861300269 -1.331506221503 -1.057353002201,
        -1.290951524726 -1.290951524726 -1.720193579518,
        -1.331506221503 -2.03861300269 -1.057353002201,
        2.03861300269 1.331506221503 -1.057353002201,
        1.290951524726 1.290951524726 -1.720193579518,
        1.331506221503 2.03861300269 -1.057353002201,
        -1.375644513435 1.019508670102 -1.799116633175,
        -1.906028656663 0.197256212442 -1.592734568827,
        -2.123305991399 1.060063366879 -1.136276055858,
        -0.197256212442 1.906028656663 -1.592734568827,
        -1.019508670102 1.375644513435 -1.799116633175,
        -1.060063366879 2.123305991399 -1.136276055858,
        1.375644513435 -1.019508670102 -1.799116633175,
        1.906028656663 -0.197256212442 -1.592734568827,
        2.123305991399 -1.060063366879 -1.136276055858,
        0.197256212442 -1.906028656663 -1.592734568827,
        1.019508670102 -1.375644513435 -1.799116633175,
        1.060063366879 -2.123305991399 -1.136276055858,
        -1.906028656663 -0.197256212442 -1.592734568827,
        -1.375644513435 -1.019508670102 -1.799116633175,
        -2.123305991399 -1.060063366879 -1.136276055858,
        -1.019508670102 -1.375644513435 -1.799116633175,
        -0.197256212442 -1.906028656663 -1.592734568827,
        -1.060063366879 -2.123305991399 -1.136276055858,
        1.019508670102 1.375644513435 -1.799116633175,
        0.197256212442 1.906028656663 -1.592734568827,
        1.060063366879 2.123305991399 -1.136276055858,
        1.906028656663 0.197256212442 -1.592734568827,
        1.375644513435 1.019508670102 -1.799116633175,
        2.123305991399 1.060063366879 -1.136276055858,
        -0.271847192137 -1.980619636359 -1.487246993712,
        -1.094099649797 -1.45023549313 -1.693629058059,
        -0.271847192137 -1.335089816657 -2.25098206026,
        1.094099649797 -1.45023549313 -1.693629058059,
        0.271847192137 -1.980619636359 -1.487246993712,
        0.271847192137 -1.335089816657 -2.25098206026,
        1.980619636359 -0.271847192137 -1.487246993712,
        1.45023549313 -1.094099649797 -1.693629058059,
        1.335089816657 -0.271847192137 -2.25098206026,
        1.45023549313 1.094099649797 -1.693629058059,
        1.980619636359 0.271847192137 -1.487246993712,
        1.335089816657 0.271847192137 -2.25098206026,
        0.271847192137 1.980619636359 -1.487246993712,
        1.094099649797 1.45023549313 -1.693629058059,
        0.271847192137 1.335089816657 -2.25098206026,
        -1.094099649797 1.45023549313 -1.693629058059,
        -0.271847192137 1.980619636359 -1.487246993712,
        -0.271847192137 1.335089816657 -2.25098206026,
        -1.980619636359 0.271847192137 -1.487246993712,
        -1.45023549313 1.094099649797 -1.693629058059,
        -1.335089816657 0.271847192137 -2.25098206026,
        -1.45023549313 -1.094099649797 -1.693629058059,
        -1.980619636359 -0.271847192137 -1.487246993712,
        -1.335089816657 -0.271847192137 -2.25098206026,
        -0.394108087371 -1.101214868558 -2.383034156834,
        -1.216360545031 -1.216360545031 -1.825681154633,
        -1.101214868558 -0.394108087371 -2.383034156834,
        1.101214868558 -0.394108087371 -2.383034156834,
        1.216360545031 -1.216360545031 -1.825681154633,
        0.394108087371 -1.101214868558 -2.383034156834,
        0.394108087371 1.101214868558 -2.383034156834,
        1.216360545031 1.216360545031 -1.825681154633,
        1.101214868558 0.394108087371 -2.383034156834,
        -1.216360545031 1.216360545031 -1.825681154633,
        -0.394108087371 1.101214868558 -2.383034156834,
        -1.101214868558 0.394108087371 -2.383034156834,
        0 0.707106781187 -2.720193579518,
        0.707106781187 0 -2.720193579518,
        0 -0.707106781187 -2.720193579518,
        -0.707106781187 0 -2.720193579518
      ]
    }
    colorIndex
    [
      20,
      20,
      20,
      20,
      7,
      20,
      20,
      20,
      7,
      20,
      7,
      20,
      20,
      7,
      20,
      20,
      20,
      7,
      7,
      20,
      7,
      7,
      20,
      20,
      7,
      20,
      7,
      20,
      20,
      7,
      7,
      20,
      7,
      7,
      20,
      20,
      7,
      20,
      7,
      20,
      20,
      20,
      7,
      20,
      20,
      20,
      20,
      20,
      7,
      20,
      20,
      20,
      20,
      20,
      20,
      20,
      7,
      20,
      20,
      7,
      20,
      20,
      20,
      20,
      7,
      20,
      20,
      20,
      7,
      20,
      7,
      20,
      20,
      7,
      20,
      20,
      7,
      20,
      20,
      7,
      20,
      20,
      7,
      20,
      20,
      7,
      20,
      20,
      7,
      20,
      20,
      7,
      20,
      20,
      7,
      20,
      20,
      7,
      20,
      20,
      7,
      20,
      20,
      20,
      20,
      20,
      7,
      20,
      20,
      20,
      20,
      7,
      20,
      7,
      20,
      20,
      20,
      20,
      20,
      20,
      20,
      7,
      20,
      20,
      7,
      20,
      20,
      20,
      20,
      20,
      20,
      20,
      7,
      20,
      20,
      20,
      7,
      20,
      20,
      20,
      7,
      20,
      20,
      7,
      20,
      20,
      7,
      20,
      20,
      7,
      20,
      20,
      7,
      20,
      20,
      7,
      20,
      20,
      7,
      20,
      20,
      7,
      20,
      20,
      7,
      20,
      20,
      20,
      20,
      7,
      20,
      7,
      20,
      20,
      7,
      20,
      20,
      20,
      20,
      20,
      7,
      20,
      20,
      20,
      20,
      20,
      7,
      20,
      20,
      20,
      20,
      20,
      20,
      7,
      20,
      20,
      7,
      20,
      20,
      20,
      20,
      20,
      7,
      20,
      7,
      20,
      20,
      7,
      7,
      20,
      7,
      7,
      20,
      20,
      7,
      20,
      7,
      20,
      20,
      7,
      7,
      20,
      7,
      7,
      20,
      7,
      20,
      7,
      20,
      20,
      20,
      7,
      20,
      20,
      20,
      7,
      20,
      20,
      20,
      20
    ]
    colorPerVertex FALSE
    convex FALSE
    coordIndex
    [
      1, 2, 45, 44, -1,
      2, 3, 46, 45, -1,
      3, 0, 47, 46, -1,
      0, 1, 44, 47, -1,
      3, 6, 49, 48, -1,
      6, 0, 50, 49, -1,
      0, 3, 48, 50, -1,
      2, 5, 52, 51, -1,
      5, 3, 53, 52, -1,
      3, 2, 51, 53, -1,
      1, 4, 55, 54, -1,
      4, 2, 56, 55, -1,
      2, 1, 54, 56, -1,
      7, 1, 58, 57, -1,
      1, 0, 59, 58, -1,
      0, 7, 57, 59, -1,
      11, 6, 61, 60, -1,
      6, 3, 62, 61, -1,
      3, 11, 60, 62, -1,
      5, 11, 64, 63, -1,
      11, 3, 65, 64, -1,
      3, 5, 63, 65, -1,
      10, 5, 67, 66, -1,
      5, 2, 68, 67, -1,
      2, 10, 66, 68, -1,
      4, 10, 70, 69, -1,
      10, 2, 71, 70, -1,
      2, 4, 69, 71, -1,
      9, 4, 73, 72, -1,
      4, 1, 74, 73, -1,
      1, 9, 72, 74, -1,
      7, 9, 76, 75, -1,
      9, 1, 77, 76, -1,
      1, 7, 75, 77, -1,
      8, 7, 79, 78, -1,
      7, 0, 80, 79, -1,
      0, 8, 78, 80, -1,
      6, 8, 82, 81, -1,
      8, 0, 83, 82, -1,
      0, 6, 81, 83, -1,
      5, 10, 85, 84, -1,
      10, 14, 86, 85, -1,
      14, 5, 84, 86, -1,
      11, 5, 88, 87, -1,
      5, 15, 89, 88, -1,
      15, 11, 87, 89, -1,
      7, 8, 91, 90, -1,
      8, 18, 92, 91, -1,
      18, 7, 90, 92, -1,
      9, 7, 94, 93, -1,
      7, 19, 95, 94, -1,
      19, 9, 93, 95, -1,
      6, 11, 97, 96, -1,
      11, 16, 98, 97, -1,
      16, 6, 96, 98, -1,
      8, 6, 100, 99, -1,
      6, 17, 101, 100, -1,
      17, 8, 99, 101, -1,
      10, 4, 103, 102, -1,
      4, 13, 104, 103, -1,
      13, 10, 102, 104, -1,
      4, 9, 106, 105, -1,
      9, 12, 107, 106, -1,
      12, 4, 105, 107, -1,
      5, 14, 109, 108, -1,
      14, 15, 110, 109, -1,
      15, 5, 108, 110, -1,
      19, 7, 112, 111, -1,
      7, 18, 113, 112, -1,
      18, 19, 111, 113, -1,
      17, 6, 115, 114, -1,
      6, 16, 116, 115, -1,
      16, 17, 114, 116, -1,
      13, 4, 118, 117, -1,
      4, 12, 119, 118, -1,
      12, 13, 117, 119, -1,
      10, 22, 121, 120, -1,
      22, 14, 122, 121, -1,
      14, 10, 120, 122, -1,
      23, 11, 124, 123, -1,
      11, 15, 125, 124, -1,
      15, 23, 123, 125, -1,
      8, 20, 127, 126, -1,
      20, 18, 128, 127, -1,
      18, 8, 126, 128, -1,
      21, 9, 130, 129, -1,
      9, 19, 131, 130, -1,
      19, 21, 129, 131, -1,
      11, 23, 133, 132, -1,
      23, 16, 134, 133, -1,
      16, 11, 132, 134, -1,
      20, 8, 136, 135, -1,
      8, 17, 137, 136, -1,
      17, 20, 135, 137, -1,
      22, 10, 139, 138, -1,
      10, 13, 140, 139, -1,
      13, 22, 138, 140, -1,
      9, 21, 142, 141, -1,
      21, 12, 143, 142, -1,
      12, 9, 141, 143, -1,
      14, 26, 145, 144, -1,
      26, 27, 146, 145, -1,
      27, 15, 147, 146, -1,
      15, 14, 144, 147, -1,
      31, 19, 149, 148, -1,
      19, 18, 150, 149, -1,
      18, 30, 151, 150, -1,
      30, 31, 148, 151, -1,
      17, 16, 153, 152, -1,
      16, 28, 154, 153, -1,
      28, 29, 155, 154, -1,
      29, 17, 152, 155, -1,
      24, 25, 157, 156, -1,
      25, 13, 158, 157, -1,
      13, 12, 159, 158, -1,
      12, 24, 156, 159, -1,
      27, 23, 161, 160, -1,
      23, 15, 162, 161, -1,
      15, 27, 160, 162, -1,
      14, 22, 164, 163, -1,
      22, 26, 165, 164, -1,
      26, 14, 163, 165, -1,
      18, 20, 167, 166, -1,
      20, 30, 168, 167, -1,
      30, 18, 166, 168, -1,
      31, 21, 170, 169, -1,
      21, 19, 171, 170, -1,
      19, 31, 169, 171, -1,
      16, 23, 173, 172, -1,
      23, 28, 174, 173, -1,
      28, 16, 172, 174, -1,
      20, 17, 176, 175, -1,
      17, 29, 177, 176, -1,
      29, 20, 175, 177, -1,
      25, 22, 179, 178, -1,
      22, 13, 180, 179, -1,
      13, 25, 178, 180, -1,
      21, 24, 182, 181, -1,
      24, 12, 183, 182, -1,
      12, 21, 181, 183, -1,
      35, 23, 185, 184, -1,
      23, 27, 186, 185, -1,
      27, 35, 184, 186, -1,
      22, 34, 188, 187, -1,
      34, 26, 189, 188, -1,
      26, 22, 187, 189, -1,
      33, 21, 191, 190, -1,
      21, 31, 192, 191, -1,
      31, 33, 190, 192, -1,
      20, 32, 194, 193, -1,
      32, 30, 195, 194, -1,
      30, 20, 193, 195, -1,
      23, 35, 197, 196, -1,
      35, 28, 198, 197, -1,
      28, 23, 196, 198, -1,
      32, 20, 200, 199, -1,
      20, 29, 201, 200, -1,
      29, 32, 199, 201, -1,
      34, 22, 203, 202, -1,
      22, 25, 204, 203, -1,
      25, 34, 202, 204, -1,
      21, 33, 206, 205, -1,
      33, 24, 207, 206, -1,
      24, 21, 205, 207, -1,
      26, 37, 209, 208, -1,
      37, 27, 210, 209, -1,
      27, 26, 208, 210, -1,
      39, 31, 212, 211, -1,
      31, 30, 213, 212, -1,
      30, 39, 211, 213, -1,
      28, 38, 215, 214, -1,
      38, 29, 216, 215, -1,
      29, 28, 214, 216, -1,
      24, 36, 218, 217, -1,
      36, 25, 219, 218, -1,
      25, 24, 217, 219, -1,
      37, 35, 221, 220, -1,
      35, 27, 222, 221, -1,
      27, 37, 220, 222, -1,
      34, 37, 224, 223, -1,
      37, 26, 225, 224, -1,
      26, 34, 223, 225, -1,
      39, 33, 227, 226, -1,
      33, 31, 228, 227, -1,
      31, 39, 226, 228, -1,
      32, 39, 230, 229, -1,
      39, 30, 231, 230, -1,
      30, 32, 229, 231, -1,
      35, 38, 233, 232, -1,
      38, 28, 234, 233, -1,
      28, 35, 232, 234, -1,
      38, 32, 236, 235, -1,
      32, 29, 237, 236, -1,
      29, 38, 235, 237, -1,
      36, 34, 239, 238, -1,
      34, 25, 240, 239, -1,
      25, 36, 238, 240, -1,
      33, 36, 242, 241, -1,
      36, 24, 243, 242, -1,
      24, 33, 241, 243, -1,
      32, 38, 245, 244, -1,
      38, 40, 246, 245, -1,
      40, 32, 244, 246, -1,
      39, 32, 248, 247, -1,
      32, 40, 249, 248, -1,
      40, 39, 247, 249, -1,
      33, 39, 251, 250, -1,
      39, 41, 252, 251, -1,
      41, 33, 250, 252, -1,
      36, 33, 254, 253, -1,
      33, 41, 255, 254, -1,
      41, 36, 253, 255, -1,
      34, 36, 257, 256, -1,
      36, 42, 258, 257, -1,
      42, 34, 256, 258, -1,
      37, 34, 260, 259, -1,
      34, 42, 261, 260, -1,
      42, 37, 259, 261, -1,
      35, 37, 263, 262, -1,
      37, 43, 264, 263, -1,
      43, 35, 262, 264, -1,
      38, 35, 266, 265, -1,
      35, 43, 267, 266, -1,
      43, 38, 265, 267, -1,
      40, 38, 269, 268, -1,
      38, 43, 270, 269, -1,
      43, 40, 268, 270, -1,
      41, 39, 272, 271, -1,
      39, 40, 273, 272, -1,
      40, 41, 271, 273, -1,
      42, 36, 275, 274, -1,
      36, 41, 276, 275, -1,
      41, 42, 274, 276, -1,
      37, 42, 278, 277, -1,
      42, 43, 279, 278, -1,
      43, 37, 277, 279, -1,
      42, 41, 281, 280, -1,
      41, 40, 282, 281, -1,
      40, 43, 283, 282, -1,
      43, 42, 280, 283, -1
    ]
    solid FALSE
  }
}
