#VRML V2.0 utf8

NavigationInfo
{
  type "EXAMINE"
}

Background
{
  skyColor [ 0.1 0.1 0.1 ]
}

DirectionalLight
{
  direction 0 0 -1
}

Shape
{
  appearance Appearance
  {
    material Material
    {
      ambientIntensity 0.5
      diffuseColor 1 1 1
      specularColor 0.5 0.5 0.5
    }
  }
  geometry IndexedFaceSet
  {
    color Color
    {
      color
      [
        1 0 0,
        0 1 0,
        0 0 1,
        1 1 0,
        1 0 1,
        0 1 1
      ]
    }
    coord Coordinate
    {
      point
      [
        0.850650808352 0 2.327438436766,
        0.26286555606 0.809016994375 2.327438436766,
        -0.688190960236 0.5 2.327438436766,
        -0.688190960236 -0.5 2.327438436766,
        0.26286555606 -0.809016994375 2.327438436766,
        1.217013130467 0.884211796425 1.969168609851,
        -0.464857651083 1.43068473987 1.969168609851,
        -1.504310958767 0 1.969168609851,
        -0.464857651083 -1.43068473987 1.969168609851,
        1.217013130467 -0.884211796425 1.969168609851,
        1.701301616704 0 1.801707324647,
        0.525731112119 1.61803398875 1.801707324647,
        -1.376381920471 1 1.801707324647,
        -1.376381920471 -1.0 1.801707324647,
        0.525731112119 -1.61803398875 1.801707324647,
        1.964167172764 0.809016994375 1.275976212528,
        1.376381920471 1.61803398875 1.275976212528,
        -0.162459848116 2.11803398875 1.275976212528,
        -1.113516364412 1.809016994375 1.275976212528,
        -2.064572880707 0.5 1.275976212528,
        -2.064572880707 -0.5 1.275976212528,
        -1.113516364412 -1.809016994375 1.275976212528,
        -0.162459848116 -2.11803398875 1.275976212528,
        1.376381920471 -1.61803398875 1.275976212528,
        1.964167172764 -0.809016994375 1.275976212528,
        1.969168609851 1.43068473987 0.464857651083,
        -0.752155479384 2.314896536295 0.464857651083,
        -2.434026260934 0 0.464857651083,
        -0.752155479384 -2.314896536295 0.464857651083,
        1.969168609851 -1.43068473987 0.464857651083,
        2.38949257694 0.5 0.425325404176,
        1.213922072355 2.11803398875 0.425325404176,
        0.26286555606 2.427050983125 0.425325404176,
        -1.639247476531 1.809016994375 0.425325404176,
        -2.227032728823 1 0.425325404176,
        -2.227032728823 -1.0 0.425325404176,
        -1.639247476531 -1.809016994375 0.425325404176,
        0.26286555606 -2.427050983125 0.425325404176,
        1.213922072355 -2.11803398875 0.425325404176,
        2.38949257694 -0.5 0.425325404176,
        2.227032728823 1.0 -0.425325404176,
        1.639247476531 1.809016994375 -0.425325404176,
        -0.26286555606 2.427050983125 -0.425325404176,
        -1.213922072355 2.11803398875 -0.425325404176,
        -2.38949257694 0.5 -0.425325404176,
        -2.38949257694 -0.5 -0.425325404176,
        -1.213922072355 -2.11803398875 -0.425325404176,
        -0.26286555606 -2.427050983125 -0.425325404176,
        1.639247476531 -1.809016994375 -0.425325404176,
        2.227032728823 -1 -0.425325404176,
        2.434026260934 0 -0.464857651083,
        0.752155479384 2.314896536295 -0.464857651083,
        -1.969168609851 1.43068473987 -0.464857651083,
        -1.969168609851 -1.43068473987 -0.464857651083,
        0.752155479384 -2.314896536295 -0.464857651083,
        2.064572880707 0.5 -1.275976212528,
        1.113516364412 1.809016994375 -1.275976212528,
        0.162459848116 2.11803398875 -1.275976212528,
        -1.376381920471 1.61803398875 -1.275976212528,
        -1.964167172764 0.809016994375 -1.275976212528,
        -1.964167172764 -0.809016994375 -1.275976212528,
        -1.376381920471 -1.61803398875 -1.275976212528,
        0.162459848116 -2.11803398875 -1.275976212528,
        1.113516364412 -1.809016994375 -1.275976212528,
        2.064572880707 -0.5 -1.275976212528,
        1.376381920471 1.0 -1.801707324647,
        -0.525731112119 1.61803398875 -1.801707324647,
        -1.701301616704 0 -1.801707324647,
        -0.525731112119 -1.61803398875 -1.801707324647,
        1.376381920471 -1 -1.801707324647,
        1.504310958767 0 -1.969168609851,
        0.464857651083 1.43068473987 -1.969168609851,
        -1.217013130467 0.884211796425 -1.969168609851,
        -1.217013130467 -0.884211796425 -1.969168609851,
        0.464857651083 -1.43068473987 -1.969168609851,
        0.688190960236 0.5 -2.327438436766,
        -0.26286555606 0.809016994375 -2.327438436766,
        -0.850650808352 0 -2.327438436766,
        -0.26286555606 -0.809016994375 -2.327438436766,
        0.688190960236 -0.5 -2.327438436766,
        0.850650808352 0 3.327438436766,
        0.26286555606 0.809016994375 3.327438436766,
        -0.688190960236 0.5 3.327438436766,
        -0.688190960236 -0.5 3.327438436766,
        0.26286555606 -0.809016994375 3.327438436766,
        -1.090155852206 0.5 3.243093516817,
        -1.906275850737 0 2.884823689902,
        -1.090155852206 -0.5 3.243093516817,
        -0.812404942996 -0.88229132983 3.243093516817,
        -0.589071633844 -1.8129760697 2.884823689902,
        0.138651573299 -1.191308324205 3.243093516817,
        -0.812404942996 0.88229132983 3.243093516817,
        0.138651573299 1.191308324205 3.243093516817,
        -0.589071633844 1.8129760697 2.884823689902,
        1.175847237098 -0.236269035439 3.243093516817,
        0.588061984806 -1.045286029814 3.243093516817,
        1.542209559213 -1.120480831865 2.884823689902,
        1.175847237098 0.236269035439 3.243093516817,
        1.542209559213 1.120480831865 2.884823689902,
        0.588061984806 1.045286029814 3.243093516817,
        -1.18409839545 0.704759758567 3.171327799758,
        -1.872289355685 1.204759758567 2.645596687639,
        -2.000218393981 0.204759758567 2.813057972843,
        -1.18409839545 -0.704759758567 3.171327799758,
        -2.000218393981 -0.204759758567 2.813057972843,
        -1.872289355685 -1.204759758567 2.645596687639,
        -1.036172888014 -0.908361752578 3.171327799758,
        -1.724363848249 -1.408361752578 2.645596687639,
        -0.812839578861 -1.839046492448 2.813057972843,
        0.567225389661 -2.152944231651 2.645596687639,
        0.304359833601 -1.343927237276 3.171327799758,
        -0.423363373542 -1.96559498277 2.813057972843,
        -1.036172888014 0.908361752578 3.171327799758,
        -0.812839578861 1.839046492448 2.813057972843,
        -1.724363848249 1.408361752578 2.645596687639,
        0.304359833601 1.343927237276 3.171327799758,
        0.567225389661 2.152944231651 2.645596687639,
        -0.423363373542 1.96559498277 2.813057972843,
        1.372203117426 -0.125832952476 3.171327799758,
        1.738565439541 -1.010044748902 2.813057972843,
        2.222853925778 -0.125832952476 2.645596687639,
        0.543708332436 -1.266158195741 3.171327799758,
        0.806573888496 -2.075175190116 2.645596687639,
        1.497855906844 -1.341352997791 2.813057972843,
        1.372203117426 0.125832952476 3.171327799758,
        2.222853925778 0.125832952476 2.645596687639,
        1.738565439541 1.010044748902 2.813057972843,
        0.806573888496 2.075175190116 2.645596687639,
        0.543708332436 1.266158195741 3.171327799758,
        1.497855906844 1.341352997791 2.813057972843,
        -2.188103480469 0.204759758567 2.669526538724,
        -2.060174442173 1.204759758567 2.502065253521,
        -2.748365402408 0.704759758567 1.976334141402,
        -2.748365402408 -0.704759758567 1.976334141402,
        -2.060174442173 -1.204759758567 2.502065253521,
        -2.188103480469 -0.204759758567 2.669526538724,
        -0.481423058256 -2.144284318589 2.669526538724,
        -0.179025255289 -2.831633567469 1.976334141402,
        0.509165704947 -2.331633567469 2.502065253521,
        -0.870899263576 -2.017735828267 2.669526538724,
        -1.782423532963 -1.587051088397 2.502065253521,
        -1.519557976904 -2.396068082772 1.976334141402,
        0.509165704947 2.331633567469 2.502065253521,
        -0.179025255289 2.831633567469 1.976334141402,
        -0.481423058256 2.144284318589 2.669526538724,
        -1.519557976904 2.396068082772 1.976334141402,
        -1.782423532963 1.587051088397 2.502065253521,
        -0.870899263576 2.017735828267 2.669526538724,
        1.890567667499 -1.120480831865 2.669526538724,
        2.637721709795 -1.045286029814 1.976334141402,
        2.374856153736 -0.236269035439 2.502065253521,
        0.958576116454 -2.185611273079 2.502065253521,
        1.809226924806 -2.185611273079 1.976334141402,
        1.649858134802 -1.451789080754 2.669526538724,
        2.374856153736 0.236269035439 2.502065253521,
        2.637721709795 1.045286029814 1.976334141402,
        1.890567667499 1.120480831865 2.669526538724,
        1.649858134802 1.451789080754 2.669526538724,
        1.809226924806 2.185611273079 1.976334141402,
        0.958576116454 2.185611273079 2.502065253521,
        -2.842307945652 0.5 1.904568424343,
        -2.842307945652 -0.5 1.904568424343,
        -2.282046023712 0 2.597760821665,
        -1.353849716601 -2.548686995843 1.904568424343,
        -0.402793200306 -2.857703990217 1.904568424343,
        -0.705191003273 -2.170354741337 2.597760821665,
        -0.705191003273 2.170354741337 2.597760821665,
        -0.402793200306 2.857703990217 1.904568424343,
        -1.353849716601 2.548686995843 1.904568424343,
        2.005582805133 -2.075175190116 1.904568424343,
        2.593368057426 -1.266158195741 1.904568424343,
        1.846214015129 -1.341352997791 2.597760821665,
        1.846214015129 1.341352997791 2.597760821665,
        2.593368057426 1.266158195741 1.904568424343,
        2.005582805133 2.075175190116 1.904568424343,
        2.595728807704 0 2.248920920147,
        2.858594363764 -0.809016994375 1.723189808028,
        3.28391976794 -0.5 0.872538999676,
        3.28391976794 0.5 0.872538999676,
        2.858594363764 0.809016994375 1.723189808028,
        0.53925875831 3.277701791477 0.872538999676,
        0.113933354134 2.968684797102 1.723189808028,
        0.802124314369 2.468684797102 2.248920920147,
        1.652775122721 2.468684797102 1.723189808028,
        1.490315274605 2.968684797102 0.872538999676,
        0.802124314369 -2.468684797102 2.248920920147,
        0.113933354134 -2.968684797102 1.723189808028,
        0.53925875831 -3.277701791477 0.872538999676,
        1.490315274605 -2.968684797102 0.872538999676,
        1.652775122721 -2.468684797102 1.723189808028,
        -2.788179678457 1.025731112119 1.723189808028,
        -2.099988718221 1.525731112119 2.248920920147,
        -1.837123162162 2.334748106494 1.723189808028,
        -2.362854274281 2.334748106494 0.872538999676,
        -2.950639526573 1.525731112119 0.872538999676,
        -2.099988718221 -1.525731112119 2.248920920147,
        -2.788179678457 -1.025731112119 1.723189808028,
        -2.950639526573 -1.525731112119 0.872538999676,
        -2.362854274281 -2.334748106494 0.872538999676,
        -1.837123162162 -2.334748106494 1.723189808028,
        -2.974616541745 -0.5 1.69048861886,
        -2.974616541745 0.5 1.69048861886,
        -3.344069921973 0 0.879370057416,
        -0.443678805001 -2.983536942694 1.69048861886,
        -1.394735321296 -2.674519948319 1.69048861886,
        -1.033374436268 -3.180399490239 0.879370057416,
        -1.394735321296 2.674519948319 1.69048861886,
        -0.443678805001 2.983536942694 1.69048861886,
        -1.033374436268 3.180399490239 0.879370057416,
        2.700407960167 -1.343927237276 1.69048861886,
        2.112622707875 -2.152944231651 1.69048861886,
        2.705409397254 -1.96559498277 0.879370057416,
        2.112622707875 2.152944231651 1.69048861886,
        2.700407960167 1.343927237276 1.69048861886,
        2.705409397254 1.96559498277 0.879370057416,
        -2.99679336793 0.704759758567 1.574369249432,
        -3.159253216047 1.204759758567 0.72371844108,
        -3.366246748157 0.204759758567 0.763250687987,
        -2.99679336793 -0.704759758567 1.574369249432,
        -3.366246748157 -0.204759758567 0.763250687987,
        -3.159253216047 -1.204759758567 0.72371844108,
        0.169531685663 -3.376919597284 0.72371844108,
        -0.255793718513 -3.067902602909 1.574369249432,
        -0.84548934978 -3.264765150454 0.763250687987,
        -1.596326440128 -2.632337118211 1.574369249432,
        -2.122057552247 -2.632337118211 0.72371844108,
        -1.2349655551 -3.138216660131 0.763250687987,
        -0.255793718513 3.067902602909 1.574369249432,
        0.169531685663 3.376919597284 0.72371844108,
        -0.84548934978 3.264765150454 0.763250687987,
        -1.596326440128 2.632337118211 1.574369249432,
        -1.2349655551 3.138216660131 0.763250687987,
        -2.122057552247 2.632337118211 0.72371844108,
        3.264029559956 -0.88229132983 0.72371844108,
        2.83870415578 -1.191308324205 1.574369249432,
        2.843705592867 -1.8129760697 0.763250687987,
        2.010209370791 -2.331633567469 1.574369249432,
        1.847749522674 -2.831633567469 0.72371844108,
        2.60299606017 -2.144284318589 0.763250687987,
        2.83870415578 1.191308324205 1.574369249432,
        3.264029559956 0.88229132983 0.72371844108,
        2.843705592867 1.8129760697 0.763250687987,
        2.010209370791 2.331633567469 1.574369249432,
        2.60299606017 2.144284318589 0.763250687987,
        1.847749522674 2.831633567469 0.72371844108,
        -3.410600400527 0.204759758567 0.53101194913,
        -3.203606868416 1.204759758567 0.491479702223,
        -3.366066716533 0.704759758567 -0.359171106129,
        -3.366066716533 -0.704759758567 -0.359171106129,
        -3.203606868416 -1.204759758567 0.491479702223,
        -3.410600400527 -0.204759758567 0.53101194913,
        -0.859195382125 -3.306947980561 0.53101194913,
        -0.369905458801 -3.419102427391 -0.359171106129,
        0.155825653318 -3.419102427391 0.491479702223,
        -2.135763584592 -2.674519948319 0.491479702223,
        -1.710438180416 -2.983536942694 -0.359171106129,
        -1.248671587445 -3.180399490239 0.53101194913,
        0.155825653318 3.419102427391 0.491479702223,
        -0.369905458801 3.419102427391 -0.359171106129,
        -0.859195382125 3.306947980561 0.53101194913,
        -1.248671587445 3.180399490239 0.53101194913,
        -1.710438180416 2.983536942694 -0.359171106129,
        -2.135763584592 2.674519948319 0.491479702223,
        2.879588451397 -1.839046492448 0.53101194913,
        3.137452570369 -1.408361752578 -0.359171106129,
        3.299912418486 -0.908361752578 0.491479702223,
        2.6388789187 -2.170354741337 0.53101194913,
        1.883632381204 -2.857703990217 0.491479702223,
        2.30895778538 -2.548686995843 -0.359171106129,
        3.299912418486 0.908361752578 0.491479702223,
        3.137452570369 1.408361752578 -0.359171106129,
        2.879588451397 1.839046492448 0.53101194913,
        2.30895778538 2.548686995843 -0.359171106129,
        1.883632381204 2.857703990217 0.491479702223,
        2.6388789187 2.170354741337 0.53101194913,
        -2.447253980993 -2.396068082772 0.475290475558,
        -3.035039233286 -1.587051088397 0.475290475558,
        -2.777175114313 -2.017735828267 -0.414892579702,
        -3.035039233286 1.587051088397 0.475290475558,
        -2.447253980993 2.396068082772 0.475290475558,
        -2.777175114313 2.017735828267 -0.414892579702,
        0.571496577633 -3.376919597284 0.475290475558,
        1.060786500957 -3.264765150454 -0.414892579702,
        1.522553093928 -3.067902602909 0.475290475558,
        0.571496577633 3.376919597284 0.475290475558,
        1.522553093928 3.067902602909 0.475290475558,
        1.060786500957 3.264765150454 -0.414892579702,
        3.388243542717 0.5 0.475290475558,
        3.388243542717 -0.5 0.475290475558,
        3.432777226712 0 -0.414892579702,
        -3.388243542717 0.5 -0.475290475558,
        -3.388243542717 -0.5 -0.475290475558,
        -3.432777226712 0 0.414892579702,
        -1.060786500957 -3.264765150454 0.414892579702,
        -1.522553093928 -3.067902602909 -0.475290475558,
        -0.571496577633 -3.376919597284 -0.475290475558,
        -0.571496577633 3.376919597284 -0.475290475558,
        -1.522553093928 3.067902602909 -0.475290475558,
        -1.060786500957 3.264765150454 0.414892579702,
        2.447253980993 -2.396068082772 -0.475290475558,
        3.035039233286 -1.587051088397 -0.475290475558,
        2.777175114313 -2.017735828267 0.414892579702,
        2.777175114313 2.017735828267 0.414892579702,
        3.035039233286 1.587051088397 -0.475290475558,
        2.447253980993 2.396068082772 -0.475290475558,
        -3.137452570369 -1.408361752578 0.359171106129,
        -3.299912418486 -0.908361752578 -0.491479702223,
        -2.879588451397 -1.839046492448 -0.53101194913,
        -1.883632381204 -2.857703990217 -0.491479702223,
        -2.30895778538 -2.548686995843 0.359171106129,
        -2.6388789187 -2.170354741337 -0.53101194913,
        -3.299912418486 0.908361752578 -0.491479702223,
        -3.137452570369 1.408361752578 0.359171106129,
        -2.879588451397 1.839046492448 -0.53101194913,
        -2.30895778538 2.548686995843 0.359171106129,
        -1.883632381204 2.857703990217 -0.491479702223,
        -2.6388789187 2.170354741337 -0.53101194913,
        0.369905458801 -3.419102427391 0.359171106129,
        -0.155825653318 -3.419102427391 -0.491479702223,
        0.859195382125 -3.306947980561 -0.53101194913,
        2.135763584592 -2.674519948319 -0.491479702223,
        1.710438180416 -2.983536942694 0.359171106129,
        1.248671587445 -3.180399490239 -0.53101194913,
        -0.155825653318 3.419102427391 -0.491479702223,
        0.369905458801 3.419102427391 0.359171106129,
        0.859195382125 3.306947980561 -0.53101194913,
        1.710438180416 2.983536942694 0.359171106129,
        2.135763584592 2.674519948319 -0.491479702223,
        1.248671587445 3.180399490239 -0.53101194913,
        3.203606868416 1.204759758567 -0.491479702223,
        3.366066716533 0.704759758567 0.359171106129,
        3.410600400527 0.204759758567 -0.53101194913,
        3.366066716533 -0.704759758567 0.359171106129,
        3.203606868416 -1.204759758567 -0.491479702223,
        3.410600400527 -0.204759758567 -0.53101194913,
        -3.264029559956 -0.88229132983 -0.72371844108,
        -2.83870415578 -1.191308324205 -1.574369249432,
        -2.843705592867 -1.8129760697 -0.763250687987,
        -2.010209370791 -2.331633567469 -1.574369249432,
        -1.847749522674 -2.831633567469 -0.72371844108,
        -2.60299606017 -2.144284318589 -0.763250687987,
        -3.264029559956 0.88229132983 -0.72371844108,
        -2.843705592867 1.8129760697 -0.763250687987,
        -2.83870415578 1.191308324205 -1.574369249432,
        -1.847749522674 2.831633567469 -0.72371844108,
        -2.010209370791 2.331633567469 -1.574369249432,
        -2.60299606017 2.144284318589 -0.763250687987,
        -0.169531685663 -3.376919597284 -0.72371844108,
        0.255793718513 -3.067902602909 -1.574369249432,
        0.84548934978 -3.264765150454 -0.763250687987,
        2.122057552247 -2.632337118211 -0.72371844108,
        1.2349655551 -3.138216660131 -0.763250687987,
        1.596326440128 -2.632337118211 -1.574369249432,
        -0.169531685663 3.376919597284 -0.72371844108,
        0.84548934978 3.264765150454 -0.763250687987,
        0.255793718513 3.067902602909 -1.574369249432,
        2.122057552247 2.632337118211 -0.72371844108,
        1.596326440128 2.632337118211 -1.574369249432,
        1.2349655551 3.138216660131 -0.763250687987,
        2.99679336793 0.704759758567 -1.574369249432,
        3.159253216047 1.204759758567 -0.72371844108,
        3.366246748157 0.204759758567 -0.763250687987,
        3.159253216047 -1.204759758567 -0.72371844108,
        2.99679336793 -0.704759758567 -1.574369249432,
        3.366246748157 -0.204759758567 -0.763250687987,
        -2.705409397254 -1.96559498277 -0.879370057416,
        -2.700407960167 -1.343927237276 -1.69048861886,
        -2.112622707875 -2.152944231651 -1.69048861886,
        -2.112622707875 2.152944231651 -1.69048861886,
        -2.700407960167 1.343927237276 -1.69048861886,
        -2.705409397254 1.96559498277 -0.879370057416,
        1.033374436268 -3.180399490239 -0.879370057416,
        0.443678805001 -2.983536942694 -1.69048861886,
        1.394735321296 -2.674519948319 -1.69048861886,
        1.394735321296 2.674519948319 -1.69048861886,
        0.443678805001 2.983536942694 -1.69048861886,
        1.033374436268 3.180399490239 -0.879370057416,
        3.344069921973 0 -0.879370057416,
        2.974616541745 -0.5 -1.69048861886,
        2.974616541745 0.5 -1.69048861886,
        -3.28391976794 0.5 -0.872538999676,
        -2.858594363764 0.809016994375 -1.723189808028,
        -2.595728807704 0 -2.248920920147,
        -2.858594363764 -0.809016994375 -1.723189808028,
        -3.28391976794 -0.5 -0.872538999676,
        -0.53925875831 3.277701791477 -0.872538999676,
        -0.113933354134 2.968684797102 -1.723189808028,
        -0.802124314369 2.468684797102 -2.248920920147,
        -1.652775122721 2.468684797102 -1.723189808028,
        -1.490315274605 2.968684797102 -0.872538999676,
        -0.53925875831 -3.277701791477 -0.872538999676,
        -1.490315274605 -2.968684797102 -0.872538999676,
        -1.652775122721 -2.468684797102 -1.723189808028,
        -0.802124314369 -2.468684797102 -2.248920920147,
        -0.113933354134 -2.968684797102 -1.723189808028,
        2.950639526573 1.525731112119 -0.872538999676,
        2.788179678457 1.025731112119 -1.723189808028,
        2.099988718221 1.525731112119 -2.248920920147,
        1.837123162162 2.334748106494 -1.723189808028,
        2.362854274281 2.334748106494 -0.872538999676,
        2.788179678457 -1.025731112119 -1.723189808028,
        2.950639526573 -1.525731112119 -0.872538999676,
        2.362854274281 -2.334748106494 -0.872538999676,
        1.837123162162 -2.334748106494 -1.723189808028,
        2.099988718221 -1.525731112119 -2.248920920147,
        -2.005582805133 -2.075175190116 -1.904568424343,
        -2.593368057426 -1.266158195741 -1.904568424343,
        -1.846214015129 -1.341352997791 -2.597760821665,
        -2.005582805133 2.075175190116 -1.904568424343,
        -1.846214015129 1.341352997791 -2.597760821665,
        -2.593368057426 1.266158195741 -1.904568424343,
        1.353849716601 -2.548686995843 -1.904568424343,
        0.402793200306 -2.857703990217 -1.904568424343,
        0.705191003273 -2.170354741337 -2.597760821665,
        1.353849716601 2.548686995843 -1.904568424343,
        0.705191003273 2.170354741337 -2.597760821665,
        0.402793200306 2.857703990217 -1.904568424343,
        2.842307945652 0.5 -1.904568424343,
        2.842307945652 -0.5 -1.904568424343,
        2.282046023712 0 -2.597760821665,
        -2.637721709795 -1.045286029814 -1.976334141402,
        -2.374856153736 -0.236269035439 -2.502065253521,
        -1.890567667499 -1.120480831865 -2.669526538724,
        -1.809226924806 -2.185611273079 -1.976334141402,
        -1.649858134802 -1.451789080754 -2.669526538724,
        -0.958576116454 -2.185611273079 -2.502065253521,
        -2.374856153736 0.236269035439 -2.502065253521,
        -2.637721709795 1.045286029814 -1.976334141402,
        -1.890567667499 1.120480831865 -2.669526538724,
        -1.809226924806 2.185611273079 -1.976334141402,
        -0.958576116454 2.185611273079 -2.502065253521,
        -1.649858134802 1.451789080754 -2.669526538724,
        0.179025255289 -2.831633567469 -1.976334141402,
        -0.509165704947 -2.331633567469 -2.502065253521,
        0.481423058256 -2.144284318589 -2.669526538724,
        1.519557976904 -2.396068082772 -1.976334141402,
        0.870899263576 -2.017735828267 -2.669526538724,
        1.782423532963 -1.587051088397 -2.502065253521,
        -0.509165704947 2.331633567469 -2.502065253521,
        0.179025255289 2.831633567469 -1.976334141402,
        0.481423058256 2.144284318589 -2.669526538724,
        1.519557976904 2.396068082772 -1.976334141402,
        1.782423532963 1.587051088397 -2.502065253521,
        0.870899263576 2.017735828267 -2.669526538724,
        2.748365402408 0.704759758567 -1.976334141402,
        2.188103480469 0.204759758567 -2.669526538724,
        2.060174442173 1.204759758567 -2.502065253521,
        2.748365402408 -0.704759758567 -1.976334141402,
        2.060174442173 -1.204759758567 -2.502065253521,
        2.188103480469 -0.204759758567 -2.669526538724,
        -2.222853925778 -0.125832952476 -2.645596687639,
        -1.372203117426 -0.125832952476 -3.171327799758,
        -1.738565439541 -1.010044748902 -2.813057972843,
        -0.806573888496 -2.075175190116 -2.645596687639,
        -1.497855906844 -1.341352997791 -2.813057972843,
        -0.543708332436 -1.266158195741 -3.171327799758,
        -2.222853925778 0.125832952476 -2.645596687639,
        -1.738565439541 1.010044748902 -2.813057972843,
        -1.372203117426 0.125832952476 -3.171327799758,
        -0.806573888496 2.075175190116 -2.645596687639,
        -0.543708332436 1.266158195741 -3.171327799758,
        -1.497855906844 1.341352997791 -2.813057972843,
        1.036172888014 -0.908361752578 -3.171327799758,
        1.724363848249 -1.408361752578 -2.645596687639,
        0.812839578861 -1.839046492448 -2.813057972843,
        -0.567225389661 -2.152944231651 -2.645596687639,
        -0.304359833601 -1.343927237276 -3.171327799758,
        0.423363373542 -1.96559498277 -2.813057972843,
        1.724363848249 1.408361752578 -2.645596687639,
        1.036172888014 0.908361752578 -3.171327799758,
        0.812839578861 1.839046492448 -2.813057972843,
        -0.567225389661 2.152944231651 -2.645596687639,
        0.423363373542 1.96559498277 -2.813057972843,
        -0.304359833601 1.343927237276 -3.171327799758,
        1.18409839545 0.704759758567 -3.171327799758,
        1.872289355685 1.204759758567 -2.645596687639,
        2.000218393981 0.204759758567 -2.813057972843,
        1.872289355685 -1.204759758567 -2.645596687639,
        1.18409839545 -0.704759758567 -3.171327799758,
        2.000218393981 -0.204759758567 -2.813057972843,
        -1.175847237098 -0.236269035439 -3.243093516817,
        -0.588061984806 -1.045286029814 -3.243093516817,
        -1.542209559213 -1.120480831865 -2.884823689902,
        -1.542209559213 1.120480831865 -2.884823689902,
        -0.588061984806 1.045286029814 -3.243093516817,
        -1.175847237098 0.236269035439 -3.243093516817,
        0.589071633844 -1.8129760697 -2.884823689902,
        -0.138651573299 -1.191308324205 -3.243093516817,
        0.812404942996 -0.88229132983 -3.243093516817,
        0.812404942996 0.88229132983 -3.243093516817,
        -0.138651573299 1.191308324205 -3.243093516817,
        0.589071633844 1.8129760697 -2.884823689902,
        1.906275850737 0 -2.884823689902,
        1.090155852206 -0.5 -3.243093516817,
        1.090155852206 0.5 -3.243093516817,
        -0.850650808352 0 -3.327438436766,
        -0.26286555606 0.809016994375 -3.327438436766,
        0.688190960236 0.5 -3.327438436766,
        0.688190960236 -0.5 -3.327438436766,
        -0.26286555606 -0.809016994375 -3.327438436766
      ]
    }
    colorIndex
    [
      0,
      0,
      1,
      1,
      2,
      0,
      1,
      1,
      1,
      2,
      1,
      0,
      0,
      1,
      2,
      1,
      0,
      2,
      0,
      0,
      3,
      1,
      0,
      1,
      1,
      1,
      1,
      1,
      1,
      5,
      2,
      1,
      1,
      0,
      3,
      0,
      0,
      0,
      0,
      2,
      4,
      5,
      2,
      1,
      4,
      0,
      2,
      0,
      0,
      0,
      1,
      0,
      1,
      1,
      1,
      0,
      1,
      2,
      1,
      1,
      1,
      2,
      0,
      1,
      0,
      1,
      0,
      0,
      1,
      0,
      2,
      1,
      0,
      2,
      2,
      0,
      0,
      2,
      0,
      0,
      3,
      0,
      1,
      5,
      1,
      2,
      1,
      3,
      0,
      3,
      1,
      0,
      0,
      4,
      2,
      0,
      1,
      2,
      0,
      2,
      1,
      0,
      0,
      2,
      2,
      2,
      1,
      2,
      0,
      1,
      0,
      1,
      0,
      2,
      1,
      1,
      0,
      2,
      2,
      1,
      3,
      0,
      1,
      5,
      1,
      2,
      3,
      0,
      1,
      3,
      1,
      0,
      4,
      2,
      0,
      1,
      2,
      0,
      1,
      2,
      0,
      1,
      2,
      2,
      2,
      2,
      1,
      1,
      2,
      0,
      1,
      2,
      0,
      1,
      0,
      2,
      0,
      2,
      1,
      0,
      2,
      2,
      0,
      2,
      2,
      2,
      5,
      1,
      4,
      2,
      0,
      1,
      5,
      2,
      2,
      2,
      2,
      5,
      1,
      2,
      0,
      4,
      2,
      1,
      5,
      2,
      2,
      4,
      0,
      4,
      0,
      2,
      2,
      2,
      2,
      2,
      0,
      2,
      2,
      0,
      1,
      1,
      0,
      2,
      2,
      2,
      1,
      2,
      1,
      0,
      2,
      0,
      1,
      2,
      2,
      1,
      2,
      0,
      1,
      2,
      1,
      0,
      0,
      2,
      2,
      4,
      2,
      0,
      2,
      2,
      2,
      5,
      1,
      2,
      4,
      2,
      0,
      5,
      2,
      1,
      4,
      0,
      2,
      5,
      1,
      2,
      2,
      2,
      2,
      4,
      0,
      2,
      5,
      2,
      1,
      0,
      2,
      2,
      2,
      2,
      0,
      2,
      0,
      1,
      0,
      1,
      2,
      1,
      0,
      2,
      2,
      1,
      0,
      2,
      2,
      1,
      2,
      1,
      2,
      0,
      2,
      1,
      1,
      0,
      2,
      2,
      4,
      0,
      3,
      0,
      1,
      0,
      3,
      1,
      5,
      2,
      1,
      0,
      3,
      1,
      1,
      0,
      2,
      0,
      2,
      1,
      2,
      1,
      0,
      2,
      2,
      2,
      0,
      0,
      1,
      0,
      1,
      1,
      2,
      2,
      1,
      2,
      0,
      1,
      0,
      4,
      0,
      2,
      0,
      1,
      3,
      3,
      1,
      0,
      2,
      1,
      5,
      3,
      1,
      0,
      2,
      0,
      0,
      2,
      0,
      0,
      0,
      1,
      2,
      1,
      2,
      0,
      0,
      0,
      1,
      0,
      0,
      1,
      2,
      1,
      1,
      1,
      1,
      2,
      0,
      1,
      1,
      0,
      1,
      1,
      4,
      2,
      0,
      0,
      0,
      0,
      2,
      0,
      4,
      5,
      1,
      2,
      3,
      0,
      1,
      0,
      0,
      0,
      1,
      1,
      1,
      1,
      2,
      5,
      1,
      1,
      1,
      3,
      0,
      1,
      0,
      0,
      2,
      1,
      2,
      0,
      0,
      0,
      1,
      1,
      2,
      1,
      0,
      1,
      1,
      2,
      1,
      1,
      0,
      0
    ]
    colorPerVertex FALSE
    convex FALSE
    coordIndex
    [
      0, 1, 81, 80, -1,
      1, 2, 82, 81, -1,
      2, 3, 83, 82, -1,
      3, 4, 84, 83, -1,
      4, 0, 80, 84, -1,
      2, 7, 86, 85, -1,
      7, 3, 87, 86, -1,
      3, 2, 85, 87, -1,
      3, 8, 89, 88, -1,
      8, 4, 90, 89, -1,
      4, 3, 88, 90, -1,
      2, 1, 92, 91, -1,
      1, 6, 93, 92, -1,
      6, 2, 91, 93, -1,
      0, 4, 95, 94, -1,
      4, 9, 96, 95, -1,
      9, 0, 94, 96, -1,
      0, 5, 98, 97, -1,
      5, 1, 99, 98, -1,
      1, 0, 97, 99, -1,
      2, 12, 101, 100, -1,
      12, 7, 102, 101, -1,
      7, 2, 100, 102, -1,
      3, 7, 104, 103, -1,
      7, 13, 105, 104, -1,
      13, 3, 103, 105, -1,
      3, 13, 107, 106, -1,
      13, 8, 108, 107, -1,
      8, 3, 106, 108, -1,
      14, 4, 110, 109, -1,
      4, 8, 111, 110, -1,
      8, 14, 109, 111, -1,
      2, 6, 113, 112, -1,
      6, 12, 114, 113, -1,
      12, 2, 112, 114, -1,
      1, 11, 116, 115, -1,
      11, 6, 117, 116, -1,
      6, 1, 115, 117, -1,
      0, 9, 119, 118, -1,
      9, 10, 120, 119, -1,
      10, 0, 118, 120, -1,
      4, 14, 122, 121, -1,
      14, 9, 123, 122, -1,
      9, 4, 121, 123, -1,
      0, 10, 125, 124, -1,
      10, 5, 126, 125, -1,
      5, 0, 124, 126, -1,
      11, 1, 128, 127, -1,
      1, 5, 129, 128, -1,
      5, 11, 127, 129, -1,
      7, 12, 131, 130, -1,
      12, 19, 132, 131, -1,
      19, 7, 130, 132, -1,
      20, 13, 134, 133, -1,
      13, 7, 135, 134, -1,
      7, 20, 133, 135, -1,
      8, 22, 137, 136, -1,
      22, 14, 138, 137, -1,
      14, 8, 136, 138, -1,
      8, 13, 140, 139, -1,
      13, 21, 141, 140, -1,
      21, 8, 139, 141, -1,
      11, 17, 143, 142, -1,
      17, 6, 144, 143, -1,
      6, 11, 142, 144, -1,
      18, 12, 146, 145, -1,
      12, 6, 147, 146, -1,
      6, 18, 145, 147, -1,
      9, 24, 149, 148, -1,
      24, 10, 150, 149, -1,
      10, 9, 148, 150, -1,
      14, 23, 152, 151, -1,
      23, 9, 153, 152, -1,
      9, 14, 151, 153, -1,
      10, 15, 155, 154, -1,
      15, 5, 156, 155, -1,
      5, 10, 154, 156, -1,
      5, 16, 158, 157, -1,
      16, 11, 159, 158, -1,
      11, 5, 157, 159, -1,
      19, 20, 161, 160, -1,
      20, 7, 162, 161, -1,
      7, 19, 160, 162, -1,
      21, 22, 164, 163, -1,
      22, 8, 165, 164, -1,
      8, 21, 163, 165, -1,
      6, 17, 167, 166, -1,
      17, 18, 168, 167, -1,
      18, 6, 166, 168, -1,
      23, 24, 170, 169, -1,
      24, 9, 171, 170, -1,
      9, 23, 169, 171, -1,
      5, 15, 173, 172, -1,
      15, 16, 174, 173, -1,
      16, 5, 172, 174, -1,
      10, 24, 176, 175, -1,
      24, 39, 177, 176, -1,
      39, 30, 178, 177, -1,
      30, 15, 179, 178, -1,
      15, 10, 175, 179, -1,
      32, 17, 181, 180, -1,
      17, 11, 182, 181, -1,
      11, 16, 183, 182, -1,
      16, 31, 184, 183, -1,
      31, 32, 180, 184, -1,
      14, 22, 186, 185, -1,
      22, 37, 187, 186, -1,
      37, 38, 188, 187, -1,
      38, 23, 189, 188, -1,
      23, 14, 185, 189, -1,
      19, 12, 191, 190, -1,
      12, 18, 192, 191, -1,
      18, 33, 193, 192, -1,
      33, 34, 194, 193, -1,
      34, 19, 190, 194, -1,
      13, 20, 196, 195, -1,
      20, 35, 197, 196, -1,
      35, 36, 198, 197, -1,
      36, 21, 199, 198, -1,
      21, 13, 195, 199, -1,
      20, 19, 201, 200, -1,
      19, 27, 202, 201, -1,
      27, 20, 200, 202, -1,
      22, 21, 204, 203, -1,
      21, 28, 205, 204, -1,
      28, 22, 203, 205, -1,
      18, 17, 207, 206, -1,
      17, 26, 208, 207, -1,
      26, 18, 206, 208, -1,
      24, 23, 210, 209, -1,
      23, 29, 211, 210, -1,
      29, 24, 209, 211, -1,
      16, 15, 213, 212, -1,
      15, 25, 214, 213, -1,
      25, 16, 212, 214, -1,
      19, 34, 216, 215, -1,
      34, 27, 217, 216, -1,
      27, 19, 215, 217, -1,
      20, 27, 219, 218, -1,
      27, 35, 220, 219, -1,
      35, 20, 218, 220, -1,
      37, 22, 222, 221, -1,
      22, 28, 223, 222, -1,
      28, 37, 221, 223, -1,
      21, 36, 225, 224, -1,
      36, 28, 226, 225, -1,
      28, 21, 224, 226, -1,
      17, 32, 228, 227, -1,
      32, 26, 229, 228, -1,
      26, 17, 227, 229, -1,
      18, 26, 231, 230, -1,
      26, 33, 232, 231, -1,
      33, 18, 230, 232, -1,
      39, 24, 234, 233, -1,
      24, 29, 235, 234, -1,
      29, 39, 233, 235, -1,
      23, 38, 237, 236, -1,
      38, 29, 238, 237, -1,
      29, 23, 236, 238, -1,
      15, 30, 240, 239, -1,
      30, 25, 241, 240, -1,
      25, 15, 239, 241, -1,
      16, 25, 243, 242, -1,
      25, 31, 244, 243, -1,
      31, 16, 242, 244, -1,
      27, 34, 246, 245, -1,
      34, 44, 247, 246, -1,
      44, 27, 245, 247, -1,
      45, 35, 249, 248, -1,
      35, 27, 250, 249, -1,
      27, 45, 248, 250, -1,
      28, 47, 252, 251, -1,
      47, 37, 253, 252, -1,
      37, 28, 251, 253, -1,
      36, 46, 255, 254, -1,
      46, 28, 256, 255, -1,
      28, 36, 254, 256, -1,
      32, 42, 258, 257, -1,
      42, 26, 259, 258, -1,
      26, 32, 257, 259, -1,
      26, 43, 261, 260, -1,
      43, 33, 262, 261, -1,
      33, 26, 260, 262, -1,
      29, 49, 264, 263, -1,
      49, 39, 265, 264, -1,
      39, 29, 263, 265, -1,
      29, 38, 267, 266, -1,
      38, 48, 268, 267, -1,
      48, 29, 266, 268, -1,
      30, 40, 270, 269, -1,
      40, 25, 271, 270, -1,
      25, 30, 269, 271, -1,
      41, 31, 273, 272, -1,
      31, 25, 274, 273, -1,
      25, 41, 272, 274, -1,
      36, 35, 276, 275, -1,
      35, 53, 277, 276, -1,
      53, 36, 275, 277, -1,
      34, 33, 279, 278, -1,
      33, 52, 280, 279, -1,
      52, 34, 278, 280, -1,
      37, 54, 282, 281, -1,
      54, 38, 283, 282, -1,
      38, 37, 281, 283, -1,
      32, 31, 285, 284, -1,
      31, 51, 286, 285, -1,
      51, 32, 284, 286, -1,
      30, 39, 288, 287, -1,
      39, 50, 289, 288, -1,
      50, 30, 287, 289, -1,
      44, 45, 291, 290, -1,
      45, 27, 292, 291, -1,
      27, 44, 290, 292, -1,
      28, 46, 294, 293, -1,
      46, 47, 295, 294, -1,
      47, 28, 293, 295, -1,
      42, 43, 297, 296, -1,
      43, 26, 298, 297, -1,
      26, 42, 296, 298, -1,
      48, 49, 300, 299, -1,
      49, 29, 301, 300, -1,
      29, 48, 299, 301, -1,
      25, 40, 303, 302, -1,
      40, 41, 304, 303, -1,
      41, 25, 302, 304, -1,
      35, 45, 306, 305, -1,
      45, 53, 307, 306, -1,
      53, 35, 305, 307, -1,
      46, 36, 309, 308, -1,
      36, 53, 310, 309, -1,
      53, 46, 308, 310, -1,
      44, 34, 312, 311, -1,
      34, 52, 313, 312, -1,
      52, 44, 311, 313, -1,
      33, 43, 315, 314, -1,
      43, 52, 316, 315, -1,
      52, 33, 314, 316, -1,
      37, 47, 318, 317, -1,
      47, 54, 319, 318, -1,
      54, 37, 317, 319, -1,
      48, 38, 321, 320, -1,
      38, 54, 322, 321, -1,
      54, 48, 320, 322, -1,
      42, 32, 324, 323, -1,
      32, 51, 325, 324, -1,
      51, 42, 323, 325, -1,
      31, 41, 327, 326, -1,
      41, 51, 328, 327, -1,
      51, 31, 326, 328, -1,
      40, 30, 330, 329, -1,
      30, 50, 331, 330, -1,
      50, 40, 329, 331, -1,
      39, 49, 333, 332, -1,
      49, 50, 334, 333, -1,
      50, 39, 332, 334, -1,
      45, 60, 336, 335, -1,
      60, 53, 337, 336, -1,
      53, 45, 335, 337, -1,
      61, 46, 339, 338, -1,
      46, 53, 340, 339, -1,
      53, 61, 338, 340, -1,
      44, 52, 342, 341, -1,
      52, 59, 343, 342, -1,
      59, 44, 341, 343, -1,
      43, 58, 345, 344, -1,
      58, 52, 346, 345, -1,
      52, 43, 344, 346, -1,
      47, 62, 348, 347, -1,
      62, 54, 349, 348, -1,
      54, 47, 347, 349, -1,
      48, 54, 351, 350, -1,
      54, 63, 352, 351, -1,
      63, 48, 350, 352, -1,
      42, 51, 354, 353, -1,
      51, 57, 355, 354, -1,
      57, 42, 353, 355, -1,
      41, 56, 357, 356, -1,
      56, 51, 358, 357, -1,
      51, 41, 356, 358, -1,
      55, 40, 360, 359, -1,
      40, 50, 361, 360, -1,
      50, 55, 359, 361, -1,
      49, 64, 363, 362, -1,
      64, 50, 364, 363, -1,
      50, 49, 362, 364, -1,
      53, 60, 366, 365, -1,
      60, 61, 367, 366, -1,
      61, 53, 365, 367, -1,
      58, 59, 369, 368, -1,
      59, 52, 370, 369, -1,
      52, 58, 368, 370, -1,
      54, 62, 372, 371, -1,
      62, 63, 373, 372, -1,
      63, 54, 371, 373, -1,
      56, 57, 375, 374, -1,
      57, 51, 376, 375, -1,
      51, 56, 374, 376, -1,
      50, 64, 378, 377, -1,
      64, 55, 379, 378, -1,
      55, 50, 377, 379, -1,
      44, 59, 381, 380, -1,
      59, 67, 382, 381, -1,
      67, 60, 383, 382, -1,
      60, 45, 384, 383, -1,
      45, 44, 380, 384, -1,
      42, 57, 386, 385, -1,
      57, 66, 387, 386, -1,
      66, 58, 388, 387, -1,
      58, 43, 389, 388, -1,
      43, 42, 385, 389, -1,
      47, 46, 391, 390, -1,
      46, 61, 392, 391, -1,
      61, 68, 393, 392, -1,
      68, 62, 394, 393, -1,
      62, 47, 390, 394, -1,
      40, 55, 396, 395, -1,
      55, 65, 397, 396, -1,
      65, 56, 398, 397, -1,
      56, 41, 399, 398, -1,
      41, 40, 395, 399, -1,
      64, 49, 401, 400, -1,
      49, 48, 402, 401, -1,
      48, 63, 403, 402, -1,
      63, 69, 404, 403, -1,
      69, 64, 400, 404, -1,
      61, 60, 406, 405, -1,
      60, 73, 407, 406, -1,
      73, 61, 405, 407, -1,
      58, 72, 409, 408, -1,
      72, 59, 410, 409, -1,
      59, 58, 408, 410, -1,
      63, 62, 412, 411, -1,
      62, 74, 413, 412, -1,
      74, 63, 411, 413, -1,
      56, 71, 415, 414, -1,
      71, 57, 416, 415, -1,
      57, 56, 414, 416, -1,
      55, 64, 418, 417, -1,
      64, 70, 419, 418, -1,
      70, 55, 417, 419, -1,
      60, 67, 421, 420, -1,
      67, 73, 422, 421, -1,
      73, 60, 420, 422, -1,
      61, 73, 424, 423, -1,
      73, 68, 425, 424, -1,
      68, 61, 423, 425, -1,
      67, 59, 427, 426, -1,
      59, 72, 428, 427, -1,
      72, 67, 426, 428, -1,
      58, 66, 430, 429, -1,
      66, 72, 431, 430, -1,
      72, 58, 429, 431, -1,
      62, 68, 433, 432, -1,
      68, 74, 434, 433, -1,
      74, 62, 432, 434, -1,
      63, 74, 436, 435, -1,
      74, 69, 437, 436, -1,
      69, 63, 435, 437, -1,
      66, 57, 439, 438, -1,
      57, 71, 440, 439, -1,
      71, 66, 438, 440, -1,
      56, 65, 442, 441, -1,
      65, 71, 443, 442, -1,
      71, 56, 441, 443, -1,
      55, 70, 445, 444, -1,
      70, 65, 446, 445, -1,
      65, 55, 444, 446, -1,
      64, 69, 448, 447, -1,
      69, 70, 449, 448, -1,
      70, 64, 447, 449, -1,
      67, 77, 451, 450, -1,
      77, 73, 452, 451, -1,
      73, 67, 450, 452, -1,
      68, 73, 454, 453, -1,
      73, 78, 455, 454, -1,
      78, 68, 453, 455, -1,
      67, 72, 457, 456, -1,
      72, 77, 458, 457, -1,
      77, 67, 456, 458, -1,
      66, 76, 460, 459, -1,
      76, 72, 461, 460, -1,
      72, 66, 459, 461, -1,
      79, 69, 463, 462, -1,
      69, 74, 464, 463, -1,
      74, 79, 462, 464, -1,
      68, 78, 466, 465, -1,
      78, 74, 467, 466, -1,
      74, 68, 465, 467, -1,
      65, 75, 469, 468, -1,
      75, 71, 470, 469, -1,
      71, 65, 468, 470, -1,
      66, 71, 472, 471, -1,
      71, 76, 473, 472, -1,
      76, 66, 471, 473, -1,
      75, 65, 475, 474, -1,
      65, 70, 476, 475, -1,
      70, 75, 474, 476, -1,
      69, 79, 478, 477, -1,
      79, 70, 479, 478, -1,
      70, 69, 477, 479, -1,
      77, 78, 481, 480, -1,
      78, 73, 482, 481, -1,
      73, 77, 480, 482, -1,
      72, 76, 484, 483, -1,
      76, 77, 485, 484, -1,
      77, 72, 483, 485, -1,
      74, 78, 487, 486, -1,
      78, 79, 488, 487, -1,
      79, 74, 486, 488, -1,
      75, 76, 490, 489, -1,
      76, 71, 491, 490, -1,
      71, 75, 489, 491, -1,
      70, 79, 493, 492, -1,
      79, 75, 494, 493, -1,
      75, 70, 492, 494, -1,
      77, 76, 496, 495, -1,
      76, 75, 497, 496, -1,
      75, 79, 498, 497, -1,
      79, 78, 499, 498, -1,
      78, 77, 495, 499, -1
    ]
    solid FALSE
  }
}