#VRML V2.0 utf8

NavigationInfo
{
  type "EXAMINE"
}

Background
{
  skyColor [ 0.1 0.1 0.1 ]
}

DirectionalLight
{
  direction 0 0 -1
}

Shape
{
  appearance Appearance
  {
    material Material
    {
      ambientIntensity 0.5
      diffuseColor 1 1 1
      specularColor 0.5 0.5 0.5
    }
  }
  geometry IndexedFaceSet
  {
    color Color
    {
      color
      [
        1 0 0,
        0 1 0,
        0 0 1,
        1 1 0,
        1 0 1,
        0 1 1,
        1 1 1,
        0 0 0,
        1 0.5 0.5,
        0.5 1 0.5,
        0.5 0.5 1,
        1 1 0.5,
        1 0.5 1,
        0.5 1 1,
        0.5 0 0,
        0 0.5 0,
        0 0 0.5,
        0.5 0.5 0,
        0.5 0 0.5,
        0 0.5 0.5,
        1 0.5 0,
        0.5 1 0,
        1 0 0.5,
        0 1 0.5,
        0.5 0 1,
        0 0.5 1,
        0.5 0.5 0.5
      ]
    }
    coord Coordinate
    {
      point
      [
        0.57735026919 0 2.077089659743,
        -0.288675134595 0.5 2.077089659743,
        -0.288675134595 -0.5 2.077089659743,
        -0.276837968724 1.496296000362 1.99191829621,
        -1.157411363533 -0.987896713828 1.99191829621,
        1.434249332257 -0.508399286534 1.99191829621,
        0.5609394513 0.971575629622 1.840929796555,
        -1.121878902601 0 1.840929796555,
        0.5609394513 -0.971575629622 1.840929796555,
        1.362254517859 0.416342778529 1.618195324207,
        -1.041690681818 0.971575629622 1.618195324207,
        -0.320563836042 -1.387918408151 1.618195324207,
        0.333014595498 1.734601026616 1.23608063879,
        -1.66871585223 -0.578901413776 1.23608063879,
        1.335701256731 -1.155699612841 1.23608063879,
        1.236512544593 1.309016994375 1.185388553786,
        -1.751898243411 0.416342778529 1.185388553786,
        0.515385698818 -1.725359772904 1.185388553786,
        -0.657465298163 1.734601026616 1.098423164413,
        -1.173475905399 -1.436682163624 1.098423164413,
        1.830941203562 -0.297918862992 1.098423164413,
        1.890090976133 0.655699612841 0.803273868369,
        -1.512898010038 1.309016994375 0.803273868369,
        -0.377192966095 -1.964716607216 0.803273868369,
        1.872730925162 1.598450460348 0.470228123531,
        -2.320664167933 0.822607325469 0.470228123531,
        0.447933242771 -2.421057785817 0.470228123531,
        0.919362047295 1.899016539533 0.442881921643,
        -2.10427758909 -0.153317381534 0.442881921643,
        1.184915541795 -1.745699157999 0.442881921643,
        -0.055331936895 2.11803398875 0.39812709931,
        -1.806605271889 -1.106935857367 0.39812709931,
        1.861937208784 -1.011098131383 0.39812709931,
        -1.00529020533 1.899016539533 0.175392626962,
        -1.141951462778 -1.820115125758 0.175392626962,
        2.147241668108 -0.078901413776 0.175392626962,
        1.97687416384 0.84192681077 -0.175392626962,
        -1.717567088174 1.291059840586 -0.175392626962,
        -0.259307075666 -2.132986651356 -0.175392626962,
        1.376930691955 1.610338930254 -0.39812709931,
        -2.083059768281 0.387287493357 -0.39812709931,
        0.706129076326 -1.997626423611 -0.39812709931,
        0.481896491149 2.05408523758 -0.442881921643,
        -2.019838242858 -0.60970801546 -0.442881921643,
        1.537941751708 -1.44437722212 -0.442881921643,
        -0.447933242771 2.421057785817 -0.470228123531,
        -1.872730925162 -1.598450460348 -0.470228123531,
        2.320664167933 -0.822607325469 -0.470228123531,
        1.999574064036 0.06394875117 -0.803273868369,
        -1.055168275071 1.699707560619 -0.803273868369,
        -0.944405788965 -1.763656311788 -0.803273868369,
        1.603150485332 0.933279090737 -1.098423164413,
        -1.609818644065 0.921729501018 -1.098423164413,
        0.006668158733 -1.855008591755 -1.098423164413,
        -0.13603634903 1.795545286603 -1.185388553786,
        -1.486969657328 -1.0155835774 -1.185388553786,
        1.623006006359 -0.779961709203 -1.185388553786,
        0.833793151167 1.557089728763 -1.23608063879,
        -1.765375836664 -0.05645881397 -1.23608063879,
        0.931582685497 -1.500630914794 -1.23608063879,
        1.421040031605 0.098609884077 -1.618195324207,
        -0.795918680478 1.181351825126 -1.618195324207,
        -0.625121351127 -1.279961709203 -1.618195324207,
        0.176193715432 1.107956698948 -1.840929796555,
        -1.047615505298 -0.401390115923 -1.840929796555,
        0.871421789866 -0.706566583025 -1.840929796555,
        1.157411363533 0.987896713828 -1.99191829621,
        -1.434249332257 0.508399286534 -1.99191829621,
        0.276837968724 -1.496296000362 -1.99191829621,
        0.53913224733 0.206566583025 -2.077089659743,
        -0.448458032137 0.363618930674 -2.077089659743,
        -0.090674215192 -0.570185513699 -2.077089659743,
        -0.288675134595 0.5 3.077089659743,
        -0.288675134595 -0.5 3.077089659743,
        0.57735026919 0 3.077089659743,
        -0.152328174011 -0.736159863188 3.039190499239,
        0.697286411884 -1.20773549281 2.803030636051,
        0.713697229773 -0.236159863188 3.039190499239,
        0.697286411884 1.20773549281 2.803030636051,
        -0.152328174011 0.736159863188 3.039190499239,
        0.713697229773 0.236159863188 3.039190499239,
        -0.561369055761 0.5 3.039190499239,
        -1.394572823767 0 2.803030636051,
        -0.561369055761 -0.5 3.039190499239,
        0.53426483008 -0.23528512714 3.048060593337,
        0.517854012191 -1.206860756762 2.811900730149,
        1.391163893147 -0.743684413675 2.962889229803,
        -0.470895312276 -0.345044351628 3.048060593337,
        -1.304099080282 0.154955648372 2.811900730149,
        -1.339631541214 -0.832941065456 2.962889229803,
        -0.063369517804 0.580329478768 3.048060593337,
        0.786245068091 1.05190510839 2.811900730149,
        -0.051532351933 1.57662547913 2.962889229803,
        -0.149358908188 -1.845112999234 2.49092780244,
        -0.117470206741 -0.957194591084 2.949822137976,
        -0.98620643568 -1.445091304912 2.864650774443,
        1.672594184284 0.793207890845 2.49092780244,
        0.887689935614 0.376865112316 2.949822137976,
        1.744588998682 -0.131534174218 2.864650774443,
        -1.523235276096 1.05190510839 2.49092780244,
        -0.770219728873 0.580329478768 2.949822137976,
        -0.758382563002 1.57662547913 2.864650774443,
        -0.29642628761 -0.958894335536 2.965546697781,
        -0.328314989057 -1.846812743687 2.506652362245,
        0.553188298285 -1.430469965158 2.729386834593,
        0.962229180035 1.19431010197 2.729386834593,
        0.978639997925 0.222734472349 2.965546697781,
        1.763544246594 0.639077250877 2.506652362245,
        -1.435229257537 1.20773549281 2.506652362245,
        -1.51541747832 0.236159863188 2.729386834593,
        -0.682213710315 0.736159863188 2.965546697781,
        0.852329537473 -1.716589419907 2.440968353621,
        1.627091342904 -1.900713403125 1.836119195856,
        1.725639418429 -1.253413076819 2.591956853276,
        -1.912774814243 0.120155678106 2.440968353621,
        -2.459611763872 -0.45874573567 1.836119195856,
        -1.948307275176 -0.867741035722 2.591956853276,
        1.06044527677 1.596433741801 2.440968353621,
        0.832520420968 2.359459138795 1.836119195856,
        0.222667856746 2.121154112541 2.591956853276,
        2.694185122967 -0.052452759615 1.539508561703,
        2.225498437265 0.661808881906 2.059280721497,
        2.297493251662 -0.262933183157 2.4330036935,
        -1.392517983809 -2.30700637918 1.539508561703,
        -0.539605914452 -2.258242623706 2.059280721497,
        -1.376453441943 -1.858220929384 2.4330036935,
        -1.301667139158 2.359459138795 1.539508561703,
        -1.685892522813 1.596433741801 2.059280721497,
        -0.921039809719 2.121154112541 2.4330036935,
        -0.1992785382 -2.04345965092 2.363551316707,
        0.636670996659 -2.380901015673 1.930744546286,
        0.682224749142 -1.627116872392 2.586285789055,
        1.74358526514 1.741823764796 1.930744546286,
        1.068012171846 1.404382400043 2.586285789055,
        1.869327238405 0.84914954895 2.363551316707,
        -1.670048700205 1.19431010197 2.363551316707,
        -2.380256261799 0.639077250877 1.930744546286,
        -1.750236920988 0.222734472349 2.586285789055,
        2.187233691468 -1.603592802532 1.508631924274,
        2.682473638299 -0.745812052684 1.370974449896,
        2.285781766994 -0.956292476226 2.264469581694,
        -2.482368950053 -1.092403539558 1.508631924274,
        -1.987129003222 -1.950184289407 1.370974449896,
        -1.971064461356 -1.501398839611 2.264469581694,
        0.295135258585 2.695996342091 1.508631924274,
        -0.695344635077 2.695996342091 1.370974449896,
        -0.314717305637 2.457691315837 2.264469581694,
        0.902470001371 -2.343634321508 1.869422416445,
        1.722785559285 -1.773974161445 1.920114501449,
        0.948023753854 -1.589850178226 2.524963659215,
        -2.480881860293 0.390255213413 1.869422416445,
        -2.397699469111 -0.604988978891 1.920114501449,
        -1.850862519482 -0.026087565115 2.524963659215,
        1.578411858921 1.953379108095 1.869422416445,
        0.674913909826 2.378963140336 1.920114501449,
        0.902838765628 1.615937743342 2.524963659215,
        -0.349830924965 -2.202839863988 2.197027301832,
        -0.406460055018 -2.779638063053 1.382105845994,
        0.486118609894 -2.540281228741 1.764220531411,
        2.610467203439 1.037814298257 1.382105845994,
        1.956888771899 1.691131679792 1.764220531411,
        2.082630745165 0.798457463945 2.197027301832,
        -2.204007148421 1.741823764796 1.382105845994,
        -2.443007381794 0.84914954895 1.764220531411,
        -1.7327998202 1.404382400043 2.197027301832,
        -1.473773118338 -2.205276360882 1.663298853252,
        -0.677490179034 -2.733310804474 1.368149557209,
        -0.620861048981 -2.156512605409 2.183071013047,
        2.70586168263 0.779931696379 1.368149557209,
        2.178025224356 0.540574862067 2.183071013047,
        2.646711910058 -0.173686779454 1.663298853252,
        -1.172938791721 2.378963140336 1.663298853252,
        -2.028371503596 1.953379108095 1.368149557209,
        -1.557164175375 1.615937743342 2.183071013047,
        1.002606280607 -2.467866405046 1.645062357591,
        1.672136123584 -2.488205790142 0.902555725449,
        1.82292183852 -1.898206244984 1.695754442596,
        -2.63853814022 0.365650693524 1.645062357591,
        -2.990917485899 -0.204009466539 0.902555725449,
        -2.555355749038 -0.62959349878 1.695754442596,
        1.318781362314 2.692215256681 0.902555725449,
        0.732433910518 2.527799743764 1.695754442596,
        1.635931859613 2.102215711522 1.645062357591,
        2.142692527023 -1.551239689097 1.674615857158,
        2.668928479076 -1.406638207639 0.836662317678,
        2.637932473854 -0.693458939248 1.53695838278,
        -2.414759241628 -1.080006316352 1.674615857158,
        -2.552648661287 -1.608040759944 0.836662317678,
        -1.919519294797 -1.937787066201 1.53695838278,
        -0.116279817789 3.014678967583 0.836662317678,
        -0.718413179057 2.631246005449 1.53695838278,
        0.272066714605 2.631246005449 1.674615857158,
        0.40608418142 -2.432685869038 1.883774530178,
        -0.486494483492 -2.67204270335 1.501659844762,
        0.338631725374 -3.128383881951 1.168614099924,
        1.903725671304 1.568022151704 1.883774530178,
        2.557304102844 0.91470477017 1.501659844762,
        2.539944051873 1.857455617677 1.168614099924,
        -2.309809852725 0.864663717334 1.883774530178,
        -2.070809619352 1.75733793318 1.501659844762,
        -2.878575777247 1.270928264274 1.168614099924,
        1.76459191499 -2.356426215462 0.98231473826,
        1.095062072013 -2.336086830366 1.724821370402,
        1.027609615966 -3.031784843279 1.009660940148,
        1.158429007238 2.706394533425 0.98231473826,
        1.475579504537 2.116394988267 1.724821370402,
        2.111797885105 2.40582845424 1.009660940148,
        -2.923020922228 -0.349968317964 0.98231473826,
        -2.570641576549 0.219691842099 1.724821370402,
        -3.139407501072 0.625956389039 1.009660940148,
        1.888231996585 -2.373580399407 0.776215254976,
        2.565253663573 -1.63897937279 0.731460432643,
        2.039017711521 -1.783580854248 1.569413972124,
        -1.605590189543 -2.274635703104 1.431756497746,
        -1.574065746922 -2.658068665238 0.508725960295,
        -0.80930725024 -2.802670146696 1.136607201702,
        3.088987862561 -0.034146591443 0.508725960295,
        2.831837170587 0.700454435174 1.136607201702,
        2.772687398015 -0.253164040659 1.431756497746,
        -2.999696922103 -0.448466677578 0.776215254976,
        -2.702024604902 -1.40208515341 0.731460432643,
        -2.564135185243 -0.874050709819 1.569413972124,
        1.111464925519 2.822047076984 0.776215254976,
        0.136770941328 3.041064526201 0.731460432643,
        0.525117473722 2.657631564067 1.569413972124,
        -1.514922115638 2.692215256681 0.508725960295,
        -2.022529920347 2.102215711522 1.136607201702,
        -1.167097208472 2.527799743764 1.431756497746,
        2.799165259751 -1.233832603731 0.666442092012,
        3.084469719074 -0.301635886124 0.443707619663,
        2.768169254529 -0.520653335341 1.366738157114,
        -2.468113008724 -1.807231922469 0.666442092012,
        -1.803459199614 -2.52041119086 0.443707619663,
        -1.834983642235 -2.136978228727 1.366738157114,
        -0.331052251027 3.041064526201 0.666442092012,
        -1.281010519461 2.822047076984 0.443707619663,
        -0.933185612294 2.657631564067 1.366738157114,
        -0.82817765782 -2.851829130123 0.901478652013,
        -0.710291767391 -3.020099174263 -0.077187843318,
        -0.003051448954 -3.308170308724 0.568432907175,
        2.883845302849 0.708691674542 0.901478652013,
        2.970628490556 0.894918872472 -0.077187843318,
        2.866485251877 1.65144252205 0.568432907175,
        -2.055667645029 2.143137455581 0.901478652013,
        -2.260336723165 2.125180301792 -0.077187843318,
        -2.863433802924 1.656727786674 0.568432907175,
        -1.427359059604 -2.769812274774 0.304302784916,
        -0.544714672492 -3.082683800372 -0.046482469007,
        -0.662600562921 -2.914413756232 0.932184026324,
        3.112407323471 0.148776931448 0.304302784916,
        2.942039819203 1.069605155994 -0.046482469007,
        2.855256631497 0.883377958065 0.932184026324,
        -1.685048263867 2.621035343326 0.304302784916,
        -2.397325146711 2.013078644379 -0.046482469007,
        -2.192656068575 2.031035798168 0.932184026324,
        1.369934029076 -2.728438418666 -0.557113930803,
        1.848720494546 -2.476511153054 0.28389509015,
        1.111738195522 -3.151869780872 0.311241292038,
        1.677929968688 2.550616880021 -0.557113930803,
        1.220361324028 2.8392944893 0.28389509015,
        2.173730201895 2.538728410115 0.311241292038,
        -3.047863997764 0.177821538645 -0.557113930803,
        -3.069081818573 -0.362783336246 0.28389509015,
        -3.285468397416 0.613141370757 0.311241292038,
        1.920687744467 -2.419907657986 0.506773738966,
        2.27371395438 -2.118585722107 -0.37899010432,
        2.597709411456 -1.68530663137 0.462018916633,
        -3.056045378862 -0.453410550453 0.506773738966,
        -2.97160603263 -0.909801184379 -0.37899010432,
        -2.758373061661 -1.407029026286 0.462018916633,
        0.69789207825 3.028386906486 -0.37899010432,
        0.160663650205 3.092335657656 0.462018916633,
        1.135357634395 2.873318208439 0.506773738966,
        3.033467966895 -0.246992683985 0.607073379621,
        2.748163507572 -1.179189401592 0.82980785197,
        3.206890466721 -0.990698595678 -0.038547370871,
        -1.730635922327 -2.503563978905 0.607073379621,
        -2.395289731438 -1.790384710515 0.82980785197,
        -2.461415384711 -2.281899313495 -0.038547370871,
        -1.302832044568 2.75055666289 0.607073379621,
        -0.352873776134 2.969574112106 0.82980785197,
        -0.74547508201 3.272597909173 -0.038547370871,
        -0.232485691918 -3.034614258052 -0.607073379621,
        0.732950460074 -2.899254030307 -0.82980785197,
        0.47475462652 -3.322685392513 0.038547370871,
        2.744295884119 1.315968613809 -0.607073379621,
        2.144352412234 2.084380733293 -0.82980785197,
        2.64015264544 2.072492263387 0.038547370871,
        -2.511810192201 1.718645644243 -0.607073379621,
        -2.877302872307 0.814873297014 -0.82980785197,
        -3.11490727196 1.250193129126 0.038547370871,
        1.256416085482 -2.8301539266 -0.462018916633,
        2.088228760865 -2.276904725109 -0.506773738966,
        1.735202550952 -2.578226660988 0.37899010432,
        -3.079193239797 0.326988715549 -0.462018916633,
        -3.015971714374 -0.670006793268 -0.506773738966,
        -3.100411060606 -0.213616159342 0.37899010432,
        1.822777154315 2.503165211051 -0.462018916633,
        0.927742953509 2.946911518377 -0.506773738966,
        1.365208509654 2.79184282033 0.37899010432,
        2.479427905007 -1.781441189695 0.557113930803,
        2.155432447932 -2.214720280432 -0.28389509015,
        2.938154864157 -1.592950383781 -0.311241292038,
        -2.782487278127 -1.256526957741 0.557113930803,
        -2.995720249097 -0.759299115834 -0.28389509015,
        -2.848612931401 -1.748041560722 -0.311241292038,
        0.30305937312 3.037968147436 0.557113930803,
        0.840287801165 2.974019396266 -0.28389509015,
        -0.089541932756 3.340991944503 -0.311241292038,
        -1.518385915412 -2.737545926443 0.046482469007,
        -1.320840241598 -2.681087112474 -0.932184026324,
        -0.6357415283 -3.050417452042 -0.304302784916,
        2.982309669961 0.196662352672 -0.932184026324,
        2.959609769765 0.974640412272 -0.304302784916,
        3.129977274032 0.053812187727 0.046482469007,
        -1.661469428362 2.484424759802 -0.932184026324,
        -2.323868241466 2.075777039769 -0.304302784916,
        -1.611591358621 2.683733738717 0.046482469007,
        2.946505973042 0.370013744554 -0.901478652013,
        3.094173577114 0.227163579609 0.077187843318,
        3.267596076939 -0.516542332084 -0.568432907175,
        -1.152811683988 -2.736755897334 -0.901478652013,
        -1.350357357801 -2.793214711304 0.077187843318,
        -2.081136820185 -2.571550045894 -0.568432907175,
        -1.793694289054 2.36674215278 -0.901478652013,
        -1.743816219313 2.566051131695 0.077187843318,
        -1.186459256755 3.088092377978 -0.568432907175,
        -0.18653054156 -3.093564935919 -0.443707619663,
        0.07944469284 -2.815586876319 -1.366738157114,
        0.778905610432 -2.958204708174 -0.666442092012,
        2.398647415035 1.476594560354 -1.366738157114,
        2.172427621658 2.153654399871 -0.666442092012,
        2.772371093543 1.385242280387 -0.443707619663,
        -2.585840551983 1.708322655532 -0.443707619663,
        -2.478092107874 1.338992315965 -1.366738157114,
        -2.95133323209 0.804550308303 -0.666442092012,
        1.215760986634 -2.790825140758 -0.731460432643,
        1.441214595806 -2.293829631941 -1.569413972124,
        2.047573662017 -2.237575939267 -0.776215254976,
        -1.136508667189 -2.686686849239 -1.136607201702,
        -0.185434719491 -2.778039129206 -1.431756497746,
        -0.45140995389 -3.056017188807 -0.508725960295,
        2.894993397049 0.359098047213 -1.136607201702,
        2.498569818345 1.228428386781 -1.431756497746,
        2.872293496854 1.137076106813 -0.508725960295,
        -3.024805962734 0.342532671024 -0.731460432643,
        -2.707122031118 -0.101213636302 -1.569413972124,
        -2.961584437311 -0.654462837793 -0.776215254976,
        1.265907435312 2.395043268243 -1.569413972124,
        0.914010775294 2.89203877706 -0.776215254976,
        1.8090449761 2.448292469734 -0.731460432643,
        -1.75848472986 2.327588802026 -1.136607201702,
        -2.313135098855 1.549610742426 -1.431756497746,
        -2.420883542964 1.918941081993 -0.508725960295,
        2.050050321779 -2.112776091672 -0.98231473826,
        2.135114576429 -1.448360578755 -1.724821370402,
        2.832772738003 -1.49100619502 -1.009660940148,
        -2.854742928785 -0.719007611861 -0.98231473826,
        -2.321874343256 -1.1248831738 -1.724821370402,
        -2.707635611089 -1.707750056749 -1.009660940148,
        0.804692607007 2.831783703532 -0.98231473826,
        0.186759766827 2.573243752555 -1.724821370402,
        -0.125137126914 3.198756251769 -1.009660940148,
        2.338720443224 -0.783103817042 -1.883774530178,
        2.715288500901 0.06080664333 -1.501659844762,
        3.036378604798 -0.825749433308 -1.168614099924,
        -1.847548020971 -1.63383940766 -1.883774530178,
        -1.304984152607 -2.381912142049 -1.501659844762,
        -2.233309288804 -2.216706290609 -1.168614099924,
        -0.491172422253 2.416943224703 -1.883774530178,
        -1.410304348293 2.321105498718 -1.501659844762,
        -0.803069315994 3.042455723917 -1.168614099924,
        0.270559819651 -2.714105823476 -1.53695838278,
        1.195474346415 -2.359728146514 -1.674615857158,
        0.970020737244 -2.856723655331 -0.836662317678,
        2.215204681864 1.591364588799 -1.53695838278,
        1.445847347699 2.215175226825 -1.674615857158,
        1.988984888487 2.268424428316 -0.836662317678,
        -2.485764501515 1.122741234676 -1.53695838278,
        -2.641321694114 0.144552919689 -1.674615857158,
        -2.95900562573 0.588299227015 -0.836662317678,
        1.588355881648 -2.098417635048 -1.695754442596,
        2.27977920251 -1.377748429457 -1.645062357591,
        2.194714947859 -2.042163942374 -0.902555725449,
        -2.865923326719 -0.879596927724 -0.902555725449,
        -2.611460920525 -0.326347726234 -1.695754442596,
        -2.333054741189 -1.285472489664 -1.645062357591,
        1.023105038877 2.424765361282 -1.695754442596,
        0.053275538679 2.663220919122 -1.645062357591,
        0.671208378859 2.921760870099 -0.902555725449,
        -1.195214891664 -2.549792591425 -1.368149557209,
        -0.875930453826 -2.06609798884 -2.183071013047,
        -0.244140943966 -2.641144871392 -1.663298853252,
        2.227258571956 0.274470969458 -2.183071013047,
        2.409369025684 1.109140176118 -1.663298853252,
        2.805792604387 0.23980983655 -1.368149557209,
        -1.35132811813 1.791627019382 -2.183071013047,
        -2.165228081718 1.532004695275 -1.663298853252,
        -1.610577712723 2.309982754875 -1.368149557209,
        2.432410979697 -0.879043144463 -1.764220531411,
        2.230445004943 -0.000471551183 -2.197027301832,
        2.808979037374 -0.035132684091 -1.382105845994,
        -1.977479183977 -1.66700812863 -1.764220531411,
        -1.115630877775 -1.931386260434 -2.197027301832,
        -1.434915315613 -2.415080863019 -1.382105845994,
        -0.454931795721 2.546051273094 -1.764220531411,
        -1.114814127168 1.931857811617 -2.197027301832,
        -1.374063721761 2.45021354711 -1.382105845994,
        1.481392121287 -1.98001307868 -1.920114501449,
        1.421231225655 -1.185948746911 -2.524963659215,
        2.172815442148 -1.25934387309 -1.869422416445,
        -2.455437686606 -0.29291667066 -1.920114501449,
        -1.737677355239 -0.637847972613 -2.524963659215,
        -2.17703150727 -1.252041434091 -1.869422416445,
        0.316446129584 1.823796719525 -2.524963659215,
        0.004216065122 2.51138530718 -1.869422416445,
        0.974045565319 2.272929749341 -1.920114501449,
        1.240182477901 -2.411938746928 -1.508631924274,
        0.315267951137 -2.76631642389 -1.370974449896,
        0.585437761127 -2.407603832497 -2.264469581694,
        1.468708988261 2.279998904655 -1.508631924274,
        2.238066322426 1.656188266629 -1.370974449896,
        1.792327200627 1.710805889719 -2.264469581694,
        -2.708891466162 0.131939842273 -1.508631924274,
        -2.553334273563 1.110128157261 -1.370974449896,
        -2.377764961755 0.696797942777 -2.264469581694,
        1.499779808253 -0.929301055373 -2.586285789055,
        2.049398049992 -0.124124588271 -2.363551316707,
        2.251364024746 -1.002696181552 -1.930744546286,
        -1.994042377874 -1.448390347821 -1.930744546286,
        -1.554688225844 -0.834196886344 -2.586285789055,
        -1.132194071673 -1.712768479624 -2.363551316707,
        0.05490841759 1.763497941717 -2.586285789055,
        -0.917203978319 1.836893067895 -2.363551316707,
        -0.257321646872 2.451086529373 -1.930744546286,
        -0.371326263037 -2.668988867565 -1.539508561703,
        -1.003115772898 -2.093941985013 -2.059280721497,
        -0.101156453047 -2.310276276172 -2.4330036935,
        2.497075293248 1.0129164569 -1.539508561703,
        2.314964839521 0.17824725024 -2.059280721497,
        2.051336171449 1.067534079991 -2.4330036935,
        -2.125749030211 1.656072410665 -1.539508561703,
        -1.311849066623 1.915694734773 -2.059280721497,
        -1.950179718402 1.242742196181 -2.4330036935,
        1.561426670104 -1.111346764458 -2.440968353621,
        1.621587565736 -1.905411096227 -1.836119195856,
        0.966842848962 -1.901076181795 -2.591956853276,
        -1.743167865486 -0.796561780228 -2.440968353621,
        -2.460928196853 -0.451630478275 -1.836119195856,
        -2.129801692445 0.113227622229 -2.591956853276,
        0.181741195382 1.907908544686 -2.440968353621,
        0.839340631117 2.357041574502 -1.836119195856,
        1.162958843483 1.787848559566 -2.591956853276,
        1.325838711722 -0.770982052372 -2.729386834593,
        0.993549169186 0.142151113678 -2.965546697781,
        1.875456953461 0.034194414731 -2.506652362245,
        -0.908115244906 -1.641290572767 -2.506652362245,
        -1.330609399077 -0.762718979486 -2.729386834593,
        -0.373668108971 -0.931514377263 -2.965546697781,
        -0.619881060215 0.789363263585 -2.965546697781,
        -0.967341708555 1.607096158036 -2.506652362245,
        0.004770687355 1.533701031858 -2.729386834593,
        -1.046049245901 -1.527262596461 -2.49092780244,
        -0.511602109967 -0.817486400957 -2.949822137976,
        -0.144089926051 -1.74359688762 -2.864650774443,
        1.845672829736 -0.14227392233 -2.49092780244,
        0.963765045461 -0.034317223382 -2.949822137976,
        1.582044161664 0.747012907421 -2.864650774443,
        -0.799623583834 1.669536518791 -2.49092780244,
        -0.452162935494 0.851803624339 -2.949822137976,
        -1.437954235613 0.996583980199 -2.864650774443,
        0.148457758636 -0.564586834432 -3.048060593337,
        1.110553763694 -0.700967903758 -2.811900730149,
        0.515969942552 -1.490697321095 -2.962889229803,
        0.414717661943 0.410861607584 -3.048060593337,
        0.051779130045 1.312251723507 -2.811900730149,
        1.032996778146 1.192191738387 -2.962889229803,
        -0.563175420579 0.153725226848 -3.048060593337,
        -1.162332893739 -0.611283819749 -2.811900730149,
        -1.548966720698 0.298505582708 -2.962889229803,
        0.121141359838 -0.741929907541 -3.039190499239,
        0.75094782236 0.034822189184 -3.039190499239,
        1.083237364896 -0.878310976866 -2.803030636051,
        -1.302258300837 -0.498955587895 -2.803030636051,
        -0.703100827676 0.266053458702 -3.039190499239,
        -0.345317010731 -0.667750985672 -3.039190499239,
        0.581959467839 0.475876448839 -3.039190499239,
        -0.405630811628 0.632928796488 -3.039190499239,
        0.219020935941 1.377266564761 -2.803030636051,
        -0.090674215192 -0.570185513699 -3.077089659743,
        -0.448458032137 0.363618930674 -3.077089659743,
        0.53913224733 0.206566583025 -3.077089659743
      ]
    }
    colorIndex
    [
      14,
      0,
      8,
      8,
      14,
      0,
      9,
      8,
      1,
      0,
      8,
      14,
      14,
      1,
      15,
      8,
      2,
      16,
      9,
      15,
      1,
      14,
      16,
      10,
      9,
      15,
      1,
      8,
      1,
      15,
      14,
      0,
      8,
      1,
      9,
      0,
      14,
      0,
      8,
      9,
      15,
      1,
      10,
      16,
      2,
      8,
      1,
      15,
      0,
      1,
      9,
      0,
      10,
      2,
      14,
      15,
      9,
      8,
      14,
      0,
      14,
      0,
      8,
      0,
      8,
      14,
      8,
      9,
      15,
      8,
      2,
      16,
      0,
      9,
      1,
      1,
      9,
      14,
      2,
      10,
      8,
      0,
      8,
      14,
      14,
      0,
      8,
      0,
      8,
      14,
      14,
      0,
      8,
      8,
      14,
      0,
      14,
      0,
      8,
      0,
      8,
      14,
      9,
      0,
      1,
      10,
      0,
      2,
      14,
      0,
      8,
      14,
      0,
      8,
      14,
      0,
      8,
      14,
      0,
      8,
      0,
      1,
      15,
      0,
      2,
      10,
      14,
      2,
      16,
      9,
      15,
      1,
      8,
      10,
      16,
      10,
      16,
      2,
      8,
      14,
      0,
      14,
      0,
      8,
      0,
      8,
      14,
      8,
      14,
      0,
      0,
      8,
      14,
      14,
      0,
      8,
      8,
      14,
      0,
      8,
      14,
      0,
      0,
      8,
      14,
      9,
      15,
      1,
      10,
      16,
      2,
      10,
      16,
      2,
      1,
      9,
      0,
      2,
      10,
      0,
      2,
      10,
      14,
      0,
      1,
      9,
      10,
      16,
      2,
      0,
      2,
      10,
      14,
      0,
      8,
      14,
      0,
      8,
      10,
      0,
      2,
      8,
      10,
      16,
      8,
      9,
      15,
      0,
      16,
      2,
      8,
      9,
      15,
      0,
      2,
      16,
      8,
      10,
      16,
      8,
      14,
      0,
      8,
      14,
      0,
      0,
      2,
      10,
      0,
      2,
      10,
      0,
      1,
      9,
      10,
      2,
      16,
      9,
      0,
      1,
      14,
      2,
      10,
      0,
      2,
      10,
      10,
      16,
      2,
      9,
      15,
      1,
      10,
      2,
      16,
      14,
      0,
      8,
      14,
      0,
      8,
      14,
      0,
      8,
      14,
      0,
      8,
      8,
      14,
      0,
      0,
      8,
      14,
      14,
      0,
      8,
      14,
      0,
      8,
      8,
      14,
      0,
      10,
      16,
      2,
      9,
      15,
      1,
      8,
      10,
      2,
      14,
      2,
      16,
      0,
      1,
      15,
      0,
      16,
      10,
      8,
      14,
      0,
      0,
      8,
      14,
      8,
      14,
      0,
      2,
      10,
      0,
      0,
      1,
      9,
      0,
      8,
      14,
      14,
      0,
      8,
      14,
      0,
      8,
      0,
      8,
      14,
      0,
      8,
      14,
      8,
      14,
      0,
      8,
      14,
      0,
      10,
      8,
      2,
      9,
      14,
      1,
      14,
      0,
      8,
      8,
      2,
      16,
      0,
      9,
      1,
      8,
      9,
      15,
      14,
      0,
      8,
      14,
      0,
      8,
      0,
      8,
      14,
      0,
      10,
      2,
      14,
      15,
      9,
      0,
      1,
      9,
      10,
      16,
      2,
      9,
      15,
      1,
      8,
      1,
      15,
      0,
      8,
      14,
      0,
      8,
      14,
      9,
      0,
      1,
      14,
      16,
      10,
      8,
      1,
      15,
      9,
      15,
      1,
      8,
      2,
      16,
      9,
      15,
      1,
      14,
      1,
      15,
      14,
      0,
      8,
      14,
      0,
      8,
      8,
      1,
      9,
      0,
      8,
      14
    ]
    colorPerVertex FALSE
    convex FALSE
    coordIndex
    [
      1, 2, 73, 72, -1,
      2, 0, 74, 73, -1,
      0, 1, 72, 74, -1,
      2, 8, 76, 75, -1,
      8, 0, 77, 76, -1,
      0, 2, 75, 77, -1,
      6, 1, 79, 78, -1,
      1, 0, 80, 79, -1,
      0, 6, 78, 80, -1,
      1, 7, 82, 81, -1,
      7, 2, 83, 82, -1,
      2, 1, 81, 83, -1,
      0, 8, 85, 84, -1,
      8, 5, 86, 85, -1,
      5, 0, 84, 86, -1,
      2, 7, 88, 87, -1,
      7, 4, 89, 88, -1,
      4, 2, 87, 89, -1,
      1, 6, 91, 90, -1,
      6, 3, 92, 91, -1,
      3, 1, 90, 92, -1,
      11, 2, 94, 93, -1,
      2, 4, 95, 94, -1,
      4, 11, 93, 95, -1,
      9, 0, 97, 96, -1,
      0, 5, 98, 97, -1,
      5, 9, 96, 98, -1,
      10, 1, 100, 99, -1,
      1, 3, 101, 100, -1,
      3, 10, 99, 101, -1,
      2, 11, 103, 102, -1,
      11, 8, 104, 103, -1,
      8, 2, 102, 104, -1,
      6, 0, 106, 105, -1,
      0, 9, 107, 106, -1,
      9, 6, 105, 107, -1,
      10, 7, 109, 108, -1,
      7, 1, 110, 109, -1,
      1, 10, 108, 110, -1,
      8, 14, 112, 111, -1,
      14, 5, 113, 112, -1,
      5, 8, 111, 113, -1,
      7, 13, 115, 114, -1,
      13, 4, 116, 115, -1,
      4, 7, 114, 116, -1,
      6, 12, 118, 117, -1,
      12, 3, 119, 118, -1,
      3, 6, 117, 119, -1,
      20, 9, 121, 120, -1,
      9, 5, 122, 121, -1,
      5, 20, 120, 122, -1,
      19, 11, 124, 123, -1,
      11, 4, 125, 124, -1,
      4, 19, 123, 125, -1,
      18, 10, 127, 126, -1,
      10, 3, 128, 127, -1,
      3, 18, 126, 128, -1,
      11, 17, 130, 129, -1,
      17, 8, 131, 130, -1,
      8, 11, 129, 131, -1,
      15, 6, 133, 132, -1,
      6, 9, 134, 133, -1,
      9, 15, 132, 134, -1,
      10, 16, 136, 135, -1,
      16, 7, 137, 136, -1,
      7, 10, 135, 137, -1,
      14, 20, 139, 138, -1,
      20, 5, 140, 139, -1,
      5, 14, 138, 140, -1,
      13, 19, 142, 141, -1,
      19, 4, 143, 142, -1,
      4, 13, 141, 143, -1,
      12, 18, 145, 144, -1,
      18, 3, 146, 145, -1,
      3, 12, 144, 146, -1,
      17, 14, 148, 147, -1,
      14, 8, 149, 148, -1,
      8, 17, 147, 149, -1,
      16, 13, 151, 150, -1,
      13, 7, 152, 151, -1,
      7, 16, 150, 152, -1,
      15, 12, 154, 153, -1,
      12, 6, 155, 154, -1,
      6, 15, 153, 155, -1,
      11, 23, 157, 156, -1,
      23, 17, 158, 157, -1,
      17, 11, 156, 158, -1,
      21, 15, 160, 159, -1,
      15, 9, 161, 160, -1,
      9, 21, 159, 161, -1,
      22, 16, 163, 162, -1,
      16, 10, 164, 163, -1,
      10, 22, 162, 164, -1,
      19, 23, 166, 165, -1,
      23, 11, 167, 166, -1,
      11, 19, 165, 167, -1,
      21, 9, 169, 168, -1,
      9, 20, 170, 169, -1,
      20, 21, 168, 170, -1,
      18, 22, 172, 171, -1,
      22, 10, 173, 172, -1,
      10, 18, 171, 173, -1,
      17, 29, 175, 174, -1,
      29, 14, 176, 175, -1,
      14, 17, 174, 176, -1,
      16, 28, 178, 177, -1,
      28, 13, 179, 178, -1,
      13, 16, 177, 179, -1,
      27, 12, 181, 180, -1,
      12, 15, 182, 181, -1,
      15, 27, 180, 182, -1,
      14, 32, 184, 183, -1,
      32, 20, 185, 184, -1,
      20, 14, 183, 185, -1,
      13, 31, 187, 186, -1,
      31, 19, 188, 187, -1,
      19, 13, 186, 188, -1,
      30, 18, 190, 189, -1,
      18, 12, 191, 190, -1,
      12, 30, 189, 191, -1,
      17, 23, 193, 192, -1,
      23, 26, 194, 193, -1,
      26, 17, 192, 194, -1,
      15, 21, 196, 195, -1,
      21, 24, 197, 196, -1,
      24, 15, 195, 197, -1,
      16, 22, 199, 198, -1,
      22, 25, 200, 199, -1,
      25, 16, 198, 200, -1,
      29, 17, 202, 201, -1,
      17, 26, 203, 202, -1,
      26, 29, 201, 203, -1,
      27, 15, 205, 204, -1,
      15, 24, 206, 205, -1,
      24, 27, 204, 206, -1,
      28, 16, 208, 207, -1,
      16, 25, 209, 208, -1,
      25, 28, 207, 209, -1,
      29, 32, 211, 210, -1,
      32, 14, 212, 211, -1,
      14, 29, 210, 212, -1,
      19, 34, 214, 213, -1,
      34, 23, 215, 214, -1,
      23, 19, 213, 215, -1,
      35, 21, 217, 216, -1,
      21, 20, 218, 217, -1,
      20, 35, 216, 218, -1,
      28, 31, 220, 219, -1,
      31, 13, 221, 220, -1,
      13, 28, 219, 221, -1,
      27, 30, 223, 222, -1,
      30, 12, 224, 223, -1,
      12, 27, 222, 224, -1,
      33, 22, 226, 225, -1,
      22, 18, 227, 226, -1,
      18, 33, 225, 227, -1,
      32, 35, 229, 228, -1,
      35, 20, 230, 229, -1,
      20, 32, 228, 230, -1,
      31, 34, 232, 231, -1,
      34, 19, 233, 232, -1,
      19, 31, 231, 233, -1,
      30, 33, 235, 234, -1,
      33, 18, 236, 235, -1,
      18, 30, 234, 236, -1,
      23, 38, 238, 237, -1,
      38, 26, 239, 238, -1,
      26, 23, 237, 239, -1,
      21, 36, 241, 240, -1,
      36, 24, 242, 241, -1,
      24, 21, 240, 242, -1,
      22, 37, 244, 243, -1,
      37, 25, 245, 244, -1,
      25, 22, 243, 245, -1,
      34, 38, 247, 246, -1,
      38, 23, 248, 247, -1,
      23, 34, 246, 248, -1,
      35, 36, 250, 249, -1,
      36, 21, 251, 250, -1,
      21, 35, 249, 251, -1,
      33, 37, 253, 252, -1,
      37, 22, 254, 253, -1,
      22, 33, 252, 254, -1,
      41, 29, 256, 255, -1,
      29, 26, 257, 256, -1,
      26, 41, 255, 257, -1,
      39, 27, 259, 258, -1,
      27, 24, 260, 259, -1,
      24, 39, 258, 260, -1,
      40, 28, 262, 261, -1,
      28, 25, 263, 262, -1,
      25, 40, 261, 263, -1,
      29, 44, 265, 264, -1,
      44, 32, 266, 265, -1,
      32, 29, 264, 266, -1,
      28, 43, 268, 267, -1,
      43, 31, 269, 268, -1,
      31, 28, 267, 269, -1,
      42, 30, 271, 270, -1,
      30, 27, 272, 271, -1,
      27, 42, 270, 272, -1,
      35, 32, 274, 273, -1,
      32, 47, 275, 274, -1,
      47, 35, 273, 275, -1,
      34, 31, 277, 276, -1,
      31, 46, 278, 277, -1,
      46, 34, 276, 278, -1,
      33, 30, 280, 279, -1,
      30, 45, 281, 280, -1,
      45, 33, 279, 281, -1,
      38, 41, 283, 282, -1,
      41, 26, 284, 283, -1,
      26, 38, 282, 284, -1,
      36, 39, 286, 285, -1,
      39, 24, 287, 286, -1,
      24, 36, 285, 287, -1,
      37, 40, 289, 288, -1,
      40, 25, 290, 289, -1,
      25, 37, 288, 290, -1,
      41, 44, 292, 291, -1,
      44, 29, 293, 292, -1,
      29, 41, 291, 293, -1,
      40, 43, 295, 294, -1,
      43, 28, 296, 295, -1,
      28, 40, 294, 296, -1,
      39, 42, 298, 297, -1,
      42, 27, 299, 298, -1,
      27, 39, 297, 299, -1,
      32, 44, 301, 300, -1,
      44, 47, 302, 301, -1,
      47, 32, 300, 302, -1,
      31, 43, 304, 303, -1,
      43, 46, 305, 304, -1,
      46, 31, 303, 305, -1,
      30, 42, 307, 306, -1,
      42, 45, 308, 307, -1,
      45, 30, 306, 308, -1,
      34, 50, 310, 309, -1,
      50, 38, 311, 310, -1,
      38, 34, 309, 311, -1,
      48, 36, 313, 312, -1,
      36, 35, 314, 313, -1,
      35, 48, 312, 314, -1,
      49, 37, 316, 315, -1,
      37, 33, 317, 316, -1,
      33, 49, 315, 317, -1,
      48, 35, 319, 318, -1,
      35, 47, 320, 319, -1,
      47, 48, 318, 320, -1,
      50, 34, 322, 321, -1,
      34, 46, 323, 322, -1,
      46, 50, 321, 323, -1,
      49, 33, 325, 324, -1,
      33, 45, 326, 325, -1,
      45, 49, 324, 326, -1,
      38, 53, 328, 327, -1,
      53, 41, 329, 328, -1,
      41, 38, 327, 329, -1,
      51, 39, 331, 330, -1,
      39, 36, 332, 331, -1,
      36, 51, 330, 332, -1,
      37, 52, 334, 333, -1,
      52, 40, 335, 334, -1,
      40, 37, 333, 335, -1,
      41, 59, 337, 336, -1,
      59, 44, 338, 337, -1,
      44, 41, 336, 338, -1,
      50, 53, 340, 339, -1,
      53, 38, 341, 340, -1,
      38, 50, 339, 341, -1,
      48, 51, 343, 342, -1,
      51, 36, 344, 343, -1,
      36, 48, 342, 344, -1,
      40, 58, 346, 345, -1,
      58, 43, 347, 346, -1,
      43, 40, 345, 347, -1,
      57, 42, 349, 348, -1,
      42, 39, 350, 349, -1,
      39, 57, 348, 350, -1,
      49, 52, 352, 351, -1,
      52, 37, 353, 352, -1,
      37, 49, 351, 353, -1,
      44, 56, 355, 354, -1,
      56, 47, 356, 355, -1,
      47, 44, 354, 356, -1,
      43, 55, 358, 357, -1,
      55, 46, 359, 358, -1,
      46, 43, 357, 359, -1,
      42, 54, 361, 360, -1,
      54, 45, 362, 361, -1,
      45, 42, 360, 362, -1,
      56, 48, 364, 363, -1,
      48, 47, 365, 364, -1,
      47, 56, 363, 365, -1,
      55, 50, 367, 366, -1,
      50, 46, 368, 367, -1,
      46, 55, 366, 368, -1,
      54, 49, 370, 369, -1,
      49, 45, 371, 370, -1,
      45, 54, 369, 371, -1,
      53, 59, 373, 372, -1,
      59, 41, 374, 373, -1,
      41, 53, 372, 374, -1,
      51, 57, 376, 375, -1,
      57, 39, 377, 376, -1,
      39, 51, 375, 377, -1,
      52, 58, 379, 378, -1,
      58, 40, 380, 379, -1,
      40, 52, 378, 380, -1,
      59, 56, 382, 381, -1,
      56, 44, 383, 382, -1,
      44, 59, 381, 383, -1,
      43, 58, 385, 384, -1,
      58, 55, 386, 385, -1,
      55, 43, 384, 386, -1,
      57, 54, 388, 387, -1,
      54, 42, 389, 388, -1,
      42, 57, 387, 389, -1,
      50, 62, 391, 390, -1,
      62, 53, 392, 391, -1,
      53, 50, 390, 392, -1,
      60, 51, 394, 393, -1,
      51, 48, 395, 394, -1,
      48, 60, 393, 395, -1,
      61, 52, 397, 396, -1,
      52, 49, 398, 397, -1,
      49, 61, 396, 398, -1,
      56, 60, 400, 399, -1,
      60, 48, 401, 400, -1,
      48, 56, 399, 401, -1,
      55, 62, 403, 402, -1,
      62, 50, 404, 403, -1,
      50, 55, 402, 404, -1,
      54, 61, 406, 405, -1,
      61, 49, 407, 406, -1,
      49, 54, 405, 407, -1,
      59, 65, 409, 408, -1,
      65, 56, 410, 409, -1,
      56, 59, 408, 410, -1,
      58, 64, 412, 411, -1,
      64, 55, 413, 412, -1,
      55, 58, 411, 413, -1,
      63, 54, 415, 414, -1,
      54, 57, 416, 415, -1,
      57, 63, 414, 416, -1,
      59, 53, 418, 417, -1,
      53, 68, 419, 418, -1,
      68, 59, 417, 419, -1,
      57, 51, 421, 420, -1,
      51, 66, 422, 421, -1,
      66, 57, 420, 422, -1,
      58, 52, 424, 423, -1,
      52, 67, 425, 424, -1,
      67, 58, 423, 425, -1,
      65, 60, 427, 426, -1,
      60, 56, 428, 427, -1,
      56, 65, 426, 428, -1,
      55, 64, 430, 429, -1,
      64, 62, 431, 430, -1,
      62, 55, 429, 431, -1,
      63, 61, 433, 432, -1,
      61, 54, 434, 433, -1,
      54, 63, 432, 434, -1,
      53, 62, 436, 435, -1,
      62, 68, 437, 436, -1,
      68, 53, 435, 437, -1,
      51, 60, 439, 438, -1,
      60, 66, 440, 439, -1,
      66, 51, 438, 440, -1,
      52, 61, 442, 441, -1,
      61, 67, 443, 442, -1,
      67, 52, 441, 443, -1,
      65, 59, 445, 444, -1,
      59, 68, 446, 445, -1,
      68, 65, 444, 446, -1,
      64, 58, 448, 447, -1,
      58, 67, 449, 448, -1,
      67, 64, 447, 449, -1,
      63, 57, 451, 450, -1,
      57, 66, 452, 451, -1,
      66, 63, 450, 452, -1,
      65, 69, 454, 453, -1,
      69, 60, 455, 454, -1,
      60, 65, 453, 455, -1,
      62, 64, 457, 456, -1,
      64, 71, 458, 457, -1,
      71, 62, 456, 458, -1,
      70, 61, 460, 459, -1,
      61, 63, 461, 460, -1,
      63, 70, 459, 461, -1,
      62, 71, 463, 462, -1,
      71, 68, 464, 463, -1,
      68, 62, 462, 464, -1,
      60, 69, 466, 465, -1,
      69, 66, 467, 466, -1,
      66, 60, 465, 467, -1,
      61, 70, 469, 468, -1,
      70, 67, 470, 469, -1,
      67, 61, 468, 470, -1,
      71, 65, 472, 471, -1,
      65, 68, 473, 472, -1,
      68, 71, 471, 473, -1,
      69, 63, 475, 474, -1,
      63, 66, 476, 475, -1,
      66, 69, 474, 476, -1,
      70, 64, 478, 477, -1,
      64, 67, 479, 478, -1,
      67, 70, 477, 479, -1,
      71, 69, 481, 480, -1,
      69, 65, 482, 481, -1,
      65, 71, 480, 482, -1,
      64, 70, 484, 483, -1,
      70, 71, 485, 484, -1,
      71, 64, 483, 485, -1,
      69, 70, 487, 486, -1,
      70, 63, 488, 487, -1,
      63, 69, 486, 488, -1,
      71, 70, 490, 489, -1,
      70, 69, 491, 490, -1,
      69, 71, 489, 491, -1
    ]
    solid FALSE
  }
}