#VRML V2.0 utf8

NavigationInfo
{
  type "EXAMINE"
}

Background
{
  skyColor [ 0.1 0.1 0.1 ]
}

DirectionalLight
{
  direction 0 0 -1
}

Shape
{
  appearance Appearance
  {
    material Material
    {
      ambientIntensity 0.5
      diffuseColor 1 1 1
      specularColor 0.5 0.5 0.5
    }
  }
  geometry IndexedFaceSet
  {
    color Color
    {
      color
      [
        1 0 0,
        0 1 0,
        0 0 1,
        1 1 0,
        1 0 1,
        0 1 1,
        1 1 1,
        0 0 0,
        1 0.5 0.5,
        0.5 1 0.5,
        0.5 0.5 1,
        1 1 0.5,
        1 0.5 1,
        0.5 1 1,
        0.5 0 0,
        0 0.5 0,
        0 0 0.5,
        0.5 0.5 0,
        0.5 0 0.5,
        0 0.5 0.5,
        1 0.5 0,
        0.5 1 0,
        1 0 0.5,
        0 1 0.5,
        0.5 0 1,
        0 0.5 1,
        0.5 0.5 0.5
      ]
    }
    coord Coordinate
    {
      point
      [
        0 -0.707106781187 2.942053224097,
        0.707106781187 0 2.942053224097,
        0 0.707106781187 2.942053224097,
        -0.707106781187 0 2.942053224097,
        0.814959798156 0.814959798156 2.372660342055,
        -0.814959798156 0.814959798156 2.372660342055,
        -0.814959798156 -0.814959798156 2.372660342055,
        0.814959798156 -0.814959798156 2.372660342055,
        0 -1.364413961882 2.188430460238,
        1.364413961882 0 2.188430460238,
        0 1.364413961882 2.188430460238,
        -1.364413961882 0 2.188430460238,
        1.562353564913 0.855246783726 1.709501600722,
        0.855246783726 1.562353564913 1.709501600722,
        -0.855246783726 1.562353564913 1.709501600722,
        -1.562353564913 0.855246783726 1.709501600722,
        -1.562353564913 -0.855246783726 1.709501600722,
        -0.855246783726 -1.562353564913 1.709501600722,
        0.855246783726 -1.562353564913 1.709501600722,
        1.562353564913 -0.855246783726 1.709501600722,
        0 -1.975855066408 1.397140516099,
        1.975855066408 0 1.397140516099,
        0 1.975855066408 1.397140516099,
        -1.975855066408 0 1.397140516099,
        1.677724217319 1.677724217319 1.152527199341,
        -1.677724217319 1.677724217319 1.152527199341,
        -1.677724217319 -1.677724217319 1.152527199341,
        1.677724217319 -1.677724217319 1.152527199341,
        2.22966099953 0.865247037649 0.964786364792,
        0.865247037649 2.22966099953 0.964786364792,
        -0.865247037649 2.22966099953 0.964786364792,
        -2.22966099953 0.865247037649 0.964786364792,
        -2.22966099953 -0.865247037649 0.964786364792,
        -0.865247037649 -2.22966099953 0.964786364792,
        0.865247037649 -2.22966099953 0.964786364792,
        2.22966099953 -0.865247037649 0.964786364792,
        0 -2.417600348639 0.5,
        2.417600348639 0 0.5,
        0 2.417600348639 0.5,
        -2.417600348639 0 0.5,
        2.433899175964 1.726792394778 0.5,
        1.726792394778 2.433899175964 0.5,
        -1.726792394778 2.433899175964 0.5,
        -2.433899175964 1.726792394778 0.5,
        -2.433899175964 -1.726792394778 0.5,
        -1.726792394778 -2.433899175964 0.5,
        1.726792394778 -2.433899175964 0.5,
        2.433899175964 -1.726792394778 0.5,
        2.492684015475 0.862764419163 0,
        0.862764419163 2.492684015475 0,
        -0.862764419163 2.492684015475 0,
        -2.492684015475 0.862764419163 0,
        -2.492684015475 -0.862764419163 0,
        -0.862764419163 -2.492684015475 0,
        0.862764419163 -2.492684015475 0,
        2.492684015475 -0.862764419163 0,
        2.433899175964 1.726792394778 -0.5,
        1.726792394778 2.433899175964 -0.5,
        -1.726792394778 2.433899175964 -0.5,
        -2.433899175964 1.726792394778 -0.5,
        -2.433899175964 -1.726792394778 -0.5,
        -1.726792394778 -2.433899175964 -0.5,
        1.726792394778 -2.433899175964 -0.5,
        2.433899175964 -1.726792394778 -0.5,
        0 -2.417600348639 -0.5,
        2.417600348639 0 -0.5,
        0 2.417600348639 -0.5,
        -2.417600348639 0 -0.5,
        2.22966099953 0.865247037649 -0.964786364792,
        0.865247037649 2.22966099953 -0.964786364792,
        -0.865247037649 2.22966099953 -0.964786364792,
        -2.22966099953 0.865247037649 -0.964786364792,
        -2.22966099953 -0.865247037649 -0.964786364792,
        -0.865247037649 -2.22966099953 -0.964786364792,
        0.865247037649 -2.22966099953 -0.964786364792,
        2.22966099953 -0.865247037649 -0.964786364792,
        1.677724217319 1.677724217319 -1.152527199341,
        -1.677724217319 1.677724217319 -1.152527199341,
        -1.677724217319 -1.677724217319 -1.152527199341,
        1.677724217319 -1.677724217319 -1.152527199341,
        0 -1.975855066408 -1.397140516099,
        1.975855066408 0 -1.397140516099,
        0 1.975855066408 -1.397140516099,
        -1.975855066408 0 -1.397140516099,
        1.562353564913 0.855246783726 -1.709501600722,
        0.855246783726 1.562353564913 -1.709501600722,
        -0.855246783726 1.562353564913 -1.709501600722,
        -1.562353564913 0.855246783726 -1.709501600722,
        -1.562353564913 -0.855246783726 -1.709501600722,
        -0.855246783726 -1.562353564913 -1.709501600722,
        0.855246783726 -1.562353564913 -1.709501600722,
        1.562353564913 -0.855246783726 -1.709501600722,
        0 -1.364413961882 -2.188430460238,
        1.364413961882 0 -2.188430460238,
        0 1.364413961882 -2.188430460238,
        -1.364413961882 0 -2.188430460238,
        0.814959798156 0.814959798156 -2.372660342055,
        -0.814959798156 0.814959798156 -2.372660342055,
        -0.814959798156 -0.814959798156 -2.372660342055,
        0.814959798156 -0.814959798156 -2.372660342055,
        0 -0.707106781187 -2.942053224097,
        0.707106781187 0 -2.942053224097,
        0 0.707106781187 -2.942053224097,
        -0.707106781187 0 -2.942053224097,
        0 0.707106781187 3.942053224097,
        -0.707106781187 0 3.942053224097,
        0 -0.707106781187 3.942053224097,
        0.707106781187 0 3.942053224097,
        0.402621568052 -1.109728349238 3.594580423438,
        1.217581366207 -1.217581366207 3.025187541395,
        1.109728349238 -0.402621568052 3.594580423438,
        -1.109728349238 -0.402621568052 3.594580423438,
        -1.217581366207 -1.217581366207 3.025187541395,
        -0.402621568052 -1.109728349238 3.594580423438,
        -0.402621568052 1.109728349238 3.594580423438,
        -1.217581366207 1.217581366207 3.025187541395,
        -1.109728349238 0.402621568052 3.594580423438,
        1.217581366207 1.217581366207 3.025187541395,
        0.402621568052 1.109728349238 3.594580423438,
        1.109728349238 0.402621568052 3.594580423438,
        0.292985541264 -1.978586217402 2.724109387544,
        1.10794533942 -1.429132053676 2.90833926936,
        0.292985541264 -1.321279036707 3.477732151403,
        -1.10794533942 -1.429132053676 2.90833926936,
        -0.292985541264 -1.978586217402 2.724109387544,
        -0.292985541264 -1.321279036707 3.477732151403,
        -1.978586217402 -0.292985541264 2.724109387544,
        -1.429132053676 -1.10794533942 2.90833926936,
        -1.321279036707 -0.292985541264 3.477732151403,
        -1.429132053676 1.10794533942 2.90833926936,
        -1.978586217402 0.292985541264 2.724109387544,
        -1.321279036707 0.292985541264 3.477732151403,
        -0.292985541264 1.978586217402 2.724109387544,
        -1.10794533942 1.429132053676 2.90833926936,
        -0.292985541264 1.321279036707 3.477732151403,
        1.10794533942 1.429132053676 2.90833926936,
        0.292985541264 1.978586217402 2.724109387544,
        0.292985541264 1.321279036707 3.477732151403,
        1.978586217402 0.292985541264 2.724109387544,
        1.429132053676 1.10794533942 2.90833926936,
        1.321279036707 0.292985541264 3.477732151403,
        1.429132053676 -1.10794533942 2.90833926936,
        1.978586217402 -0.292985541264 2.724109387544,
        1.321279036707 -0.292985541264 3.477732151403,
        1.362829578728 -1.041642864472 3.00389206732,
        2.110223345485 -1.081929850043 2.340733325987,
        1.912283742454 -0.226683066316 2.819662185503,
        0.226683066316 -1.912283742454 2.819662185503,
        1.081929850043 -2.110223345485 2.340733325987,
        1.041642864472 -1.362829578728 3.00389206732,
        -1.041642864472 -1.362829578728 3.00389206732,
        -1.081929850043 -2.110223345485 2.340733325987,
        -0.226683066316 -1.912283742454 2.819662185503,
        -1.912283742454 -0.226683066316 2.819662185503,
        -2.110223345485 -1.081929850043 2.340733325987,
        -1.362829578728 -1.041642864472 3.00389206732,
        -1.362829578728 1.041642864472 3.00389206732,
        -2.110223345485 1.081929850043 2.340733325987,
        -1.912283742454 0.226683066316 2.819662185503,
        -0.226683066316 1.912283742454 2.819662185503,
        -1.081929850043 2.110223345485 2.340733325987,
        -1.041642864472 1.362829578728 3.00389206732,
        1.041642864472 1.362829578728 3.00389206732,
        1.081929850043 2.110223345485 2.340733325987,
        0.226683066316 1.912283742454 2.819662185503,
        1.912283742454 0.226683066316 2.819662185503,
        2.110223345485 1.081929850043 2.340733325987,
        1.362829578728 1.041642864472 3.00389206732,
        1.324170826726 -2.031277607912 2.266476002103,
        2.031277607912 -1.324170826726 2.266476002103,
        1.283883841155 -1.283883841155 2.929634743436,
        -2.031277607912 -1.324170826726 2.266476002103,
        -1.324170826726 -2.031277607912 2.266476002103,
        -1.283883841155 -1.283883841155 2.929634743436,
        -1.324170826726 2.031277607912 2.266476002103,
        -2.031277607912 1.324170826726 2.266476002103,
        -1.283883841155 1.283883841155 2.929634743436,
        2.031277607912 1.324170826726 2.266476002103,
        1.324170826726 2.031277607912 2.266476002103,
        1.283883841155 1.283883841155 2.929634743436,
        2.239101744633 -0.991455957153 2.232434638806,
        2.652603246128 -0.136209173427 1.920073554183,
        2.041162141602 -0.136209173427 2.711363498322,
        0.136209173427 -2.652603246128 1.920073554183,
        0.991455957153 -2.239101744633 2.232434638806,
        0.136209173427 -2.041162141602 2.711363498322,
        -0.991455957153 -2.239101744633 2.232434638806,
        -0.136209173427 -2.652603246128 1.920073554183,
        -0.136209173427 -2.041162141602 2.711363498322,
        -2.652603246128 -0.136209173427 1.920073554184,
        -2.239101744633 -0.991455957153 2.232434638806,
        -2.041162141602 -0.136209173427 2.711363498322,
        -2.239101744633 0.991455957153 2.232434638806,
        -2.652603246128 0.136209173427 1.920073554184,
        -2.041162141602 0.136209173427 2.711363498322,
        -0.136209173427 2.652603246128 1.920073554184,
        -0.991455957153 2.239101744633 2.232434638806,
        -0.136209173427 2.041162141602 2.711363498322,
        0.991455957153 2.239101744633 2.232434638806,
        0.136209173427 2.652603246128 1.920073554183,
        0.136209173427 2.041162141602 2.711363498322,
        2.652603246128 0.136209173427 1.920073554183,
        2.239101744633 0.991455957153 2.232434638806,
        2.041162141602 0.136209173427 2.711363498322,
        -1.24908715989 -1.956193941077 2.372660342055,
        -1.956193941077 -1.24908715989 2.372660342055,
        -2.071564593483 -2.071564593483 1.815685940673,
        1.24908715989 1.956193941077 2.372660342055,
        1.956193941077 1.24908715989 2.372660342055,
        2.071564593483 2.071564593483 1.815685940673,
        1.956193941077 -1.24908715989 2.372660342055,
        1.24908715989 -1.956193941077 2.372660342055,
        2.071564593483 -2.071564593483 1.815685940673,
        -1.956193941077 1.24908715989 2.372660342055,
        -1.24908715989 1.956193941077 2.372660342055,
        -2.071564593483 2.071564593483 1.815685940673,
        -2.202392565396 -0.954746777916 2.284349257947,
        -2.615894066891 -0.099499994189 1.971988173324,
        -2.869700000013 -0.964747031838 1.539634022018,
        -0.099499994189 -2.615894066891 1.971988173324,
        -0.954746777916 -2.202392565396 2.284349257947,
        -0.964747031838 -2.869700000013 1.539634022018,
        2.202392565396 0.954746777916 2.284349257947,
        2.615894066891 0.099499994189 1.971988173324,
        2.869700000013 0.964747031838 1.539634022018,
        0.099499994189 2.615894066891 1.971988173324,
        0.954746777916 2.202392565396 2.284349257947,
        0.964747031838 2.869700000013 1.539634022018,
        0.954746777916 -2.202392565396 2.284349257947,
        0.099499994189 -2.615894066891 1.971988173324,
        0.964747031838 -2.869700000013 1.539634022018,
        2.615894066891 -0.099499994189 1.971988173324,
        2.202392565396 -0.954746777916 2.284349257947,
        2.869700000013 -0.964747031838 1.539634022018,
        -0.954746777916 2.202392565396 2.284349257947,
        -0.099499994189 2.615894066891 1.971988173324,
        -0.964747031838 2.869700000013 1.539634022018,
        -2.615894066891 0.099499994189 1.971988173324,
        -2.202392565396 0.954746777916 2.284349257947,
        -2.869700000013 0.964747031838 1.539634022018,
        -2.284665807882 -1.963479093626 1.700218769763,
        -2.169295155476 -1.141001660034 2.257193171144,
        -2.836602590093 -1.151001913956 1.512477935214,
        -1.151001913956 -2.836602590093 1.512477935214,
        -1.141001660034 -2.169295155476 2.257193171144,
        -1.963479093626 -2.284665807882 1.700218769763,
        2.284665807882 1.963479093626 1.700218769763,
        2.169295155476 1.141001660034 2.257193171144,
        2.836602590093 1.151001913956 1.512477935214,
        1.151001913956 2.836602590093 1.512477935214,
        1.141001660034 2.169295155476 2.257193171144,
        1.963479093626 2.284665807882 1.700218769763,
        1.963479093626 -2.284665807882 1.700218769763,
        1.141001660034 -2.169295155476 2.257193171144,
        1.151001913956 -2.836602590093 1.512477935214,
        2.836602590093 -1.151001913956 1.512477935214,
        2.169295155476 -1.141001660034 2.257193171144,
        2.284665807882 -1.963479093626 1.700218769763,
        -1.963479093626 2.284665807882 1.700218769763,
        -1.141001660034 2.169295155476 2.257193171144,
        -1.151001913956 2.836602590093 1.512477935214,
        -2.836602590093 1.151001913956 1.512477935214,
        -2.169295155476 1.141001660034 2.257193171144,
        -2.284665807882 1.963479093626 1.700218769763,
        0.036709179237 -3.193848522549 0.882218796846,
        0.036709179237 -2.752103240318 1.779359312945,
        -0.828537858411 -3.00590917344 1.347005161638,
        -2.752103240317 0.036709179237 1.779359312945,
        -3.193848522549 0.036709179237 0.882218796846,
        -3.00590917344 -0.828537858411 1.347005161638,
        2.752103240318 -0.036709179237 1.779359312945,
        3.193848522549 -0.036709179237 0.882218796846,
        3.00590917344 0.828537858411 1.347005161638,
        -0.036709179237 3.193848522549 0.882218796846,
        -0.036709179237 2.752103240318 1.779359312945,
        0.828537858411 3.00590917344 1.347005161638,
        -0.036709179237 -2.752103240318 1.779359312945,
        -0.036709179237 -3.193848522549 0.882218796846,
        0.828537858411 -3.00590917344 1.347005161638,
        3.193848522549 0.036709179237 0.882218796846,
        2.752103240318 0.036709179237 1.779359312945,
        3.00590917344 -0.828537858411 1.347005161638,
        -3.193848522549 -0.036709179237 0.882218796846,
        -2.752103240317 -0.036709179237 1.779359312945,
        -3.00590917344 0.828537858411 1.347005161638,
        0.036709179237 2.752103240318 1.779359312945,
        0.036709179237 3.193848522549 0.882218796846,
        -0.828537858411 3.00590917344 1.347005161638,
        -2.217099776484 -1.895913062228 1.793984629053,
        -2.769036558695 -1.083435882557 1.606243794505,
        -2.973274735128 -1.944981239686 1.141457429713,
        -1.083435882557 -2.769036558695 1.606243794505,
        -1.895913062228 -2.217099776484 1.793984629053,
        -1.944981239686 -2.973274735128 1.141457429713,
        2.217099776484 1.895913062228 1.793984629053,
        2.769036558695 1.083435882557 1.606243794505,
        2.973274735128 1.944981239686 1.141457429713,
        1.083435882557 2.769036558695 1.606243794505,
        1.895913062228 2.217099776484 1.793984629053,
        1.944981239686 2.973274735128 1.141457429713,
        1.895913062228 -2.217099776484 1.793984629053,
        1.083435882557 -2.769036558695 1.606243794505,
        1.944981239686 -2.973274735128 1.141457429713,
        2.769036558695 -1.083435882557 1.606243794505,
        2.217099776484 -1.895913062228 1.793984629053,
        2.973274735128 -1.944981239686 1.141457429713,
        -2.769036558695 1.083435882557 1.606243794505,
        -2.217099776484 1.895913062228 1.793984629053,
        -2.973274735128 1.944981239686 1.141457429713,
        -1.895913062228 2.217099776484 1.793984629053,
        -1.083435882557 2.769036558695 1.606243794505,
        -1.944981239686 2.973274735128 1.141457429713,
        -2.139130624882 -2.139130624882 1.721920081383,
        -2.895305583527 -2.18819880234 1.069392882042,
        -2.18819880234 -2.895305583527 1.069392882042,
        2.18819880234 2.895305583527 1.069392882042,
        2.139130624882 2.139130624882 1.721920081383,
        2.895305583527 2.18819880234 1.069392882042,
        2.895305583527 -2.18819880234 1.069392882042,
        2.139130624882 -2.139130624882 1.721920081383,
        2.18819880234 -2.895305583527 1.069392882042,
        -2.895305583527 2.18819880234 1.069392882042,
        -2.139130624882 2.139130624882 1.721920081383,
        -2.18819880234 2.895305583527 1.069392882042,
        -0.921836229154 -3.326308672354 0.227113303677,
        -0.059071809991 -3.251225005519 0.727113303677,
        -0.924318847639 -3.06328565641 1.191899668469,
        -3.06328565641 -0.924318847639 1.191899668469,
        -3.251225005519 -0.059071809991 0.727113303677,
        -3.326308672354 -0.921836229154 0.227113303677,
        3.06328565641 0.924318847639 1.191899668469,
        3.251225005519 0.059071809991 0.727113303677,
        3.326308672354 0.921836229154 0.227113303677,
        0.921836229154 3.326308672354 0.227113303677,
        0.059071809991 3.251225005519 0.727113303677,
        0.924318847639 3.06328565641 1.191899668469,
        0.924318847639 -3.06328565641 1.191899668469,
        0.059071809991 -3.251225005519 0.727113303677,
        0.921836229154 -3.326308672354 0.227113303677,
        3.326308672354 -0.921836229154 0.227113303677,
        3.251225005519 -0.059071809991 0.727113303677,
        3.06328565641 -0.924318847639 1.191899668469,
        -3.326308672354 0.921836229154 0.227113303677,
        -3.251225005519 0.059071809991 0.727113303677,
        -3.06328565641 0.924318847639 1.191899668469,
        -0.924318847639 3.06328565641 1.191899668469,
        -0.059071809991 3.251225005519 0.727113303677,
        -0.921836229154 3.326308672354 0.227113303677,
        -3.062022099959 -0.790450341293 1.191899668469,
        -3.325045115904 -0.787967722808 0.227113303677,
        -3.266260276393 -1.651995698422 0.727113303677,
        -0.787967722808 -3.325045115904 0.227113303677,
        -0.790450341293 -3.062022099959 1.191899668469,
        -1.651995698422 -3.266260276393 0.727113303677,
        3.062022099959 0.790450341293 1.191899668469,
        3.325045115904 0.787967722808 0.227113303677,
        3.266260276393 1.651995698422 0.727113303677,
        0.787967722808 3.325045115904 0.227113303677,
        0.790450341293 3.062022099959 1.191899668469,
        1.651995698422 3.266260276393 0.727113303677,
        0.790450341293 -3.062022099959 1.191899668469,
        0.787967722808 -3.325045115904 0.227113303677,
        1.651995698422 -3.266260276393 0.727113303677,
        3.325045115904 -0.787967722808 0.227113303677,
        3.062022099959 -0.790450341293 1.191899668469,
        3.266260276393 -1.651995698422 0.727113303677,
        -3.325045115904 0.787967722808 0.227113303677,
        -3.062022099959 0.790450341293 1.191899668469,
        -3.266260276393 1.651995698422 0.727113303677,
        -0.790450341293 3.062022099959 1.191899668469,
        -0.787967722808 3.325045115904 0.227113303677,
        -1.651995698422 3.266260276393 0.727113303677,
        -3.141005957151 -2.433899175964 0.5,
        -3.141005957151 -2.433899175964 -0.5,
        -2.433899175964 -3.141005957151 -0.5,
        -2.433899175964 -3.141005957151 0.5,
        2.433899175964 3.141005957151 -0.5,
        2.433899175964 3.141005957151 0.5,
        3.141005957151 2.433899175964 0.5,
        3.141005957151 2.433899175964 -0.5,
        3.141005957151 -2.433899175964 0.5,
        2.433899175964 -3.141005957151 0.5,
        2.433899175964 -3.141005957151 -0.5,
        3.141005957151 -2.433899175964 -0.5,
        -2.433899175964 3.141005957151 -0.5,
        -3.141005957151 2.433899175964 -0.5,
        -3.141005957151 2.433899175964 0.5,
        -2.433899175964 3.141005957151 0.5,
        -1.785577234288 -3.297927151578 -0.5,
        -0.921549258674 -3.356711991089 0.0,
        -1.785577234288 -3.297927151578 0.5,
        -3.297927151578 -1.785577234288 0.5,
        -3.356711991089 -0.921549258674 0.0,
        -3.297927151578 -1.785577234288 -0.5,
        0.075083666835 -3.280364767803 -0.5,
        0.075083666835 -3.280364767803 0.5,
        -0.787680752328 -3.355448434638 0.0,
        -3.280364767803 0.075083666835 0.5,
        -3.280364767803 0.075083666835 -0.5,
        -3.355448434638 -0.787680752328 0.0,
        3.297927151578 1.785577234288 0.5,
        3.356711991089 0.921549258674 0.0,
        3.297927151578 1.785577234288 -0.5,
        1.785577234288 3.297927151578 -0.5,
        0.921549258674 3.356711991089 0.0,
        1.785577234288 3.297927151578 0.5,
        3.280364767803 -0.075083666835 0.5,
        3.280364767803 -0.075083666835 -0.5,
        3.355448434638 0.787680752328 0.0,
        -0.075083666835 3.280364767803 -0.5,
        -0.075083666835 3.280364767803 0.5,
        0.787680752328 3.355448434638 0.0,
        1.785577234288 -3.297927151578 0.5,
        0.921549258674 -3.356711991089 0.0,
        1.785577234288 -3.297927151578 -0.5,
        3.356711991089 -0.921549258674 0.0,
        3.297927151578 -1.785577234288 0.5,
        3.297927151578 -1.785577234288 -0.5,
        -0.075083666835 -3.280364767803 0.5,
        -0.075083666835 -3.280364767803 -0.5,
        0.787680752328 -3.355448434638 0.0,
        3.280364767803 0.075083666835 -0.5,
        3.280364767803 0.075083666835 0.5,
        3.355448434638 -0.787680752328 0.0,
        -3.297927151578 1.785577234288 -0.5,
        -3.356711991089 0.921549258674 0.0,
        -3.297927151578 1.785577234288 0.5,
        -0.921549258674 3.356711991089 0.0,
        -1.785577234288 3.297927151578 -0.5,
        -1.785577234288 3.297927151578 0.5,
        -3.280364767803 -0.075083666835 -0.5,
        -3.280364767803 -0.075083666835 0.5,
        -3.355448434638 0.787680752328 0.0,
        0.075083666835 3.280364767803 0.5,
        0.075083666835 3.280364767803 -0.5,
        -0.787680752328 3.355448434638 0.0,
        -0.790450341293 -3.062022099959 -1.191899668469,
        -0.787967722808 -3.325045115904 -0.227113303677,
        -1.651995698422 -3.266260276393 -0.727113303677,
        -3.325045115904 -0.787967722808 -0.227113303677,
        -3.062022099959 -0.790450341293 -1.191899668469,
        -3.266260276393 -1.651995698422 -0.727113303677,
        0.790450341293 3.062022099959 -1.191899668469,
        0.787967722808 3.325045115904 -0.227113303677,
        1.651995698422 3.266260276393 -0.727113303677,
        3.325045115904 0.787967722808 -0.227113303677,
        3.062022099959 0.790450341293 -1.191899668469,
        3.266260276393 1.651995698422 -0.727113303677,
        0.787967722808 -3.325045115904 -0.227113303677,
        0.790450341293 -3.062022099959 -1.191899668469,
        1.651995698422 -3.266260276393 -0.727113303677,
        3.062022099959 -0.790450341293 -1.191899668469,
        3.325045115904 -0.787967722808 -0.227113303677,
        3.266260276393 -1.651995698422 -0.727113303677,
        -3.062022099959 0.790450341293 -1.191899668469,
        -3.325045115904 0.787967722808 -0.227113303677,
        -3.266260276393 1.651995698422 -0.727113303677,
        -0.787967722808 3.325045115904 -0.227113303677,
        -0.790450341293 3.062022099959 -1.191899668469,
        -1.651995698422 3.266260276393 -0.727113303677,
        -0.924318847639 -3.06328565641 -1.191899668469,
        -0.059071809991 -3.251225005519 -0.727113303677,
        -0.921836229154 -3.326308672354 -0.227113303677,
        -3.326308672354 -0.921836229154 -0.227113303677,
        -3.251225005519 -0.059071809991 -0.727113303677,
        -3.06328565641 -0.924318847639 -1.191899668469,
        3.326308672354 0.921836229154 -0.227113303677,
        3.251225005519 0.059071809991 -0.727113303677,
        3.06328565641 0.924318847639 -1.191899668469,
        0.924318847639 3.06328565641 -1.191899668469,
        0.059071809991 3.251225005519 -0.727113303677,
        0.921836229154 3.326308672354 -0.227113303677,
        0.921836229154 -3.326308672354 -0.227113303677,
        0.059071809991 -3.251225005519 -0.727113303677,
        0.924318847639 -3.06328565641 -1.191899668469,
        3.06328565641 -0.924318847639 -1.191899668469,
        3.251225005519 -0.059071809991 -0.727113303677,
        3.326308672354 -0.921836229154 -0.227113303677,
        -3.06328565641 0.924318847639 -1.191899668469,
        -3.251225005519 0.059071809991 -0.727113303677,
        -3.326308672354 0.921836229154 -0.227113303677,
        -0.921836229154 3.326308672354 -0.227113303677,
        -0.059071809991 3.251225005519 -0.727113303677,
        -0.924318847639 3.06328565641 -1.191899668469,
        -2.895305583527 -2.18819880234 -1.069392882042,
        -2.139130624882 -2.139130624882 -1.721920081383,
        -2.18819880234 -2.895305583527 -1.069392882042,
        2.139130624882 2.139130624882 -1.721920081383,
        2.18819880234 2.895305583527 -1.069392882042,
        2.895305583527 2.18819880234 -1.069392882042,
        2.18819880234 -2.895305583527 -1.069392882042,
        2.139130624882 -2.139130624882 -1.721920081383,
        2.895305583527 -2.18819880234 -1.069392882042,
        -2.18819880234 2.895305583527 -1.069392882042,
        -2.139130624882 2.139130624882 -1.721920081383,
        -2.895305583527 2.18819880234 -1.069392882042,
        -1.895913062228 -2.217099776484 -1.793984629053,
        -1.083435882557 -2.769036558695 -1.606243794505,
        -1.944981239686 -2.973274735128 -1.141457429713,
        -2.769036558695 -1.083435882557 -1.606243794505,
        -2.217099776484 -1.895913062228 -1.793984629053,
        -2.973274735128 -1.944981239686 -1.141457429713,
        1.895913062228 2.217099776484 -1.793984629053,
        1.083435882557 2.769036558695 -1.606243794505,
        1.944981239686 2.973274735128 -1.141457429713,
        2.769036558695 1.083435882557 -1.606243794505,
        2.217099776484 1.895913062228 -1.793984629053,
        2.973274735128 1.944981239686 -1.141457429713,
        1.083435882557 -2.769036558695 -1.606243794505,
        1.895913062228 -2.217099776484 -1.793984629053,
        1.944981239686 -2.973274735128 -1.141457429713,
        2.217099776484 -1.895913062228 -1.793984629053,
        2.769036558695 -1.083435882557 -1.606243794505,
        2.973274735128 -1.944981239686 -1.141457429713,
        -2.217099776484 1.895913062228 -1.793984629053,
        -2.769036558695 1.083435882557 -1.606243794505,
        -2.973274735128 1.944981239686 -1.141457429713,
        -1.083435882557 2.769036558695 -1.606243794505,
        -1.895913062228 2.217099776484 -1.793984629053,
        -1.944981239686 2.973274735128 -1.141457429713,
        0.036709179237 -2.752103240317 -1.779359312945,
        0.036709179237 -3.193848522549 -0.882218796846,
        -0.828537858411 -3.00590917344 -1.347005161638,
        -3.193848522549 0.036709179237 -0.882218796846,
        -2.752103240317 0.036709179237 -1.779359312945,
        -3.00590917344 -0.828537858411 -1.347005161638,
        3.193848522549 -0.036709179237 -0.882218796846,
        2.752103240317 -0.036709179237 -1.779359312945,
        3.00590917344 0.828537858411 -1.347005161638,
        -0.036709179237 2.752103240317 -1.779359312945,
        -0.036709179237 3.193848522549 -0.882218796846,
        0.828537858411 3.00590917344 -1.347005161638,
        -0.036709179237 -3.193848522549 -0.882218796846,
        -0.036709179237 -2.752103240317 -1.779359312945,
        0.828537858411 -3.00590917344 -1.347005161638,
        2.752103240317 0.036709179237 -1.779359312945,
        3.193848522549 0.036709179237 -0.882218796846,
        3.00590917344 -0.828537858411 -1.347005161638,
        -2.752103240317 -0.036709179237 -1.779359312945,
        -3.193848522549 -0.036709179237 -0.882218796846,
        -3.00590917344 0.828537858411 -1.347005161638,
        0.036709179237 3.193848522549 -0.882218796846,
        0.036709179237 2.752103240317 -1.779359312945,
        -0.828537858411 3.00590917344 -1.347005161638,
        -1.963479093626 -2.284665807882 -1.700218769763,
        -1.141001660034 -2.169295155476 -2.257193171144,
        -1.151001913956 -2.836602590093 -1.512477935214,
        -2.836602590093 -1.151001913956 -1.512477935214,
        -2.169295155476 -1.141001660034 -2.257193171144,
        -2.284665807882 -1.963479093626 -1.700218769763,
        1.963479093626 2.284665807882 -1.700218769763,
        1.141001660034 2.169295155476 -2.257193171144,
        1.151001913956 2.836602590093 -1.512477935214,
        2.836602590093 1.151001913956 -1.512477935214,
        2.169295155476 1.141001660034 -2.257193171144,
        2.284665807882 1.963479093626 -1.700218769763,
        2.284665807882 -1.963479093626 -1.700218769763,
        2.169295155476 -1.141001660034 -2.257193171144,
        2.836602590093 -1.151001913956 -1.512477935214,
        1.151001913956 -2.836602590093 -1.512477935214,
        1.141001660034 -2.169295155476 -2.257193171144,
        1.963479093626 -2.284665807882 -1.700218769763,
        -2.284665807882 1.963479093626 -1.700218769763,
        -2.169295155476 1.141001660034 -2.257193171144,
        -2.836602590093 1.151001913956 -1.512477935214,
        -1.151001913956 2.836602590093 -1.512477935214,
        -1.141001660034 2.169295155476 -2.257193171144,
        -1.963479093626 2.284665807882 -1.700218769763,
        -0.954746777916 -2.202392565396 -2.284349257947,
        -0.099499994189 -2.615894066891 -1.971988173324,
        -0.964747031838 -2.869700000013 -1.539634022018,
        -2.615894066891 -0.099499994189 -1.971988173324,
        -2.202392565396 -0.954746777916 -2.284349257947,
        -2.869700000013 -0.964747031838 -1.539634022018,
        0.954746777916 2.202392565396 -2.284349257947,
        0.099499994189 2.615894066891 -1.971988173324,
        0.964747031838 2.869700000013 -1.539634022018,
        2.615894066891 0.099499994189 -1.971988173324,
        2.202392565396 0.954746777916 -2.284349257947,
        2.869700000013 0.964747031838 -1.539634022018,
        2.202392565396 -0.954746777916 -2.284349257947,
        2.615894066891 -0.099499994189 -1.971988173324,
        2.869700000013 -0.964747031838 -1.539634022018,
        0.099499994189 -2.615894066891 -1.971988173324,
        0.954746777916 -2.202392565396 -2.284349257947,
        0.964747031838 -2.869700000013 -1.539634022018,
        -2.202392565396 0.954746777916 -2.284349257947,
        -2.615894066891 0.099499994189 -1.971988173324,
        -2.869700000013 0.964747031838 -1.539634022018,
        -0.099499994189 2.615894066891 -1.971988173324,
        -0.954746777916 2.202392565396 -2.284349257947,
        -0.964747031838 2.869700000013 -1.539634022018,
        -1.956193941077 -1.24908715989 -2.372660342055,
        -1.24908715989 -1.956193941077 -2.372660342055,
        -2.071564593483 -2.071564593483 -1.815685940673,
        1.956193941077 1.24908715989 -2.372660342055,
        1.24908715989 1.956193941077 -2.372660342055,
        2.071564593483 2.071564593483 -1.815685940673,
        1.24908715989 -1.956193941077 -2.372660342055,
        1.956193941077 -1.24908715989 -2.372660342055,
        2.071564593483 -2.071564593483 -1.815685940673,
        -1.24908715989 1.956193941077 -2.372660342055,
        -1.956193941077 1.24908715989 -2.372660342055,
        -2.071564593483 2.071564593483 -1.815685940673,
        0.991455957153 -2.239101744633 -2.232434638806,
        0.136209173427 -2.652603246128 -1.920073554184,
        0.136209173427 -2.041162141602 -2.711363498322,
        2.652603246128 -0.136209173427 -1.920073554183,
        2.239101744633 -0.991455957153 -2.232434638806,
        2.041162141602 -0.136209173427 -2.711363498322,
        2.239101744633 0.991455957153 -2.232434638806,
        2.652603246128 0.136209173427 -1.920073554183,
        2.041162141602 0.136209173427 -2.711363498322,
        0.136209173427 2.652603246128 -1.920073554183,
        0.991455957153 2.239101744633 -2.232434638806,
        0.136209173427 2.041162141602 -2.711363498322,
        -0.991455957153 2.239101744633 -2.232434638806,
        -0.136209173427 2.652603246128 -1.920073554183,
        -0.136209173427 2.041162141602 -2.711363498322,
        -2.652603246128 0.136209173427 -1.920073554183,
        -2.239101744633 0.991455957153 -2.232434638806,
        -2.041162141602 0.136209173427 -2.711363498322,
        -2.239101744633 -0.991455957153 -2.232434638806,
        -2.652603246128 -0.136209173427 -1.920073554183,
        -2.041162141602 -0.136209173427 -2.711363498322,
        -0.136209173427 -2.652603246128 -1.920073554184,
        -0.991455957153 -2.239101744633 -2.232434638806,
        -0.136209173427 -2.041162141602 -2.711363498322,
        2.031277607912 -1.324170826726 -2.266476002103,
        1.324170826726 -2.031277607912 -2.266476002103,
        1.283883841155 -1.283883841155 -2.929634743436,
        1.324170826726 2.031277607912 -2.266476002103,
        2.031277607912 1.324170826726 -2.266476002103,
        1.283883841155 1.283883841155 -2.929634743436,
        -2.031277607912 1.324170826726 -2.266476002103,
        -1.324170826726 2.031277607912 -2.266476002103,
        -1.283883841155 1.283883841155 -2.929634743436,
        -1.324170826726 -2.031277607912 -2.266476002103,
        -2.031277607912 -1.324170826726 -2.266476002103,
        -1.283883841155 -1.283883841155 -2.929634743436,
        1.041642864472 -1.362829578728 -3.00389206732,
        1.081929850043 -2.110223345485 -2.340733325987,
        0.226683066316 -1.912283742454 -2.819662185503,
        1.912283742454 -0.226683066316 -2.819662185503,
        2.110223345485 -1.081929850043 -2.340733325987,
        1.362829578728 -1.041642864472 -3.00389206732,
        1.362829578728 1.041642864472 -3.00389206732,
        2.110223345485 1.081929850043 -2.340733325987,
        1.912283742454 0.226683066316 -2.819662185503,
        0.226683066316 1.912283742454 -2.819662185503,
        1.081929850043 2.110223345485 -2.340733325987,
        1.041642864472 1.362829578728 -3.00389206732,
        -1.041642864472 1.362829578728 -3.00389206732,
        -1.081929850043 2.110223345485 -2.340733325987,
        -0.226683066316 1.912283742454 -2.819662185503,
        -1.912283742454 0.226683066316 -2.819662185503,
        -2.110223345485 1.081929850043 -2.340733325987,
        -1.362829578728 1.041642864472 -3.00389206732,
        -1.362829578728 -1.041642864472 -3.00389206732,
        -2.110223345485 -1.081929850043 -2.340733325987,
        -1.912283742454 -0.226683066316 -2.819662185503,
        -0.226683066316 -1.912283742454 -2.819662185503,
        -1.081929850043 -2.110223345485 -2.340733325987,
        -1.041642864472 -1.362829578728 -3.00389206732,
        1.978586217402 -0.292985541264 -2.724109387544,
        1.429132053676 -1.10794533942 -2.90833926936,
        1.321279036707 -0.292985541264 -3.477732151403,
        1.429132053676 1.10794533942 -2.90833926936,
        1.978586217402 0.292985541264 -2.724109387544,
        1.321279036707 0.292985541264 -3.477732151403,
        0.292985541264 1.978586217402 -2.724109387544,
        1.10794533942 1.429132053676 -2.90833926936,
        0.292985541264 1.321279036707 -3.477732151403,
        -1.10794533942 1.429132053676 -2.90833926936,
        -0.292985541264 1.978586217402 -2.724109387544,
        -0.292985541264 1.321279036707 -3.477732151403,
        -1.978586217402 0.292985541264 -2.724109387544,
        -1.429132053676 1.10794533942 -2.90833926936,
        -1.321279036707 0.292985541264 -3.477732151403,
        -1.429132053676 -1.10794533942 -2.90833926936,
        -1.978586217402 -0.292985541264 -2.724109387544,
        -1.321279036707 -0.292985541264 -3.477732151403,
        -0.292985541264 -1.978586217402 -2.724109387544,
        -1.10794533942 -1.429132053676 -2.90833926936,
        -0.292985541264 -1.321279036707 -3.477732151403,
        1.10794533942 -1.429132053676 -2.90833926936,
        0.292985541264 -1.978586217402 -2.724109387544,
        0.292985541264 -1.321279036707 -3.477732151403,
        1.109728349238 -0.402621568052 -3.594580423438,
        1.217581366207 -1.217581366207 -3.025187541395,
        0.402621568052 -1.109728349238 -3.594580423438,
        0.402621568052 1.109728349238 -3.594580423438,
        1.217581366207 1.217581366207 -3.025187541395,
        1.109728349238 0.402621568052 -3.594580423438,
        -1.109728349238 0.402621568052 -3.594580423438,
        -1.217581366207 1.217581366207 -3.025187541395,
        -0.402621568052 1.109728349238 -3.594580423438,
        -1.217581366207 -1.217581366207 -3.025187541395,
        -1.109728349238 -0.402621568052 -3.594580423438,
        -0.402621568052 -1.109728349238 -3.594580423438,
        -0.707106781187 0 -3.942053224097,
        0 0.707106781187 -3.942053224097,
        0.707106781187 0 -3.942053224097,
        0 -0.707106781187 -3.942053224097
      ]
    }
    colorIndex
    [
      20,
      20,
      20,
      20,
      20,
      20,
      20,
      20,
      20,
      20,
      20,
      20,
      20,
      20,
      20,
      20,
      20,
      20,
      7,
      20,
      7,
      20,
      20,
      20,
      7,
      20,
      7,
      20,
      20,
      20,
      7,
      20,
      7,
      20,
      20,
      20,
      7,
      20,
      7,
      20,
      20,
      7,
      20,
      20,
      20,
      20,
      20,
      20,
      20,
      7,
      20,
      20,
      20,
      7,
      20,
      20,
      20,
      20,
      20,
      20,
      20,
      7,
      20,
      20,
      20,
      20,
      20,
      20,
      20,
      20,
      20,
      20,
      20,
      20,
      20,
      20,
      20,
      7,
      7,
      20,
      20,
      7,
      20,
      7,
      20,
      20,
      7,
      7,
      20,
      7,
      7,
      20,
      20,
      7,
      20,
      7,
      20,
      20,
      7,
      7,
      20,
      7,
      20,
      20,
      7,
      20,
      20,
      20,
      7,
      20,
      20,
      7,
      20,
      20,
      20,
      20,
      20,
      20,
      20,
      20,
      20,
      20,
      20,
      20,
      20,
      20,
      20,
      20,
      20,
      20,
      20,
      20,
      20,
      20,
      20,
      20,
      7,
      20,
      20,
      20,
      20,
      20,
      7,
      20,
      20,
      20,
      20,
      20,
      20,
      20,
      20,
      20,
      7,
      20,
      20,
      20,
      20,
      20,
      7,
      20,
      7,
      20,
      20,
      7,
      20,
      20,
      7,
      20,
      20,
      7,
      20,
      20,
      7,
      20,
      20,
      7,
      20,
      20,
      7,
      20,
      20,
      7,
      20,
      20,
      20,
      20,
      7,
      20,
      20,
      20,
      20,
      20,
      7,
      20,
      20,
      20,
      20,
      20,
      20,
      20,
      7,
      20,
      20,
      7,
      20,
      20,
      20,
      20,
      7,
      20,
      20,
      20,
      7,
      20,
      7,
      20,
      20,
      7,
      20,
      20,
      20,
      20,
      20,
      20,
      20,
      20,
      20,
      20,
      20,
      20,
      20,
      20,
      20,
      20,
      20,
      20,
      20,
      20,
      20,
      20,
      20,
      20,
      20,
      20,
      20,
      20,
      20,
      20,
      20,
      20,
      20,
      20,
      20,
      20,
      20,
      20,
      20,
      20,
      20,
      20,
      20,
      20,
      20,
      20,
      20,
      20,
      20,
      20,
      7,
      20,
      20,
      20,
      20,
      20,
      7,
      20,
      20,
      20,
      20,
      7,
      20,
      7,
      20,
      20,
      20,
      20,
      20,
      20,
      20,
      7,
      7,
      20,
      20,
      7,
      20,
      20,
      20,
      20,
      7,
      20,
      20,
      20,
      7,
      20,
      20,
      7,
      20,
      20,
      20,
      20,
      20,
      20,
      7,
      20,
      7,
      20,
      20,
      7,
      20,
      20,
      20,
      20,
      7,
      20,
      20,
      20,
      7,
      20,
      20,
      7,
      20,
      20,
      20,
      20,
      20,
      20,
      20,
      20,
      20,
      20,
      20,
      20,
      20,
      20,
      20,
      20,
      20,
      20,
      20,
      20,
      20,
      20,
      20,
      20,
      20,
      20,
      20,
      20,
      20,
      20,
      20,
      20,
      20,
      20,
      20,
      20,
      20,
      20,
      20,
      20,
      20,
      20,
      20,
      20,
      20,
      20,
      20,
      20,
      20,
      20,
      7,
      20,
      20,
      20,
      20,
      7,
      20,
      7,
      20,
      20,
      7,
      20,
      20,
      20,
      20,
      20,
      7,
      20,
      20,
      20,
      20,
      20,
      7,
      20,
      20,
      20,
      20,
      20,
      20,
      7,
      20,
      20,
      7,
      20,
      20,
      20,
      7,
      20,
      20,
      7,
      20,
      20,
      7,
      20,
      20,
      7,
      20,
      20,
      7,
      20,
      20,
      7,
      20,
      20,
      7,
      20,
      20,
      7,
      20,
      20,
      20,
      20,
      20,
      20,
      7,
      20,
      20,
      20,
      20,
      20,
      7,
      20,
      7,
      20,
      20,
      20,
      20,
      20,
      7,
      20,
      20,
      20,
      20,
      20,
      20,
      20,
      20,
      20,
      20,
      20,
      20,
      20,
      20,
      20,
      20,
      20,
      20,
      20,
      20,
      20,
      20,
      20,
      20,
      20,
      20,
      20,
      20,
      20,
      20,
      20,
      7,
      20,
      20,
      7,
      20,
      7,
      20,
      20,
      7,
      20,
      20,
      7,
      20,
      20,
      7,
      7,
      20,
      7,
      7,
      20,
      20,
      7,
      20,
      7,
      20,
      20,
      7,
      7,
      20,
      7,
      7,
      20,
      20,
      7,
      20,
      20,
      20,
      20,
      20,
      20,
      20,
      20,
      20,
      20,
      20,
      20,
      20,
      20,
      20,
      7,
      20,
      20,
      20,
      7,
      20,
      20,
      20,
      20,
      20,
      20,
      20,
      7,
      20,
      20,
      20,
      7,
      20,
      20,
      20,
      20,
      20,
      20,
      7,
      20,
      7,
      20,
      20,
      20,
      7,
      20,
      7,
      20,
      20,
      20,
      7,
      20,
      7,
      20,
      20,
      20,
      7,
      20,
      7,
      20,
      20,
      20,
      20,
      20,
      20,
      20,
      20,
      20,
      20,
      20,
      20,
      20,
      20,
      20,
      20,
      20
    ]
    colorPerVertex FALSE
    convex FALSE
    coordIndex
    [
      2, 3, 105, 104, -1,
      3, 0, 106, 105, -1,
      0, 1, 107, 106, -1,
      1, 2, 104, 107, -1,
      0, 7, 109, 108, -1,
      7, 1, 110, 109, -1,
      1, 0, 108, 110, -1,
      3, 6, 112, 111, -1,
      6, 0, 113, 112, -1,
      0, 3, 111, 113, -1,
      2, 5, 115, 114, -1,
      5, 3, 116, 115, -1,
      3, 2, 114, 116, -1,
      4, 2, 118, 117, -1,
      2, 1, 119, 118, -1,
      1, 4, 117, 119, -1,
      8, 7, 121, 120, -1,
      7, 0, 122, 121, -1,
      0, 8, 120, 122, -1,
      6, 8, 124, 123, -1,
      8, 0, 125, 124, -1,
      0, 6, 123, 125, -1,
      11, 6, 127, 126, -1,
      6, 3, 128, 127, -1,
      3, 11, 126, 128, -1,
      5, 11, 130, 129, -1,
      11, 3, 131, 130, -1,
      3, 5, 129, 131, -1,
      10, 5, 133, 132, -1,
      5, 2, 134, 133, -1,
      2, 10, 132, 134, -1,
      4, 10, 136, 135, -1,
      10, 2, 137, 136, -1,
      2, 4, 135, 137, -1,
      9, 4, 139, 138, -1,
      4, 1, 140, 139, -1,
      1, 9, 138, 140, -1,
      7, 9, 142, 141, -1,
      9, 1, 143, 142, -1,
      1, 7, 141, 143, -1,
      7, 19, 145, 144, -1,
      19, 9, 146, 145, -1,
      9, 7, 144, 146, -1,
      8, 18, 148, 147, -1,
      18, 7, 149, 148, -1,
      7, 8, 147, 149, -1,
      6, 17, 151, 150, -1,
      17, 8, 152, 151, -1,
      8, 6, 150, 152, -1,
      11, 16, 154, 153, -1,
      16, 6, 155, 154, -1,
      6, 11, 153, 155, -1,
      5, 15, 157, 156, -1,
      15, 11, 158, 157, -1,
      11, 5, 156, 158, -1,
      10, 14, 160, 159, -1,
      14, 5, 161, 160, -1,
      5, 10, 159, 161, -1,
      4, 13, 163, 162, -1,
      13, 10, 164, 163, -1,
      10, 4, 162, 164, -1,
      9, 12, 166, 165, -1,
      12, 4, 167, 166, -1,
      4, 9, 165, 167, -1,
      18, 19, 169, 168, -1,
      19, 7, 170, 169, -1,
      7, 18, 168, 170, -1,
      16, 17, 172, 171, -1,
      17, 6, 173, 172, -1,
      6, 16, 171, 173, -1,
      14, 15, 175, 174, -1,
      15, 5, 176, 175, -1,
      5, 14, 174, 176, -1,
      12, 13, 178, 177, -1,
      13, 4, 179, 178, -1,
      4, 12, 177, 179, -1,
      19, 21, 181, 180, -1,
      21, 9, 182, 181, -1,
      9, 19, 180, 182, -1,
      20, 18, 184, 183, -1,
      18, 8, 185, 184, -1,
      8, 20, 183, 185, -1,
      17, 20, 187, 186, -1,
      20, 8, 188, 187, -1,
      8, 17, 186, 188, -1,
      23, 16, 190, 189, -1,
      16, 11, 191, 190, -1,
      11, 23, 189, 191, -1,
      15, 23, 193, 192, -1,
      23, 11, 194, 193, -1,
      11, 15, 192, 194, -1,
      22, 14, 196, 195, -1,
      14, 10, 197, 196, -1,
      10, 22, 195, 197, -1,
      13, 22, 199, 198, -1,
      22, 10, 200, 199, -1,
      10, 13, 198, 200, -1,
      21, 12, 202, 201, -1,
      12, 9, 203, 202, -1,
      9, 21, 201, 203, -1,
      17, 16, 205, 204, -1,
      16, 26, 206, 205, -1,
      26, 17, 204, 206, -1,
      13, 12, 208, 207, -1,
      12, 24, 209, 208, -1,
      24, 13, 207, 209, -1,
      19, 18, 211, 210, -1,
      18, 27, 212, 211, -1,
      27, 19, 210, 212, -1,
      15, 14, 214, 213, -1,
      14, 25, 215, 214, -1,
      25, 15, 213, 215, -1,
      16, 23, 217, 216, -1,
      23, 32, 218, 217, -1,
      32, 16, 216, 218, -1,
      20, 17, 220, 219, -1,
      17, 33, 221, 220, -1,
      33, 20, 219, 221, -1,
      12, 21, 223, 222, -1,
      21, 28, 224, 223, -1,
      28, 12, 222, 224, -1,
      22, 13, 226, 225, -1,
      13, 29, 227, 226, -1,
      29, 22, 225, 227, -1,
      18, 20, 229, 228, -1,
      20, 34, 230, 229, -1,
      34, 18, 228, 230, -1,
      21, 19, 232, 231, -1,
      19, 35, 233, 232, -1,
      35, 21, 231, 233, -1,
      14, 22, 235, 234, -1,
      22, 30, 236, 235, -1,
      30, 14, 234, 236, -1,
      23, 15, 238, 237, -1,
      15, 31, 239, 238, -1,
      31, 23, 237, 239, -1,
      26, 16, 241, 240, -1,
      16, 32, 242, 241, -1,
      32, 26, 240, 242, -1,
      33, 17, 244, 243, -1,
      17, 26, 245, 244, -1,
      26, 33, 243, 245, -1,
      24, 12, 247, 246, -1,
      12, 28, 248, 247, -1,
      28, 24, 246, 248, -1,
      29, 13, 250, 249, -1,
      13, 24, 251, 250, -1,
      24, 29, 249, 251, -1,
      27, 18, 253, 252, -1,
      18, 34, 254, 253, -1,
      34, 27, 252, 254, -1,
      35, 19, 256, 255, -1,
      19, 27, 257, 256, -1,
      27, 35, 255, 257, -1,
      25, 14, 259, 258, -1,
      14, 30, 260, 259, -1,
      30, 25, 258, 260, -1,
      31, 15, 262, 261, -1,
      15, 25, 263, 262, -1,
      25, 31, 261, 263, -1,
      36, 20, 265, 264, -1,
      20, 33, 266, 265, -1,
      33, 36, 264, 266, -1,
      23, 39, 268, 267, -1,
      39, 32, 269, 268, -1,
      32, 23, 267, 269, -1,
      21, 37, 271, 270, -1,
      37, 28, 272, 271, -1,
      28, 21, 270, 272, -1,
      38, 22, 274, 273, -1,
      22, 29, 275, 274, -1,
      29, 38, 273, 275, -1,
      20, 36, 277, 276, -1,
      36, 34, 278, 277, -1,
      34, 20, 276, 278, -1,
      37, 21, 280, 279, -1,
      21, 35, 281, 280, -1,
      35, 37, 279, 281, -1,
      39, 23, 283, 282, -1,
      23, 31, 284, 283, -1,
      31, 39, 282, 284, -1,
      22, 38, 286, 285, -1,
      38, 30, 287, 286, -1,
      30, 22, 285, 287, -1,
      26, 32, 289, 288, -1,
      32, 44, 290, 289, -1,
      44, 26, 288, 290, -1,
      33, 26, 292, 291, -1,
      26, 45, 293, 292, -1,
      45, 33, 291, 293, -1,
      24, 28, 295, 294, -1,
      28, 40, 296, 295, -1,
      40, 24, 294, 296, -1,
      29, 24, 298, 297, -1,
      24, 41, 299, 298, -1,
      41, 29, 297, 299, -1,
      27, 34, 301, 300, -1,
      34, 46, 302, 301, -1,
      46, 27, 300, 302, -1,
      35, 27, 304, 303, -1,
      27, 47, 305, 304, -1,
      47, 35, 303, 305, -1,
      31, 25, 307, 306, -1,
      25, 43, 308, 307, -1,
      43, 31, 306, 308, -1,
      25, 30, 310, 309, -1,
      30, 42, 311, 310, -1,
      42, 25, 309, 311, -1,
      26, 44, 313, 312, -1,
      44, 45, 314, 313, -1,
      45, 26, 312, 314, -1,
      41, 24, 316, 315, -1,
      24, 40, 317, 316, -1,
      40, 41, 315, 317, -1,
      47, 27, 319, 318, -1,
      27, 46, 320, 319, -1,
      46, 47, 318, 320, -1,
      43, 25, 322, 321, -1,
      25, 42, 323, 322, -1,
      42, 43, 321, 323, -1,
      53, 36, 325, 324, -1,
      36, 33, 326, 325, -1,
      33, 53, 324, 326, -1,
      32, 39, 328, 327, -1,
      39, 52, 329, 328, -1,
      52, 32, 327, 329, -1,
      28, 37, 331, 330, -1,
      37, 48, 332, 331, -1,
      48, 28, 330, 332, -1,
      49, 38, 334, 333, -1,
      38, 29, 335, 334, -1,
      29, 49, 333, 335, -1,
      34, 36, 337, 336, -1,
      36, 54, 338, 337, -1,
      54, 34, 336, 338, -1,
      55, 37, 340, 339, -1,
      37, 35, 341, 340, -1,
      35, 55, 339, 341, -1,
      51, 39, 343, 342, -1,
      39, 31, 344, 343, -1,
      31, 51, 342, 344, -1,
      30, 38, 346, 345, -1,
      38, 50, 347, 346, -1,
      50, 30, 345, 347, -1,
      32, 52, 349, 348, -1,
      52, 44, 350, 349, -1,
      44, 32, 348, 350, -1,
      53, 33, 352, 351, -1,
      33, 45, 353, 352, -1,
      45, 53, 351, 353, -1,
      28, 48, 355, 354, -1,
      48, 40, 356, 355, -1,
      40, 28, 354, 356, -1,
      49, 29, 358, 357, -1,
      29, 41, 359, 358, -1,
      41, 49, 357, 359, -1,
      34, 54, 361, 360, -1,
      54, 46, 362, 361, -1,
      46, 34, 360, 362, -1,
      55, 35, 364, 363, -1,
      35, 47, 365, 364, -1,
      47, 55, 363, 365, -1,
      51, 31, 367, 366, -1,
      31, 43, 368, 367, -1,
      43, 51, 366, 368, -1,
      30, 50, 370, 369, -1,
      50, 42, 371, 370, -1,
      42, 30, 369, 371, -1,
      44, 60, 373, 372, -1,
      60, 61, 374, 373, -1,
      61, 45, 375, 374, -1,
      45, 44, 372, 375, -1,
      57, 41, 377, 376, -1,
      41, 40, 378, 377, -1,
      40, 56, 379, 378, -1,
      56, 57, 376, 379, -1,
      47, 46, 381, 380, -1,
      46, 62, 382, 381, -1,
      62, 63, 383, 382, -1,
      63, 47, 380, 383, -1,
      58, 59, 385, 384, -1,
      59, 43, 386, 385, -1,
      43, 42, 387, 386, -1,
      42, 58, 384, 387, -1,
      61, 53, 389, 388, -1,
      53, 45, 390, 389, -1,
      45, 61, 388, 390, -1,
      44, 52, 392, 391, -1,
      52, 60, 393, 392, -1,
      60, 44, 391, 393, -1,
      64, 36, 395, 394, -1,
      36, 53, 396, 395, -1,
      53, 64, 394, 396, -1,
      39, 67, 398, 397, -1,
      67, 52, 399, 398, -1,
      52, 39, 397, 399, -1,
      40, 48, 401, 400, -1,
      48, 56, 402, 401, -1,
      56, 40, 400, 402, -1,
      57, 49, 404, 403, -1,
      49, 41, 405, 404, -1,
      41, 57, 403, 405, -1,
      37, 65, 407, 406, -1,
      65, 48, 408, 407, -1,
      48, 37, 406, 408, -1,
      66, 38, 410, 409, -1,
      38, 49, 411, 410, -1,
      49, 66, 409, 411, -1,
      46, 54, 413, 412, -1,
      54, 62, 414, 413, -1,
      62, 46, 412, 414, -1,
      55, 47, 416, 415, -1,
      47, 63, 417, 416, -1,
      63, 55, 415, 417, -1,
      36, 64, 419, 418, -1,
      64, 54, 420, 419, -1,
      54, 36, 418, 420, -1,
      65, 37, 422, 421, -1,
      37, 55, 423, 422, -1,
      55, 65, 421, 423, -1,
      59, 51, 425, 424, -1,
      51, 43, 426, 425, -1,
      43, 59, 424, 426, -1,
      50, 58, 428, 427, -1,
      58, 42, 429, 428, -1,
      42, 50, 427, 429, -1,
      67, 39, 431, 430, -1,
      39, 51, 432, 431, -1,
      51, 67, 430, 432, -1,
      38, 66, 434, 433, -1,
      66, 50, 435, 434, -1,
      50, 38, 433, 435, -1,
      73, 53, 437, 436, -1,
      53, 61, 438, 437, -1,
      61, 73, 436, 438, -1,
      52, 72, 440, 439, -1,
      72, 60, 441, 440, -1,
      60, 52, 439, 441, -1,
      69, 49, 443, 442, -1,
      49, 57, 444, 443, -1,
      57, 69, 442, 444, -1,
      48, 68, 446, 445, -1,
      68, 56, 447, 446, -1,
      56, 48, 445, 447, -1,
      54, 74, 449, 448, -1,
      74, 62, 450, 449, -1,
      62, 54, 448, 450, -1,
      75, 55, 452, 451, -1,
      55, 63, 453, 452, -1,
      63, 75, 451, 453, -1,
      71, 51, 455, 454, -1,
      51, 59, 456, 455, -1,
      59, 71, 454, 456, -1,
      50, 70, 458, 457, -1,
      70, 58, 459, 458, -1,
      58, 50, 457, 459, -1,
      73, 64, 461, 460, -1,
      64, 53, 462, 461, -1,
      53, 73, 460, 462, -1,
      52, 67, 464, 463, -1,
      67, 72, 465, 464, -1,
      72, 52, 463, 465, -1,
      48, 65, 467, 466, -1,
      65, 68, 468, 467, -1,
      68, 48, 466, 468, -1,
      69, 66, 470, 469, -1,
      66, 49, 471, 470, -1,
      49, 69, 469, 471, -1,
      54, 64, 473, 472, -1,
      64, 74, 474, 473, -1,
      74, 54, 472, 474, -1,
      75, 65, 476, 475, -1,
      65, 55, 477, 476, -1,
      55, 75, 475, 477, -1,
      71, 67, 479, 478, -1,
      67, 51, 480, 479, -1,
      51, 71, 478, 480, -1,
      50, 66, 482, 481, -1,
      66, 70, 483, 482, -1,
      70, 50, 481, 483, -1,
      60, 78, 485, 484, -1,
      78, 61, 486, 485, -1,
      61, 60, 484, 486, -1,
      76, 57, 488, 487, -1,
      57, 56, 489, 488, -1,
      56, 76, 487, 489, -1,
      62, 79, 491, 490, -1,
      79, 63, 492, 491, -1,
      63, 62, 490, 492, -1,
      58, 77, 494, 493, -1,
      77, 59, 495, 494, -1,
      59, 58, 493, 495, -1,
      78, 73, 497, 496, -1,
      73, 61, 498, 497, -1,
      61, 78, 496, 498, -1,
      72, 78, 500, 499, -1,
      78, 60, 501, 500, -1,
      60, 72, 499, 501, -1,
      76, 69, 503, 502, -1,
      69, 57, 504, 503, -1,
      57, 76, 502, 504, -1,
      68, 76, 506, 505, -1,
      76, 56, 507, 506, -1,
      56, 68, 505, 507, -1,
      74, 79, 509, 508, -1,
      79, 62, 510, 509, -1,
      62, 74, 508, 510, -1,
      79, 75, 512, 511, -1,
      75, 63, 513, 512, -1,
      63, 79, 511, 513, -1,
      77, 71, 515, 514, -1,
      71, 59, 516, 515, -1,
      59, 77, 514, 516, -1,
      70, 77, 518, 517, -1,
      77, 58, 519, 518, -1,
      58, 70, 517, 519, -1,
      80, 64, 521, 520, -1,
      64, 73, 522, 521, -1,
      73, 80, 520, 522, -1,
      67, 83, 524, 523, -1,
      83, 72, 525, 524, -1,
      72, 67, 523, 525, -1,
      65, 81, 527, 526, -1,
      81, 68, 528, 527, -1,
      68, 65, 526, 528, -1,
      82, 66, 530, 529, -1,
      66, 69, 531, 530, -1,
      69, 82, 529, 531, -1,
      64, 80, 533, 532, -1,
      80, 74, 534, 533, -1,
      74, 64, 532, 534, -1,
      81, 65, 536, 535, -1,
      65, 75, 537, 536, -1,
      75, 81, 535, 537, -1,
      83, 67, 539, 538, -1,
      67, 71, 540, 539, -1,
      71, 83, 538, 540, -1,
      66, 82, 542, 541, -1,
      82, 70, 543, 542, -1,
      70, 66, 541, 543, -1,
      78, 89, 545, 544, -1,
      89, 73, 546, 545, -1,
      73, 78, 544, 546, -1,
      72, 88, 548, 547, -1,
      88, 78, 549, 548, -1,
      78, 72, 547, 549, -1,
      76, 85, 551, 550, -1,
      85, 69, 552, 551, -1,
      69, 76, 550, 552, -1,
      68, 84, 554, 553, -1,
      84, 76, 555, 554, -1,
      76, 68, 553, 555, -1,
      79, 91, 557, 556, -1,
      91, 75, 558, 557, -1,
      75, 79, 556, 558, -1,
      74, 90, 560, 559, -1,
      90, 79, 561, 560, -1,
      79, 74, 559, 561, -1,
      77, 87, 563, 562, -1,
      87, 71, 564, 563, -1,
      71, 77, 562, 564, -1,
      70, 86, 566, 565, -1,
      86, 77, 567, 566, -1,
      77, 70, 565, 567, -1,
      89, 80, 569, 568, -1,
      80, 73, 570, 569, -1,
      73, 89, 568, 570, -1,
      83, 88, 572, 571, -1,
      88, 72, 573, 572, -1,
      72, 83, 571, 573, -1,
      85, 82, 575, 574, -1,
      82, 69, 576, 575, -1,
      69, 85, 574, 576, -1,
      81, 84, 578, 577, -1,
      84, 68, 579, 578, -1,
      68, 81, 577, 579, -1,
      91, 81, 581, 580, -1,
      81, 75, 582, 581, -1,
      75, 91, 580, 582, -1,
      80, 90, 584, 583, -1,
      90, 74, 585, 584, -1,
      74, 80, 583, 585, -1,
      87, 83, 587, 586, -1,
      83, 71, 588, 587, -1,
      71, 87, 586, 588, -1,
      82, 86, 590, 589, -1,
      86, 70, 591, 590, -1,
      70, 82, 589, 591, -1,
      88, 89, 593, 592, -1,
      89, 78, 594, 593, -1,
      78, 88, 592, 594, -1,
      84, 85, 596, 595, -1,
      85, 76, 597, 596, -1,
      76, 84, 595, 597, -1,
      90, 91, 599, 598, -1,
      91, 79, 600, 599, -1,
      79, 90, 598, 600, -1,
      86, 87, 602, 601, -1,
      87, 77, 603, 602, -1,
      77, 86, 601, 603, -1,
      90, 80, 605, 604, -1,
      80, 92, 606, 605, -1,
      92, 90, 604, 606, -1,
      81, 91, 608, 607, -1,
      91, 93, 609, 608, -1,
      93, 81, 607, 609, -1,
      84, 81, 611, 610, -1,
      81, 93, 612, 611, -1,
      93, 84, 610, 612, -1,
      82, 85, 614, 613, -1,
      85, 94, 615, 614, -1,
      94, 82, 613, 615, -1,
      86, 82, 617, 616, -1,
      82, 94, 618, 617, -1,
      94, 86, 616, 618, -1,
      83, 87, 620, 619, -1,
      87, 95, 621, 620, -1,
      95, 83, 619, 621, -1,
      88, 83, 623, 622, -1,
      83, 95, 624, 623, -1,
      95, 88, 622, 624, -1,
      80, 89, 626, 625, -1,
      89, 92, 627, 626, -1,
      92, 80, 625, 627, -1,
      91, 90, 629, 628, -1,
      90, 99, 630, 629, -1,
      99, 91, 628, 630, -1,
      85, 84, 632, 631, -1,
      84, 96, 633, 632, -1,
      96, 85, 631, 633, -1,
      87, 86, 635, 634, -1,
      86, 97, 636, 635, -1,
      97, 87, 634, 636, -1,
      89, 88, 638, 637, -1,
      88, 98, 639, 638, -1,
      98, 89, 637, 639, -1,
      99, 90, 641, 640, -1,
      90, 92, 642, 641, -1,
      92, 99, 640, 642, -1,
      93, 91, 644, 643, -1,
      91, 99, 645, 644, -1,
      99, 93, 643, 645, -1,
      96, 84, 647, 646, -1,
      84, 93, 648, 647, -1,
      93, 96, 646, 648, -1,
      94, 85, 650, 649, -1,
      85, 96, 651, 650, -1,
      96, 94, 649, 651, -1,
      97, 86, 653, 652, -1,
      86, 94, 654, 653, -1,
      94, 97, 652, 654, -1,
      95, 87, 656, 655, -1,
      87, 97, 657, 656, -1,
      97, 95, 655, 657, -1,
      98, 88, 659, 658, -1,
      88, 95, 660, 659, -1,
      95, 98, 658, 660, -1,
      92, 89, 662, 661, -1,
      89, 98, 663, 662, -1,
      98, 92, 661, 663, -1,
      93, 99, 665, 664, -1,
      99, 101, 666, 665, -1,
      101, 93, 664, 666, -1,
      96, 93, 668, 667, -1,
      93, 101, 669, 668, -1,
      101, 96, 667, 669, -1,
      94, 96, 671, 670, -1,
      96, 102, 672, 671, -1,
      102, 94, 670, 672, -1,
      97, 94, 674, 673, -1,
      94, 102, 675, 674, -1,
      102, 97, 673, 675, -1,
      95, 97, 677, 676, -1,
      97, 103, 678, 677, -1,
      103, 95, 676, 678, -1,
      98, 95, 680, 679, -1,
      95, 103, 681, 680, -1,
      103, 98, 679, 681, -1,
      92, 98, 683, 682, -1,
      98, 100, 684, 683, -1,
      100, 92, 682, 684, -1,
      99, 92, 686, 685, -1,
      92, 100, 687, 686, -1,
      100, 99, 685, 687, -1,
      101, 99, 689, 688, -1,
      99, 100, 690, 689, -1,
      100, 101, 688, 690, -1,
      102, 96, 692, 691, -1,
      96, 101, 693, 692, -1,
      101, 102, 691, 693, -1,
      103, 97, 695, 694, -1,
      97, 102, 696, 695, -1,
      102, 103, 694, 696, -1,
      98, 103, 698, 697, -1,
      103, 100, 699, 698, -1,
      100, 98, 697, 699, -1,
      103, 102, 701, 700, -1,
      102, 101, 702, 701, -1,
      101, 100, 703, 702, -1,
      100, 103, 700, 703, -1
    ]
    solid FALSE
  }
}