#VRML V2.0 utf8

NavigationInfo
{
  type "EXAMINE"
}

Background
{
  skyColor [ 0.1 0.1 0.1 ]
}

DirectionalLight
{
  direction 0 0 -1
}

Shape
{
  appearance Appearance
  {
    material Material
    {
      ambientIntensity 0.5
      diffuseColor 1 1 1
      specularColor 0.5 0.5 0.5
    }
  }
  geometry IndexedFaceSet
  {
    color Color
    {
      color
      [
        1 0 0,
        0 1 0,
        0 0 1
      ]
    }
    coord Coordinate
    {
      point
      [
        -0.850650808352 0 1.980915947282,
        -0.26286555606 0.809016994375 1.980915947282,
        0.688190960236 0.5 1.980915947282,
        0.688190960236 -0.5 1.980915947282,
        -0.26286555606 -0.809016994375 1.980915947282,
        -1.18063391582 0.857780749849 1.586805132948,
        0.450962027572 1.387918408151 1.586805132948,
        1.459343776495 0 1.586805132948,
        0.450962027572 -1.387918408151 1.586805132948,
        -1.18063391582 -0.857780749849 1.586805132948,
        -1.652943189426 0 1.383984682168,
        -0.510787536269 1.572042391369 1.383984682168,
        1.337259130982 0.971575629622 1.383984682168,
        1.337259130982 -0.971575629622 1.383984682168,
        -0.510787536269 -1.572042391369 1.383984682168,
        -1.33240071639 1.482673761005 0.820988207794,
        0.998372077262 1.725359772904 0.820988207794,
        1.949428593557 -0.416342778529 0.820988207794,
        0.206441052197 -1.982673761005 0.820988207794,
        -1.821841006625 -0.809016994375 0.820988207794,
        -2.096613174287 0.094755352854 0.492817824818,
        -0.557771405699 2.023278635896 0.492817824818,
        1.751891487612 1.155699612841 0.492817824818,
        1.640499889645 -1.309016994375 0.492817824818,
        -0.738006797271 -1.964716607216 0.492817824818,
        -1.898507031113 1.011098131383 0.144866868108,
        0.374940529911 2.11803398875 0.144866868108,
        2.130233022358 0.297918862992 0.144866868108,
        0.941615881863 -1.933910005531 0.144866868108,
        -1.54828240302 -1.493140977594 0.144866868108,
        -1.271930680867 1.734601026616 -0.144866868108,
        1.256655413481 1.745699157999 -0.144866868108,
        2.048586438545 -0.655699612841 -0.144866868108,
        0.009440634432 -2.150943805145 -0.144866868108,
        -2.042751805591 -0.67365676663 -0.144866868108,
        -2.082206286616 0.263025396994 -0.492817824818,
        -0.393285110596 2.06157517478 -0.492817824818,
        1.839142720998 1.011098131383 -0.492817824818,
        1.529937822335 -1.436682163624 -0.492817824818,
        -0.893589146121 -1.899016539533 -0.492817824818,
        -1.657801604018 1.106935857367 -0.820988207794,
        0.540469691326 1.918725009835 -0.820988207794,
        1.991830243147 0.078901413776 -0.820988207794,
        0.690549098758 -1.869961254361 -0.820988207794,
        -1.565047429213 -1.234601026616 -0.820988207794,
        -1.628886120521 0.280982550783 -1.383984682168,
        -0.236123207255 1.635991142539 -1.383984682168,
        1.482953952905 0.730115580599 -1.383984682168,
        1.152639153901 -1.184754898013 -1.383984682168,
        -0.77058377903 -1.462334375909 -1.383984682168,
        -1.017637379524 1.045991597381 -1.586805132948,
        0.680329880295 1.291059840586 -1.586805132948,
        1.438104369108 -0.248072734388 -1.586805132948,
        0.208467499184 -1.44437722212 -1.586805132948,
        -1.309264369063 -0.644601481458 -1.586805132948,
        -0.838270367668 0.144601481458 -1.980915947282,
        -0.121515608284 0.84192681077 -1.980915947282,
        0.763169591585 0.375737903638 -1.980915947282,
        0.593180355064 -0.60970801546 -1.980915947282,
        -0.396563970697 -0.752558180405 -1.980915947282,
        -0.850650808352 0 2.980915947282,
        -0.26286555606 0.809016994375 2.980915947282,
        0.688190960236 0.5 2.980915947282,
        0.688190960236 -0.5 2.980915947282,
        -0.26286555606 -0.809016994375 2.980915947282,
        -1.218818237471 -0.267489294681 2.87136651939,
        -0.631032985179 -1.076506289056 2.87136651939,
        -1.548801344939 -1.12527004453 2.477255705056,
        -1.218818237471 0.267489294681 2.87136651939,
        -1.548801344939 1.12527004453 2.477255705056,
        -0.631032985179 1.076506289056 2.871366519389,
        -0.122238111687 -1.241823764796 2.87136651939,
        0.828818404608 -0.932806770421 2.87136651939,
        0.591589471945 -1.820725178572 2.477255705056,
        1.143270929728 -0.5 2.87136651939,
        1.143270929728 0.5 2.87136651939,
        1.914423745988 0 2.477255705056,
        0.828818404608 0.932806770421 2.87136651939,
        -0.122238111687 1.241823764796 2.87136651939,
        0.591589471945 1.820725178572 2.477255705056,
        -1.441899224345 0.137657474378 2.775570419574,
        -2.244191605419 0.137657474378 2.17863915446,
        -1.771882331813 0.995438224226 2.38145960524,
        -1.441899224345 -0.137657474378 2.775570419574,
        -1.771882331813 -0.995438224226 2.38145960524,
        -2.244191605419 -0.137657474378 2.17863915446,
        -0.314651326475 -1.41386615214 2.775570419574,
        0.399176257157 -1.992767565916 2.38145960524,
        -0.562573306685 -2.176891549134 2.17863915446,
        -0.576491402522 -1.328789154169 2.775570419574,
        -0.824413382732 -2.091814551164 2.17863915446,
        -1.494259762283 -1.377552909643 2.38145960524,
        1.085607943364 -0.958894335536 2.775570419574,
        1.734676114111 -1.430469965158 2.17863915446,
        0.848379010701 -1.846812743687 2.38145960524,
        1.247434009979 -0.736159863188 2.775570419574,
        2.018586826238 -0.236159863188 2.38145960524,
        1.896502180725 -1.20773549281 2.17863915446,
        1.247434009979 0.736159863188 2.775570419574,
        1.896502180725 1.20773549281 2.17863915446,
        2.018586826238 0.236159863188 2.38145960524,
        1.085607943364 0.958894335536 2.775570419574,
        0.848379010701 1.846812743687 2.38145960524,
        1.734676114111 1.430469965158 2.17863915446,
        -0.314651326475 1.41386615214 2.775570419574,
        -0.562573306685 2.176891549134 2.17863915446,
        0.399176257157 1.992767565916 2.38145960524,
        -0.576491402522 1.328789154169 2.775570419574,
        -1.494259762283 1.377552909643 2.38145960524,
        -0.824413382732 2.091814551164 2.17863915446,
        2.220991446794 -0.222734472349 2.195313293252,
        2.711076263855 -0.639077250877 1.429496368098,
        2.098906801281 -1.19431010197 1.992492842472,
        0.898157172751 2.04345965092 2.195313293252,
        1.445567222441 2.380901015673 1.429496368098,
        1.784454276161 1.627116872392 1.992492842472,
        -1.665899786794 1.485661991256 2.195313293252,
        -1.817666587364 2.110555002412 1.429496368098,
        -0.996053407243 2.199923632777 1.992492842472,
        -1.927739862841 -1.12527004453 2.195313293252,
        -2.568946953647 -1.076506289056 1.429496368098,
        -2.400049136447 -0.267489294681 1.992492842472,
        0.47449103009 -2.181117125298 2.195313293252,
        0.229970054715 -2.775872478152 1.429496368098,
        -0.487258533751 -2.365241108517 1.992492842472,
        -0.678065386867 -2.457806234655 1.816928713917,
        0.0391632016 -2.868437604291 1.253932239543,
        -0.905284647869 -2.850480450502 0.925761856567,
        2.12797890742 -1.404382400043 1.816928713917,
        2.740148369995 -0.84914954895 1.253932239543,
        2.431219666083 -1.741823764796 0.925761856567,
        1.993228678995 1.589850178226 1.816928713917,
        1.654341625275 2.343634321508 1.253932239543,
        2.407861035625 1.773974161445 0.925761856567,
        -0.89609583645 2.386963847207 1.816928713917,
        -1.717709016571 2.297595216842 1.253932239543,
        -0.94307970588 2.838200091733 0.925761856567,
        -2.547046363099 -0.114625390735 1.816928713917,
        -2.715944180298 -0.92364238511 1.253932239543,
        -2.99071634796 -0.019870037881 0.925761856567,
        -1.323549224446 -2.640837946901 0.940031420318,
        -2.133824830195 -2.169262317279 0.592080463608,
        -2.4073834338 -1.48513833406 1.268201803294,
        -1.766176342995 -1.533902089534 2.034018728448,
        -1.096329963444 -2.248163731055 1.831198277668,
        2.102586934634 -2.074833919529 0.940031420318,
        1.403702926853 -2.699726930685 0.592080463608,
        0.668528097187 -2.748490686159 1.268201803294,
        0.913049072562 -2.153735333305 2.034018728448,
        1.799346175971 -1.737392554776 1.831198277668,
        2.623019414351 1.358520063621 0.940031420318,
        3.001360949097 0.500739313772 0.592080463608,
        2.820556520296 -0.213522327748 1.268201803294,
        2.330471703235 0.20282045078 2.034018728448,
        2.208387057721 1.174396080402 1.831198277668,
        -0.481471783414 2.914445493246 0.940031420318,
        0.451240152196 3.0092008461 0.592080463608,
        1.074671699546 2.616526630254 1.268201803294,
        0.527261649857 2.279085265501 2.034018728448,
        -0.434487913984 2.463209248719 1.831198277668,
        -2.920585341125 0.442706309564 0.940031420318,
        -2.722479197951 1.359049088093 0.592080463608,
        -2.156372883229 1.830624717714 1.268201803294,
        -2.004606082659 1.205731706558 2.034018728448,
        -2.476915356265 0.34795095671 1.831198277668,
        0.122649915531 -2.961340256335 1.008580681879,
        -0.074350502234 -3.129610300476 0.042725605977,
        -0.821797933937 -2.943383102546 0.680410298903,
        2.854302856013 -0.798457463945 1.008580681879,
        2.953460701001 -1.037814298257 0.042725605977,
        2.545374152101 -1.691131679792 0.680410298903,
        1.64140626367 2.467866405046 1.008580681879,
        1.89968959989 2.488205790142 0.042725605977,
        2.394925674021 1.898206244984 0.680410298903,
        -1.839857995718 2.323682781958 1.008580681879,
        -1.779387960195 2.575610047569 0.042725605977,
        -1.065228685026 2.864287656849 0.680410298903,
        -2.778501039497 -1.031751466723 1.008580681879,
        -2.999411838462 -0.896391238978 0.042725605977,
        -3.053273207159 -0.127979119494 0.680410298903,
        0.392197368022 -2.95639638346 0.952741179866,
        1.127372197688 -2.907632627987 0.27661984018,
        0.195196950256 -3.1246664276 -0.013113896036,
        2.932895697109 -0.540574862067 0.952741179866,
        3.11370012591 0.173686779454 0.27661984018,
        3.032053542097 -0.779931696379 -0.013113896036,
        1.42043185825 2.622302745239 0.952741179866,
        0.7970003109 3.014976961085 0.27661984018,
        1.678715194469 2.642642130335 -0.013113896036,
        -2.055020530008 2.161247087417 0.952741179866,
        -2.62112684473 1.689671457795 0.27661984018,
        -1.994550494485 2.413174353028 -0.013113896036,
        -2.690504393373 -1.286578587129 0.952741179866,
        -2.416945789768 -1.970702570348 0.27661984018,
        -2.911415192339 -1.151218359384 -0.013113896036,
        -1.248316712797 -2.824392885386 0.516066198238,
        -1.403899061648 -2.758692817704 -0.469569451398,
        -2.058592318546 -2.352817255764 0.168115241528,
        2.300406179608 -2.060005144482 0.516066198238,
        2.189844112298 -2.187670313731 -0.469569451398,
        1.601522171826 -2.684898155638 0.168115241528,
        2.670045919725 1.551239689097 0.516066198238,
        2.757297153111 1.406638207639 -0.469569451398,
        3.048387454471 0.693458939248 0.168115241528,
        -0.650227049695 3.018723997041 0.516066198238,
        -0.485740754592 3.057020535926 -0.469569451398,
        0.282484885916 3.113479349896 0.168115241528,
        -3.071908336841 0.31443434373 0.516066198238,
        -3.05750144917 0.48270438787 -0.469569451398,
        -2.873802193667 1.230777122258 0.168115241528,
        -0.998331831284 -2.929957711707 0.469569451398,
        -0.250884399581 -3.116184909636 -0.168115241528,
        -1.153914180134 -2.864257644025 -0.516066198238,
        2.478053872296 -1.854876719285 0.469569451398,
        2.886140421196 -1.20155933775 -0.168115241528,
        2.367491804986 -1.982541888534 -0.516066198238,
        2.529853350316 1.783580854248 0.469569451398,
        2.034617276185 2.373580399407 -0.168115241528,
        2.617104583702 1.63897937279 -0.516066198238,
        -0.914518515248 2.957190308894 0.469569451398,
        -1.628677790416 2.668512699614 -0.168115241528,
        -0.750032220145 2.995486847778 -0.516066198238,
        -3.09505687608 0.04406326785 0.469569451398,
        -3.041195507384 -0.724348851634 -0.168115241528,
        -3.08064998841 0.21233331199 -0.516066198238,
        1.205062319583 -2.889544417219 0.013113896036,
        0.953995536479 -2.82559566605 -0.952741179866,
        0.272887072152 -3.106578216833 -0.27661984018,
        3.120504783153 0.253164040659 0.013113896036,
        2.982102003942 0.034146591443 -0.952741179866,
        3.03885819934 -0.700454435174 -0.27661984018,
        0.723515698462 3.046008399076 0.013113896036,
        0.889044859877 2.846699420161 -0.952741179866,
        1.605230582031 2.673673568325 -0.27661984018,
        -2.673347490109 1.629372679987 0.013113896036,
        -2.432642063015 1.725210405972 -0.952741179866,
        -2.046771139864 2.352875575221 -0.27661984018,
        -2.375735311089 -2.039000702503 0.013113896036,
        -2.392500337282 -1.780460751526 -0.952741179866,
        -2.87020471366 -1.219516491539 -0.27661984018,
        1.44907316119 -2.774919026484 -0.042725605977,
        2.037395101662 -2.277691184577 -0.680410298903,
        1.198006378086 -2.710970275314 -1.008580681879,
        3.08689305523 0.520653335341 -0.042725605977,
        2.79580275387 1.233832603731 -0.680410298903,
        2.948490276018 0.301635886124 -1.008580681879,
        0.458731666577 3.096700484081 -0.042725605977,
        -0.30949397393 3.040241670111 -0.680410298903,
        0.624260827992 2.897391505166 -1.008580681879,
        -2.803381293569 1.393212816799 -0.042725605977,
        -2.987080549072 0.645140082411 -0.680410298903,
        -2.562675866474 1.489050542784 -1.008580681879,
        -2.191316589429 -2.235647609737 -0.042725605977,
        -1.53662333253 -2.641523171676 -0.680410298903,
        -2.208081615622 -1.977107658759 -1.008580681879,
        0.132167876899 -2.33554407947 -2.034018728448,
        -0.846883401315 -2.353501233259 -1.831198277668,
        -0.969888768406 -2.790183396883 -0.940031420318,
        -0.066858987853 -3.042110662495 -0.592080463608,
        0.614249476474 -2.761128111712 -1.268201803294,
        2.262076535947 -0.596023691098 -2.034018728448,
        1.976611320739 -1.532705854722 -1.831198277668,
        2.353909989174 -1.784633120334 -0.940031420318,
        2.872558605384 -1.00365056955 -0.592080463608,
        2.815802409985 -0.269049542934 -1.268201803294,
        1.26587230747 1.967181180271 -2.034018728448,
        2.06849638008 1.406236920285 -1.831198277668,
        2.424685148173 1.687219471068 -0.940031420318,
        1.842197840656 2.421820497685 -0.592080463608,
        1.126012118501 2.594846349521 -1.268201803294,
        -1.479724424514 1.811808522535 -2.034018728448,
        -0.698210252244 2.401808067693 -1.831198277668,
        -0.855372155585 2.827392099935 -0.940031420318,
        -1.734017725857 2.500417951771 -0.592080463608,
        -2.119888649007 1.872752782521 -1.268201803294,
        -2.180392295802 -0.847421932238 -2.034018728448,
        -2.50001404726 0.078162100003 -1.831198277668,
        -2.953334213355 0.060204946214 -0.940031420318,
        -2.91387973233 -0.87647721741 -0.592080463608,
        -2.436175355953 -1.437421477397 -1.268201803294,
        2.691926790305 1.303191945953 -0.925761856567,
        2.335738022211 1.02220939517 -1.816928713917,
        2.844614312453 0.370995228346 -1.253932239543,
        -0.407558066365 2.962882973541 -0.925761856567,
        -0.250396163023 2.5372989413 -1.816928713917,
        0.526196735557 2.820032808596 -1.253932239543,
        -2.943811527707 0.527970436383 -0.925761856567,
        -2.490491361612 0.545927590172 -1.816928713917,
        -2.519406845109 1.371880896756 -1.253932239543,
        -1.411817514232 -2.636579298801 -0.925761856567,
        -1.288812147141 -2.199897135177 -1.816928713917,
        -2.083275797324 -1.972163785884 -1.253932239543,
        2.071260318 -2.157466057077 -0.925761856567,
        1.693961649565 -1.905538791465 -1.816928713917,
        1.231871594423 -2.590745147814 -1.253932239543,
        1.019800774249 -2.591980058154 -1.429496368098,
        1.481890829391 -1.906773701805 -1.992492842472,
        0.537719174675 -2.166396025913 -2.195313293252,
        2.780255294534 0.168922284622 -1.429496368098,
        2.271379004293 0.820136451445 -1.992492842472,
        2.226529420496 -0.158051863542 -2.195313293252,
        0.698491495175 2.696379771508 -1.429496368098,
        -0.078101403406 2.413645904211 -1.992492842472,
        0.838351684144 2.068714602258 -2.195313293252,
        -2.348563809663 1.497532060748 -1.429496368098,
        -2.319648326166 0.671578754164 -1.992492842472,
        -1.70839958517 1.436587800761 -2.195313293252,
        -2.149983754295 -1.770854058723 -1.429496368098,
        -1.355520104112 -1.998587408016 -1.992492842472,
        -1.894200694145 -1.180854513564 -2.195313293252,
        1.466265000364 -1.704527057807 -2.17863915446,
        0.906806201527 -1.129480175255 -2.775570419574,
        0.522093345647 -1.964149381914 -2.38145960524,
        0.054617576522 -2.031620332734 -2.38145960524,
        -0.550413893359 -1.339801291019 -2.775570419574,
        -0.924433701693 -2.049577486523 -2.17863915446,
        1.949063515421 -0.575860806877 -2.38145960524,
        1.104139501377 -0.937496087949 -2.775570419574,
        1.663598300214 -1.512542970502 -2.17863915446,
        2.074202368898 0.867773054977 -2.17863915446,
        1.354418007578 0.513395378015 -2.775570419574,
        2.029352785102 -0.110415260011 -2.38145960524,
        1.149969922241 1.675718781295 -2.38145960524,
        1.232809633531 0.760396844347 -2.775570419574,
        1.952593994851 1.114774521308 -2.17863915446,
        -0.184337436839 2.240840300304 -2.17863915446,
        -0.069729837868 1.446775968535 -2.775570419574,
        0.73211565071 1.895908998351 -2.38145960524,
        -1.238343017436 1.611511969304 -2.38145960524,
        -0.342221246196 1.407447182694 -2.775570419574,
        -0.456828845167 2.201511514462 -2.17863915446,
        -2.188129170264 0.517142413971 -2.17863915446,
        -1.397513417411 0.380761344646 -2.775570419574,
        -1.576880429267 1.282151460568 -2.38145960524,
        -1.915307996748 -0.679749610988 -2.38145960524,
        -1.444313995353 0.109453351928 -2.775570419574,
        -2.234929748206 0.245834421254 -2.17863915446,
        -1.168000762159 -1.921228711446 -2.17863915446,
        -0.793980953826 -1.211452515942 -2.775570419574,
        -1.706681352192 -1.103495816994 -2.38145960524,
        0.273475747889 -1.894790039692 -2.477255705056,
        0.658188603769 -1.060120833033 -2.871366519389,
        -0.331555721992 -1.202970997978 -2.871366519389,
        1.886561067908 -0.325431430959 -2.477255705056,
        1.211626290384 0.298379207068 -2.871366519389,
        1.041637053863 -0.68706671203 -2.871366519389,
        0.89248311393 1.693662354352 -2.477255705056,
        0.090637625352 1.244529324537 -2.87136651939,
        0.97532282522 0.778340417404 -2.871366519389,
        -1.334976169114 1.372172331415 -2.477255705056,
        -1.155609157258 0.470782215492 -2.87136651939,
        -0.438854397873 1.168107544804 -2.87136651939,
        -1.717543760613 -0.845613215116 -2.477255705056,
        -0.804843362247 -0.953569914064 -2.87136651939,
        -1.246549759218 -0.0564102522 -2.87136651939,
        -0.396563970697 -0.752558180405 -2.980915947282,
        0.593180355064 -0.60970801546 -2.980915947282,
        0.763169591585 0.375737903638 -2.980915947282,
        -0.121515608284 0.84192681077 -2.980915947282,
        -0.838270367668 0.144601481458 -2.980915947282
      ]
    }
    colorIndex
    [
      0,
      1,
      1,
      2,
      2,
      2,
      2,
      0,
      2,
      1,
      0,
      2,
      1,
      2,
      1,
      1,
      2,
      1,
      0,
      1,
      0,
      1,
      2,
      0,
      1,
      0,
      2,
      0,
      0,
      0,
      1,
      2,
      0,
      0,
      1,
      2,
      2,
      0,
      0,
      2,
      1,
      1,
      2,
      0,
      0,
      2,
      0,
      1,
      1,
      0,
      1,
      0,
      2,
      0,
      2,
      2,
      2,
      2,
      1,
      2,
      1,
      1,
      1,
      1,
      0,
      1,
      2,
      0,
      0,
      2,
      0,
      2,
      1,
      0,
      2,
      1,
      0,
      1,
      0,
      0,
      2,
      1,
      2,
      1,
      0,
      2,
      1,
      1,
      0,
      0,
      1,
      0,
      1,
      2,
      0,
      1,
      2,
      0,
      2,
      0,
      0,
      2,
      2,
      1,
      0,
      1,
      0,
      2,
      1,
      2,
      2,
      0,
      2,
      1,
      2,
      1,
      1,
      2,
      1,
      0,
      1,
      2,
      1,
      0,
      1,
      1,
      2,
      1,
      0,
      2,
      0,
      2,
      1,
      2,
      2,
      0,
      1,
      2,
      0,
      1,
      2,
      0,
      0,
      1,
      0,
      2,
      1,
      0,
      2,
      0,
      0,
      2,
      0,
      2,
      1,
      0,
      2,
      1,
      0,
      1,
      0,
      0,
      1,
      2,
      0,
      2,
      0,
      2,
      2,
      2,
      1,
      1,
      2,
      1,
      1,
      1,
      0,
      0,
      1,
      2,
      1,
      1,
      2,
      0,
      1,
      2,
      2,
      0,
      1,
      2,
      2,
      1,
      1,
      2,
      0,
      1,
      0,
      2,
      0,
      2,
      0,
      0,
      1,
      2,
      2,
      2,
      0,
      1,
      2,
      1,
      2,
      0,
      0,
      1,
      1,
      1,
      0,
      2,
      1,
      0,
      0,
      2,
      1,
      0,
      2,
      0,
      0,
      1,
      2,
      0,
      1,
      2,
      0,
      0,
      1,
      0,
      1,
      2,
      2,
      0,
      2,
      2,
      2,
      1,
      1,
      2,
      1,
      1,
      1,
      0,
      0,
      1,
      1,
      2,
      0,
      1,
      2,
      0,
      0,
      0,
      1,
      0,
      1,
      0,
      2,
      0,
      0,
      2,
      1,
      0,
      2,
      0,
      2,
      2,
      0,
      0,
      1,
      0,
      2,
      1,
      1,
      2,
      2,
      1,
      1,
      2,
      0,
      1,
      1,
      2,
      0,
      1,
      2,
      2,
      0,
      2,
      1,
      1,
      0,
      2
    ]
    colorPerVertex FALSE
    convex FALSE
    coordIndex
    [
      0, 1, 61, 60, -1,
      1, 2, 62, 61, -1,
      2, 3, 63, 62, -1,
      3, 4, 64, 63, -1,
      4, 0, 60, 64, -1,
      0, 4, 66, 65, -1,
      4, 9, 67, 66, -1,
      9, 0, 65, 67, -1,
      0, 5, 69, 68, -1,
      5, 1, 70, 69, -1,
      1, 0, 68, 70, -1,
      4, 3, 72, 71, -1,
      3, 8, 73, 72, -1,
      8, 4, 71, 73, -1,
      3, 2, 75, 74, -1,
      2, 7, 76, 75, -1,
      7, 3, 74, 76, -1,
      2, 1, 78, 77, -1,
      1, 6, 79, 78, -1,
      6, 2, 77, 79, -1,
      0, 10, 81, 80, -1,
      10, 5, 82, 81, -1,
      5, 0, 80, 82, -1,
      0, 9, 84, 83, -1,
      9, 10, 85, 84, -1,
      10, 0, 83, 85, -1,
      4, 8, 87, 86, -1,
      8, 14, 88, 87, -1,
      14, 4, 86, 88, -1,
      4, 14, 90, 89, -1,
      14, 9, 91, 90, -1,
      9, 4, 89, 91, -1,
      3, 13, 93, 92, -1,
      13, 8, 94, 93, -1,
      8, 3, 92, 94, -1,
      3, 7, 96, 95, -1,
      7, 13, 97, 96, -1,
      13, 3, 95, 97, -1,
      2, 12, 99, 98, -1,
      12, 7, 100, 99, -1,
      7, 2, 98, 100, -1,
      2, 6, 102, 101, -1,
      6, 12, 103, 102, -1,
      12, 2, 101, 103, -1,
      1, 11, 105, 104, -1,
      11, 6, 106, 105, -1,
      6, 1, 104, 106, -1,
      1, 5, 108, 107, -1,
      5, 11, 109, 108, -1,
      11, 1, 107, 109, -1,
      7, 17, 111, 110, -1,
      17, 13, 112, 111, -1,
      13, 7, 110, 112, -1,
      6, 16, 114, 113, -1,
      16, 12, 115, 114, -1,
      12, 6, 113, 115, -1,
      5, 15, 117, 116, -1,
      15, 11, 118, 117, -1,
      11, 5, 116, 118, -1,
      9, 19, 120, 119, -1,
      19, 10, 121, 120, -1,
      10, 9, 119, 121, -1,
      8, 18, 123, 122, -1,
      18, 14, 124, 123, -1,
      14, 8, 122, 124, -1,
      14, 18, 126, 125, -1,
      18, 24, 127, 126, -1,
      24, 14, 125, 127, -1,
      13, 17, 129, 128, -1,
      17, 23, 130, 129, -1,
      23, 13, 128, 130, -1,
      12, 16, 132, 131, -1,
      16, 22, 133, 132, -1,
      22, 12, 131, 133, -1,
      11, 15, 135, 134, -1,
      15, 21, 136, 135, -1,
      21, 11, 134, 136, -1,
      10, 19, 138, 137, -1,
      19, 20, 139, 138, -1,
      20, 10, 137, 139, -1,
      24, 29, 141, 140, -1,
      29, 19, 142, 141, -1,
      19, 9, 143, 142, -1,
      9, 14, 144, 143, -1,
      14, 24, 140, 144, -1,
      23, 28, 146, 145, -1,
      28, 18, 147, 146, -1,
      18, 8, 148, 147, -1,
      8, 13, 149, 148, -1,
      13, 23, 145, 149, -1,
      22, 27, 151, 150, -1,
      27, 17, 152, 151, -1,
      17, 7, 153, 152, -1,
      7, 12, 154, 153, -1,
      12, 22, 150, 154, -1,
      21, 26, 156, 155, -1,
      26, 16, 157, 156, -1,
      16, 6, 158, 157, -1,
      6, 11, 159, 158, -1,
      11, 21, 155, 159, -1,
      20, 25, 161, 160, -1,
      25, 15, 162, 161, -1,
      15, 5, 163, 162, -1,
      5, 10, 164, 163, -1,
      10, 20, 160, 164, -1,
      18, 33, 166, 165, -1,
      33, 24, 167, 166, -1,
      24, 18, 165, 167, -1,
      17, 32, 169, 168, -1,
      32, 23, 170, 169, -1,
      23, 17, 168, 170, -1,
      16, 31, 172, 171, -1,
      31, 22, 173, 172, -1,
      22, 16, 171, 173, -1,
      15, 30, 175, 174, -1,
      30, 21, 176, 175, -1,
      21, 15, 174, 176, -1,
      19, 34, 178, 177, -1,
      34, 20, 179, 178, -1,
      20, 19, 177, 179, -1,
      18, 28, 181, 180, -1,
      28, 33, 182, 181, -1,
      33, 18, 180, 182, -1,
      17, 27, 184, 183, -1,
      27, 32, 185, 184, -1,
      32, 17, 183, 185, -1,
      16, 26, 187, 186, -1,
      26, 31, 188, 187, -1,
      31, 16, 186, 188, -1,
      15, 25, 190, 189, -1,
      25, 30, 191, 190, -1,
      30, 15, 189, 191, -1,
      19, 29, 193, 192, -1,
      29, 34, 194, 193, -1,
      34, 19, 192, 194, -1,
      24, 39, 196, 195, -1,
      39, 29, 197, 196, -1,
      29, 24, 195, 197, -1,
      23, 38, 199, 198, -1,
      38, 28, 200, 199, -1,
      28, 23, 198, 200, -1,
      22, 37, 202, 201, -1,
      37, 27, 203, 202, -1,
      27, 22, 201, 203, -1,
      21, 36, 205, 204, -1,
      36, 26, 206, 205, -1,
      26, 21, 204, 206, -1,
      20, 35, 208, 207, -1,
      35, 25, 209, 208, -1,
      25, 20, 207, 209, -1,
      24, 33, 211, 210, -1,
      33, 39, 212, 211, -1,
      39, 24, 210, 212, -1,
      23, 32, 214, 213, -1,
      32, 38, 215, 214, -1,
      38, 23, 213, 215, -1,
      22, 31, 217, 216, -1,
      31, 37, 218, 217, -1,
      37, 22, 216, 218, -1,
      21, 30, 220, 219, -1,
      30, 36, 221, 220, -1,
      36, 21, 219, 221, -1,
      20, 34, 223, 222, -1,
      34, 35, 224, 223, -1,
      35, 20, 222, 224, -1,
      28, 43, 226, 225, -1,
      43, 33, 227, 226, -1,
      33, 28, 225, 227, -1,
      27, 42, 229, 228, -1,
      42, 32, 230, 229, -1,
      32, 27, 228, 230, -1,
      26, 41, 232, 231, -1,
      41, 31, 233, 232, -1,
      31, 26, 231, 233, -1,
      25, 40, 235, 234, -1,
      40, 30, 236, 235, -1,
      30, 25, 234, 236, -1,
      29, 44, 238, 237, -1,
      44, 34, 239, 238, -1,
      34, 29, 237, 239, -1,
      28, 38, 241, 240, -1,
      38, 43, 242, 241, -1,
      43, 28, 240, 242, -1,
      27, 37, 244, 243, -1,
      37, 42, 245, 244, -1,
      42, 27, 243, 245, -1,
      26, 36, 247, 246, -1,
      36, 41, 248, 247, -1,
      41, 26, 246, 248, -1,
      25, 35, 250, 249, -1,
      35, 40, 251, 250, -1,
      40, 25, 249, 251, -1,
      29, 39, 253, 252, -1,
      39, 44, 254, 253, -1,
      44, 29, 252, 254, -1,
      53, 49, 256, 255, -1,
      49, 39, 257, 256, -1,
      39, 33, 258, 257, -1,
      33, 43, 259, 258, -1,
      43, 53, 255, 259, -1,
      52, 48, 261, 260, -1,
      48, 38, 262, 261, -1,
      38, 32, 263, 262, -1,
      32, 42, 264, 263, -1,
      42, 52, 260, 264, -1,
      51, 47, 266, 265, -1,
      47, 37, 267, 266, -1,
      37, 31, 268, 267, -1,
      31, 41, 269, 268, -1,
      41, 51, 265, 269, -1,
      50, 46, 271, 270, -1,
      46, 36, 272, 271, -1,
      36, 30, 273, 272, -1,
      30, 40, 274, 273, -1,
      40, 50, 270, 274, -1,
      54, 45, 276, 275, -1,
      45, 35, 277, 276, -1,
      35, 34, 278, 277, -1,
      34, 44, 279, 278, -1,
      44, 54, 275, 279, -1,
      37, 47, 281, 280, -1,
      47, 42, 282, 281, -1,
      42, 37, 280, 282, -1,
      36, 46, 284, 283, -1,
      46, 41, 285, 284, -1,
      41, 36, 283, 285, -1,
      35, 45, 287, 286, -1,
      45, 40, 288, 287, -1,
      40, 35, 286, 288, -1,
      39, 49, 290, 289, -1,
      49, 44, 291, 290, -1,
      44, 39, 289, 291, -1,
      38, 48, 293, 292, -1,
      48, 43, 294, 293, -1,
      43, 38, 292, 294, -1,
      43, 48, 296, 295, -1,
      48, 53, 297, 296, -1,
      53, 43, 295, 297, -1,
      42, 47, 299, 298, -1,
      47, 52, 300, 299, -1,
      52, 42, 298, 300, -1,
      41, 46, 302, 301, -1,
      46, 51, 303, 302, -1,
      51, 41, 301, 303, -1,
      40, 45, 305, 304, -1,
      45, 50, 306, 305, -1,
      50, 40, 304, 306, -1,
      44, 49, 308, 307, -1,
      49, 54, 309, 308, -1,
      54, 44, 307, 309, -1,
      48, 58, 311, 310, -1,
      58, 53, 312, 311, -1,
      53, 48, 310, 312, -1,
      53, 59, 314, 313, -1,
      59, 49, 315, 314, -1,
      49, 53, 313, 315, -1,
      52, 58, 317, 316, -1,
      58, 48, 318, 317, -1,
      48, 52, 316, 318, -1,
      47, 57, 320, 319, -1,
      57, 52, 321, 320, -1,
      52, 47, 319, 321, -1,
      51, 57, 323, 322, -1,
      57, 47, 324, 323, -1,
      47, 51, 322, 324, -1,
      46, 56, 326, 325, -1,
      56, 51, 327, 326, -1,
      51, 46, 325, 327, -1,
      50, 56, 329, 328, -1,
      56, 46, 330, 329, -1,
      46, 50, 328, 330, -1,
      45, 55, 332, 331, -1,
      55, 50, 333, 332, -1,
      50, 45, 331, 333, -1,
      54, 55, 335, 334, -1,
      55, 45, 336, 335, -1,
      45, 54, 334, 336, -1,
      49, 59, 338, 337, -1,
      59, 54, 339, 338, -1,
      54, 49, 337, 339, -1,
      53, 58, 341, 340, -1,
      58, 59, 342, 341, -1,
      59, 53, 340, 342, -1,
      52, 57, 344, 343, -1,
      57, 58, 345, 344, -1,
      58, 52, 343, 345, -1,
      51, 56, 347, 346, -1,
      56, 57, 348, 347, -1,
      57, 51, 346, 348, -1,
      50, 55, 350, 349, -1,
      55, 56, 351, 350, -1,
      56, 50, 349, 351, -1,
      54, 59, 353, 352, -1,
      59, 55, 354, 353, -1,
      55, 54, 352, 354, -1,
      59, 58, 356, 355, -1,
      58, 57, 357, 356, -1,
      57, 56, 358, 357, -1,
      56, 55, 359, 358, -1,
      55, 59, 355, 359, -1
    ]
    solid FALSE
  }
}
