#VRML V2.0 utf8

NavigationInfo
{
  type "EXAMINE"
}

Background
{
  skyColor [ 0.1 0.1 0.1 ]
}

DirectionalLight
{
  direction 0 0 -1
}

Shape
{
  appearance Appearance
  {
    material Material
    {
      ambientIntensity 0.5
      diffuseColor 1 1 1
      specularColor 0.5 0.5 0.5
    }
  }
  geometry IndexedFaceSet
  {
    color Color
    {
      color
      [
        1 0 0,
        0 1 0,
        0 0 1
      ]
    }
    coord Coordinate
    {
      point
      [
        0.288675134595 0.5 0.816496580928,
        -0.57735026919 0 0.816496580928,
        0.288675134595 -0.5 0.816496580928,
        0 1 0,
        -0.866025403784 -0.5 0,
        0.866025403784 -0.5 0,
        0.866025403784 0.5 0,
        -0.866025403784 0.5 0,
        0 -1 0,
        0.57735026919 0 -0.816496580928,
        -0.288675134595 0.5 -0.816496580928,
        -0.288675134595 -0.5 -0.816496580928,
        0.288675134595 0.5 1.816496580928,
        -0.57735026919 0 1.816496580928,
        0.288675134595 -0.5 1.816496580928,
        -0.408248290464 1.707106781187 0.57735026919,
        -1.274273694248 1.207106781187 0.57735026919,
        -0.985598559653 0.707106781187 1.393846850117,
        -0.119573155869 1.207106781187 1.393846850117,
        -1.274273694248 -1.207106781187 0.57735026919,
        -0.408248290464 -1.707106781187 0.57735026919,
        -0.119573155869 -1.207106781187 1.393846850117,
        -0.985598559653 -0.707106781187 1.393846850117,
        1.105171715523 0.5 1.393846850117,
        1.105171715523 -0.5 1.393846850117,
        1.682521984712 -0.5 0.57735026919,
        1.682521984712 0.5 0.57735026919,
        1.337429924575 1.316496580928 0.333333333333,
        0.471404520791 1.816496580928 0.333333333333,
        0.760079655386 1.316496580928 1.149829914261,
        -1.808834445367 0.5 0.333333333333,
        -1.808834445367 -0.5 0.333333333333,
        -1.520159310772 0 1.149829914261,
        0.471404520791 -1.816496580928 0.333333333333,
        1.337429924575 -1.316496580928 0.333333333333,
        0.760079655386 -1.316496580928 1.149829914261,
        1.808834445367 -0.5 -0.333333333333,
        1.520159310772 0 -1.149829914261,
        1.808834445367 0.5 -0.333333333333,
        -0.471404520791 1.816496580928 -0.333333333333,
        -0.760079655386 1.316496580928 -1.149829914261,
        -1.337429924575 1.316496580928 -0.333333333333,
        -1.337429924575 -1.316496580928 -0.333333333333,
        -0.760079655386 -1.316496580928 -1.149829914261,
        -0.471404520791 -1.816496580928 -0.333333333333,
        0.408248290464 1.707106781187 -0.57735026919,
        1.274273694248 1.207106781187 -0.57735026919,
        0.985598559653 0.707106781187 -1.393846850117,
        0.119573155869 1.207106781187 -1.393846850117,
        -1.682521984712 -0.5 -0.57735026919,
        -1.682521984712 0.5 -0.57735026919,
        -1.105171715523 0.5 -1.393846850117,
        -1.105171715523 -0.5 -1.393846850117,
        1.274273694248 -1.207106781187 -0.57735026919,
        0.408248290464 -1.707106781187 -0.57735026919,
        0.119573155869 -1.207106781187 -1.393846850117,
        0.985598559653 -0.707106781187 -1.393846850117,
        0.57735026919 0 -1.816496580928,
        -0.288675134595 -0.5 -1.816496580928,
        -0.288675134595 0.5 -1.816496580928
      ]
    }
    colorIndex
    [
      0,
      1,
      2,
      0,
      0,
      0,
      0,
      1,
      1,
      1,
      1,
      2,
      2,
      2,
      2,
      1,
      0,
      2,
      2,
      1,
      0,
      0,
      2,
      1,
      0,
      1,
      2,
      1,
      2,
      0,
      2,
      0,
      1,
      1,
      1,
      1,
      1,
      2,
      2,
      2,
      2,
      0,
      0,
      0,
      0,
      0,
      2,
      1
    ]
    colorPerVertex FALSE
    convex FALSE
    coordIndex
    [
      0, 1, 13, 12, -1,
      1, 2, 14, 13, -1,
      2, 0, 12, 14, -1,
      3, 7, 16, 15, -1,
      7, 1, 17, 16, -1,
      1, 0, 18, 17, -1,
      0, 3, 15, 18, -1,
      4, 8, 20, 19, -1,
      8, 2, 21, 20, -1,
      2, 1, 22, 21, -1,
      1, 4, 19, 22, -1,
      0, 2, 24, 23, -1,
      2, 5, 25, 24, -1,
      5, 6, 26, 25, -1,
      6, 0, 23, 26, -1,
      6, 3, 28, 27, -1,
      3, 0, 29, 28, -1,
      0, 6, 27, 29, -1,
      7, 4, 31, 30, -1,
      4, 1, 32, 31, -1,
      1, 7, 30, 32, -1,
      8, 5, 34, 33, -1,
      5, 2, 35, 34, -1,
      2, 8, 33, 35, -1,
      5, 9, 37, 36, -1,
      9, 6, 38, 37, -1,
      6, 5, 36, 38, -1,
      3, 10, 40, 39, -1,
      10, 7, 41, 40, -1,
      7, 3, 39, 41, -1,
      4, 11, 43, 42, -1,
      11, 8, 44, 43, -1,
      8, 4, 42, 44, -1,
      3, 6, 46, 45, -1,
      6, 9, 47, 46, -1,
      9, 10, 48, 47, -1,
      10, 3, 45, 48, -1,
      4, 7, 50, 49, -1,
      7, 10, 51, 50, -1,
      10, 11, 52, 51, -1,
      11, 4, 49, 52, -1,
      5, 8, 54, 53, -1,
      8, 11, 55, 54, -1,
      11, 9, 56, 55, -1,
      9, 5, 53, 56, -1,
      9, 11, 58, 57, -1,
      11, 10, 59, 58, -1,
      10, 9, 57, 59, -1
    ]
    solid FALSE
  }
}
