#VRML V2.0 utf8

NavigationInfo
{
  type "EXAMINE"
}

Background
{
  skyColor [ 0.1 0.1 0.1 ]
}

DirectionalLight
{
  direction 0 0 -1
}

Shape
{
  appearance Appearance
  {
    material Material
    {
      ambientIntensity 0.5
      diffuseColor 1 1 1
      specularColor 0.5 0.5 0.5
    }
  }
  geometry IndexedFaceSet
  {
    color Color
    {
      color
      [
        1 0 0,
        0 1 0,
        0 0 1
      ]
    }
    coord Coordinate
    {
      point
      [
        0.577350269189626 0 0.204124145231931,
        -0.288675134594813 0.5 0.204124145231931,
        -0.288675134594813 -0.5 0.204124145231931,
        0 0 -0.612372435695795,
        0.577350269189626 0 1.20412414523193,
        -0.288675134594813 0.5 1.20412414523193,
        -0.288675134594813 -0.5 1.20412414523193,
        1.04875478998066 0.816496580927726 -0.129209188101402,
        0.471404520791032 0.816496580927726 -0.945705769029128,
        0.182729386196219 1.31649658092773 -0.129209188101402,
        -1.23148417617688 0.5 -0.129209188101402,
        -0.942809041582063 0 -0.945705769029128,
        -1.23148417617688 -0.5 -0.129209188101402,
        1.04875478998066 -0.816496580927726 -0.129209188101402,
        0.182729386196219 -1.31649658092773 -0.129209188101402,
        0.471404520791032 -0.816496580927726 -0.945705769029128
      ]
    }
    colorIndex
    [
      0,
      2,
      1,
      2,
      1,
      0,
      1,
      0,
      2,
      1,
      0,
      2
    ]
    colorPerVertex FALSE
    convex FALSE
    coordIndex
    [
      0, 1, 5, 4, -1,
      1, 2, 6, 5, -1,
      2, 0, 4, 6, -1,
      0, 3, 8, 7, -1,
      3, 1, 9, 8, -1,
      1, 0, 7, 9, -1,
      1, 3, 11, 10, -1,
      3, 2, 12, 11, -1,
      2, 1, 10, 12, -1,
      0, 2, 14, 13, -1,
      2, 3, 15, 14, -1,
      3, 0, 13, 15, -1
    ]
    solid FALSE
  }
}
